<svg xmlns="http://www.w3.org/2000/svg" width="800" height="300" viewBox="0 0 800 300">
  <rect width="800" height="300" rx="12" fill="#1a1b26"/>
  <rect x="1" y="1" width="798" height="298" rx="11" fill="none" stroke="#414868" stroke-width="1"/>
  <text x="50" y="22" fill="#c0caf5" font-size="13" font-family="monospace" font-weight="bold">📖 Reading Progress</text>
  <text x="780" y="22" fill="#565f89" font-size="10" font-family="monospace" text-anchor="end">Updated 2026-07-10</text>
  <line x1="50" y1="250.0" x2="780" y2="250.0" stroke="#414868" stroke-width="0.5" stroke-dasharray="4,4"/><text x="44" y="254.0" fill="#565f89" font-size="10" font-family="monospace" text-anchor="end">0%</text><line x1="50" y1="197.5" x2="780" y2="197.5" stroke="#414868" stroke-width="0.5" stroke-dasharray="4,4"/><text x="44" y="201.5" fill="#565f89" font-size="10" font-family="monospace" text-anchor="end">25%</text><line x1="50" y1="145.0" x2="780" y2="145.0" stroke="#414868" stroke-width="0.5" stroke-dasharray="4,4"/><text x="44" y="149.0" fill="#565f89" font-size="10" font-family="monospace" text-anchor="end">50%</text><line x1="50" y1="92.5" x2="780" y2="92.5" stroke="#414868" stroke-width="0.5" stroke-dasharray="4,4"/><text x="44" y="96.5" fill="#565f89" font-size="10" font-family="monospace" text-anchor="end">75%</text><line x1="50" y1="40.0" x2="780" y2="40.0" stroke="#414868" stroke-width="0.5" stroke-dasharray="4,4"/><text x="44" y="44.0" fill="#565f89" font-size="10" font-family="monospace" text-anchor="end">100%</text>
  <text x="50.0" y="268" fill="#565f89" font-size="10" font-family="monospace" text-anchor="middle">03-09</text><text x="172.9" y="268" fill="#565f89" font-size="10" font-family="monospace" text-anchor="middle">03-29</text><text x="295.7" y="268" fill="#565f89" font-size="10" font-family="monospace" text-anchor="middle">04-17</text><text x="418.6" y="268" fill="#565f89" font-size="10" font-family="monospace" text-anchor="middle">05-06</text><text x="541.5" y="268" fill="#565f89" font-size="10" font-family="monospace" text-anchor="middle">05-28</text><text x="664.4" y="268" fill="#565f89" font-size="10" font-family="monospace" text-anchor="middle">06-19</text>
  <path d="M 50.0,236.0 L 57.2,234.1 L 64.5,234.0 L 71.7,233.3 L 78.9,231.5 L 86.1,208.1 L 93.4,208.1 L 100.6,208.1 L 107.8,208.1 L 115.0,208.1 L 122.3,208.1 L 129.5,208.1 L 136.7,208.1 L 144.0,208.1 L 151.2,208.1 L 158.4,208.1 L 165.6,208.1 L 172.9,208.1 L 180.1,208.1 L 187.3,208.1 L 194.6,208.1 L 201.8,208.1 L 209.0,208.1 L 216.2,208.1 L 223.5,208.1 L 230.7,208.1 L 237.9,208.1 L 245.1,208.1 L 252.4,208.1 L 259.6,208.1 L 266.8,208.1 L 274.1,208.1 L 281.3,208.1 L 288.5,208.1 L 295.7,208.1 L 303.0,208.1 L 310.2,208.1 L 317.4,208.1 L 324.7,208.1 L 331.9,208.1 L 339.1,208.1 L 346.3,208.1 L 353.6,208.1 L 360.8,208.1 L 368.0,208.1 L 375.2,208.1 L 382.5,208.1 L 389.7,208.1 L 396.9,208.1 L 404.2,208.1 L 411.4,208.1 L 418.6,208.1 L 425.8,208.1 L 433.1,208.1 L 440.3,208.1 L 447.5,208.1 L 454.8,208.1 L 462.0,208.1 L 469.2,208.1 L 476.4,208.1 L 483.7,208.1 L 490.9,208.1 L 498.1,208.1 L 505.3,208.1 L 512.6,208.1 L 519.8,208.1 L 527.0,208.1 L 534.3,208.1 L 541.5,208.1 L 548.7,208.1 L 555.9,208.1 L 563.2,208.1 L 570.4,208.1 L 577.6,208.1 L 584.9,208.1 L 592.1,208.1 L 599.3,208.1 L 606.5,208.1 L 613.8,208.1 L 621.0,208.1 L 628.2,208.1 L 635.4,208.1 L 642.7,208.1 L 649.9,208.1 L 657.1,208.1 L 664.4,208.1 L 671.6,208.1 L 678.8,208.1 L 686.0,208.1 L 693.3,208.1 L 700.5,208.1 L 707.7,208.1 L 715.0,208.1 L 722.2,208.1 L 729.4,208.1 L 736.6,208.1 L 743.9,208.1 L 751.1,208.1 L 758.3,208.1 L 765.5,208.1 L 772.8,208.1 L 780.0,208.1" fill="none" stroke="#7aa2f7" stroke-width="2.5" stroke-linejoin="round" stroke-linecap="round" opacity="0.9"/><path d="M 743.9,244.4 L 751.1,244.4 L 758.3,244.4 L 765.5,244.4 L 772.8,244.4 L 780.0,244.4" fill="none" stroke="#9ece6a" stroke-width="2.5" stroke-linejoin="round" stroke-linecap="round" opacity="0.9"/><path d="M 93.4,239.5 L 100.6,237.4 L 107.8,239.4 L 115.0,239.4 L 122.3,239.4 L 129.5,239.4 L 136.7,239.4 L 144.0,239.4 L 151.2,239.4 L 158.4,239.4 L 165.6,239.4 L 172.9,239.4 L 180.1,239.4 L 187.3,239.4 L 194.6,239.4 L 201.8,239.4 L 209.0,239.4 L 216.2,239.4 L 223.5,239.4 L 230.7,239.4 L 237.9,239.4 L 245.1,239.4 L 252.4,239.4 L 259.6,239.4 L 266.8,239.4 L 274.1,239.4 L 281.3,239.4 L 288.5,239.4 L 295.7,239.4 L 303.0,239.4 L 310.2,239.4 L 317.4,239.4 L 324.7,239.4 L 331.9,239.4 L 339.1,239.4 L 346.3,239.4 L 353.6,239.4 L 360.8,239.4 L 368.0,239.4 L 375.2,239.4 L 382.5,239.4 L 389.7,239.4 L 396.9,239.4 L 404.2,239.4 L 411.4,239.4 L 418.6,239.4 L 425.8,239.4 L 433.1,239.4 L 440.3,239.4 L 447.5,239.4 L 454.8,239.4 L 462.0,239.4 L 469.2,239.4 L 476.4,239.4 L 483.7,239.4 L 490.9,239.4 L 498.1,239.4 L 505.3,239.4 L 512.6,239.4 L 519.8,239.4 L 527.0,239.4 L 534.3,239.4 L 541.5,239.4 L 548.7,239.4 L 555.9,239.4 L 563.2,239.4 L 570.4,239.4 L 577.6,239.4 L 584.9,239.4 L 592.1,239.4 L 599.3,239.4 L 606.5,239.4 L 613.8,239.4 L 621.0,239.4 L 628.2,239.4 L 635.4,239.4 L 642.7,239.4 L 649.9,239.4 L 657.1,239.4 L 664.4,239.4 L 671.6,239.4 L 678.8,239.4 L 686.0,239.4 L 693.3,239.4 L 700.5,239.4 L 707.7,239.4 L 715.0,239.4 L 722.2,239.4 L 729.4,239.4 L 736.6,239.4 L 743.9,239.4 L 751.1,239.4 L 758.3,239.4 L 765.5,239.4 L 772.8,239.4 L 780.0,239.4" fill="none" stroke="#e0af68" stroke-width="2.5" stroke-linejoin="round" stroke-linecap="round" opacity="0.9"/><path d="M 151.2,239.4 L 158.4,239.4 L 165.6,239.4 L 172.9,239.4 L 180.1,239.4 L 187.3,239.4 L 194.6,239.4 L 201.8,239.4 L 209.0,239.4 L 216.2,239.4 L 223.5,237.0 L 230.7,237.0 L 237.9,237.0 L 245.1,237.0 L 252.4,237.0 L 259.6,237.0 L 266.8,237.0 L 274.1,237.0 L 281.3,237.0 L 288.5,237.0 L 295.7,237.0 L 303.0,237.0 L 310.2,237.0 L 317.4,237.0 L 324.7,237.0 L 331.9,237.0 L 339.1,234.6 L 346.3,234.6 L 353.6,234.6 L 360.8,234.6 L 368.0,234.6 L 375.2,232.9 L 382.5,232.9 L 389.7,232.9 L 396.9,232.9 L 404.2,232.9 L 411.4,232.9 L 418.6,232.9 L 425.8,232.9 L 433.1,232.9 L 440.3,232.9 L 447.5,232.9 L 454.8,232.9 L 462.0,232.9 L 469.2,232.9 L 476.4,232.9 L 483.7,232.9 L 490.9,232.9 L 498.1,232.9 L 505.3,232.9 L 512.6,232.9 L 519.8,232.9 L 527.0,232.9 L 534.3,232.9 L 541.5,232.9 L 548.7,232.9 L 555.9,232.9 L 563.2,232.9 L 570.4,232.9 L 577.6,232.9 L 584.9,232.9 L 592.1,232.9 L 599.3,232.9 L 606.5,232.9 L 613.8,232.9 L 621.0,232.9 L 628.2,232.9 L 635.4,232.9 L 642.7,232.9 L 649.9,232.9 L 657.1,232.9 L 664.4,232.9 L 671.6,232.9 L 678.8,232.9 L 686.0,232.9 L 693.3,232.9 L 700.5,232.9 L 707.7,232.9 L 715.0,232.9 L 722.2,232.9 L 729.4,231.3 L 736.6,231.3 L 743.9,228.9 L 751.1,228.9 L 758.3,227.3 L 765.5,227.3 L 772.8,227.3 L 780.0,227.3" fill="none" stroke="#bb9af7" stroke-width="2.5" stroke-linejoin="round" stroke-linecap="round" opacity="0.9"/><path d="M 151.2,249.2 L 158.4,249.2 L 165.6,249.2 L 172.9,249.2 L 180.1,249.2 L 187.3,249.2 L 194.6,249.2 L 201.8,249.2 L 209.0,249.2 L 216.2,249.2 L 223.5,249.2 L 230.7,249.2 L 237.9,249.2 L 245.1,249.2 L 252.4,249.2 L 259.6,249.2 L 266.8,249.2 L 274.1,249.2 L 281.3,249.2 L 288.5,249.2 L 295.7,249.2 L 303.0,249.2 L 310.2,249.2 L 317.4,249.2 L 324.7,249.2 L 331.9,249.2 L 339.1,249.2 L 346.3,249.2 L 353.6,249.2 L 360.8,249.2 L 368.0,249.2 L 375.2,249.2 L 382.5,249.2 L 389.7,249.2 L 396.9,249.2 L 404.2,249.2 L 411.4,249.2 L 418.6,249.2 L 425.8,249.2 L 433.1,249.2 L 440.3,249.2 L 447.5,249.2 L 454.8,249.2 L 462.0,249.2 L 469.2,249.2 L 476.4,249.2 L 483.7,249.2 L 490.9,249.2 L 498.1,249.2 L 505.3,249.2 L 512.6,249.2 L 519.8,249.2 L 527.0,249.2 L 534.3,249.2 L 541.5,249.2 L 548.7,249.2 L 555.9,249.2 L 563.2,249.2 L 570.4,249.2 L 577.6,249.2 L 584.9,249.2 L 592.1,249.2 L 599.3,249.2 L 606.5,249.2 L 613.8,249.2 L 621.0,249.2 L 628.2,249.2 L 635.4,249.2 L 642.7,249.2 L 649.9,249.2 L 657.1,249.2 L 664.4,249.2 L 671.6,249.2 L 678.8,249.2 L 686.0,249.2 L 693.3,249.2 L 700.5,249.2 L 707.7,249.2 L 715.0,249.2 L 722.2,249.2 L 729.4,249.2 L 736.6,249.2 L 743.9,249.2 L 751.1,249.2 L 758.3,249.2 L 765.5,249.2 L 772.8,249.2 L 780.0,249.2" fill="none" stroke="#7dcfff" stroke-width="2.5" stroke-linejoin="round" stroke-linecap="round" opacity="0.9"/>
  <circle cx="50.0" cy="236.0" r="3.5" fill="#7aa2f7" stroke="#1a1b26" stroke-width="1.5"/><circle cx="57.2" cy="234.1" r="3.5" fill="#7aa2f7" stroke="#1a1b26" stroke-width="1.5"/><circle cx="64.5" cy="234.0" r="3.5" fill="#7aa2f7" stroke="#1a1b26" stroke-width="1.5"/><circle cx="71.7" cy="233.3" r="3.5" fill="#7aa2f7" stroke="#1a1b26" stroke-width="1.5"/><circle cx="78.9" cy="231.5" r="3.5" fill="#7aa2f7" stroke="#1a1b26" stroke-width="1.5"/><circle cx="86.1" cy="208.1" r="3.5" fill="#7aa2f7" stroke="#1a1b26" stroke-width="1.5"/><circle cx="93.4" cy="208.1" r="3.5" fill="#7aa2f7" stroke="#1a1b26" stroke-width="1.5"/><circle cx="100.6" cy="208.1" r="3.5" fill="#7aa2f7" stroke="#1a1b26" stroke-width="1.5"/><circle cx="107.8" cy="208.1" r="3.5" fill="#7aa2f7" stroke="#1a1b26" stroke-width="1.5"/><circle cx="115.0" cy="208.1" r="3.5" fill="#7aa2f7" stroke="#1a1b26" stroke-width="1.5"/><circle cx="122.3" cy="208.1" r="3.5" fill="#7aa2f7" stroke="#1a1b26" stroke-width="1.5"/><circle cx="129.5" cy="208.1" r="3.5" fill="#7aa2f7" stroke="#1a1b26" stroke-width="1.5"/><circle cx="136.7" cy="208.1" r="3.5" fill="#7aa2f7" stroke="#1a1b26" stroke-width="1.5"/><circle cx="144.0" cy="208.1" r="3.5" fill="#7aa2f7" stroke="#1a1b26" stroke-width="1.5"/><circle cx="151.2" cy="208.1" r="3.5" fill="#7aa2f7" stroke="#1a1b26" stroke-width="1.5"/><circle cx="158.4" cy="208.1" r="3.5" fill="#7aa2f7" stroke="#1a1b26" stroke-width="1.5"/><circle cx="165.6" cy="208.1" r="3.5" fill="#7aa2f7" stroke="#1a1b26" stroke-width="1.5"/><circle cx="172.9" cy="208.1" r="3.5" fill="#7aa2f7" stroke="#1a1b26" stroke-width="1.5"/><circle cx="180.1" cy="208.1" r="3.5" fill="#7aa2f7" stroke="#1a1b26" stroke-width="1.5"/><circle cx="187.3" cy="208.1" r="3.5" fill="#7aa2f7" stroke="#1a1b26" stroke-width="1.5"/><circle cx="194.6" cy="208.1" r="3.5" fill="#7aa2f7" stroke="#1a1b26" stroke-width="1.5"/><circle cx="201.8" cy="208.1" r="3.5" fill="#7aa2f7" stroke="#1a1b26" stroke-width="1.5"/><circle cx="209.0" cy="208.1" r="3.5" fill="#7aa2f7" stroke="#1a1b26" stroke-width="1.5"/><circle cx="216.2" cy="208.1" r="3.5" fill="#7aa2f7" stroke="#1a1b26" stroke-width="1.5"/><circle cx="223.5" cy="208.1" r="3.5" fill="#7aa2f7" stroke="#1a1b26" stroke-width="1.5"/><circle cx="230.7" cy="208.1" r="3.5" fill="#7aa2f7" stroke="#1a1b26" stroke-width="1.5"/><circle cx="237.9" cy="208.1" r="3.5" fill="#7aa2f7" stroke="#1a1b26" stroke-width="1.5"/><circle cx="245.1" cy="208.1" r="3.5" fill="#7aa2f7" stroke="#1a1b26" stroke-width="1.5"/><circle cx="252.4" cy="208.1" r="3.5" fill="#7aa2f7" stroke="#1a1b26" stroke-width="1.5"/><circle cx="259.6" cy="208.1" r="3.5" fill="#7aa2f7" stroke="#1a1b26" stroke-width="1.5"/><circle cx="266.8" cy="208.1" r="3.5" fill="#7aa2f7" stroke="#1a1b26" stroke-width="1.5"/><circle cx="274.1" cy="208.1" r="3.5" fill="#7aa2f7" stroke="#1a1b26" stroke-width="1.5"/><circle cx="281.3" cy="208.1" r="3.5" fill="#7aa2f7" stroke="#1a1b26" stroke-width="1.5"/><circle cx="288.5" cy="208.1" r="3.5" fill="#7aa2f7" stroke="#1a1b26" stroke-width="1.5"/><circle cx="295.7" cy="208.1" r="3.5" fill="#7aa2f7" stroke="#1a1b26" stroke-width="1.5"/><circle cx="303.0" cy="208.1" r="3.5" fill="#7aa2f7" stroke="#1a1b26" stroke-width="1.5"/><circle cx="310.2" cy="208.1" r="3.5" fill="#7aa2f7" stroke="#1a1b26" stroke-width="1.5"/><circle cx="317.4" cy="208.1" r="3.5" fill="#7aa2f7" stroke="#1a1b26" stroke-width="1.5"/><circle cx="324.7" cy="208.1" r="3.5" fill="#7aa2f7" stroke="#1a1b26" stroke-width="1.5"/><circle cx="331.9" cy="208.1" r="3.5" fill="#7aa2f7" stroke="#1a1b26" stroke-width="1.5"/><circle cx="339.1" cy="208.1" r="3.5" fill="#7aa2f7" stroke="#1a1b26" stroke-width="1.5"/><circle cx="346.3" cy="208.1" r="3.5" fill="#7aa2f7" stroke="#1a1b26" stroke-width="1.5"/><circle cx="353.6" cy="208.1" r="3.5" fill="#7aa2f7" stroke="#1a1b26" stroke-width="1.5"/><circle cx="360.8" cy="208.1" r="3.5" fill="#7aa2f7" stroke="#1a1b26" stroke-width="1.5"/><circle cx="368.0" cy="208.1" r="3.5" fill="#7aa2f7" stroke="#1a1b26" stroke-width="1.5"/><circle cx="375.2" cy="208.1" r="3.5" fill="#7aa2f7" stroke="#1a1b26" stroke-width="1.5"/><circle cx="382.5" cy="208.1" r="3.5" fill="#7aa2f7" stroke="#1a1b26" stroke-width="1.5"/><circle cx="389.7" cy="208.1" r="3.5" fill="#7aa2f7" stroke="#1a1b26" stroke-width="1.5"/><circle cx="396.9" cy="208.1" r="3.5" fill="#7aa2f7" stroke="#1a1b26" stroke-width="1.5"/><circle cx="404.2" cy="208.1" r="3.5" fill="#7aa2f7" stroke="#1a1b26" stroke-width="1.5"/><circle cx="411.4" cy="208.1" r="3.5" fill="#7aa2f7" stroke="#1a1b26" stroke-width="1.5"/><circle cx="418.6" cy="208.1" r="3.5" fill="#7aa2f7" stroke="#1a1b26" stroke-width="1.5"/><circle cx="425.8" cy="208.1" r="3.5" fill="#7aa2f7" stroke="#1a1b26" stroke-width="1.5"/><circle cx="433.1" cy="208.1" r="3.5" fill="#7aa2f7" stroke="#1a1b26" stroke-width="1.5"/><circle cx="440.3" cy="208.1" r="3.5" fill="#7aa2f7" stroke="#1a1b26" stroke-width="1.5"/><circle cx="447.5" cy="208.1" r="3.5" fill="#7aa2f7" stroke="#1a1b26" stroke-width="1.5"/><circle cx="454.8" cy="208.1" r="3.5" fill="#7aa2f7" stroke="#1a1b26" stroke-width="1.5"/><circle cx="462.0" cy="208.1" r="3.5" fill="#7aa2f7" stroke="#1a1b26" stroke-width="1.5"/><circle cx="469.2" cy="208.1" r="3.5" fill="#7aa2f7" stroke="#1a1b26" stroke-width="1.5"/><circle cx="476.4" cy="208.1" r="3.5" fill="#7aa2f7" stroke="#1a1b26" stroke-width="1.5"/><circle cx="483.7" cy="208.1" r="3.5" fill="#7aa2f7" stroke="#1a1b26" stroke-width="1.5"/><circle cx="490.9" cy="208.1" r="3.5" fill="#7aa2f7" stroke="#1a1b26" stroke-width="1.5"/><circle cx="498.1" cy="208.1" r="3.5" fill="#7aa2f7" stroke="#1a1b26" stroke-width="1.5"/><circle cx="505.3" cy="208.1" r="3.5" fill="#7aa2f7" stroke="#1a1b26" stroke-width="1.5"/><circle cx="512.6" cy="208.1" r="3.5" fill="#7aa2f7" stroke="#1a1b26" stroke-width="1.5"/><circle cx="519.8" cy="208.1" r="3.5" fill="#7aa2f7" stroke="#1a1b26" stroke-width="1.5"/><circle cx="527.0" cy="208.1" r="3.5" fill="#7aa2f7" stroke="#1a1b26" stroke-width="1.5"/><circle cx="534.3" cy="208.1" r="3.5" fill="#7aa2f7" stroke="#1a1b26" stroke-width="1.5"/><circle cx="541.5" cy="208.1" r="3.5" fill="#7aa2f7" stroke="#1a1b26" stroke-width="1.5"/><circle cx="548.7" cy="208.1" r="3.5" fill="#7aa2f7" stroke="#1a1b26" stroke-width="1.5"/><circle cx="555.9" cy="208.1" r="3.5" fill="#7aa2f7" stroke="#1a1b26" stroke-width="1.5"/><circle cx="563.2" cy="208.1" r="3.5" fill="#7aa2f7" stroke="#1a1b26" stroke-width="1.5"/><circle cx="570.4" cy="208.1" r="3.5" fill="#7aa2f7" stroke="#1a1b26" stroke-width="1.5"/><circle cx="577.6" cy="208.1" r="3.5" fill="#7aa2f7" stroke="#1a1b26" stroke-width="1.5"/><circle cx="584.9" cy="208.1" r="3.5" fill="#7aa2f7" stroke="#1a1b26" stroke-width="1.5"/><circle cx="592.1" cy="208.1" r="3.5" fill="#7aa2f7" stroke="#1a1b26" stroke-width="1.5"/><circle cx="599.3" cy="208.1" r="3.5" fill="#7aa2f7" stroke="#1a1b26" stroke-width="1.5"/><circle cx="606.5" cy="208.1" r="3.5" fill="#7aa2f7" stroke="#1a1b26" stroke-width="1.5"/><circle cx="613.8" cy="208.1" r="3.5" fill="#7aa2f7" stroke="#1a1b26" stroke-width="1.5"/><circle cx="621.0" cy="208.1" r="3.5" fill="#7aa2f7" stroke="#1a1b26" stroke-width="1.5"/><circle cx="628.2" cy="208.1" r="3.5" fill="#7aa2f7" stroke="#1a1b26" stroke-width="1.5"/><circle cx="635.4" cy="208.1" r="3.5" fill="#7aa2f7" stroke="#1a1b26" stroke-width="1.5"/><circle cx="642.7" cy="208.1" r="3.5" fill="#7aa2f7" stroke="#1a1b26" stroke-width="1.5"/><circle cx="649.9" cy="208.1" r="3.5" fill="#7aa2f7" stroke="#1a1b26" stroke-width="1.5"/><circle cx="657.1" cy="208.1" r="3.5" fill="#7aa2f7" stroke="#1a1b26" stroke-width="1.5"/><circle cx="664.4" cy="208.1" r="3.5" fill="#7aa2f7" stroke="#1a1b26" stroke-width="1.5"/><circle cx="671.6" cy="208.1" r="3.5" fill="#7aa2f7" stroke="#1a1b26" stroke-width="1.5"/><circle cx="678.8" cy="208.1" r="3.5" fill="#7aa2f7" stroke="#1a1b26" stroke-width="1.5"/><circle cx="686.0" cy="208.1" r="3.5" fill="#7aa2f7" stroke="#1a1b26" stroke-width="1.5"/><circle cx="693.3" cy="208.1" r="3.5" fill="#7aa2f7" stroke="#1a1b26" stroke-width="1.5"/><circle cx="700.5" cy="208.1" r="3.5" fill="#7aa2f7" stroke="#1a1b26" stroke-width="1.5"/><circle cx="707.7" cy="208.1" r="3.5" fill="#7aa2f7" stroke="#1a1b26" stroke-width="1.5"/><circle cx="715.0" cy="208.1" r="3.5" fill="#7aa2f7" stroke="#1a1b26" stroke-width="1.5"/><circle cx="722.2" cy="208.1" r="3.5" fill="#7aa2f7" stroke="#1a1b26" stroke-width="1.5"/><circle cx="729.4" cy="208.1" r="3.5" fill="#7aa2f7" stroke="#1a1b26" stroke-width="1.5"/><circle cx="736.6" cy="208.1" r="3.5" fill="#7aa2f7" stroke="#1a1b26" stroke-width="1.5"/><circle cx="743.9" cy="208.1" r="3.5" fill="#7aa2f7" stroke="#1a1b26" stroke-width="1.5"/><circle cx="751.1" cy="208.1" r="3.5" fill="#7aa2f7" stroke="#1a1b26" stroke-width="1.5"/><circle cx="758.3" cy="208.1" r="3.5" fill="#7aa2f7" stroke="#1a1b26" stroke-width="1.5"/><circle cx="765.5" cy="208.1" r="3.5" fill="#7aa2f7" stroke="#1a1b26" stroke-width="1.5"/><circle cx="772.8" cy="208.1" r="3.5" fill="#7aa2f7" stroke="#1a1b26" stroke-width="1.5"/><circle cx="780.0" cy="208.1" r="3.5" fill="#7aa2f7" stroke="#1a1b26" stroke-width="1.5"/><circle cx="743.9" cy="244.4" r="3.5" fill="#9ece6a" stroke="#1a1b26" stroke-width="1.5"/><circle cx="751.1" cy="244.4" r="3.5" fill="#9ece6a" stroke="#1a1b26" stroke-width="1.5"/><circle cx="758.3" cy="244.4" r="3.5" fill="#9ece6a" stroke="#1a1b26" stroke-width="1.5"/><circle cx="765.5" cy="244.4" r="3.5" fill="#9ece6a" stroke="#1a1b26" stroke-width="1.5"/><circle cx="772.8" cy="244.4" r="3.5" fill="#9ece6a" stroke="#1a1b26" stroke-width="1.5"/><circle cx="780.0" cy="244.4" r="3.5" fill="#9ece6a" stroke="#1a1b26" stroke-width="1.5"/><circle cx="93.4" cy="239.5" r="3.5" fill="#e0af68" stroke="#1a1b26" stroke-width="1.5"/><circle cx="100.6" cy="237.4" r="3.5" fill="#e0af68" stroke="#1a1b26" stroke-width="1.5"/><circle cx="107.8" cy="239.4" r="3.5" fill="#e0af68" stroke="#1a1b26" stroke-width="1.5"/><circle cx="115.0" cy="239.4" r="3.5" fill="#e0af68" stroke="#1a1b26" stroke-width="1.5"/><circle cx="122.3" cy="239.4" r="3.5" fill="#e0af68" stroke="#1a1b26" stroke-width="1.5"/><circle cx="129.5" cy="239.4" r="3.5" fill="#e0af68" stroke="#1a1b26" stroke-width="1.5"/><circle cx="136.7" cy="239.4" r="3.5" fill="#e0af68" stroke="#1a1b26" stroke-width="1.5"/><circle cx="144.0" cy="239.4" r="3.5" fill="#e0af68" stroke="#1a1b26" stroke-width="1.5"/><circle cx="151.2" cy="239.4" r="3.5" fill="#e0af68" stroke="#1a1b26" stroke-width="1.5"/><circle cx="158.4" cy="239.4" r="3.5" fill="#e0af68" stroke="#1a1b26" stroke-width="1.5"/><circle cx="165.6" cy="239.4" r="3.5" fill="#e0af68" stroke="#1a1b26" stroke-width="1.5"/><circle cx="172.9" cy="239.4" r="3.5" fill="#e0af68" stroke="#1a1b26" stroke-width="1.5"/><circle cx="180.1" cy="239.4" r="3.5" fill="#e0af68" stroke="#1a1b26" stroke-width="1.5"/><circle cx="187.3" cy="239.4" r="3.5" fill="#e0af68" stroke="#1a1b26" stroke-width="1.5"/><circle cx="194.6" cy="239.4" r="3.5" fill="#e0af68" stroke="#1a1b26" stroke-width="1.5"/><circle cx="201.8" cy="239.4" r="3.5" fill="#e0af68" stroke="#1a1b26" stroke-width="1.5"/><circle cx="209.0" cy="239.4" r="3.5" fill="#e0af68" stroke="#1a1b26" stroke-width="1.5"/><circle cx="216.2" cy="239.4" r="3.5" fill="#e0af68" stroke="#1a1b26" stroke-width="1.5"/><circle cx="223.5" cy="239.4" r="3.5" fill="#e0af68" stroke="#1a1b26" stroke-width="1.5"/><circle cx="230.7" cy="239.4" r="3.5" fill="#e0af68" stroke="#1a1b26" stroke-width="1.5"/><circle cx="237.9" cy="239.4" r="3.5" fill="#e0af68" stroke="#1a1b26" stroke-width="1.5"/><circle cx="245.1" cy="239.4" r="3.5" fill="#e0af68" stroke="#1a1b26" stroke-width="1.5"/><circle cx="252.4" cy="239.4" r="3.5" fill="#e0af68" stroke="#1a1b26" stroke-width="1.5"/><circle cx="259.6" cy="239.4" r="3.5" fill="#e0af68" stroke="#1a1b26" stroke-width="1.5"/><circle cx="266.8" cy="239.4" r="3.5" fill="#e0af68" stroke="#1a1b26" stroke-width="1.5"/><circle cx="274.1" cy="239.4" r="3.5" fill="#e0af68" stroke="#1a1b26" stroke-width="1.5"/><circle cx="281.3" cy="239.4" r="3.5" fill="#e0af68" stroke="#1a1b26" stroke-width="1.5"/><circle cx="288.5" cy="239.4" r="3.5" fill="#e0af68" stroke="#1a1b26" stroke-width="1.5"/><circle cx="295.7" cy="239.4" r="3.5" fill="#e0af68" stroke="#1a1b26" stroke-width="1.5"/><circle cx="303.0" cy="239.4" r="3.5" fill="#e0af68" stroke="#1a1b26" stroke-width="1.5"/><circle cx="310.2" cy="239.4" r="3.5" fill="#e0af68" stroke="#1a1b26" stroke-width="1.5"/><circle cx="317.4" cy="239.4" r="3.5" fill="#e0af68" stroke="#1a1b26" stroke-width="1.5"/><circle cx="324.7" cy="239.4" r="3.5" fill="#e0af68" stroke="#1a1b26" stroke-width="1.5"/><circle cx="331.9" cy="239.4" r="3.5" fill="#e0af68" stroke="#1a1b26" stroke-width="1.5"/><circle cx="339.1" cy="239.4" r="3.5" fill="#e0af68" stroke="#1a1b26" stroke-width="1.5"/><circle cx="346.3" cy="239.4" r="3.5" fill="#e0af68" stroke="#1a1b26" stroke-width="1.5"/><circle cx="353.6" cy="239.4" r="3.5" fill="#e0af68" stroke="#1a1b26" stroke-width="1.5"/><circle cx="360.8" cy="239.4" r="3.5" fill="#e0af68" stroke="#1a1b26" stroke-width="1.5"/><circle cx="368.0" cy="239.4" r="3.5" fill="#e0af68" stroke="#1a1b26" stroke-width="1.5"/><circle cx="375.2" cy="239.4" r="3.5" fill="#e0af68" stroke="#1a1b26" stroke-width="1.5"/><circle cx="382.5" cy="239.4" r="3.5" fill="#e0af68" stroke="#1a1b26" stroke-width="1.5"/><circle cx="389.7" cy="239.4" r="3.5" fill="#e0af68" stroke="#1a1b26" stroke-width="1.5"/><circle cx="396.9" cy="239.4" r="3.5" fill="#e0af68" stroke="#1a1b26" stroke-width="1.5"/><circle cx="404.2" cy="239.4" r="3.5" fill="#e0af68" stroke="#1a1b26" stroke-width="1.5"/><circle cx="411.4" cy="239.4" r="3.5" fill="#e0af68" stroke="#1a1b26" stroke-width="1.5"/><circle cx="418.6" cy="239.4" r="3.5" fill="#e0af68" stroke="#1a1b26" stroke-width="1.5"/><circle cx="425.8" cy="239.4" r="3.5" fill="#e0af68" stroke="#1a1b26" stroke-width="1.5"/><circle cx="433.1" cy="239.4" r="3.5" fill="#e0af68" stroke="#1a1b26" stroke-width="1.5"/><circle cx="440.3" cy="239.4" r="3.5" fill="#e0af68" stroke="#1a1b26" stroke-width="1.5"/><circle cx="447.5" cy="239.4" r="3.5" fill="#e0af68" stroke="#1a1b26" stroke-width="1.5"/><circle cx="454.8" cy="239.4" r="3.5" fill="#e0af68" stroke="#1a1b26" stroke-width="1.5"/><circle cx="462.0" cy="239.4" r="3.5" fill="#e0af68" stroke="#1a1b26" stroke-width="1.5"/><circle cx="469.2" cy="239.4" r="3.5" fill="#e0af68" stroke="#1a1b26" stroke-width="1.5"/><circle cx="476.4" cy="239.4" r="3.5" fill="#e0af68" stroke="#1a1b26" stroke-width="1.5"/><circle cx="483.7" cy="239.4" r="3.5" fill="#e0af68" stroke="#1a1b26" stroke-width="1.5"/><circle cx="490.9" cy="239.4" r="3.5" fill="#e0af68" stroke="#1a1b26" stroke-width="1.5"/><circle cx="498.1" cy="239.4" r="3.5" fill="#e0af68" stroke="#1a1b26" stroke-width="1.5"/><circle cx="505.3" cy="239.4" r="3.5" fill="#e0af68" stroke="#1a1b26" stroke-width="1.5"/><circle cx="512.6" cy="239.4" r="3.5" fill="#e0af68" stroke="#1a1b26" stroke-width="1.5"/><circle cx="519.8" cy="239.4" r="3.5" fill="#e0af68" stroke="#1a1b26" stroke-width="1.5"/><circle cx="527.0" cy="239.4" r="3.5" fill="#e0af68" stroke="#1a1b26" stroke-width="1.5"/><circle cx="534.3" cy="239.4" r="3.5" fill="#e0af68" stroke="#1a1b26" stroke-width="1.5"/><circle cx="541.5" cy="239.4" r="3.5" fill="#e0af68" stroke="#1a1b26" stroke-width="1.5"/><circle cx="548.7" cy="239.4" r="3.5" fill="#e0af68" stroke="#1a1b26" stroke-width="1.5"/><circle cx="555.9" cy="239.4" r="3.5" fill="#e0af68" stroke="#1a1b26" stroke-width="1.5"/><circle cx="563.2" cy="239.4" r="3.5" fill="#e0af68" stroke="#1a1b26" stroke-width="1.5"/><circle cx="570.4" cy="239.4" r="3.5" fill="#e0af68" stroke="#1a1b26" stroke-width="1.5"/><circle cx="577.6" cy="239.4" r="3.5" fill="#e0af68" stroke="#1a1b26" stroke-width="1.5"/><circle cx="584.9" cy="239.4" r="3.5" fill="#e0af68" stroke="#1a1b26" stroke-width="1.5"/><circle cx="592.1" cy="239.4" r="3.5" fill="#e0af68" stroke="#1a1b26" stroke-width="1.5"/><circle cx="599.3" cy="239.4" r="3.5" fill="#e0af68" stroke="#1a1b26" stroke-width="1.5"/><circle cx="606.5" cy="239.4" r="3.5" fill="#e0af68" stroke="#1a1b26" stroke-width="1.5"/><circle cx="613.8" cy="239.4" r="3.5" fill="#e0af68" stroke="#1a1b26" stroke-width="1.5"/><circle cx="621.0" cy="239.4" r="3.5" fill="#e0af68" stroke="#1a1b26" stroke-width="1.5"/><circle cx="628.2" cy="239.4" r="3.5" fill="#e0af68" stroke="#1a1b26" stroke-width="1.5"/><circle cx="635.4" cy="239.4" r="3.5" fill="#e0af68" stroke="#1a1b26" stroke-width="1.5"/><circle cx="642.7" cy="239.4" r="3.5" fill="#e0af68" stroke="#1a1b26" stroke-width="1.5"/><circle cx="649.9" cy="239.4" r="3.5" fill="#e0af68" stroke="#1a1b26" stroke-width="1.5"/><circle cx="657.1" cy="239.4" r="3.5" fill="#e0af68" stroke="#1a1b26" stroke-width="1.5"/><circle cx="664.4" cy="239.4" r="3.5" fill="#e0af68" stroke="#1a1b26" stroke-width="1.5"/><circle cx="671.6" cy="239.4" r="3.5" fill="#e0af68" stroke="#1a1b26" stroke-width="1.5"/><circle cx="678.8" cy="239.4" r="3.5" fill="#e0af68" stroke="#1a1b26" stroke-width="1.5"/><circle cx="686.0" cy="239.4" r="3.5" fill="#e0af68" stroke="#1a1b26" stroke-width="1.5"/><circle cx="693.3" cy="239.4" r="3.5" fill="#e0af68" stroke="#1a1b26" stroke-width="1.5"/><circle cx="700.5" cy="239.4" r="3.5" fill="#e0af68" stroke="#1a1b26" stroke-width="1.5"/><circle cx="707.7" cy="239.4" r="3.5" fill="#e0af68" stroke="#1a1b26" stroke-width="1.5"/><circle cx="715.0" cy="239.4" r="3.5" fill="#e0af68" stroke="#1a1b26" stroke-width="1.5"/><circle cx="722.2" cy="239.4" r="3.5" fill="#e0af68" stroke="#1a1b26" stroke-width="1.5"/><circle cx="729.4" cy="239.4" r="3.5" fill="#e0af68" stroke="#1a1b26" stroke-width="1.5"/><circle cx="736.6" cy="239.4" r="3.5" fill="#e0af68" stroke="#1a1b26" stroke-width="1.5"/><circle cx="743.9" cy="239.4" r="3.5" fill="#e0af68" stroke="#1a1b26" stroke-width="1.5"/><circle cx="751.1" cy="239.4" r="3.5" fill="#e0af68" stroke="#1a1b26" stroke-width="1.5"/><circle cx="758.3" cy="239.4" r="3.5" fill="#e0af68" stroke="#1a1b26" stroke-width="1.5"/><circle cx="765.5" cy="239.4" r="3.5" fill="#e0af68" stroke="#1a1b26" stroke-width="1.5"/><circle cx="772.8" cy="239.4" r="3.5" fill="#e0af68" stroke="#1a1b26" stroke-width="1.5"/><circle cx="780.0" cy="239.4" r="3.5" fill="#e0af68" stroke="#1a1b26" stroke-width="1.5"/><circle cx="151.2" cy="239.4" r="3.5" fill="#bb9af7" stroke="#1a1b26" stroke-width="1.5"/><circle cx="158.4" cy="239.4" r="3.5" fill="#bb9af7" stroke="#1a1b26" stroke-width="1.5"/><circle cx="165.6" cy="239.4" r="3.5" fill="#bb9af7" stroke="#1a1b26" stroke-width="1.5"/><circle cx="172.9" cy="239.4" r="3.5" fill="#bb9af7" stroke="#1a1b26" stroke-width="1.5"/><circle cx="180.1" cy="239.4" r="3.5" fill="#bb9af7" stroke="#1a1b26" stroke-width="1.5"/><circle cx="187.3" cy="239.4" r="3.5" fill="#bb9af7" stroke="#1a1b26" stroke-width="1.5"/><circle cx="194.6" cy="239.4" r="3.5" fill="#bb9af7" stroke="#1a1b26" stroke-width="1.5"/><circle cx="201.8" cy="239.4" r="3.5" fill="#bb9af7" stroke="#1a1b26" stroke-width="1.5"/><circle cx="209.0" cy="239.4" r="3.5" fill="#bb9af7" stroke="#1a1b26" stroke-width="1.5"/><circle cx="216.2" cy="239.4" r="3.5" fill="#bb9af7" stroke="#1a1b26" stroke-width="1.5"/><circle cx="223.5" cy="237.0" r="3.5" fill="#bb9af7" stroke="#1a1b26" stroke-width="1.5"/><circle cx="230.7" cy="237.0" r="3.5" fill="#bb9af7" stroke="#1a1b26" stroke-width="1.5"/><circle cx="237.9" cy="237.0" r="3.5" fill="#bb9af7" stroke="#1a1b26" stroke-width="1.5"/><circle cx="245.1" cy="237.0" r="3.5" fill="#bb9af7" stroke="#1a1b26" stroke-width="1.5"/><circle cx="252.4" cy="237.0" r="3.5" fill="#bb9af7" stroke="#1a1b26" stroke-width="1.5"/><circle cx="259.6" cy="237.0" r="3.5" fill="#bb9af7" stroke="#1a1b26" stroke-width="1.5"/><circle cx="266.8" cy="237.0" r="3.5" fill="#bb9af7" stroke="#1a1b26" stroke-width="1.5"/><circle cx="274.1" cy="237.0" r="3.5" fill="#bb9af7" stroke="#1a1b26" stroke-width="1.5"/><circle cx="281.3" cy="237.0" r="3.5" fill="#bb9af7" stroke="#1a1b26" stroke-width="1.5"/><circle cx="288.5" cy="237.0" r="3.5" fill="#bb9af7" stroke="#1a1b26" stroke-width="1.5"/><circle cx="295.7" cy="237.0" r="3.5" fill="#bb9af7" stroke="#1a1b26" stroke-width="1.5"/><circle cx="303.0" cy="237.0" r="3.5" fill="#bb9af7" stroke="#1a1b26" stroke-width="1.5"/><circle cx="310.2" cy="237.0" r="3.5" fill="#bb9af7" stroke="#1a1b26" stroke-width="1.5"/><circle cx="317.4" cy="237.0" r="3.5" fill="#bb9af7" stroke="#1a1b26" stroke-width="1.5"/><circle cx="324.7" cy="237.0" r="3.5" fill="#bb9af7" stroke="#1a1b26" stroke-width="1.5"/><circle cx="331.9" cy="237.0" r="3.5" fill="#bb9af7" stroke="#1a1b26" stroke-width="1.5"/><circle cx="339.1" cy="234.6" r="3.5" fill="#bb9af7" stroke="#1a1b26" stroke-width="1.5"/><circle cx="346.3" cy="234.6" r="3.5" fill="#bb9af7" stroke="#1a1b26" stroke-width="1.5"/><circle cx="353.6" cy="234.6" r="3.5" fill="#bb9af7" stroke="#1a1b26" stroke-width="1.5"/><circle cx="360.8" cy="234.6" r="3.5" fill="#bb9af7" stroke="#1a1b26" stroke-width="1.5"/><circle cx="368.0" cy="234.6" r="3.5" fill="#bb9af7" stroke="#1a1b26" stroke-width="1.5"/><circle cx="375.2" cy="232.9" r="3.5" fill="#bb9af7" stroke="#1a1b26" stroke-width="1.5"/><circle cx="382.5" cy="232.9" r="3.5" fill="#bb9af7" stroke="#1a1b26" stroke-width="1.5"/><circle cx="389.7" cy="232.9" r="3.5" fill="#bb9af7" stroke="#1a1b26" stroke-width="1.5"/><circle cx="396.9" cy="232.9" r="3.5" fill="#bb9af7" stroke="#1a1b26" stroke-width="1.5"/><circle cx="404.2" cy="232.9" r="3.5" fill="#bb9af7" stroke="#1a1b26" stroke-width="1.5"/><circle cx="411.4" cy="232.9" r="3.5" fill="#bb9af7" stroke="#1a1b26" stroke-width="1.5"/><circle cx="418.6" cy="232.9" r="3.5" fill="#bb9af7" stroke="#1a1b26" stroke-width="1.5"/><circle cx="425.8" cy="232.9" r="3.5" fill="#bb9af7" stroke="#1a1b26" stroke-width="1.5"/><circle cx="433.1" cy="232.9" r="3.5" fill="#bb9af7" stroke="#1a1b26" stroke-width="1.5"/><circle cx="440.3" cy="232.9" r="3.5" fill="#bb9af7" stroke="#1a1b26" stroke-width="1.5"/><circle cx="447.5" cy="232.9" r="3.5" fill="#bb9af7" stroke="#1a1b26" stroke-width="1.5"/><circle cx="454.8" cy="232.9" r="3.5" fill="#bb9af7" stroke="#1a1b26" stroke-width="1.5"/><circle cx="462.0" cy="232.9" r="3.5" fill="#bb9af7" stroke="#1a1b26" stroke-width="1.5"/><circle cx="469.2" cy="232.9" r="3.5" fill="#bb9af7" stroke="#1a1b26" stroke-width="1.5"/><circle cx="476.4" cy="232.9" r="3.5" fill="#bb9af7" stroke="#1a1b26" stroke-width="1.5"/><circle cx="483.7" cy="232.9" r="3.5" fill="#bb9af7" stroke="#1a1b26" stroke-width="1.5"/><circle cx="490.9" cy="232.9" r="3.5" fill="#bb9af7" stroke="#1a1b26" stroke-width="1.5"/><circle cx="498.1" cy="232.9" r="3.5" fill="#bb9af7" stroke="#1a1b26" stroke-width="1.5"/><circle cx="505.3" cy="232.9" r="3.5" fill="#bb9af7" stroke="#1a1b26" stroke-width="1.5"/><circle cx="512.6" cy="232.9" r="3.5" fill="#bb9af7" stroke="#1a1b26" stroke-width="1.5"/><circle cx="519.8" cy="232.9" r="3.5" fill="#bb9af7" stroke="#1a1b26" stroke-width="1.5"/><circle cx="527.0" cy="232.9" r="3.5" fill="#bb9af7" stroke="#1a1b26" stroke-width="1.5"/><circle cx="534.3" cy="232.9" r="3.5" fill="#bb9af7" stroke="#1a1b26" stroke-width="1.5"/><circle cx="541.5" cy="232.9" r="3.5" fill="#bb9af7" stroke="#1a1b26" stroke-width="1.5"/><circle cx="548.7" cy="232.9" r="3.5" fill="#bb9af7" stroke="#1a1b26" stroke-width="1.5"/><circle cx="555.9" cy="232.9" r="3.5" fill="#bb9af7" stroke="#1a1b26" stroke-width="1.5"/><circle cx="563.2" cy="232.9" r="3.5" fill="#bb9af7" stroke="#1a1b26" stroke-width="1.5"/><circle cx="570.4" cy="232.9" r="3.5" fill="#bb9af7" stroke="#1a1b26" stroke-width="1.5"/><circle cx="577.6" cy="232.9" r="3.5" fill="#bb9af7" stroke="#1a1b26" stroke-width="1.5"/><circle cx="584.9" cy="232.9" r="3.5" fill="#bb9af7" stroke="#1a1b26" stroke-width="1.5"/><circle cx="592.1" cy="232.9" r="3.5" fill="#bb9af7" stroke="#1a1b26" stroke-width="1.5"/><circle cx="599.3" cy="232.9" r="3.5" fill="#bb9af7" stroke="#1a1b26" stroke-width="1.5"/><circle cx="606.5" cy="232.9" r="3.5" fill="#bb9af7" stroke="#1a1b26" stroke-width="1.5"/><circle cx="613.8" cy="232.9" r="3.5" fill="#bb9af7" stroke="#1a1b26" stroke-width="1.5"/><circle cx="621.0" cy="232.9" r="3.5" fill="#bb9af7" stroke="#1a1b26" stroke-width="1.5"/><circle cx="628.2" cy="232.9" r="3.5" fill="#bb9af7" stroke="#1a1b26" stroke-width="1.5"/><circle cx="635.4" cy="232.9" r="3.5" fill="#bb9af7" stroke="#1a1b26" stroke-width="1.5"/><circle cx="642.7" cy="232.9" r="3.5" fill="#bb9af7" stroke="#1a1b26" stroke-width="1.5"/><circle cx="649.9" cy="232.9" r="3.5" fill="#bb9af7" stroke="#1a1b26" stroke-width="1.5"/><circle cx="657.1" cy="232.9" r="3.5" fill="#bb9af7" stroke="#1a1b26" stroke-width="1.5"/><circle cx="664.4" cy="232.9" r="3.5" fill="#bb9af7" stroke="#1a1b26" stroke-width="1.5"/><circle cx="671.6" cy="232.9" r="3.5" fill="#bb9af7" stroke="#1a1b26" stroke-width="1.5"/><circle cx="678.8" cy="232.9" r="3.5" fill="#bb9af7" stroke="#1a1b26" stroke-width="1.5"/><circle cx="686.0" cy="232.9" r="3.5" fill="#bb9af7" stroke="#1a1b26" stroke-width="1.5"/><circle cx="693.3" cy="232.9" r="3.5" fill="#bb9af7" stroke="#1a1b26" stroke-width="1.5"/><circle cx="700.5" cy="232.9" r="3.5" fill="#bb9af7" stroke="#1a1b26" stroke-width="1.5"/><circle cx="707.7" cy="232.9" r="3.5" fill="#bb9af7" stroke="#1a1b26" stroke-width="1.5"/><circle cx="715.0" cy="232.9" r="3.5" fill="#bb9af7" stroke="#1a1b26" stroke-width="1.5"/><circle cx="722.2" cy="232.9" r="3.5" fill="#bb9af7" stroke="#1a1b26" stroke-width="1.5"/><circle cx="729.4" cy="231.3" r="3.5" fill="#bb9af7" stroke="#1a1b26" stroke-width="1.5"/><circle cx="736.6" cy="231.3" r="3.5" fill="#bb9af7" stroke="#1a1b26" stroke-width="1.5"/><circle cx="743.9" cy="228.9" r="3.5" fill="#bb9af7" stroke="#1a1b26" stroke-width="1.5"/><circle cx="751.1" cy="228.9" r="3.5" fill="#bb9af7" stroke="#1a1b26" stroke-width="1.5"/><circle cx="758.3" cy="227.3" r="3.5" fill="#bb9af7" stroke="#1a1b26" stroke-width="1.5"/><circle cx="765.5" cy="227.3" r="3.5" fill="#bb9af7" stroke="#1a1b26" stroke-width="1.5"/><circle cx="772.8" cy="227.3" r="3.5" fill="#bb9af7" stroke="#1a1b26" stroke-width="1.5"/><circle cx="780.0" cy="227.3" r="3.5" fill="#bb9af7" stroke="#1a1b26" stroke-width="1.5"/><circle cx="151.2" cy="249.2" r="3.5" fill="#7dcfff" stroke="#1a1b26" stroke-width="1.5"/><circle cx="158.4" cy="249.2" r="3.5" fill="#7dcfff" stroke="#1a1b26" stroke-width="1.5"/><circle cx="165.6" cy="249.2" r="3.5" fill="#7dcfff" stroke="#1a1b26" stroke-width="1.5"/><circle cx="172.9" cy="249.2" r="3.5" fill="#7dcfff" stroke="#1a1b26" stroke-width="1.5"/><circle cx="180.1" cy="249.2" r="3.5" fill="#7dcfff" stroke="#1a1b26" stroke-width="1.5"/><circle cx="187.3" cy="249.2" r="3.5" fill="#7dcfff" stroke="#1a1b26" stroke-width="1.5"/><circle cx="194.6" cy="249.2" r="3.5" fill="#7dcfff" stroke="#1a1b26" stroke-width="1.5"/><circle cx="201.8" cy="249.2" r="3.5" fill="#7dcfff" stroke="#1a1b26" stroke-width="1.5"/><circle cx="209.0" cy="249.2" r="3.5" fill="#7dcfff" stroke="#1a1b26" stroke-width="1.5"/><circle cx="216.2" cy="249.2" r="3.5" fill="#7dcfff" stroke="#1a1b26" stroke-width="1.5"/><circle cx="223.5" cy="249.2" r="3.5" fill="#7dcfff" stroke="#1a1b26" stroke-width="1.5"/><circle cx="230.7" cy="249.2" r="3.5" fill="#7dcfff" stroke="#1a1b26" stroke-width="1.5"/><circle cx="237.9" cy="249.2" r="3.5" fill="#7dcfff" stroke="#1a1b26" stroke-width="1.5"/><circle cx="245.1" cy="249.2" r="3.5" fill="#7dcfff" stroke="#1a1b26" stroke-width="1.5"/><circle cx="252.4" cy="249.2" r="3.5" fill="#7dcfff" stroke="#1a1b26" stroke-width="1.5"/><circle cx="259.6" cy="249.2" r="3.5" fill="#7dcfff" stroke="#1a1b26" stroke-width="1.5"/><circle cx="266.8" cy="249.2" r="3.5" fill="#7dcfff" stroke="#1a1b26" stroke-width="1.5"/><circle cx="274.1" cy="249.2" r="3.5" fill="#7dcfff" stroke="#1a1b26" stroke-width="1.5"/><circle cx="281.3" cy="249.2" r="3.5" fill="#7dcfff" stroke="#1a1b26" stroke-width="1.5"/><circle cx="288.5" cy="249.2" r="3.5" fill="#7dcfff" stroke="#1a1b26" stroke-width="1.5"/><circle cx="295.7" cy="249.2" r="3.5" fill="#7dcfff" stroke="#1a1b26" stroke-width="1.5"/><circle cx="303.0" cy="249.2" r="3.5" fill="#7dcfff" stroke="#1a1b26" stroke-width="1.5"/><circle cx="310.2" cy="249.2" r="3.5" fill="#7dcfff" stroke="#1a1b26" stroke-width="1.5"/><circle cx="317.4" cy="249.2" r="3.5" fill="#7dcfff" stroke="#1a1b26" stroke-width="1.5"/><circle cx="324.7" cy="249.2" r="3.5" fill="#7dcfff" stroke="#1a1b26" stroke-width="1.5"/><circle cx="331.9" cy="249.2" r="3.5" fill="#7dcfff" stroke="#1a1b26" stroke-width="1.5"/><circle cx="339.1" cy="249.2" r="3.5" fill="#7dcfff" stroke="#1a1b26" stroke-width="1.5"/><circle cx="346.3" cy="249.2" r="3.5" fill="#7dcfff" stroke="#1a1b26" stroke-width="1.5"/><circle cx="353.6" cy="249.2" r="3.5" fill="#7dcfff" stroke="#1a1b26" stroke-width="1.5"/><circle cx="360.8" cy="249.2" r="3.5" fill="#7dcfff" stroke="#1a1b26" stroke-width="1.5"/><circle cx="368.0" cy="249.2" r="3.5" fill="#7dcfff" stroke="#1a1b26" stroke-width="1.5"/><circle cx="375.2" cy="249.2" r="3.5" fill="#7dcfff" stroke="#1a1b26" stroke-width="1.5"/><circle cx="382.5" cy="249.2" r="3.5" fill="#7dcfff" stroke="#1a1b26" stroke-width="1.5"/><circle cx="389.7" cy="249.2" r="3.5" fill="#7dcfff" stroke="#1a1b26" stroke-width="1.5"/><circle cx="396.9" cy="249.2" r="3.5" fill="#7dcfff" stroke="#1a1b26" stroke-width="1.5"/><circle cx="404.2" cy="249.2" r="3.5" fill="#7dcfff" stroke="#1a1b26" stroke-width="1.5"/><circle cx="411.4" cy="249.2" r="3.5" fill="#7dcfff" stroke="#1a1b26" stroke-width="1.5"/><circle cx="418.6" cy="249.2" r="3.5" fill="#7dcfff" stroke="#1a1b26" stroke-width="1.5"/><circle cx="425.8" cy="249.2" r="3.5" fill="#7dcfff" stroke="#1a1b26" stroke-width="1.5"/><circle cx="433.1" cy="249.2" r="3.5" fill="#7dcfff" stroke="#1a1b26" stroke-width="1.5"/><circle cx="440.3" cy="249.2" r="3.5" fill="#7dcfff" stroke="#1a1b26" stroke-width="1.5"/><circle cx="447.5" cy="249.2" r="3.5" fill="#7dcfff" stroke="#1a1b26" stroke-width="1.5"/><circle cx="454.8" cy="249.2" r="3.5" fill="#7dcfff" stroke="#1a1b26" stroke-width="1.5"/><circle cx="462.0" cy="249.2" r="3.5" fill="#7dcfff" stroke="#1a1b26" stroke-width="1.5"/><circle cx="469.2" cy="249.2" r="3.5" fill="#7dcfff" stroke="#1a1b26" stroke-width="1.5"/><circle cx="476.4" cy="249.2" r="3.5" fill="#7dcfff" stroke="#1a1b26" stroke-width="1.5"/><circle cx="483.7" cy="249.2" r="3.5" fill="#7dcfff" stroke="#1a1b26" stroke-width="1.5"/><circle cx="490.9" cy="249.2" r="3.5" fill="#7dcfff" stroke="#1a1b26" stroke-width="1.5"/><circle cx="498.1" cy="249.2" r="3.5" fill="#7dcfff" stroke="#1a1b26" stroke-width="1.5"/><circle cx="505.3" cy="249.2" r="3.5" fill="#7dcfff" stroke="#1a1b26" stroke-width="1.5"/><circle cx="512.6" cy="249.2" r="3.5" fill="#7dcfff" stroke="#1a1b26" stroke-width="1.5"/><circle cx="519.8" cy="249.2" r="3.5" fill="#7dcfff" stroke="#1a1b26" stroke-width="1.5"/><circle cx="527.0" cy="249.2" r="3.5" fill="#7dcfff" stroke="#1a1b26" stroke-width="1.5"/><circle cx="534.3" cy="249.2" r="3.5" fill="#7dcfff" stroke="#1a1b26" stroke-width="1.5"/><circle cx="541.5" cy="249.2" r="3.5" fill="#7dcfff" stroke="#1a1b26" stroke-width="1.5"/><circle cx="548.7" cy="249.2" r="3.5" fill="#7dcfff" stroke="#1a1b26" stroke-width="1.5"/><circle cx="555.9" cy="249.2" r="3.5" fill="#7dcfff" stroke="#1a1b26" stroke-width="1.5"/><circle cx="563.2" cy="249.2" r="3.5" fill="#7dcfff" stroke="#1a1b26" stroke-width="1.5"/><circle cx="570.4" cy="249.2" r="3.5" fill="#7dcfff" stroke="#1a1b26" stroke-width="1.5"/><circle cx="577.6" cy="249.2" r="3.5" fill="#7dcfff" stroke="#1a1b26" stroke-width="1.5"/><circle cx="584.9" cy="249.2" r="3.5" fill="#7dcfff" stroke="#1a1b26" stroke-width="1.5"/><circle cx="592.1" cy="249.2" r="3.5" fill="#7dcfff" stroke="#1a1b26" stroke-width="1.5"/><circle cx="599.3" cy="249.2" r="3.5" fill="#7dcfff" stroke="#1a1b26" stroke-width="1.5"/><circle cx="606.5" cy="249.2" r="3.5" fill="#7dcfff" stroke="#1a1b26" stroke-width="1.5"/><circle cx="613.8" cy="249.2" r="3.5" fill="#7dcfff" stroke="#1a1b26" stroke-width="1.5"/><circle cx="621.0" cy="249.2" r="3.5" fill="#7dcfff" stroke="#1a1b26" stroke-width="1.5"/><circle cx="628.2" cy="249.2" r="3.5" fill="#7dcfff" stroke="#1a1b26" stroke-width="1.5"/><circle cx="635.4" cy="249.2" r="3.5" fill="#7dcfff" stroke="#1a1b26" stroke-width="1.5"/><circle cx="642.7" cy="249.2" r="3.5" fill="#7dcfff" stroke="#1a1b26" stroke-width="1.5"/><circle cx="649.9" cy="249.2" r="3.5" fill="#7dcfff" stroke="#1a1b26" stroke-width="1.5"/><circle cx="657.1" cy="249.2" r="3.5" fill="#7dcfff" stroke="#1a1b26" stroke-width="1.5"/><circle cx="664.4" cy="249.2" r="3.5" fill="#7dcfff" stroke="#1a1b26" stroke-width="1.5"/><circle cx="671.6" cy="249.2" r="3.5" fill="#7dcfff" stroke="#1a1b26" stroke-width="1.5"/><circle cx="678.8" cy="249.2" r="3.5" fill="#7dcfff" stroke="#1a1b26" stroke-width="1.5"/><circle cx="686.0" cy="249.2" r="3.5" fill="#7dcfff" stroke="#1a1b26" stroke-width="1.5"/><circle cx="693.3" cy="249.2" r="3.5" fill="#7dcfff" stroke="#1a1b26" stroke-width="1.5"/><circle cx="700.5" cy="249.2" r="3.5" fill="#7dcfff" stroke="#1a1b26" stroke-width="1.5"/><circle cx="707.7" cy="249.2" r="3.5" fill="#7dcfff" stroke="#1a1b26" stroke-width="1.5"/><circle cx="715.0" cy="249.2" r="3.5" fill="#7dcfff" stroke="#1a1b26" stroke-width="1.5"/><circle cx="722.2" cy="249.2" r="3.5" fill="#7dcfff" stroke="#1a1b26" stroke-width="1.5"/><circle cx="729.4" cy="249.2" r="3.5" fill="#7dcfff" stroke="#1a1b26" stroke-width="1.5"/><circle cx="736.6" cy="249.2" r="3.5" fill="#7dcfff" stroke="#1a1b26" stroke-width="1.5"/><circle cx="743.9" cy="249.2" r="3.5" fill="#7dcfff" stroke="#1a1b26" stroke-width="1.5"/><circle cx="751.1" cy="249.2" r="3.5" fill="#7dcfff" stroke="#1a1b26" stroke-width="1.5"/><circle cx="758.3" cy="249.2" r="3.5" fill="#7dcfff" stroke="#1a1b26" stroke-width="1.5"/><circle cx="765.5" cy="249.2" r="3.5" fill="#7dcfff" stroke="#1a1b26" stroke-width="1.5"/><circle cx="772.8" cy="249.2" r="3.5" fill="#7dcfff" stroke="#1a1b26" stroke-width="1.5"/><circle cx="780.0" cy="249.2" r="3.5" fill="#7dcfff" stroke="#1a1b26" stroke-width="1.5"/>
  <rect x="50" y="278" width="10" height="10" rx="2" fill="#7aa2f7"/><text x="64" y="286" fill="#565f89" font-size="11" font-family="monospace">History of God</text><rect x="290" y="278" width="10" height="10" rx="2" fill="#9ece6a"/><text x="304" y="286" fill="#565f89" font-size="11" font-family="monospace">The Prince</text><rect x="530" y="278" width="10" height="10" rx="2" fill="#e0af68"/><text x="544" y="286" fill="#565f89" font-size="11" font-family="monospace">Python for Data Science For …</text><rect x="50" y="278" width="10" height="10" rx="2" fill="#bb9af7"/><text x="64" y="286" fill="#565f89" font-size="11" font-family="monospace">Crucial Conversations: Tools…</text><rect x="290" y="278" width="10" height="10" rx="2" fill="#7dcfff"/><text x="304" y="286" fill="#565f89" font-size="11" font-family="monospace">Eloquent JavaScript</text>
</svg>