<svg xmlns="http://www.w3.org/2000/svg" width="800" height="300" viewBox="0 0 800 300">
  <rect width="800" height="300" rx="12" fill="#1a1b26"/>
  <rect x="1" y="1" width="798" height="298" rx="11" fill="none" stroke="#414868" stroke-width="1"/>
  <text x="50" y="22" fill="#c0caf5" font-size="13" font-family="monospace" font-weight="bold">📖 Reading Progress</text>
  <text x="780" y="22" fill="#565f89" font-size="10" font-family="monospace" text-anchor="end">Updated 2026-07-01</text>
  <line x1="50" y1="250.0" x2="780" y2="250.0" stroke="#414868" stroke-width="0.5" stroke-dasharray="4,4"/><text x="44" y="254.0" fill="#565f89" font-size="10" font-family="monospace" text-anchor="end">0%</text><line x1="50" y1="197.5" x2="780" y2="197.5" stroke="#414868" stroke-width="0.5" stroke-dasharray="4,4"/><text x="44" y="201.5" fill="#565f89" font-size="10" font-family="monospace" text-anchor="end">25%</text><line x1="50" y1="145.0" x2="780" y2="145.0" stroke="#414868" stroke-width="0.5" stroke-dasharray="4,4"/><text x="44" y="149.0" fill="#565f89" font-size="10" font-family="monospace" text-anchor="end">50%</text><line x1="50" y1="92.5" x2="780" y2="92.5" stroke="#414868" stroke-width="0.5" stroke-dasharray="4,4"/><text x="44" y="96.5" fill="#565f89" font-size="10" font-family="monospace" text-anchor="end">75%</text><line x1="50" y1="40.0" x2="780" y2="40.0" stroke="#414868" stroke-width="0.5" stroke-dasharray="4,4"/><text x="44" y="44.0" fill="#565f89" font-size="10" font-family="monospace" text-anchor="end">100%</text>
  <text x="50.0" y="268" fill="#565f89" font-size="10" font-family="monospace" text-anchor="middle">03-09</text><text x="169.0" y="268" fill="#565f89" font-size="10" font-family="monospace" text-anchor="middle">03-27</text><text x="288.0" y="268" fill="#565f89" font-size="10" font-family="monospace" text-anchor="middle">04-13</text><text x="407.1" y="268" fill="#565f89" font-size="10" font-family="monospace" text-anchor="middle">04-29</text><text x="526.1" y="268" fill="#565f89" font-size="10" font-family="monospace" text-anchor="middle">05-16</text><text x="645.1" y="268" fill="#565f89" font-size="10" font-family="monospace" text-anchor="middle">06-05</text><text x="764.1" y="268" fill="#565f89" font-size="10" font-family="monospace" text-anchor="middle">06-28</text>
  <path d="M 50.0,236.0 L 57.9,234.1 L 65.9,234.0 L 73.8,233.3 L 81.7,231.5 L 89.7,208.1 L 97.6,208.1 L 105.5,208.1 L 113.5,208.1 L 121.4,208.1 L 129.3,208.1 L 137.3,208.1 L 145.2,208.1 L 153.2,208.1 L 161.1,208.1 L 169.0,208.1 L 177.0,208.1 L 184.9,208.1 L 192.8,208.1 L 200.8,208.1 L 208.7,208.1 L 216.6,208.1 L 224.6,208.1 L 232.5,208.1 L 240.4,208.1 L 248.4,208.1 L 256.3,208.1 L 264.2,208.1 L 272.2,208.1 L 280.1,208.1 L 288.0,208.1 L 296.0,208.1 L 303.9,208.1 L 311.8,208.1 L 319.8,208.1 L 327.7,208.1 L 335.7,208.1 L 343.6,208.1 L 351.5,208.1 L 359.5,208.1 L 367.4,208.1 L 375.3,208.1 L 383.3,208.1 L 391.2,208.1 L 399.1,208.1 L 407.1,208.1 L 415.0,208.1 L 422.9,208.1 L 430.9,208.1 L 438.8,208.1 L 446.7,208.1 L 454.7,208.1 L 462.6,208.1 L 470.5,208.1 L 478.5,208.1 L 486.4,208.1 L 494.3,208.1 L 502.3,208.1 L 510.2,208.1 L 518.2,208.1 L 526.1,208.1 L 534.0,208.1 L 542.0,208.1 L 549.9,208.1 L 557.8,208.1 L 565.8,208.1 L 573.7,208.1 L 581.6,208.1 L 589.6,208.1 L 597.5,208.1 L 605.4,208.1 L 613.4,208.1 L 621.3,208.1 L 629.2,208.1 L 637.2,208.1 L 645.1,208.1 L 653.0,208.1 L 661.0,208.1 L 668.9,208.1 L 676.8,208.1 L 684.8,208.1 L 692.7,208.1 L 700.7,208.1 L 708.6,208.1 L 716.5,208.1 L 724.5,208.1 L 732.4,208.1 L 740.3,208.1 L 748.3,208.1 L 756.2,208.1 L 764.1,208.1 L 772.1,208.1 L 780.0,208.1" fill="none" stroke="#7aa2f7" stroke-width="2.5" stroke-linejoin="round" stroke-linecap="round" opacity="0.9"/><path d="M 97.6,239.5 L 105.5,237.4 L 113.5,239.4 L 121.4,239.4 L 129.3,239.4 L 137.3,239.4 L 145.2,239.4 L 153.2,239.4 L 161.1,239.4 L 169.0,239.4 L 177.0,239.4 L 184.9,239.4 L 192.8,239.4 L 200.8,239.4 L 208.7,239.4 L 216.6,239.4 L 224.6,239.4 L 232.5,239.4 L 240.4,239.4 L 248.4,239.4 L 256.3,239.4 L 264.2,239.4 L 272.2,239.4 L 280.1,239.4 L 288.0,239.4 L 296.0,239.4 L 303.9,239.4 L 311.8,239.4 L 319.8,239.4 L 327.7,239.4 L 335.7,239.4 L 343.6,239.4 L 351.5,239.4 L 359.5,239.4 L 367.4,239.4 L 375.3,239.4 L 383.3,239.4 L 391.2,239.4 L 399.1,239.4 L 407.1,239.4 L 415.0,239.4 L 422.9,239.4 L 430.9,239.4 L 438.8,239.4 L 446.7,239.4 L 454.7,239.4 L 462.6,239.4 L 470.5,239.4 L 478.5,239.4 L 486.4,239.4 L 494.3,239.4 L 502.3,239.4 L 510.2,239.4 L 518.2,239.4 L 526.1,239.4 L 534.0,239.4 L 542.0,239.4 L 549.9,239.4 L 557.8,239.4 L 565.8,239.4 L 573.7,239.4 L 581.6,239.4 L 589.6,239.4 L 597.5,239.4 L 605.4,239.4 L 613.4,239.4 L 621.3,239.4 L 629.2,239.4 L 637.2,239.4 L 645.1,239.4 L 653.0,239.4 L 661.0,239.4 L 668.9,239.4 L 676.8,239.4 L 684.8,239.4 L 692.7,239.4 L 700.7,239.4 L 708.6,239.4 L 716.5,239.4 L 724.5,239.4 L 732.4,239.4 L 740.3,239.4 L 748.3,239.4 L 756.2,239.4 L 764.1,239.4 L 772.1,239.4 L 780.0,239.4" fill="none" stroke="#9ece6a" stroke-width="2.5" stroke-linejoin="round" stroke-linecap="round" opacity="0.9"/><path d="M 161.1,239.4 L 169.0,239.4 L 177.0,239.4 L 184.9,239.4 L 192.8,239.4 L 200.8,239.4 L 208.7,239.4 L 216.6,239.4 L 224.6,239.4 L 232.5,239.4 L 240.4,237.0 L 248.4,237.0 L 256.3,237.0 L 264.2,237.0 L 272.2,237.0 L 280.1,237.0 L 288.0,237.0 L 296.0,237.0 L 303.9,237.0 L 311.8,237.0 L 319.8,237.0 L 327.7,237.0 L 335.7,237.0 L 343.6,237.0 L 351.5,237.0 L 359.5,237.0 L 367.4,234.6 L 375.3,234.6 L 383.3,234.6 L 391.2,234.6 L 399.1,234.6 L 407.1,232.9 L 415.0,232.9 L 422.9,232.9 L 430.9,232.9 L 438.8,232.9 L 446.7,232.9 L 454.7,232.9 L 462.6,232.9 L 470.5,232.9 L 478.5,232.9 L 486.4,232.9 L 494.3,232.9 L 502.3,232.9 L 510.2,232.9 L 518.2,232.9 L 526.1,232.9 L 534.0,232.9 L 542.0,232.9 L 549.9,232.9 L 557.8,232.9 L 565.8,232.9 L 573.7,232.9 L 581.6,232.9 L 589.6,232.9 L 597.5,232.9 L 605.4,232.9 L 613.4,232.9 L 621.3,232.9 L 629.2,232.9 L 637.2,232.9 L 645.1,232.9 L 653.0,232.9 L 661.0,232.9 L 668.9,232.9 L 676.8,232.9 L 684.8,232.9 L 692.7,232.9 L 700.7,232.9 L 708.6,232.9 L 716.5,232.9 L 724.5,232.9 L 732.4,232.9 L 740.3,232.9 L 748.3,232.9 L 756.2,232.9 L 764.1,232.9 L 772.1,232.9 L 780.0,232.9" fill="none" stroke="#e0af68" stroke-width="2.5" stroke-linejoin="round" stroke-linecap="round" opacity="0.9"/><path d="M 161.1,249.2 L 169.0,249.2 L 177.0,249.2 L 184.9,249.2 L 192.8,249.2 L 200.8,249.2 L 208.7,249.2 L 216.6,249.2 L 224.6,249.2 L 232.5,249.2 L 240.4,249.2 L 248.4,249.2 L 256.3,249.2 L 264.2,249.2 L 272.2,249.2 L 280.1,249.2 L 288.0,249.2 L 296.0,249.2 L 303.9,249.2 L 311.8,249.2 L 319.8,249.2 L 327.7,249.2 L 335.7,249.2 L 343.6,249.2 L 351.5,249.2 L 359.5,249.2 L 367.4,249.2 L 375.3,249.2 L 383.3,249.2 L 391.2,249.2 L 399.1,249.2 L 407.1,249.2 L 415.0,249.2 L 422.9,249.2 L 430.9,249.2 L 438.8,249.2 L 446.7,249.2 L 454.7,249.2 L 462.6,249.2 L 470.5,249.2 L 478.5,249.2 L 486.4,249.2 L 494.3,249.2 L 502.3,249.2 L 510.2,249.2 L 518.2,249.2 L 526.1,249.2 L 534.0,249.2 L 542.0,249.2 L 549.9,249.2 L 557.8,249.2 L 565.8,249.2 L 573.7,249.2 L 581.6,249.2 L 589.6,249.2 L 597.5,249.2 L 605.4,249.2 L 613.4,249.2 L 621.3,249.2 L 629.2,249.2 L 637.2,249.2 L 645.1,249.2 L 653.0,249.2 L 661.0,249.2 L 668.9,249.2 L 676.8,249.2 L 684.8,249.2 L 692.7,249.2 L 700.7,249.2 L 708.6,249.2 L 716.5,249.2 L 724.5,249.2 L 732.4,249.2 L 740.3,249.2 L 748.3,249.2 L 756.2,249.2 L 764.1,249.2 L 772.1,249.2 L 780.0,249.2" fill="none" stroke="#bb9af7" stroke-width="2.5" stroke-linejoin="round" stroke-linecap="round" opacity="0.9"/>
  <circle cx="50.0" cy="236.0" r="3.5" fill="#7aa2f7" stroke="#1a1b26" stroke-width="1.5"/><circle cx="57.9" cy="234.1" r="3.5" fill="#7aa2f7" stroke="#1a1b26" stroke-width="1.5"/><circle cx="65.9" cy="234.0" r="3.5" fill="#7aa2f7" stroke="#1a1b26" stroke-width="1.5"/><circle cx="73.8" cy="233.3" r="3.5" fill="#7aa2f7" stroke="#1a1b26" stroke-width="1.5"/><circle cx="81.7" cy="231.5" r="3.5" fill="#7aa2f7" stroke="#1a1b26" stroke-width="1.5"/><circle cx="89.7" cy="208.1" r="3.5" fill="#7aa2f7" stroke="#1a1b26" stroke-width="1.5"/><circle cx="97.6" cy="208.1" r="3.5" fill="#7aa2f7" stroke="#1a1b26" stroke-width="1.5"/><circle cx="105.5" cy="208.1" r="3.5" fill="#7aa2f7" stroke="#1a1b26" stroke-width="1.5"/><circle cx="113.5" cy="208.1" r="3.5" fill="#7aa2f7" stroke="#1a1b26" stroke-width="1.5"/><circle cx="121.4" cy="208.1" r="3.5" fill="#7aa2f7" stroke="#1a1b26" stroke-width="1.5"/><circle cx="129.3" cy="208.1" r="3.5" fill="#7aa2f7" stroke="#1a1b26" stroke-width="1.5"/><circle cx="137.3" cy="208.1" r="3.5" fill="#7aa2f7" stroke="#1a1b26" stroke-width="1.5"/><circle cx="145.2" cy="208.1" r="3.5" fill="#7aa2f7" stroke="#1a1b26" stroke-width="1.5"/><circle cx="153.2" cy="208.1" r="3.5" fill="#7aa2f7" stroke="#1a1b26" stroke-width="1.5"/><circle cx="161.1" cy="208.1" r="3.5" fill="#7aa2f7" stroke="#1a1b26" stroke-width="1.5"/><circle cx="169.0" cy="208.1" r="3.5" fill="#7aa2f7" stroke="#1a1b26" stroke-width="1.5"/><circle cx="177.0" cy="208.1" r="3.5" fill="#7aa2f7" stroke="#1a1b26" stroke-width="1.5"/><circle cx="184.9" cy="208.1" r="3.5" fill="#7aa2f7" stroke="#1a1b26" stroke-width="1.5"/><circle cx="192.8" cy="208.1" r="3.5" fill="#7aa2f7" stroke="#1a1b26" stroke-width="1.5"/><circle cx="200.8" cy="208.1" r="3.5" fill="#7aa2f7" stroke="#1a1b26" stroke-width="1.5"/><circle cx="208.7" cy="208.1" r="3.5" fill="#7aa2f7" stroke="#1a1b26" stroke-width="1.5"/><circle cx="216.6" cy="208.1" r="3.5" fill="#7aa2f7" stroke="#1a1b26" stroke-width="1.5"/><circle cx="224.6" cy="208.1" r="3.5" fill="#7aa2f7" stroke="#1a1b26" stroke-width="1.5"/><circle cx="232.5" cy="208.1" r="3.5" fill="#7aa2f7" stroke="#1a1b26" stroke-width="1.5"/><circle cx="240.4" cy="208.1" r="3.5" fill="#7aa2f7" stroke="#1a1b26" stroke-width="1.5"/><circle cx="248.4" cy="208.1" r="3.5" fill="#7aa2f7" stroke="#1a1b26" stroke-width="1.5"/><circle cx="256.3" cy="208.1" r="3.5" fill="#7aa2f7" stroke="#1a1b26" stroke-width="1.5"/><circle cx="264.2" cy="208.1" r="3.5" fill="#7aa2f7" stroke="#1a1b26" stroke-width="1.5"/><circle cx="272.2" cy="208.1" r="3.5" fill="#7aa2f7" stroke="#1a1b26" stroke-width="1.5"/><circle cx="280.1" cy="208.1" r="3.5" fill="#7aa2f7" stroke="#1a1b26" stroke-width="1.5"/><circle cx="288.0" cy="208.1" r="3.5" fill="#7aa2f7" stroke="#1a1b26" stroke-width="1.5"/><circle cx="296.0" cy="208.1" r="3.5" fill="#7aa2f7" stroke="#1a1b26" stroke-width="1.5"/><circle cx="303.9" cy="208.1" r="3.5" fill="#7aa2f7" stroke="#1a1b26" stroke-width="1.5"/><circle cx="311.8" cy="208.1" r="3.5" fill="#7aa2f7" stroke="#1a1b26" stroke-width="1.5"/><circle cx="319.8" cy="208.1" r="3.5" fill="#7aa2f7" stroke="#1a1b26" stroke-width="1.5"/><circle cx="327.7" cy="208.1" r="3.5" fill="#7aa2f7" stroke="#1a1b26" stroke-width="1.5"/><circle cx="335.7" cy="208.1" r="3.5" fill="#7aa2f7" stroke="#1a1b26" stroke-width="1.5"/><circle cx="343.6" cy="208.1" r="3.5" fill="#7aa2f7" stroke="#1a1b26" stroke-width="1.5"/><circle cx="351.5" cy="208.1" r="3.5" fill="#7aa2f7" stroke="#1a1b26" stroke-width="1.5"/><circle cx="359.5" cy="208.1" r="3.5" fill="#7aa2f7" stroke="#1a1b26" stroke-width="1.5"/><circle cx="367.4" cy="208.1" r="3.5" fill="#7aa2f7" stroke="#1a1b26" stroke-width="1.5"/><circle cx="375.3" cy="208.1" r="3.5" fill="#7aa2f7" stroke="#1a1b26" stroke-width="1.5"/><circle cx="383.3" cy="208.1" r="3.5" fill="#7aa2f7" stroke="#1a1b26" stroke-width="1.5"/><circle cx="391.2" cy="208.1" r="3.5" fill="#7aa2f7" stroke="#1a1b26" stroke-width="1.5"/><circle cx="399.1" cy="208.1" r="3.5" fill="#7aa2f7" stroke="#1a1b26" stroke-width="1.5"/><circle cx="407.1" cy="208.1" r="3.5" fill="#7aa2f7" stroke="#1a1b26" stroke-width="1.5"/><circle cx="415.0" cy="208.1" r="3.5" fill="#7aa2f7" stroke="#1a1b26" stroke-width="1.5"/><circle cx="422.9" cy="208.1" r="3.5" fill="#7aa2f7" stroke="#1a1b26" stroke-width="1.5"/><circle cx="430.9" cy="208.1" r="3.5" fill="#7aa2f7" stroke="#1a1b26" stroke-width="1.5"/><circle cx="438.8" cy="208.1" r="3.5" fill="#7aa2f7" stroke="#1a1b26" stroke-width="1.5"/><circle cx="446.7" cy="208.1" r="3.5" fill="#7aa2f7" stroke="#1a1b26" stroke-width="1.5"/><circle cx="454.7" cy="208.1" r="3.5" fill="#7aa2f7" stroke="#1a1b26" stroke-width="1.5"/><circle cx="462.6" cy="208.1" r="3.5" fill="#7aa2f7" stroke="#1a1b26" stroke-width="1.5"/><circle cx="470.5" cy="208.1" r="3.5" fill="#7aa2f7" stroke="#1a1b26" stroke-width="1.5"/><circle cx="478.5" cy="208.1" r="3.5" fill="#7aa2f7" stroke="#1a1b26" stroke-width="1.5"/><circle cx="486.4" cy="208.1" r="3.5" fill="#7aa2f7" stroke="#1a1b26" stroke-width="1.5"/><circle cx="494.3" cy="208.1" r="3.5" fill="#7aa2f7" stroke="#1a1b26" stroke-width="1.5"/><circle cx="502.3" cy="208.1" r="3.5" fill="#7aa2f7" stroke="#1a1b26" stroke-width="1.5"/><circle cx="510.2" cy="208.1" r="3.5" fill="#7aa2f7" stroke="#1a1b26" stroke-width="1.5"/><circle cx="518.2" cy="208.1" r="3.5" fill="#7aa2f7" stroke="#1a1b26" stroke-width="1.5"/><circle cx="526.1" cy="208.1" r="3.5" fill="#7aa2f7" stroke="#1a1b26" stroke-width="1.5"/><circle cx="534.0" cy="208.1" r="3.5" fill="#7aa2f7" stroke="#1a1b26" stroke-width="1.5"/><circle cx="542.0" cy="208.1" r="3.5" fill="#7aa2f7" stroke="#1a1b26" stroke-width="1.5"/><circle cx="549.9" cy="208.1" r="3.5" fill="#7aa2f7" stroke="#1a1b26" stroke-width="1.5"/><circle cx="557.8" cy="208.1" r="3.5" fill="#7aa2f7" stroke="#1a1b26" stroke-width="1.5"/><circle cx="565.8" cy="208.1" r="3.5" fill="#7aa2f7" stroke="#1a1b26" stroke-width="1.5"/><circle cx="573.7" cy="208.1" r="3.5" fill="#7aa2f7" stroke="#1a1b26" stroke-width="1.5"/><circle cx="581.6" cy="208.1" r="3.5" fill="#7aa2f7" stroke="#1a1b26" stroke-width="1.5"/><circle cx="589.6" cy="208.1" r="3.5" fill="#7aa2f7" stroke="#1a1b26" stroke-width="1.5"/><circle cx="597.5" cy="208.1" r="3.5" fill="#7aa2f7" stroke="#1a1b26" stroke-width="1.5"/><circle cx="605.4" cy="208.1" r="3.5" fill="#7aa2f7" stroke="#1a1b26" stroke-width="1.5"/><circle cx="613.4" cy="208.1" r="3.5" fill="#7aa2f7" stroke="#1a1b26" stroke-width="1.5"/><circle cx="621.3" cy="208.1" r="3.5" fill="#7aa2f7" stroke="#1a1b26" stroke-width="1.5"/><circle cx="629.2" cy="208.1" r="3.5" fill="#7aa2f7" stroke="#1a1b26" stroke-width="1.5"/><circle cx="637.2" cy="208.1" r="3.5" fill="#7aa2f7" stroke="#1a1b26" stroke-width="1.5"/><circle cx="645.1" cy="208.1" r="3.5" fill="#7aa2f7" stroke="#1a1b26" stroke-width="1.5"/><circle cx="653.0" cy="208.1" r="3.5" fill="#7aa2f7" stroke="#1a1b26" stroke-width="1.5"/><circle cx="661.0" cy="208.1" r="3.5" fill="#7aa2f7" stroke="#1a1b26" stroke-width="1.5"/><circle cx="668.9" cy="208.1" r="3.5" fill="#7aa2f7" stroke="#1a1b26" stroke-width="1.5"/><circle cx="676.8" cy="208.1" r="3.5" fill="#7aa2f7" stroke="#1a1b26" stroke-width="1.5"/><circle cx="684.8" cy="208.1" r="3.5" fill="#7aa2f7" stroke="#1a1b26" stroke-width="1.5"/><circle cx="692.7" cy="208.1" r="3.5" fill="#7aa2f7" stroke="#1a1b26" stroke-width="1.5"/><circle cx="700.7" cy="208.1" r="3.5" fill="#7aa2f7" stroke="#1a1b26" stroke-width="1.5"/><circle cx="708.6" cy="208.1" r="3.5" fill="#7aa2f7" stroke="#1a1b26" stroke-width="1.5"/><circle cx="716.5" cy="208.1" r="3.5" fill="#7aa2f7" stroke="#1a1b26" stroke-width="1.5"/><circle cx="724.5" cy="208.1" r="3.5" fill="#7aa2f7" stroke="#1a1b26" stroke-width="1.5"/><circle cx="732.4" cy="208.1" r="3.5" fill="#7aa2f7" stroke="#1a1b26" stroke-width="1.5"/><circle cx="740.3" cy="208.1" r="3.5" fill="#7aa2f7" stroke="#1a1b26" stroke-width="1.5"/><circle cx="748.3" cy="208.1" r="3.5" fill="#7aa2f7" stroke="#1a1b26" stroke-width="1.5"/><circle cx="756.2" cy="208.1" r="3.5" fill="#7aa2f7" stroke="#1a1b26" stroke-width="1.5"/><circle cx="764.1" cy="208.1" r="3.5" fill="#7aa2f7" stroke="#1a1b26" stroke-width="1.5"/><circle cx="772.1" cy="208.1" r="3.5" fill="#7aa2f7" stroke="#1a1b26" stroke-width="1.5"/><circle cx="780.0" cy="208.1" r="3.5" fill="#7aa2f7" stroke="#1a1b26" stroke-width="1.5"/><circle cx="97.6" cy="239.5" r="3.5" fill="#9ece6a" stroke="#1a1b26" stroke-width="1.5"/><circle cx="105.5" cy="237.4" r="3.5" fill="#9ece6a" stroke="#1a1b26" stroke-width="1.5"/><circle cx="113.5" cy="239.4" r="3.5" fill="#9ece6a" stroke="#1a1b26" stroke-width="1.5"/><circle cx="121.4" cy="239.4" r="3.5" fill="#9ece6a" stroke="#1a1b26" stroke-width="1.5"/><circle cx="129.3" cy="239.4" r="3.5" fill="#9ece6a" stroke="#1a1b26" stroke-width="1.5"/><circle cx="137.3" cy="239.4" r="3.5" fill="#9ece6a" stroke="#1a1b26" stroke-width="1.5"/><circle cx="145.2" cy="239.4" r="3.5" fill="#9ece6a" stroke="#1a1b26" stroke-width="1.5"/><circle cx="153.2" cy="239.4" r="3.5" fill="#9ece6a" stroke="#1a1b26" stroke-width="1.5"/><circle cx="161.1" cy="239.4" r="3.5" fill="#9ece6a" stroke="#1a1b26" stroke-width="1.5"/><circle cx="169.0" cy="239.4" r="3.5" fill="#9ece6a" stroke="#1a1b26" stroke-width="1.5"/><circle cx="177.0" cy="239.4" r="3.5" fill="#9ece6a" stroke="#1a1b26" stroke-width="1.5"/><circle cx="184.9" cy="239.4" r="3.5" fill="#9ece6a" stroke="#1a1b26" stroke-width="1.5"/><circle cx="192.8" cy="239.4" r="3.5" fill="#9ece6a" stroke="#1a1b26" stroke-width="1.5"/><circle cx="200.8" cy="239.4" r="3.5" fill="#9ece6a" stroke="#1a1b26" stroke-width="1.5"/><circle cx="208.7" cy="239.4" r="3.5" fill="#9ece6a" stroke="#1a1b26" stroke-width="1.5"/><circle cx="216.6" cy="239.4" r="3.5" fill="#9ece6a" stroke="#1a1b26" stroke-width="1.5"/><circle cx="224.6" cy="239.4" r="3.5" fill="#9ece6a" stroke="#1a1b26" stroke-width="1.5"/><circle cx="232.5" cy="239.4" r="3.5" fill="#9ece6a" stroke="#1a1b26" stroke-width="1.5"/><circle cx="240.4" cy="239.4" r="3.5" fill="#9ece6a" stroke="#1a1b26" stroke-width="1.5"/><circle cx="248.4" cy="239.4" r="3.5" fill="#9ece6a" stroke="#1a1b26" stroke-width="1.5"/><circle cx="256.3" cy="239.4" r="3.5" fill="#9ece6a" stroke="#1a1b26" stroke-width="1.5"/><circle cx="264.2" cy="239.4" r="3.5" fill="#9ece6a" stroke="#1a1b26" stroke-width="1.5"/><circle cx="272.2" cy="239.4" r="3.5" fill="#9ece6a" stroke="#1a1b26" stroke-width="1.5"/><circle cx="280.1" cy="239.4" r="3.5" fill="#9ece6a" stroke="#1a1b26" stroke-width="1.5"/><circle cx="288.0" cy="239.4" r="3.5" fill="#9ece6a" stroke="#1a1b26" stroke-width="1.5"/><circle cx="296.0" cy="239.4" r="3.5" fill="#9ece6a" stroke="#1a1b26" stroke-width="1.5"/><circle cx="303.9" cy="239.4" r="3.5" fill="#9ece6a" stroke="#1a1b26" stroke-width="1.5"/><circle cx="311.8" cy="239.4" r="3.5" fill="#9ece6a" stroke="#1a1b26" stroke-width="1.5"/><circle cx="319.8" cy="239.4" r="3.5" fill="#9ece6a" stroke="#1a1b26" stroke-width="1.5"/><circle cx="327.7" cy="239.4" r="3.5" fill="#9ece6a" stroke="#1a1b26" stroke-width="1.5"/><circle cx="335.7" cy="239.4" r="3.5" fill="#9ece6a" stroke="#1a1b26" stroke-width="1.5"/><circle cx="343.6" cy="239.4" r="3.5" fill="#9ece6a" stroke="#1a1b26" stroke-width="1.5"/><circle cx="351.5" cy="239.4" r="3.5" fill="#9ece6a" stroke="#1a1b26" stroke-width="1.5"/><circle cx="359.5" cy="239.4" r="3.5" fill="#9ece6a" stroke="#1a1b26" stroke-width="1.5"/><circle cx="367.4" cy="239.4" r="3.5" fill="#9ece6a" stroke="#1a1b26" stroke-width="1.5"/><circle cx="375.3" cy="239.4" r="3.5" fill="#9ece6a" stroke="#1a1b26" stroke-width="1.5"/><circle cx="383.3" cy="239.4" r="3.5" fill="#9ece6a" stroke="#1a1b26" stroke-width="1.5"/><circle cx="391.2" cy="239.4" r="3.5" fill="#9ece6a" stroke="#1a1b26" stroke-width="1.5"/><circle cx="399.1" cy="239.4" r="3.5" fill="#9ece6a" stroke="#1a1b26" stroke-width="1.5"/><circle cx="407.1" cy="239.4" r="3.5" fill="#9ece6a" stroke="#1a1b26" stroke-width="1.5"/><circle cx="415.0" cy="239.4" r="3.5" fill="#9ece6a" stroke="#1a1b26" stroke-width="1.5"/><circle cx="422.9" cy="239.4" r="3.5" fill="#9ece6a" stroke="#1a1b26" stroke-width="1.5"/><circle cx="430.9" cy="239.4" r="3.5" fill="#9ece6a" stroke="#1a1b26" stroke-width="1.5"/><circle cx="438.8" cy="239.4" r="3.5" fill="#9ece6a" stroke="#1a1b26" stroke-width="1.5"/><circle cx="446.7" cy="239.4" r="3.5" fill="#9ece6a" stroke="#1a1b26" stroke-width="1.5"/><circle cx="454.7" cy="239.4" r="3.5" fill="#9ece6a" stroke="#1a1b26" stroke-width="1.5"/><circle cx="462.6" cy="239.4" r="3.5" fill="#9ece6a" stroke="#1a1b26" stroke-width="1.5"/><circle cx="470.5" cy="239.4" r="3.5" fill="#9ece6a" stroke="#1a1b26" stroke-width="1.5"/><circle cx="478.5" cy="239.4" r="3.5" fill="#9ece6a" stroke="#1a1b26" stroke-width="1.5"/><circle cx="486.4" cy="239.4" r="3.5" fill="#9ece6a" stroke="#1a1b26" stroke-width="1.5"/><circle cx="494.3" cy="239.4" r="3.5" fill="#9ece6a" stroke="#1a1b26" stroke-width="1.5"/><circle cx="502.3" cy="239.4" r="3.5" fill="#9ece6a" stroke="#1a1b26" stroke-width="1.5"/><circle cx="510.2" cy="239.4" r="3.5" fill="#9ece6a" stroke="#1a1b26" stroke-width="1.5"/><circle cx="518.2" cy="239.4" r="3.5" fill="#9ece6a" stroke="#1a1b26" stroke-width="1.5"/><circle cx="526.1" cy="239.4" r="3.5" fill="#9ece6a" stroke="#1a1b26" stroke-width="1.5"/><circle cx="534.0" cy="239.4" r="3.5" fill="#9ece6a" stroke="#1a1b26" stroke-width="1.5"/><circle cx="542.0" cy="239.4" r="3.5" fill="#9ece6a" stroke="#1a1b26" stroke-width="1.5"/><circle cx="549.9" cy="239.4" r="3.5" fill="#9ece6a" stroke="#1a1b26" stroke-width="1.5"/><circle cx="557.8" cy="239.4" r="3.5" fill="#9ece6a" stroke="#1a1b26" stroke-width="1.5"/><circle cx="565.8" cy="239.4" r="3.5" fill="#9ece6a" stroke="#1a1b26" stroke-width="1.5"/><circle cx="573.7" cy="239.4" r="3.5" fill="#9ece6a" stroke="#1a1b26" stroke-width="1.5"/><circle cx="581.6" cy="239.4" r="3.5" fill="#9ece6a" stroke="#1a1b26" stroke-width="1.5"/><circle cx="589.6" cy="239.4" r="3.5" fill="#9ece6a" stroke="#1a1b26" stroke-width="1.5"/><circle cx="597.5" cy="239.4" r="3.5" fill="#9ece6a" stroke="#1a1b26" stroke-width="1.5"/><circle cx="605.4" cy="239.4" r="3.5" fill="#9ece6a" stroke="#1a1b26" stroke-width="1.5"/><circle cx="613.4" cy="239.4" r="3.5" fill="#9ece6a" stroke="#1a1b26" stroke-width="1.5"/><circle cx="621.3" cy="239.4" r="3.5" fill="#9ece6a" stroke="#1a1b26" stroke-width="1.5"/><circle cx="629.2" cy="239.4" r="3.5" fill="#9ece6a" stroke="#1a1b26" stroke-width="1.5"/><circle cx="637.2" cy="239.4" r="3.5" fill="#9ece6a" stroke="#1a1b26" stroke-width="1.5"/><circle cx="645.1" cy="239.4" r="3.5" fill="#9ece6a" stroke="#1a1b26" stroke-width="1.5"/><circle cx="653.0" cy="239.4" r="3.5" fill="#9ece6a" stroke="#1a1b26" stroke-width="1.5"/><circle cx="661.0" cy="239.4" r="3.5" fill="#9ece6a" stroke="#1a1b26" stroke-width="1.5"/><circle cx="668.9" cy="239.4" r="3.5" fill="#9ece6a" stroke="#1a1b26" stroke-width="1.5"/><circle cx="676.8" cy="239.4" r="3.5" fill="#9ece6a" stroke="#1a1b26" stroke-width="1.5"/><circle cx="684.8" cy="239.4" r="3.5" fill="#9ece6a" stroke="#1a1b26" stroke-width="1.5"/><circle cx="692.7" cy="239.4" r="3.5" fill="#9ece6a" stroke="#1a1b26" stroke-width="1.5"/><circle cx="700.7" cy="239.4" r="3.5" fill="#9ece6a" stroke="#1a1b26" stroke-width="1.5"/><circle cx="708.6" cy="239.4" r="3.5" fill="#9ece6a" stroke="#1a1b26" stroke-width="1.5"/><circle cx="716.5" cy="239.4" r="3.5" fill="#9ece6a" stroke="#1a1b26" stroke-width="1.5"/><circle cx="724.5" cy="239.4" r="3.5" fill="#9ece6a" stroke="#1a1b26" stroke-width="1.5"/><circle cx="732.4" cy="239.4" r="3.5" fill="#9ece6a" stroke="#1a1b26" stroke-width="1.5"/><circle cx="740.3" cy="239.4" r="3.5" fill="#9ece6a" stroke="#1a1b26" stroke-width="1.5"/><circle cx="748.3" cy="239.4" r="3.5" fill="#9ece6a" stroke="#1a1b26" stroke-width="1.5"/><circle cx="756.2" cy="239.4" r="3.5" fill="#9ece6a" stroke="#1a1b26" stroke-width="1.5"/><circle cx="764.1" cy="239.4" r="3.5" fill="#9ece6a" stroke="#1a1b26" stroke-width="1.5"/><circle cx="772.1" cy="239.4" r="3.5" fill="#9ece6a" stroke="#1a1b26" stroke-width="1.5"/><circle cx="780.0" cy="239.4" r="3.5" fill="#9ece6a" stroke="#1a1b26" stroke-width="1.5"/><circle cx="161.1" cy="239.4" r="3.5" fill="#e0af68" stroke="#1a1b26" stroke-width="1.5"/><circle cx="169.0" cy="239.4" r="3.5" fill="#e0af68" stroke="#1a1b26" stroke-width="1.5"/><circle cx="177.0" cy="239.4" r="3.5" fill="#e0af68" stroke="#1a1b26" stroke-width="1.5"/><circle cx="184.9" cy="239.4" r="3.5" fill="#e0af68" stroke="#1a1b26" stroke-width="1.5"/><circle cx="192.8" cy="239.4" r="3.5" fill="#e0af68" stroke="#1a1b26" stroke-width="1.5"/><circle cx="200.8" cy="239.4" r="3.5" fill="#e0af68" stroke="#1a1b26" stroke-width="1.5"/><circle cx="208.7" cy="239.4" r="3.5" fill="#e0af68" stroke="#1a1b26" stroke-width="1.5"/><circle cx="216.6" cy="239.4" r="3.5" fill="#e0af68" stroke="#1a1b26" stroke-width="1.5"/><circle cx="224.6" cy="239.4" r="3.5" fill="#e0af68" stroke="#1a1b26" stroke-width="1.5"/><circle cx="232.5" cy="239.4" r="3.5" fill="#e0af68" stroke="#1a1b26" stroke-width="1.5"/><circle cx="240.4" cy="237.0" r="3.5" fill="#e0af68" stroke="#1a1b26" stroke-width="1.5"/><circle cx="248.4" cy="237.0" r="3.5" fill="#e0af68" stroke="#1a1b26" stroke-width="1.5"/><circle cx="256.3" cy="237.0" r="3.5" fill="#e0af68" stroke="#1a1b26" stroke-width="1.5"/><circle cx="264.2" cy="237.0" r="3.5" fill="#e0af68" stroke="#1a1b26" stroke-width="1.5"/><circle cx="272.2" cy="237.0" r="3.5" fill="#e0af68" stroke="#1a1b26" stroke-width="1.5"/><circle cx="280.1" cy="237.0" r="3.5" fill="#e0af68" stroke="#1a1b26" stroke-width="1.5"/><circle cx="288.0" cy="237.0" r="3.5" fill="#e0af68" stroke="#1a1b26" stroke-width="1.5"/><circle cx="296.0" cy="237.0" r="3.5" fill="#e0af68" stroke="#1a1b26" stroke-width="1.5"/><circle cx="303.9" cy="237.0" r="3.5" fill="#e0af68" stroke="#1a1b26" stroke-width="1.5"/><circle cx="311.8" cy="237.0" r="3.5" fill="#e0af68" stroke="#1a1b26" stroke-width="1.5"/><circle cx="319.8" cy="237.0" r="3.5" fill="#e0af68" stroke="#1a1b26" stroke-width="1.5"/><circle cx="327.7" cy="237.0" r="3.5" fill="#e0af68" stroke="#1a1b26" stroke-width="1.5"/><circle cx="335.7" cy="237.0" r="3.5" fill="#e0af68" stroke="#1a1b26" stroke-width="1.5"/><circle cx="343.6" cy="237.0" r="3.5" fill="#e0af68" stroke="#1a1b26" stroke-width="1.5"/><circle cx="351.5" cy="237.0" r="3.5" fill="#e0af68" stroke="#1a1b26" stroke-width="1.5"/><circle cx="359.5" cy="237.0" r="3.5" fill="#e0af68" stroke="#1a1b26" stroke-width="1.5"/><circle cx="367.4" cy="234.6" r="3.5" fill="#e0af68" stroke="#1a1b26" stroke-width="1.5"/><circle cx="375.3" cy="234.6" r="3.5" fill="#e0af68" stroke="#1a1b26" stroke-width="1.5"/><circle cx="383.3" cy="234.6" r="3.5" fill="#e0af68" stroke="#1a1b26" stroke-width="1.5"/><circle cx="391.2" cy="234.6" r="3.5" fill="#e0af68" stroke="#1a1b26" stroke-width="1.5"/><circle cx="399.1" cy="234.6" r="3.5" fill="#e0af68" stroke="#1a1b26" stroke-width="1.5"/><circle cx="407.1" cy="232.9" r="3.5" fill="#e0af68" stroke="#1a1b26" stroke-width="1.5"/><circle cx="415.0" cy="232.9" r="3.5" fill="#e0af68" stroke="#1a1b26" stroke-width="1.5"/><circle cx="422.9" cy="232.9" r="3.5" fill="#e0af68" stroke="#1a1b26" stroke-width="1.5"/><circle cx="430.9" cy="232.9" r="3.5" fill="#e0af68" stroke="#1a1b26" stroke-width="1.5"/><circle cx="438.8" cy="232.9" r="3.5" fill="#e0af68" stroke="#1a1b26" stroke-width="1.5"/><circle cx="446.7" cy="232.9" r="3.5" fill="#e0af68" stroke="#1a1b26" stroke-width="1.5"/><circle cx="454.7" cy="232.9" r="3.5" fill="#e0af68" stroke="#1a1b26" stroke-width="1.5"/><circle cx="462.6" cy="232.9" r="3.5" fill="#e0af68" stroke="#1a1b26" stroke-width="1.5"/><circle cx="470.5" cy="232.9" r="3.5" fill="#e0af68" stroke="#1a1b26" stroke-width="1.5"/><circle cx="478.5" cy="232.9" r="3.5" fill="#e0af68" stroke="#1a1b26" stroke-width="1.5"/><circle cx="486.4" cy="232.9" r="3.5" fill="#e0af68" stroke="#1a1b26" stroke-width="1.5"/><circle cx="494.3" cy="232.9" r="3.5" fill="#e0af68" stroke="#1a1b26" stroke-width="1.5"/><circle cx="502.3" cy="232.9" r="3.5" fill="#e0af68" stroke="#1a1b26" stroke-width="1.5"/><circle cx="510.2" cy="232.9" r="3.5" fill="#e0af68" stroke="#1a1b26" stroke-width="1.5"/><circle cx="518.2" cy="232.9" r="3.5" fill="#e0af68" stroke="#1a1b26" stroke-width="1.5"/><circle cx="526.1" cy="232.9" r="3.5" fill="#e0af68" stroke="#1a1b26" stroke-width="1.5"/><circle cx="534.0" cy="232.9" r="3.5" fill="#e0af68" stroke="#1a1b26" stroke-width="1.5"/><circle cx="542.0" cy="232.9" r="3.5" fill="#e0af68" stroke="#1a1b26" stroke-width="1.5"/><circle cx="549.9" cy="232.9" r="3.5" fill="#e0af68" stroke="#1a1b26" stroke-width="1.5"/><circle cx="557.8" cy="232.9" r="3.5" fill="#e0af68" stroke="#1a1b26" stroke-width="1.5"/><circle cx="565.8" cy="232.9" r="3.5" fill="#e0af68" stroke="#1a1b26" stroke-width="1.5"/><circle cx="573.7" cy="232.9" r="3.5" fill="#e0af68" stroke="#1a1b26" stroke-width="1.5"/><circle cx="581.6" cy="232.9" r="3.5" fill="#e0af68" stroke="#1a1b26" stroke-width="1.5"/><circle cx="589.6" cy="232.9" r="3.5" fill="#e0af68" stroke="#1a1b26" stroke-width="1.5"/><circle cx="597.5" cy="232.9" r="3.5" fill="#e0af68" stroke="#1a1b26" stroke-width="1.5"/><circle cx="605.4" cy="232.9" r="3.5" fill="#e0af68" stroke="#1a1b26" stroke-width="1.5"/><circle cx="613.4" cy="232.9" r="3.5" fill="#e0af68" stroke="#1a1b26" stroke-width="1.5"/><circle cx="621.3" cy="232.9" r="3.5" fill="#e0af68" stroke="#1a1b26" stroke-width="1.5"/><circle cx="629.2" cy="232.9" r="3.5" fill="#e0af68" stroke="#1a1b26" stroke-width="1.5"/><circle cx="637.2" cy="232.9" r="3.5" fill="#e0af68" stroke="#1a1b26" stroke-width="1.5"/><circle cx="645.1" cy="232.9" r="3.5" fill="#e0af68" stroke="#1a1b26" stroke-width="1.5"/><circle cx="653.0" cy="232.9" r="3.5" fill="#e0af68" stroke="#1a1b26" stroke-width="1.5"/><circle cx="661.0" cy="232.9" r="3.5" fill="#e0af68" stroke="#1a1b26" stroke-width="1.5"/><circle cx="668.9" cy="232.9" r="3.5" fill="#e0af68" stroke="#1a1b26" stroke-width="1.5"/><circle cx="676.8" cy="232.9" r="3.5" fill="#e0af68" stroke="#1a1b26" stroke-width="1.5"/><circle cx="684.8" cy="232.9" r="3.5" fill="#e0af68" stroke="#1a1b26" stroke-width="1.5"/><circle cx="692.7" cy="232.9" r="3.5" fill="#e0af68" stroke="#1a1b26" stroke-width="1.5"/><circle cx="700.7" cy="232.9" r="3.5" fill="#e0af68" stroke="#1a1b26" stroke-width="1.5"/><circle cx="708.6" cy="232.9" r="3.5" fill="#e0af68" stroke="#1a1b26" stroke-width="1.5"/><circle cx="716.5" cy="232.9" r="3.5" fill="#e0af68" stroke="#1a1b26" stroke-width="1.5"/><circle cx="724.5" cy="232.9" r="3.5" fill="#e0af68" stroke="#1a1b26" stroke-width="1.5"/><circle cx="732.4" cy="232.9" r="3.5" fill="#e0af68" stroke="#1a1b26" stroke-width="1.5"/><circle cx="740.3" cy="232.9" r="3.5" fill="#e0af68" stroke="#1a1b26" stroke-width="1.5"/><circle cx="748.3" cy="232.9" r="3.5" fill="#e0af68" stroke="#1a1b26" stroke-width="1.5"/><circle cx="756.2" cy="232.9" r="3.5" fill="#e0af68" stroke="#1a1b26" stroke-width="1.5"/><circle cx="764.1" cy="232.9" r="3.5" fill="#e0af68" stroke="#1a1b26" stroke-width="1.5"/><circle cx="772.1" cy="232.9" r="3.5" fill="#e0af68" stroke="#1a1b26" stroke-width="1.5"/><circle cx="780.0" cy="232.9" r="3.5" fill="#e0af68" stroke="#1a1b26" stroke-width="1.5"/><circle cx="161.1" cy="249.2" r="3.5" fill="#bb9af7" stroke="#1a1b26" stroke-width="1.5"/><circle cx="169.0" cy="249.2" r="3.5" fill="#bb9af7" stroke="#1a1b26" stroke-width="1.5"/><circle cx="177.0" cy="249.2" r="3.5" fill="#bb9af7" stroke="#1a1b26" stroke-width="1.5"/><circle cx="184.9" cy="249.2" r="3.5" fill="#bb9af7" stroke="#1a1b26" stroke-width="1.5"/><circle cx="192.8" cy="249.2" r="3.5" fill="#bb9af7" stroke="#1a1b26" stroke-width="1.5"/><circle cx="200.8" cy="249.2" r="3.5" fill="#bb9af7" stroke="#1a1b26" stroke-width="1.5"/><circle cx="208.7" cy="249.2" r="3.5" fill="#bb9af7" stroke="#1a1b26" stroke-width="1.5"/><circle cx="216.6" cy="249.2" r="3.5" fill="#bb9af7" stroke="#1a1b26" stroke-width="1.5"/><circle cx="224.6" cy="249.2" r="3.5" fill="#bb9af7" stroke="#1a1b26" stroke-width="1.5"/><circle cx="232.5" cy="249.2" r="3.5" fill="#bb9af7" stroke="#1a1b26" stroke-width="1.5"/><circle cx="240.4" cy="249.2" r="3.5" fill="#bb9af7" stroke="#1a1b26" stroke-width="1.5"/><circle cx="248.4" cy="249.2" r="3.5" fill="#bb9af7" stroke="#1a1b26" stroke-width="1.5"/><circle cx="256.3" cy="249.2" r="3.5" fill="#bb9af7" stroke="#1a1b26" stroke-width="1.5"/><circle cx="264.2" cy="249.2" r="3.5" fill="#bb9af7" stroke="#1a1b26" stroke-width="1.5"/><circle cx="272.2" cy="249.2" r="3.5" fill="#bb9af7" stroke="#1a1b26" stroke-width="1.5"/><circle cx="280.1" cy="249.2" r="3.5" fill="#bb9af7" stroke="#1a1b26" stroke-width="1.5"/><circle cx="288.0" cy="249.2" r="3.5" fill="#bb9af7" stroke="#1a1b26" stroke-width="1.5"/><circle cx="296.0" cy="249.2" r="3.5" fill="#bb9af7" stroke="#1a1b26" stroke-width="1.5"/><circle cx="303.9" cy="249.2" r="3.5" fill="#bb9af7" stroke="#1a1b26" stroke-width="1.5"/><circle cx="311.8" cy="249.2" r="3.5" fill="#bb9af7" stroke="#1a1b26" stroke-width="1.5"/><circle cx="319.8" cy="249.2" r="3.5" fill="#bb9af7" stroke="#1a1b26" stroke-width="1.5"/><circle cx="327.7" cy="249.2" r="3.5" fill="#bb9af7" stroke="#1a1b26" stroke-width="1.5"/><circle cx="335.7" cy="249.2" r="3.5" fill="#bb9af7" stroke="#1a1b26" stroke-width="1.5"/><circle cx="343.6" cy="249.2" r="3.5" fill="#bb9af7" stroke="#1a1b26" stroke-width="1.5"/><circle cx="351.5" cy="249.2" r="3.5" fill="#bb9af7" stroke="#1a1b26" stroke-width="1.5"/><circle cx="359.5" cy="249.2" r="3.5" fill="#bb9af7" stroke="#1a1b26" stroke-width="1.5"/><circle cx="367.4" cy="249.2" r="3.5" fill="#bb9af7" stroke="#1a1b26" stroke-width="1.5"/><circle cx="375.3" cy="249.2" r="3.5" fill="#bb9af7" stroke="#1a1b26" stroke-width="1.5"/><circle cx="383.3" cy="249.2" r="3.5" fill="#bb9af7" stroke="#1a1b26" stroke-width="1.5"/><circle cx="391.2" cy="249.2" r="3.5" fill="#bb9af7" stroke="#1a1b26" stroke-width="1.5"/><circle cx="399.1" cy="249.2" r="3.5" fill="#bb9af7" stroke="#1a1b26" stroke-width="1.5"/><circle cx="407.1" cy="249.2" r="3.5" fill="#bb9af7" stroke="#1a1b26" stroke-width="1.5"/><circle cx="415.0" cy="249.2" r="3.5" fill="#bb9af7" stroke="#1a1b26" stroke-width="1.5"/><circle cx="422.9" cy="249.2" r="3.5" fill="#bb9af7" stroke="#1a1b26" stroke-width="1.5"/><circle cx="430.9" cy="249.2" r="3.5" fill="#bb9af7" stroke="#1a1b26" stroke-width="1.5"/><circle cx="438.8" cy="249.2" r="3.5" fill="#bb9af7" stroke="#1a1b26" stroke-width="1.5"/><circle cx="446.7" cy="249.2" r="3.5" fill="#bb9af7" stroke="#1a1b26" stroke-width="1.5"/><circle cx="454.7" cy="249.2" r="3.5" fill="#bb9af7" stroke="#1a1b26" stroke-width="1.5"/><circle cx="462.6" cy="249.2" r="3.5" fill="#bb9af7" stroke="#1a1b26" stroke-width="1.5"/><circle cx="470.5" cy="249.2" r="3.5" fill="#bb9af7" stroke="#1a1b26" stroke-width="1.5"/><circle cx="478.5" cy="249.2" r="3.5" fill="#bb9af7" stroke="#1a1b26" stroke-width="1.5"/><circle cx="486.4" cy="249.2" r="3.5" fill="#bb9af7" stroke="#1a1b26" stroke-width="1.5"/><circle cx="494.3" cy="249.2" r="3.5" fill="#bb9af7" stroke="#1a1b26" stroke-width="1.5"/><circle cx="502.3" cy="249.2" r="3.5" fill="#bb9af7" stroke="#1a1b26" stroke-width="1.5"/><circle cx="510.2" cy="249.2" r="3.5" fill="#bb9af7" stroke="#1a1b26" stroke-width="1.5"/><circle cx="518.2" cy="249.2" r="3.5" fill="#bb9af7" stroke="#1a1b26" stroke-width="1.5"/><circle cx="526.1" cy="249.2" r="3.5" fill="#bb9af7" stroke="#1a1b26" stroke-width="1.5"/><circle cx="534.0" cy="249.2" r="3.5" fill="#bb9af7" stroke="#1a1b26" stroke-width="1.5"/><circle cx="542.0" cy="249.2" r="3.5" fill="#bb9af7" stroke="#1a1b26" stroke-width="1.5"/><circle cx="549.9" cy="249.2" r="3.5" fill="#bb9af7" stroke="#1a1b26" stroke-width="1.5"/><circle cx="557.8" cy="249.2" r="3.5" fill="#bb9af7" stroke="#1a1b26" stroke-width="1.5"/><circle cx="565.8" cy="249.2" r="3.5" fill="#bb9af7" stroke="#1a1b26" stroke-width="1.5"/><circle cx="573.7" cy="249.2" r="3.5" fill="#bb9af7" stroke="#1a1b26" stroke-width="1.5"/><circle cx="581.6" cy="249.2" r="3.5" fill="#bb9af7" stroke="#1a1b26" stroke-width="1.5"/><circle cx="589.6" cy="249.2" r="3.5" fill="#bb9af7" stroke="#1a1b26" stroke-width="1.5"/><circle cx="597.5" cy="249.2" r="3.5" fill="#bb9af7" stroke="#1a1b26" stroke-width="1.5"/><circle cx="605.4" cy="249.2" r="3.5" fill="#bb9af7" stroke="#1a1b26" stroke-width="1.5"/><circle cx="613.4" cy="249.2" r="3.5" fill="#bb9af7" stroke="#1a1b26" stroke-width="1.5"/><circle cx="621.3" cy="249.2" r="3.5" fill="#bb9af7" stroke="#1a1b26" stroke-width="1.5"/><circle cx="629.2" cy="249.2" r="3.5" fill="#bb9af7" stroke="#1a1b26" stroke-width="1.5"/><circle cx="637.2" cy="249.2" r="3.5" fill="#bb9af7" stroke="#1a1b26" stroke-width="1.5"/><circle cx="645.1" cy="249.2" r="3.5" fill="#bb9af7" stroke="#1a1b26" stroke-width="1.5"/><circle cx="653.0" cy="249.2" r="3.5" fill="#bb9af7" stroke="#1a1b26" stroke-width="1.5"/><circle cx="661.0" cy="249.2" r="3.5" fill="#bb9af7" stroke="#1a1b26" stroke-width="1.5"/><circle cx="668.9" cy="249.2" r="3.5" fill="#bb9af7" stroke="#1a1b26" stroke-width="1.5"/><circle cx="676.8" cy="249.2" r="3.5" fill="#bb9af7" stroke="#1a1b26" stroke-width="1.5"/><circle cx="684.8" cy="249.2" r="3.5" fill="#bb9af7" stroke="#1a1b26" stroke-width="1.5"/><circle cx="692.7" cy="249.2" r="3.5" fill="#bb9af7" stroke="#1a1b26" stroke-width="1.5"/><circle cx="700.7" cy="249.2" r="3.5" fill="#bb9af7" stroke="#1a1b26" stroke-width="1.5"/><circle cx="708.6" cy="249.2" r="3.5" fill="#bb9af7" stroke="#1a1b26" stroke-width="1.5"/><circle cx="716.5" cy="249.2" r="3.5" fill="#bb9af7" stroke="#1a1b26" stroke-width="1.5"/><circle cx="724.5" cy="249.2" r="3.5" fill="#bb9af7" stroke="#1a1b26" stroke-width="1.5"/><circle cx="732.4" cy="249.2" r="3.5" fill="#bb9af7" stroke="#1a1b26" stroke-width="1.5"/><circle cx="740.3" cy="249.2" r="3.5" fill="#bb9af7" stroke="#1a1b26" stroke-width="1.5"/><circle cx="748.3" cy="249.2" r="3.5" fill="#bb9af7" stroke="#1a1b26" stroke-width="1.5"/><circle cx="756.2" cy="249.2" r="3.5" fill="#bb9af7" stroke="#1a1b26" stroke-width="1.5"/><circle cx="764.1" cy="249.2" r="3.5" fill="#bb9af7" stroke="#1a1b26" stroke-width="1.5"/><circle cx="772.1" cy="249.2" r="3.5" fill="#bb9af7" stroke="#1a1b26" stroke-width="1.5"/><circle cx="780.0" cy="249.2" r="3.5" fill="#bb9af7" stroke="#1a1b26" stroke-width="1.5"/>
  <rect x="50" y="278" width="10" height="10" rx="2" fill="#7aa2f7"/><text x="64" y="286" fill="#565f89" font-size="11" font-family="monospace">History of God</text><rect x="290" y="278" width="10" height="10" rx="2" fill="#9ece6a"/><text x="304" y="286" fill="#565f89" font-size="11" font-family="monospace">Python for Data Science For …</text><rect x="530" y="278" width="10" height="10" rx="2" fill="#e0af68"/><text x="544" y="286" fill="#565f89" font-size="11" font-family="monospace">Crucial Conversations: Tools…</text><rect x="50" y="278" width="10" height="10" rx="2" fill="#bb9af7"/><text x="64" y="286" fill="#565f89" font-size="11" font-family="monospace">Eloquent JavaScript</text>
</svg>