<svg xmlns="http://www.w3.org/2000/svg" width="800" height="300" viewBox="0 0 800 300">
  <rect width="800" height="300" rx="12" fill="#1a1b26"/>
  <rect x="1" y="1" width="798" height="298" rx="11" fill="none" stroke="#414868" stroke-width="1"/>
  <text x="50" y="22" fill="#c0caf5" font-size="13" font-family="monospace" font-weight="bold">📖 Reading Progress</text>
  <text x="780" y="22" fill="#565f89" font-size="10" font-family="monospace" text-anchor="end">Updated 2026-07-18</text>
  <line x1="50" y1="250.0" x2="780" y2="250.0" stroke="#414868" stroke-width="0.5" stroke-dasharray="4,4"/><text x="44" y="254.0" fill="#565f89" font-size="10" font-family="monospace" text-anchor="end">0%</text><line x1="50" y1="197.5" x2="780" y2="197.5" stroke="#414868" stroke-width="0.5" stroke-dasharray="4,4"/><text x="44" y="201.5" fill="#565f89" font-size="10" font-family="monospace" text-anchor="end">25%</text><line x1="50" y1="145.0" x2="780" y2="145.0" stroke="#414868" stroke-width="0.5" stroke-dasharray="4,4"/><text x="44" y="149.0" fill="#565f89" font-size="10" font-family="monospace" text-anchor="end">50%</text><line x1="50" y1="92.5" x2="780" y2="92.5" stroke="#414868" stroke-width="0.5" stroke-dasharray="4,4"/><text x="44" y="96.5" fill="#565f89" font-size="10" font-family="monospace" text-anchor="end">75%</text><line x1="50" y1="40.0" x2="780" y2="40.0" stroke="#414868" stroke-width="0.5" stroke-dasharray="4,4"/><text x="44" y="44.0" fill="#565f89" font-size="10" font-family="monospace" text-anchor="end">100%</text>
  <text x="50.0" y="268" fill="#565f89" font-size="10" font-family="monospace" text-anchor="middle">03-09</text><text x="171.7" y="268" fill="#565f89" font-size="10" font-family="monospace" text-anchor="middle">03-30</text><text x="293.3" y="268" fill="#565f89" font-size="10" font-family="monospace" text-anchor="middle">04-19</text><text x="415.0" y="268" fill="#565f89" font-size="10" font-family="monospace" text-anchor="middle">05-09</text><text x="536.7" y="268" fill="#565f89" font-size="10" font-family="monospace" text-anchor="middle">06-02</text><text x="658.3" y="268" fill="#565f89" font-size="10" font-family="monospace" text-anchor="middle">06-28</text><text x="780.0" y="268" fill="#565f89" font-size="10" font-family="monospace" text-anchor="middle">07-18</text>
  <path d="M 50.0,236.0 L 56.8,234.1 L 63.5,234.0 L 70.3,233.3 L 77.0,231.5 L 83.8,208.1 L 90.6,208.1 L 97.3,208.1 L 104.1,208.1 L 110.8,208.1 L 117.6,208.1 L 124.4,208.1 L 131.1,208.1 L 137.9,208.1 L 144.6,208.1 L 151.4,208.1 L 158.1,208.1 L 164.9,208.1 L 171.7,208.1 L 178.4,208.1 L 185.2,208.1 L 191.9,208.1 L 198.7,208.1 L 205.5,208.1 L 212.2,208.1 L 219.0,208.1 L 225.7,208.1 L 232.5,208.1 L 239.3,208.1 L 246.0,208.1 L 252.8,208.1 L 259.5,208.1 L 266.3,208.1 L 273.1,208.1 L 279.8,208.1 L 286.6,208.1 L 293.3,208.1 L 300.1,208.1 L 306.9,208.1 L 313.6,208.1 L 320.4,208.1 L 327.1,208.1 L 333.9,208.1 L 340.6,208.1 L 347.4,208.1 L 354.2,208.1 L 360.9,208.1 L 367.7,208.1 L 374.4,208.1 L 381.2,208.1 L 388.0,208.1 L 394.7,208.1 L 401.5,208.1 L 408.2,208.1 L 415.0,208.1 L 421.8,208.1 L 428.5,208.1 L 435.3,208.1 L 442.0,208.1 L 448.8,208.1 L 455.6,208.1 L 462.3,208.1 L 469.1,208.1 L 475.8,208.1 L 482.6,208.1 L 489.4,208.1 L 496.1,208.1 L 502.9,208.1 L 509.6,208.1 L 516.4,208.1 L 523.1,208.1 L 529.9,208.1 L 536.7,208.1 L 543.4,208.1 L 550.2,208.1 L 556.9,208.1 L 563.7,208.1 L 570.5,208.1 L 577.2,208.1 L 584.0,208.1 L 590.7,208.1 L 597.5,208.1 L 604.3,208.1 L 611.0,208.1 L 617.8,208.1 L 624.5,208.1 L 631.3,208.1 L 638.1,208.1 L 644.8,208.1 L 651.6,208.1 L 658.3,208.1 L 665.1,208.1 L 671.9,208.1 L 678.6,208.1 L 685.4,208.1 L 692.1,208.1 L 698.9,208.1 L 705.6,208.1 L 712.4,208.1 L 719.2,208.1 L 725.9,208.1 L 732.7,208.1 L 739.4,208.1 L 746.2,208.1 L 753.0,208.1 L 759.7,208.1 L 766.5,208.1 L 773.2,208.1 L 780.0,208.1" fill="none" stroke="#7aa2f7" stroke-width="2.5" stroke-linejoin="round" stroke-linecap="round" opacity="0.9"/><path d="M 698.9,244.4 L 705.6,244.4 L 712.4,244.4 L 719.2,244.4 L 725.9,244.4 L 732.7,244.4 L 739.4,244.4 L 746.2,244.4 L 753.0,244.4 L 759.7,244.4 L 766.5,244.4 L 773.2,244.4 L 780.0,244.4" fill="none" stroke="#9ece6a" stroke-width="2.5" stroke-linejoin="round" stroke-linecap="round" opacity="0.9"/><path d="M 90.6,239.5 L 97.3,237.4 L 104.1,239.4 L 110.8,239.4 L 117.6,239.4 L 124.4,239.4 L 131.1,239.4 L 137.9,239.4 L 144.6,239.4 L 151.4,239.4 L 158.1,239.4 L 164.9,239.4 L 171.7,239.4 L 178.4,239.4 L 185.2,239.4 L 191.9,239.4 L 198.7,239.4 L 205.5,239.4 L 212.2,239.4 L 219.0,239.4 L 225.7,239.4 L 232.5,239.4 L 239.3,239.4 L 246.0,239.4 L 252.8,239.4 L 259.5,239.4 L 266.3,239.4 L 273.1,239.4 L 279.8,239.4 L 286.6,239.4 L 293.3,239.4 L 300.1,239.4 L 306.9,239.4 L 313.6,239.4 L 320.4,239.4 L 327.1,239.4 L 333.9,239.4 L 340.6,239.4 L 347.4,239.4 L 354.2,239.4 L 360.9,239.4 L 367.7,239.4 L 374.4,239.4 L 381.2,239.4 L 388.0,239.4 L 394.7,239.4 L 401.5,239.4 L 408.2,239.4 L 415.0,239.4 L 421.8,239.4 L 428.5,239.4 L 435.3,239.4 L 442.0,239.4 L 448.8,239.4 L 455.6,239.4 L 462.3,239.4 L 469.1,239.4 L 475.8,239.4 L 482.6,239.4 L 489.4,239.4 L 496.1,239.4 L 502.9,239.4 L 509.6,239.4 L 516.4,239.4 L 523.1,239.4 L 529.9,239.4 L 536.7,239.4 L 543.4,239.4 L 550.2,239.4 L 556.9,239.4 L 563.7,239.4 L 570.5,239.4 L 577.2,239.4 L 584.0,239.4 L 590.7,239.4 L 597.5,239.4 L 604.3,239.4 L 611.0,239.4 L 617.8,239.4 L 624.5,239.4 L 631.3,239.4 L 638.1,239.4 L 644.8,239.4 L 651.6,239.4 L 658.3,239.4 L 665.1,239.4 L 671.9,239.4 L 678.6,239.4 L 685.4,239.4 L 692.1,239.4 L 698.9,239.4 L 705.6,239.4 L 712.4,239.4 L 719.2,239.4 L 725.9,239.4 L 732.7,239.4 L 739.4,239.4 L 746.2,239.4 L 753.0,239.4 L 759.7,239.4 L 766.5,239.4 L 773.2,239.4 L 780.0,239.4" fill="none" stroke="#e0af68" stroke-width="2.5" stroke-linejoin="round" stroke-linecap="round" opacity="0.9"/><path d="M 144.6,239.4 L 151.4,239.4 L 158.1,239.4 L 164.9,239.4 L 171.7,239.4 L 178.4,239.4 L 185.2,239.4 L 191.9,239.4 L 198.7,239.4 L 205.5,239.4 L 212.2,237.0 L 219.0,237.0 L 225.7,237.0 L 232.5,237.0 L 239.3,237.0 L 246.0,237.0 L 252.8,237.0 L 259.5,237.0 L 266.3,237.0 L 273.1,237.0 L 279.8,237.0 L 286.6,237.0 L 293.3,237.0 L 300.1,237.0 L 306.9,237.0 L 313.6,237.0 L 320.4,234.6 L 327.1,234.6 L 333.9,234.6 L 340.6,234.6 L 347.4,234.6 L 354.2,232.9 L 360.9,232.9 L 367.7,232.9 L 374.4,232.9 L 381.2,232.9 L 388.0,232.9 L 394.7,232.9 L 401.5,232.9 L 408.2,232.9 L 415.0,232.9 L 421.8,232.9 L 428.5,232.9 L 435.3,232.9 L 442.0,232.9 L 448.8,232.9 L 455.6,232.9 L 462.3,232.9 L 469.1,232.9 L 475.8,232.9 L 482.6,232.9 L 489.4,232.9 L 496.1,232.9 L 502.9,232.9 L 509.6,232.9 L 516.4,232.9 L 523.1,232.9 L 529.9,232.9 L 536.7,232.9 L 543.4,232.9 L 550.2,232.9 L 556.9,232.9 L 563.7,232.9 L 570.5,232.9 L 577.2,232.9 L 584.0,232.9 L 590.7,232.9 L 597.5,232.9 L 604.3,232.9 L 611.0,232.9 L 617.8,232.9 L 624.5,232.9 L 631.3,232.9 L 638.1,232.9 L 644.8,232.9 L 651.6,232.9 L 658.3,232.9 L 665.1,232.9 L 671.9,232.9 L 678.6,232.9 L 685.4,231.3 L 692.1,231.3 L 698.9,228.9 L 705.6,228.9 L 712.4,227.3 L 719.2,227.3 L 725.9,227.3 L 732.7,227.3 L 739.4,227.3 L 746.2,227.3 L 753.0,227.3 L 759.7,227.3 L 766.5,227.3 L 773.2,227.3 L 780.0,227.3" fill="none" stroke="#bb9af7" stroke-width="2.5" stroke-linejoin="round" stroke-linecap="round" opacity="0.9"/><path d="M 144.6,249.2 L 151.4,249.2 L 158.1,249.2 L 164.9,249.2 L 171.7,249.2 L 178.4,249.2 L 185.2,249.2 L 191.9,249.2 L 198.7,249.2 L 205.5,249.2 L 212.2,249.2 L 219.0,249.2 L 225.7,249.2 L 232.5,249.2 L 239.3,249.2 L 246.0,249.2 L 252.8,249.2 L 259.5,249.2 L 266.3,249.2 L 273.1,249.2 L 279.8,249.2 L 286.6,249.2 L 293.3,249.2 L 300.1,249.2 L 306.9,249.2 L 313.6,249.2 L 320.4,249.2 L 327.1,249.2 L 333.9,249.2 L 340.6,249.2 L 347.4,249.2 L 354.2,249.2 L 360.9,249.2 L 367.7,249.2 L 374.4,249.2 L 381.2,249.2 L 388.0,249.2 L 394.7,249.2 L 401.5,249.2 L 408.2,249.2 L 415.0,249.2 L 421.8,249.2 L 428.5,249.2 L 435.3,249.2 L 442.0,249.2 L 448.8,249.2 L 455.6,249.2 L 462.3,249.2 L 469.1,249.2 L 475.8,249.2 L 482.6,249.2 L 489.4,249.2 L 496.1,249.2 L 502.9,249.2 L 509.6,249.2 L 516.4,249.2 L 523.1,249.2 L 529.9,249.2 L 536.7,249.2 L 543.4,249.2 L 550.2,249.2 L 556.9,249.2 L 563.7,249.2 L 570.5,249.2 L 577.2,249.2 L 584.0,249.2 L 590.7,249.2 L 597.5,249.2 L 604.3,249.2 L 611.0,249.2 L 617.8,249.2 L 624.5,249.2 L 631.3,249.2 L 638.1,249.2 L 644.8,249.2 L 651.6,249.2 L 658.3,249.2 L 665.1,249.2 L 671.9,249.2 L 678.6,249.2 L 685.4,249.2 L 692.1,249.2 L 698.9,249.2 L 705.6,249.2 L 712.4,249.2 L 719.2,249.2 L 725.9,249.2 L 732.7,249.2 L 739.4,249.2 L 746.2,249.2 L 753.0,249.2 L 759.7,249.2 L 766.5,249.2 L 773.2,249.2 L 780.0,249.2" fill="none" stroke="#7dcfff" stroke-width="2.5" stroke-linejoin="round" stroke-linecap="round" opacity="0.9"/>
  <circle cx="50.0" cy="236.0" r="3.5" fill="#7aa2f7" stroke="#1a1b26" stroke-width="1.5"/><circle cx="56.8" cy="234.1" r="3.5" fill="#7aa2f7" stroke="#1a1b26" stroke-width="1.5"/><circle cx="63.5" cy="234.0" r="3.5" fill="#7aa2f7" stroke="#1a1b26" stroke-width="1.5"/><circle cx="70.3" cy="233.3" r="3.5" fill="#7aa2f7" stroke="#1a1b26" stroke-width="1.5"/><circle cx="77.0" cy="231.5" r="3.5" fill="#7aa2f7" stroke="#1a1b26" stroke-width="1.5"/><circle cx="83.8" cy="208.1" r="3.5" fill="#7aa2f7" stroke="#1a1b26" stroke-width="1.5"/><circle cx="90.6" cy="208.1" r="3.5" fill="#7aa2f7" stroke="#1a1b26" stroke-width="1.5"/><circle cx="97.3" cy="208.1" r="3.5" fill="#7aa2f7" stroke="#1a1b26" stroke-width="1.5"/><circle cx="104.1" cy="208.1" r="3.5" fill="#7aa2f7" stroke="#1a1b26" stroke-width="1.5"/><circle cx="110.8" cy="208.1" r="3.5" fill="#7aa2f7" stroke="#1a1b26" stroke-width="1.5"/><circle cx="117.6" cy="208.1" r="3.5" fill="#7aa2f7" stroke="#1a1b26" stroke-width="1.5"/><circle cx="124.4" cy="208.1" r="3.5" fill="#7aa2f7" stroke="#1a1b26" stroke-width="1.5"/><circle cx="131.1" cy="208.1" r="3.5" fill="#7aa2f7" stroke="#1a1b26" stroke-width="1.5"/><circle cx="137.9" cy="208.1" r="3.5" fill="#7aa2f7" stroke="#1a1b26" stroke-width="1.5"/><circle cx="144.6" cy="208.1" r="3.5" fill="#7aa2f7" stroke="#1a1b26" stroke-width="1.5"/><circle cx="151.4" cy="208.1" r="3.5" fill="#7aa2f7" stroke="#1a1b26" stroke-width="1.5"/><circle cx="158.1" cy="208.1" r="3.5" fill="#7aa2f7" stroke="#1a1b26" stroke-width="1.5"/><circle cx="164.9" cy="208.1" r="3.5" fill="#7aa2f7" stroke="#1a1b26" stroke-width="1.5"/><circle cx="171.7" cy="208.1" r="3.5" fill="#7aa2f7" stroke="#1a1b26" stroke-width="1.5"/><circle cx="178.4" cy="208.1" r="3.5" fill="#7aa2f7" stroke="#1a1b26" stroke-width="1.5"/><circle cx="185.2" cy="208.1" r="3.5" fill="#7aa2f7" stroke="#1a1b26" stroke-width="1.5"/><circle cx="191.9" cy="208.1" r="3.5" fill="#7aa2f7" stroke="#1a1b26" stroke-width="1.5"/><circle cx="198.7" cy="208.1" r="3.5" fill="#7aa2f7" stroke="#1a1b26" stroke-width="1.5"/><circle cx="205.5" cy="208.1" r="3.5" fill="#7aa2f7" stroke="#1a1b26" stroke-width="1.5"/><circle cx="212.2" cy="208.1" r="3.5" fill="#7aa2f7" stroke="#1a1b26" stroke-width="1.5"/><circle cx="219.0" cy="208.1" r="3.5" fill="#7aa2f7" stroke="#1a1b26" stroke-width="1.5"/><circle cx="225.7" cy="208.1" r="3.5" fill="#7aa2f7" stroke="#1a1b26" stroke-width="1.5"/><circle cx="232.5" cy="208.1" r="3.5" fill="#7aa2f7" stroke="#1a1b26" stroke-width="1.5"/><circle cx="239.3" cy="208.1" r="3.5" fill="#7aa2f7" stroke="#1a1b26" stroke-width="1.5"/><circle cx="246.0" cy="208.1" r="3.5" fill="#7aa2f7" stroke="#1a1b26" stroke-width="1.5"/><circle cx="252.8" cy="208.1" r="3.5" fill="#7aa2f7" stroke="#1a1b26" stroke-width="1.5"/><circle cx="259.5" cy="208.1" r="3.5" fill="#7aa2f7" stroke="#1a1b26" stroke-width="1.5"/><circle cx="266.3" cy="208.1" r="3.5" fill="#7aa2f7" stroke="#1a1b26" stroke-width="1.5"/><circle cx="273.1" cy="208.1" r="3.5" fill="#7aa2f7" stroke="#1a1b26" stroke-width="1.5"/><circle cx="279.8" cy="208.1" r="3.5" fill="#7aa2f7" stroke="#1a1b26" stroke-width="1.5"/><circle cx="286.6" cy="208.1" r="3.5" fill="#7aa2f7" stroke="#1a1b26" stroke-width="1.5"/><circle cx="293.3" cy="208.1" r="3.5" fill="#7aa2f7" stroke="#1a1b26" stroke-width="1.5"/><circle cx="300.1" cy="208.1" r="3.5" fill="#7aa2f7" stroke="#1a1b26" stroke-width="1.5"/><circle cx="306.9" cy="208.1" r="3.5" fill="#7aa2f7" stroke="#1a1b26" stroke-width="1.5"/><circle cx="313.6" cy="208.1" r="3.5" fill="#7aa2f7" stroke="#1a1b26" stroke-width="1.5"/><circle cx="320.4" cy="208.1" r="3.5" fill="#7aa2f7" stroke="#1a1b26" stroke-width="1.5"/><circle cx="327.1" cy="208.1" r="3.5" fill="#7aa2f7" stroke="#1a1b26" stroke-width="1.5"/><circle cx="333.9" cy="208.1" r="3.5" fill="#7aa2f7" stroke="#1a1b26" stroke-width="1.5"/><circle cx="340.6" cy="208.1" r="3.5" fill="#7aa2f7" stroke="#1a1b26" stroke-width="1.5"/><circle cx="347.4" cy="208.1" r="3.5" fill="#7aa2f7" stroke="#1a1b26" stroke-width="1.5"/><circle cx="354.2" cy="208.1" r="3.5" fill="#7aa2f7" stroke="#1a1b26" stroke-width="1.5"/><circle cx="360.9" cy="208.1" r="3.5" fill="#7aa2f7" stroke="#1a1b26" stroke-width="1.5"/><circle cx="367.7" cy="208.1" r="3.5" fill="#7aa2f7" stroke="#1a1b26" stroke-width="1.5"/><circle cx="374.4" cy="208.1" r="3.5" fill="#7aa2f7" stroke="#1a1b26" stroke-width="1.5"/><circle cx="381.2" cy="208.1" r="3.5" fill="#7aa2f7" stroke="#1a1b26" stroke-width="1.5"/><circle cx="388.0" cy="208.1" r="3.5" fill="#7aa2f7" stroke="#1a1b26" stroke-width="1.5"/><circle cx="394.7" cy="208.1" r="3.5" fill="#7aa2f7" stroke="#1a1b26" stroke-width="1.5"/><circle cx="401.5" cy="208.1" r="3.5" fill="#7aa2f7" stroke="#1a1b26" stroke-width="1.5"/><circle cx="408.2" cy="208.1" r="3.5" fill="#7aa2f7" stroke="#1a1b26" stroke-width="1.5"/><circle cx="415.0" cy="208.1" r="3.5" fill="#7aa2f7" stroke="#1a1b26" stroke-width="1.5"/><circle cx="421.8" cy="208.1" r="3.5" fill="#7aa2f7" stroke="#1a1b26" stroke-width="1.5"/><circle cx="428.5" cy="208.1" r="3.5" fill="#7aa2f7" stroke="#1a1b26" stroke-width="1.5"/><circle cx="435.3" cy="208.1" r="3.5" fill="#7aa2f7" stroke="#1a1b26" stroke-width="1.5"/><circle cx="442.0" cy="208.1" r="3.5" fill="#7aa2f7" stroke="#1a1b26" stroke-width="1.5"/><circle cx="448.8" cy="208.1" r="3.5" fill="#7aa2f7" stroke="#1a1b26" stroke-width="1.5"/><circle cx="455.6" cy="208.1" r="3.5" fill="#7aa2f7" stroke="#1a1b26" stroke-width="1.5"/><circle cx="462.3" cy="208.1" r="3.5" fill="#7aa2f7" stroke="#1a1b26" stroke-width="1.5"/><circle cx="469.1" cy="208.1" r="3.5" fill="#7aa2f7" stroke="#1a1b26" stroke-width="1.5"/><circle cx="475.8" cy="208.1" r="3.5" fill="#7aa2f7" stroke="#1a1b26" stroke-width="1.5"/><circle cx="482.6" cy="208.1" r="3.5" fill="#7aa2f7" stroke="#1a1b26" stroke-width="1.5"/><circle cx="489.4" cy="208.1" r="3.5" fill="#7aa2f7" stroke="#1a1b26" stroke-width="1.5"/><circle cx="496.1" cy="208.1" r="3.5" fill="#7aa2f7" stroke="#1a1b26" stroke-width="1.5"/><circle cx="502.9" cy="208.1" r="3.5" fill="#7aa2f7" stroke="#1a1b26" stroke-width="1.5"/><circle cx="509.6" cy="208.1" r="3.5" fill="#7aa2f7" stroke="#1a1b26" stroke-width="1.5"/><circle cx="516.4" cy="208.1" r="3.5" fill="#7aa2f7" stroke="#1a1b26" stroke-width="1.5"/><circle cx="523.1" cy="208.1" r="3.5" fill="#7aa2f7" stroke="#1a1b26" stroke-width="1.5"/><circle cx="529.9" cy="208.1" r="3.5" fill="#7aa2f7" stroke="#1a1b26" stroke-width="1.5"/><circle cx="536.7" cy="208.1" r="3.5" fill="#7aa2f7" stroke="#1a1b26" stroke-width="1.5"/><circle cx="543.4" cy="208.1" r="3.5" fill="#7aa2f7" stroke="#1a1b26" stroke-width="1.5"/><circle cx="550.2" cy="208.1" r="3.5" fill="#7aa2f7" stroke="#1a1b26" stroke-width="1.5"/><circle cx="556.9" cy="208.1" r="3.5" fill="#7aa2f7" stroke="#1a1b26" stroke-width="1.5"/><circle cx="563.7" cy="208.1" r="3.5" fill="#7aa2f7" stroke="#1a1b26" stroke-width="1.5"/><circle cx="570.5" cy="208.1" r="3.5" fill="#7aa2f7" stroke="#1a1b26" stroke-width="1.5"/><circle cx="577.2" cy="208.1" r="3.5" fill="#7aa2f7" stroke="#1a1b26" stroke-width="1.5"/><circle cx="584.0" cy="208.1" r="3.5" fill="#7aa2f7" stroke="#1a1b26" stroke-width="1.5"/><circle cx="590.7" cy="208.1" r="3.5" fill="#7aa2f7" stroke="#1a1b26" stroke-width="1.5"/><circle cx="597.5" cy="208.1" r="3.5" fill="#7aa2f7" stroke="#1a1b26" stroke-width="1.5"/><circle cx="604.3" cy="208.1" r="3.5" fill="#7aa2f7" stroke="#1a1b26" stroke-width="1.5"/><circle cx="611.0" cy="208.1" r="3.5" fill="#7aa2f7" stroke="#1a1b26" stroke-width="1.5"/><circle cx="617.8" cy="208.1" r="3.5" fill="#7aa2f7" stroke="#1a1b26" stroke-width="1.5"/><circle cx="624.5" cy="208.1" r="3.5" fill="#7aa2f7" stroke="#1a1b26" stroke-width="1.5"/><circle cx="631.3" cy="208.1" r="3.5" fill="#7aa2f7" stroke="#1a1b26" stroke-width="1.5"/><circle cx="638.1" cy="208.1" r="3.5" fill="#7aa2f7" stroke="#1a1b26" stroke-width="1.5"/><circle cx="644.8" cy="208.1" r="3.5" fill="#7aa2f7" stroke="#1a1b26" stroke-width="1.5"/><circle cx="651.6" cy="208.1" r="3.5" fill="#7aa2f7" stroke="#1a1b26" stroke-width="1.5"/><circle cx="658.3" cy="208.1" r="3.5" fill="#7aa2f7" stroke="#1a1b26" stroke-width="1.5"/><circle cx="665.1" cy="208.1" r="3.5" fill="#7aa2f7" stroke="#1a1b26" stroke-width="1.5"/><circle cx="671.9" cy="208.1" r="3.5" fill="#7aa2f7" stroke="#1a1b26" stroke-width="1.5"/><circle cx="678.6" cy="208.1" r="3.5" fill="#7aa2f7" stroke="#1a1b26" stroke-width="1.5"/><circle cx="685.4" cy="208.1" r="3.5" fill="#7aa2f7" stroke="#1a1b26" stroke-width="1.5"/><circle cx="692.1" cy="208.1" r="3.5" fill="#7aa2f7" stroke="#1a1b26" stroke-width="1.5"/><circle cx="698.9" cy="208.1" r="3.5" fill="#7aa2f7" stroke="#1a1b26" stroke-width="1.5"/><circle cx="705.6" cy="208.1" r="3.5" fill="#7aa2f7" stroke="#1a1b26" stroke-width="1.5"/><circle cx="712.4" cy="208.1" r="3.5" fill="#7aa2f7" stroke="#1a1b26" stroke-width="1.5"/><circle cx="719.2" cy="208.1" r="3.5" fill="#7aa2f7" stroke="#1a1b26" stroke-width="1.5"/><circle cx="725.9" cy="208.1" r="3.5" fill="#7aa2f7" stroke="#1a1b26" stroke-width="1.5"/><circle cx="732.7" cy="208.1" r="3.5" fill="#7aa2f7" stroke="#1a1b26" stroke-width="1.5"/><circle cx="739.4" cy="208.1" r="3.5" fill="#7aa2f7" stroke="#1a1b26" stroke-width="1.5"/><circle cx="746.2" cy="208.1" r="3.5" fill="#7aa2f7" stroke="#1a1b26" stroke-width="1.5"/><circle cx="753.0" cy="208.1" r="3.5" fill="#7aa2f7" stroke="#1a1b26" stroke-width="1.5"/><circle cx="759.7" cy="208.1" r="3.5" fill="#7aa2f7" stroke="#1a1b26" stroke-width="1.5"/><circle cx="766.5" cy="208.1" r="3.5" fill="#7aa2f7" stroke="#1a1b26" stroke-width="1.5"/><circle cx="773.2" cy="208.1" r="3.5" fill="#7aa2f7" stroke="#1a1b26" stroke-width="1.5"/><circle cx="780.0" cy="208.1" r="3.5" fill="#7aa2f7" stroke="#1a1b26" stroke-width="1.5"/><circle cx="698.9" cy="244.4" r="3.5" fill="#9ece6a" stroke="#1a1b26" stroke-width="1.5"/><circle cx="705.6" cy="244.4" r="3.5" fill="#9ece6a" stroke="#1a1b26" stroke-width="1.5"/><circle cx="712.4" cy="244.4" r="3.5" fill="#9ece6a" stroke="#1a1b26" stroke-width="1.5"/><circle cx="719.2" cy="244.4" r="3.5" fill="#9ece6a" stroke="#1a1b26" stroke-width="1.5"/><circle cx="725.9" cy="244.4" r="3.5" fill="#9ece6a" stroke="#1a1b26" stroke-width="1.5"/><circle cx="732.7" cy="244.4" r="3.5" fill="#9ece6a" stroke="#1a1b26" stroke-width="1.5"/><circle cx="739.4" cy="244.4" r="3.5" fill="#9ece6a" stroke="#1a1b26" stroke-width="1.5"/><circle cx="746.2" cy="244.4" r="3.5" fill="#9ece6a" stroke="#1a1b26" stroke-width="1.5"/><circle cx="753.0" cy="244.4" r="3.5" fill="#9ece6a" stroke="#1a1b26" stroke-width="1.5"/><circle cx="759.7" cy="244.4" r="3.5" fill="#9ece6a" stroke="#1a1b26" stroke-width="1.5"/><circle cx="766.5" cy="244.4" r="3.5" fill="#9ece6a" stroke="#1a1b26" stroke-width="1.5"/><circle cx="773.2" cy="244.4" r="3.5" fill="#9ece6a" stroke="#1a1b26" stroke-width="1.5"/><circle cx="780.0" cy="244.4" r="3.5" fill="#9ece6a" stroke="#1a1b26" stroke-width="1.5"/><circle cx="90.6" cy="239.5" r="3.5" fill="#e0af68" stroke="#1a1b26" stroke-width="1.5"/><circle cx="97.3" cy="237.4" r="3.5" fill="#e0af68" stroke="#1a1b26" stroke-width="1.5"/><circle cx="104.1" cy="239.4" r="3.5" fill="#e0af68" stroke="#1a1b26" stroke-width="1.5"/><circle cx="110.8" cy="239.4" r="3.5" fill="#e0af68" stroke="#1a1b26" stroke-width="1.5"/><circle cx="117.6" cy="239.4" r="3.5" fill="#e0af68" stroke="#1a1b26" stroke-width="1.5"/><circle cx="124.4" cy="239.4" r="3.5" fill="#e0af68" stroke="#1a1b26" stroke-width="1.5"/><circle cx="131.1" cy="239.4" r="3.5" fill="#e0af68" stroke="#1a1b26" stroke-width="1.5"/><circle cx="137.9" cy="239.4" r="3.5" fill="#e0af68" stroke="#1a1b26" stroke-width="1.5"/><circle cx="144.6" cy="239.4" r="3.5" fill="#e0af68" stroke="#1a1b26" stroke-width="1.5"/><circle cx="151.4" cy="239.4" r="3.5" fill="#e0af68" stroke="#1a1b26" stroke-width="1.5"/><circle cx="158.1" cy="239.4" r="3.5" fill="#e0af68" stroke="#1a1b26" stroke-width="1.5"/><circle cx="164.9" cy="239.4" r="3.5" fill="#e0af68" stroke="#1a1b26" stroke-width="1.5"/><circle cx="171.7" cy="239.4" r="3.5" fill="#e0af68" stroke="#1a1b26" stroke-width="1.5"/><circle cx="178.4" cy="239.4" r="3.5" fill="#e0af68" stroke="#1a1b26" stroke-width="1.5"/><circle cx="185.2" cy="239.4" r="3.5" fill="#e0af68" stroke="#1a1b26" stroke-width="1.5"/><circle cx="191.9" cy="239.4" r="3.5" fill="#e0af68" stroke="#1a1b26" stroke-width="1.5"/><circle cx="198.7" cy="239.4" r="3.5" fill="#e0af68" stroke="#1a1b26" stroke-width="1.5"/><circle cx="205.5" cy="239.4" r="3.5" fill="#e0af68" stroke="#1a1b26" stroke-width="1.5"/><circle cx="212.2" cy="239.4" r="3.5" fill="#e0af68" stroke="#1a1b26" stroke-width="1.5"/><circle cx="219.0" cy="239.4" r="3.5" fill="#e0af68" stroke="#1a1b26" stroke-width="1.5"/><circle cx="225.7" cy="239.4" r="3.5" fill="#e0af68" stroke="#1a1b26" stroke-width="1.5"/><circle cx="232.5" cy="239.4" r="3.5" fill="#e0af68" stroke="#1a1b26" stroke-width="1.5"/><circle cx="239.3" cy="239.4" r="3.5" fill="#e0af68" stroke="#1a1b26" stroke-width="1.5"/><circle cx="246.0" cy="239.4" r="3.5" fill="#e0af68" stroke="#1a1b26" stroke-width="1.5"/><circle cx="252.8" cy="239.4" r="3.5" fill="#e0af68" stroke="#1a1b26" stroke-width="1.5"/><circle cx="259.5" cy="239.4" r="3.5" fill="#e0af68" stroke="#1a1b26" stroke-width="1.5"/><circle cx="266.3" cy="239.4" r="3.5" fill="#e0af68" stroke="#1a1b26" stroke-width="1.5"/><circle cx="273.1" cy="239.4" r="3.5" fill="#e0af68" stroke="#1a1b26" stroke-width="1.5"/><circle cx="279.8" cy="239.4" r="3.5" fill="#e0af68" stroke="#1a1b26" stroke-width="1.5"/><circle cx="286.6" cy="239.4" r="3.5" fill="#e0af68" stroke="#1a1b26" stroke-width="1.5"/><circle cx="293.3" cy="239.4" r="3.5" fill="#e0af68" stroke="#1a1b26" stroke-width="1.5"/><circle cx="300.1" cy="239.4" r="3.5" fill="#e0af68" stroke="#1a1b26" stroke-width="1.5"/><circle cx="306.9" cy="239.4" r="3.5" fill="#e0af68" stroke="#1a1b26" stroke-width="1.5"/><circle cx="313.6" cy="239.4" r="3.5" fill="#e0af68" stroke="#1a1b26" stroke-width="1.5"/><circle cx="320.4" cy="239.4" r="3.5" fill="#e0af68" stroke="#1a1b26" stroke-width="1.5"/><circle cx="327.1" cy="239.4" r="3.5" fill="#e0af68" stroke="#1a1b26" stroke-width="1.5"/><circle cx="333.9" cy="239.4" r="3.5" fill="#e0af68" stroke="#1a1b26" stroke-width="1.5"/><circle cx="340.6" cy="239.4" r="3.5" fill="#e0af68" stroke="#1a1b26" stroke-width="1.5"/><circle cx="347.4" cy="239.4" r="3.5" fill="#e0af68" stroke="#1a1b26" stroke-width="1.5"/><circle cx="354.2" cy="239.4" r="3.5" fill="#e0af68" stroke="#1a1b26" stroke-width="1.5"/><circle cx="360.9" cy="239.4" r="3.5" fill="#e0af68" stroke="#1a1b26" stroke-width="1.5"/><circle cx="367.7" cy="239.4" r="3.5" fill="#e0af68" stroke="#1a1b26" stroke-width="1.5"/><circle cx="374.4" cy="239.4" r="3.5" fill="#e0af68" stroke="#1a1b26" stroke-width="1.5"/><circle cx="381.2" cy="239.4" r="3.5" fill="#e0af68" stroke="#1a1b26" stroke-width="1.5"/><circle cx="388.0" cy="239.4" r="3.5" fill="#e0af68" stroke="#1a1b26" stroke-width="1.5"/><circle cx="394.7" cy="239.4" r="3.5" fill="#e0af68" stroke="#1a1b26" stroke-width="1.5"/><circle cx="401.5" cy="239.4" r="3.5" fill="#e0af68" stroke="#1a1b26" stroke-width="1.5"/><circle cx="408.2" cy="239.4" r="3.5" fill="#e0af68" stroke="#1a1b26" stroke-width="1.5"/><circle cx="415.0" cy="239.4" r="3.5" fill="#e0af68" stroke="#1a1b26" stroke-width="1.5"/><circle cx="421.8" cy="239.4" r="3.5" fill="#e0af68" stroke="#1a1b26" stroke-width="1.5"/><circle cx="428.5" cy="239.4" r="3.5" fill="#e0af68" stroke="#1a1b26" stroke-width="1.5"/><circle cx="435.3" cy="239.4" r="3.5" fill="#e0af68" stroke="#1a1b26" stroke-width="1.5"/><circle cx="442.0" cy="239.4" r="3.5" fill="#e0af68" stroke="#1a1b26" stroke-width="1.5"/><circle cx="448.8" cy="239.4" r="3.5" fill="#e0af68" stroke="#1a1b26" stroke-width="1.5"/><circle cx="455.6" cy="239.4" r="3.5" fill="#e0af68" stroke="#1a1b26" stroke-width="1.5"/><circle cx="462.3" cy="239.4" r="3.5" fill="#e0af68" stroke="#1a1b26" stroke-width="1.5"/><circle cx="469.1" cy="239.4" r="3.5" fill="#e0af68" stroke="#1a1b26" stroke-width="1.5"/><circle cx="475.8" cy="239.4" r="3.5" fill="#e0af68" stroke="#1a1b26" stroke-width="1.5"/><circle cx="482.6" cy="239.4" r="3.5" fill="#e0af68" stroke="#1a1b26" stroke-width="1.5"/><circle cx="489.4" cy="239.4" r="3.5" fill="#e0af68" stroke="#1a1b26" stroke-width="1.5"/><circle cx="496.1" cy="239.4" r="3.5" fill="#e0af68" stroke="#1a1b26" stroke-width="1.5"/><circle cx="502.9" cy="239.4" r="3.5" fill="#e0af68" stroke="#1a1b26" stroke-width="1.5"/><circle cx="509.6" cy="239.4" r="3.5" fill="#e0af68" stroke="#1a1b26" stroke-width="1.5"/><circle cx="516.4" cy="239.4" r="3.5" fill="#e0af68" stroke="#1a1b26" stroke-width="1.5"/><circle cx="523.1" cy="239.4" r="3.5" fill="#e0af68" stroke="#1a1b26" stroke-width="1.5"/><circle cx="529.9" cy="239.4" r="3.5" fill="#e0af68" stroke="#1a1b26" stroke-width="1.5"/><circle cx="536.7" cy="239.4" r="3.5" fill="#e0af68" stroke="#1a1b26" stroke-width="1.5"/><circle cx="543.4" cy="239.4" r="3.5" fill="#e0af68" stroke="#1a1b26" stroke-width="1.5"/><circle cx="550.2" cy="239.4" r="3.5" fill="#e0af68" stroke="#1a1b26" stroke-width="1.5"/><circle cx="556.9" cy="239.4" r="3.5" fill="#e0af68" stroke="#1a1b26" stroke-width="1.5"/><circle cx="563.7" cy="239.4" r="3.5" fill="#e0af68" stroke="#1a1b26" stroke-width="1.5"/><circle cx="570.5" cy="239.4" r="3.5" fill="#e0af68" stroke="#1a1b26" stroke-width="1.5"/><circle cx="577.2" cy="239.4" r="3.5" fill="#e0af68" stroke="#1a1b26" stroke-width="1.5"/><circle cx="584.0" cy="239.4" r="3.5" fill="#e0af68" stroke="#1a1b26" stroke-width="1.5"/><circle cx="590.7" cy="239.4" r="3.5" fill="#e0af68" stroke="#1a1b26" stroke-width="1.5"/><circle cx="597.5" cy="239.4" r="3.5" fill="#e0af68" stroke="#1a1b26" stroke-width="1.5"/><circle cx="604.3" cy="239.4" r="3.5" fill="#e0af68" stroke="#1a1b26" stroke-width="1.5"/><circle cx="611.0" cy="239.4" r="3.5" fill="#e0af68" stroke="#1a1b26" stroke-width="1.5"/><circle cx="617.8" cy="239.4" r="3.5" fill="#e0af68" stroke="#1a1b26" stroke-width="1.5"/><circle cx="624.5" cy="239.4" r="3.5" fill="#e0af68" stroke="#1a1b26" stroke-width="1.5"/><circle cx="631.3" cy="239.4" r="3.5" fill="#e0af68" stroke="#1a1b26" stroke-width="1.5"/><circle cx="638.1" cy="239.4" r="3.5" fill="#e0af68" stroke="#1a1b26" stroke-width="1.5"/><circle cx="644.8" cy="239.4" r="3.5" fill="#e0af68" stroke="#1a1b26" stroke-width="1.5"/><circle cx="651.6" cy="239.4" r="3.5" fill="#e0af68" stroke="#1a1b26" stroke-width="1.5"/><circle cx="658.3" cy="239.4" r="3.5" fill="#e0af68" stroke="#1a1b26" stroke-width="1.5"/><circle cx="665.1" cy="239.4" r="3.5" fill="#e0af68" stroke="#1a1b26" stroke-width="1.5"/><circle cx="671.9" cy="239.4" r="3.5" fill="#e0af68" stroke="#1a1b26" stroke-width="1.5"/><circle cx="678.6" cy="239.4" r="3.5" fill="#e0af68" stroke="#1a1b26" stroke-width="1.5"/><circle cx="685.4" cy="239.4" r="3.5" fill="#e0af68" stroke="#1a1b26" stroke-width="1.5"/><circle cx="692.1" cy="239.4" r="3.5" fill="#e0af68" stroke="#1a1b26" stroke-width="1.5"/><circle cx="698.9" cy="239.4" r="3.5" fill="#e0af68" stroke="#1a1b26" stroke-width="1.5"/><circle cx="705.6" cy="239.4" r="3.5" fill="#e0af68" stroke="#1a1b26" stroke-width="1.5"/><circle cx="712.4" cy="239.4" r="3.5" fill="#e0af68" stroke="#1a1b26" stroke-width="1.5"/><circle cx="719.2" cy="239.4" r="3.5" fill="#e0af68" stroke="#1a1b26" stroke-width="1.5"/><circle cx="725.9" cy="239.4" r="3.5" fill="#e0af68" stroke="#1a1b26" stroke-width="1.5"/><circle cx="732.7" cy="239.4" r="3.5" fill="#e0af68" stroke="#1a1b26" stroke-width="1.5"/><circle cx="739.4" cy="239.4" r="3.5" fill="#e0af68" stroke="#1a1b26" stroke-width="1.5"/><circle cx="746.2" cy="239.4" r="3.5" fill="#e0af68" stroke="#1a1b26" stroke-width="1.5"/><circle cx="753.0" cy="239.4" r="3.5" fill="#e0af68" stroke="#1a1b26" stroke-width="1.5"/><circle cx="759.7" cy="239.4" r="3.5" fill="#e0af68" stroke="#1a1b26" stroke-width="1.5"/><circle cx="766.5" cy="239.4" r="3.5" fill="#e0af68" stroke="#1a1b26" stroke-width="1.5"/><circle cx="773.2" cy="239.4" r="3.5" fill="#e0af68" stroke="#1a1b26" stroke-width="1.5"/><circle cx="780.0" cy="239.4" r="3.5" fill="#e0af68" stroke="#1a1b26" stroke-width="1.5"/><circle cx="144.6" cy="239.4" r="3.5" fill="#bb9af7" stroke="#1a1b26" stroke-width="1.5"/><circle cx="151.4" cy="239.4" r="3.5" fill="#bb9af7" stroke="#1a1b26" stroke-width="1.5"/><circle cx="158.1" cy="239.4" r="3.5" fill="#bb9af7" stroke="#1a1b26" stroke-width="1.5"/><circle cx="164.9" cy="239.4" r="3.5" fill="#bb9af7" stroke="#1a1b26" stroke-width="1.5"/><circle cx="171.7" cy="239.4" r="3.5" fill="#bb9af7" stroke="#1a1b26" stroke-width="1.5"/><circle cx="178.4" cy="239.4" r="3.5" fill="#bb9af7" stroke="#1a1b26" stroke-width="1.5"/><circle cx="185.2" cy="239.4" r="3.5" fill="#bb9af7" stroke="#1a1b26" stroke-width="1.5"/><circle cx="191.9" cy="239.4" r="3.5" fill="#bb9af7" stroke="#1a1b26" stroke-width="1.5"/><circle cx="198.7" cy="239.4" r="3.5" fill="#bb9af7" stroke="#1a1b26" stroke-width="1.5"/><circle cx="205.5" cy="239.4" r="3.5" fill="#bb9af7" stroke="#1a1b26" stroke-width="1.5"/><circle cx="212.2" cy="237.0" r="3.5" fill="#bb9af7" stroke="#1a1b26" stroke-width="1.5"/><circle cx="219.0" cy="237.0" r="3.5" fill="#bb9af7" stroke="#1a1b26" stroke-width="1.5"/><circle cx="225.7" cy="237.0" r="3.5" fill="#bb9af7" stroke="#1a1b26" stroke-width="1.5"/><circle cx="232.5" cy="237.0" r="3.5" fill="#bb9af7" stroke="#1a1b26" stroke-width="1.5"/><circle cx="239.3" cy="237.0" r="3.5" fill="#bb9af7" stroke="#1a1b26" stroke-width="1.5"/><circle cx="246.0" cy="237.0" r="3.5" fill="#bb9af7" stroke="#1a1b26" stroke-width="1.5"/><circle cx="252.8" cy="237.0" r="3.5" fill="#bb9af7" stroke="#1a1b26" stroke-width="1.5"/><circle cx="259.5" cy="237.0" r="3.5" fill="#bb9af7" stroke="#1a1b26" stroke-width="1.5"/><circle cx="266.3" cy="237.0" r="3.5" fill="#bb9af7" stroke="#1a1b26" stroke-width="1.5"/><circle cx="273.1" cy="237.0" r="3.5" fill="#bb9af7" stroke="#1a1b26" stroke-width="1.5"/><circle cx="279.8" cy="237.0" r="3.5" fill="#bb9af7" stroke="#1a1b26" stroke-width="1.5"/><circle cx="286.6" cy="237.0" r="3.5" fill="#bb9af7" stroke="#1a1b26" stroke-width="1.5"/><circle cx="293.3" cy="237.0" r="3.5" fill="#bb9af7" stroke="#1a1b26" stroke-width="1.5"/><circle cx="300.1" cy="237.0" r="3.5" fill="#bb9af7" stroke="#1a1b26" stroke-width="1.5"/><circle cx="306.9" cy="237.0" r="3.5" fill="#bb9af7" stroke="#1a1b26" stroke-width="1.5"/><circle cx="313.6" cy="237.0" r="3.5" fill="#bb9af7" stroke="#1a1b26" stroke-width="1.5"/><circle cx="320.4" cy="234.6" r="3.5" fill="#bb9af7" stroke="#1a1b26" stroke-width="1.5"/><circle cx="327.1" cy="234.6" r="3.5" fill="#bb9af7" stroke="#1a1b26" stroke-width="1.5"/><circle cx="333.9" cy="234.6" r="3.5" fill="#bb9af7" stroke="#1a1b26" stroke-width="1.5"/><circle cx="340.6" cy="234.6" r="3.5" fill="#bb9af7" stroke="#1a1b26" stroke-width="1.5"/><circle cx="347.4" cy="234.6" r="3.5" fill="#bb9af7" stroke="#1a1b26" stroke-width="1.5"/><circle cx="354.2" cy="232.9" r="3.5" fill="#bb9af7" stroke="#1a1b26" stroke-width="1.5"/><circle cx="360.9" cy="232.9" r="3.5" fill="#bb9af7" stroke="#1a1b26" stroke-width="1.5"/><circle cx="367.7" cy="232.9" r="3.5" fill="#bb9af7" stroke="#1a1b26" stroke-width="1.5"/><circle cx="374.4" cy="232.9" r="3.5" fill="#bb9af7" stroke="#1a1b26" stroke-width="1.5"/><circle cx="381.2" cy="232.9" r="3.5" fill="#bb9af7" stroke="#1a1b26" stroke-width="1.5"/><circle cx="388.0" cy="232.9" r="3.5" fill="#bb9af7" stroke="#1a1b26" stroke-width="1.5"/><circle cx="394.7" cy="232.9" r="3.5" fill="#bb9af7" stroke="#1a1b26" stroke-width="1.5"/><circle cx="401.5" cy="232.9" r="3.5" fill="#bb9af7" stroke="#1a1b26" stroke-width="1.5"/><circle cx="408.2" cy="232.9" r="3.5" fill="#bb9af7" stroke="#1a1b26" stroke-width="1.5"/><circle cx="415.0" cy="232.9" r="3.5" fill="#bb9af7" stroke="#1a1b26" stroke-width="1.5"/><circle cx="421.8" cy="232.9" r="3.5" fill="#bb9af7" stroke="#1a1b26" stroke-width="1.5"/><circle cx="428.5" cy="232.9" r="3.5" fill="#bb9af7" stroke="#1a1b26" stroke-width="1.5"/><circle cx="435.3" cy="232.9" r="3.5" fill="#bb9af7" stroke="#1a1b26" stroke-width="1.5"/><circle cx="442.0" cy="232.9" r="3.5" fill="#bb9af7" stroke="#1a1b26" stroke-width="1.5"/><circle cx="448.8" cy="232.9" r="3.5" fill="#bb9af7" stroke="#1a1b26" stroke-width="1.5"/><circle cx="455.6" cy="232.9" r="3.5" fill="#bb9af7" stroke="#1a1b26" stroke-width="1.5"/><circle cx="462.3" cy="232.9" r="3.5" fill="#bb9af7" stroke="#1a1b26" stroke-width="1.5"/><circle cx="469.1" cy="232.9" r="3.5" fill="#bb9af7" stroke="#1a1b26" stroke-width="1.5"/><circle cx="475.8" cy="232.9" r="3.5" fill="#bb9af7" stroke="#1a1b26" stroke-width="1.5"/><circle cx="482.6" cy="232.9" r="3.5" fill="#bb9af7" stroke="#1a1b26" stroke-width="1.5"/><circle cx="489.4" cy="232.9" r="3.5" fill="#bb9af7" stroke="#1a1b26" stroke-width="1.5"/><circle cx="496.1" cy="232.9" r="3.5" fill="#bb9af7" stroke="#1a1b26" stroke-width="1.5"/><circle cx="502.9" cy="232.9" r="3.5" fill="#bb9af7" stroke="#1a1b26" stroke-width="1.5"/><circle cx="509.6" cy="232.9" r="3.5" fill="#bb9af7" stroke="#1a1b26" stroke-width="1.5"/><circle cx="516.4" cy="232.9" r="3.5" fill="#bb9af7" stroke="#1a1b26" stroke-width="1.5"/><circle cx="523.1" cy="232.9" r="3.5" fill="#bb9af7" stroke="#1a1b26" stroke-width="1.5"/><circle cx="529.9" cy="232.9" r="3.5" fill="#bb9af7" stroke="#1a1b26" stroke-width="1.5"/><circle cx="536.7" cy="232.9" r="3.5" fill="#bb9af7" stroke="#1a1b26" stroke-width="1.5"/><circle cx="543.4" cy="232.9" r="3.5" fill="#bb9af7" stroke="#1a1b26" stroke-width="1.5"/><circle cx="550.2" cy="232.9" r="3.5" fill="#bb9af7" stroke="#1a1b26" stroke-width="1.5"/><circle cx="556.9" cy="232.9" r="3.5" fill="#bb9af7" stroke="#1a1b26" stroke-width="1.5"/><circle cx="563.7" cy="232.9" r="3.5" fill="#bb9af7" stroke="#1a1b26" stroke-width="1.5"/><circle cx="570.5" cy="232.9" r="3.5" fill="#bb9af7" stroke="#1a1b26" stroke-width="1.5"/><circle cx="577.2" cy="232.9" r="3.5" fill="#bb9af7" stroke="#1a1b26" stroke-width="1.5"/><circle cx="584.0" cy="232.9" r="3.5" fill="#bb9af7" stroke="#1a1b26" stroke-width="1.5"/><circle cx="590.7" cy="232.9" r="3.5" fill="#bb9af7" stroke="#1a1b26" stroke-width="1.5"/><circle cx="597.5" cy="232.9" r="3.5" fill="#bb9af7" stroke="#1a1b26" stroke-width="1.5"/><circle cx="604.3" cy="232.9" r="3.5" fill="#bb9af7" stroke="#1a1b26" stroke-width="1.5"/><circle cx="611.0" cy="232.9" r="3.5" fill="#bb9af7" stroke="#1a1b26" stroke-width="1.5"/><circle cx="617.8" cy="232.9" r="3.5" fill="#bb9af7" stroke="#1a1b26" stroke-width="1.5"/><circle cx="624.5" cy="232.9" r="3.5" fill="#bb9af7" stroke="#1a1b26" stroke-width="1.5"/><circle cx="631.3" cy="232.9" r="3.5" fill="#bb9af7" stroke="#1a1b26" stroke-width="1.5"/><circle cx="638.1" cy="232.9" r="3.5" fill="#bb9af7" stroke="#1a1b26" stroke-width="1.5"/><circle cx="644.8" cy="232.9" r="3.5" fill="#bb9af7" stroke="#1a1b26" stroke-width="1.5"/><circle cx="651.6" cy="232.9" r="3.5" fill="#bb9af7" stroke="#1a1b26" stroke-width="1.5"/><circle cx="658.3" cy="232.9" r="3.5" fill="#bb9af7" stroke="#1a1b26" stroke-width="1.5"/><circle cx="665.1" cy="232.9" r="3.5" fill="#bb9af7" stroke="#1a1b26" stroke-width="1.5"/><circle cx="671.9" cy="232.9" r="3.5" fill="#bb9af7" stroke="#1a1b26" stroke-width="1.5"/><circle cx="678.6" cy="232.9" r="3.5" fill="#bb9af7" stroke="#1a1b26" stroke-width="1.5"/><circle cx="685.4" cy="231.3" r="3.5" fill="#bb9af7" stroke="#1a1b26" stroke-width="1.5"/><circle cx="692.1" cy="231.3" r="3.5" fill="#bb9af7" stroke="#1a1b26" stroke-width="1.5"/><circle cx="698.9" cy="228.9" r="3.5" fill="#bb9af7" stroke="#1a1b26" stroke-width="1.5"/><circle cx="705.6" cy="228.9" r="3.5" fill="#bb9af7" stroke="#1a1b26" stroke-width="1.5"/><circle cx="712.4" cy="227.3" r="3.5" fill="#bb9af7" stroke="#1a1b26" stroke-width="1.5"/><circle cx="719.2" cy="227.3" r="3.5" fill="#bb9af7" stroke="#1a1b26" stroke-width="1.5"/><circle cx="725.9" cy="227.3" r="3.5" fill="#bb9af7" stroke="#1a1b26" stroke-width="1.5"/><circle cx="732.7" cy="227.3" r="3.5" fill="#bb9af7" stroke="#1a1b26" stroke-width="1.5"/><circle cx="739.4" cy="227.3" r="3.5" fill="#bb9af7" stroke="#1a1b26" stroke-width="1.5"/><circle cx="746.2" cy="227.3" r="3.5" fill="#bb9af7" stroke="#1a1b26" stroke-width="1.5"/><circle cx="753.0" cy="227.3" r="3.5" fill="#bb9af7" stroke="#1a1b26" stroke-width="1.5"/><circle cx="759.7" cy="227.3" r="3.5" fill="#bb9af7" stroke="#1a1b26" stroke-width="1.5"/><circle cx="766.5" cy="227.3" r="3.5" fill="#bb9af7" stroke="#1a1b26" stroke-width="1.5"/><circle cx="773.2" cy="227.3" r="3.5" fill="#bb9af7" stroke="#1a1b26" stroke-width="1.5"/><circle cx="780.0" cy="227.3" r="3.5" fill="#bb9af7" stroke="#1a1b26" stroke-width="1.5"/><circle cx="144.6" cy="249.2" r="3.5" fill="#7dcfff" stroke="#1a1b26" stroke-width="1.5"/><circle cx="151.4" cy="249.2" r="3.5" fill="#7dcfff" stroke="#1a1b26" stroke-width="1.5"/><circle cx="158.1" cy="249.2" r="3.5" fill="#7dcfff" stroke="#1a1b26" stroke-width="1.5"/><circle cx="164.9" cy="249.2" r="3.5" fill="#7dcfff" stroke="#1a1b26" stroke-width="1.5"/><circle cx="171.7" cy="249.2" r="3.5" fill="#7dcfff" stroke="#1a1b26" stroke-width="1.5"/><circle cx="178.4" cy="249.2" r="3.5" fill="#7dcfff" stroke="#1a1b26" stroke-width="1.5"/><circle cx="185.2" cy="249.2" r="3.5" fill="#7dcfff" stroke="#1a1b26" stroke-width="1.5"/><circle cx="191.9" cy="249.2" r="3.5" fill="#7dcfff" stroke="#1a1b26" stroke-width="1.5"/><circle cx="198.7" cy="249.2" r="3.5" fill="#7dcfff" stroke="#1a1b26" stroke-width="1.5"/><circle cx="205.5" cy="249.2" r="3.5" fill="#7dcfff" stroke="#1a1b26" stroke-width="1.5"/><circle cx="212.2" cy="249.2" r="3.5" fill="#7dcfff" stroke="#1a1b26" stroke-width="1.5"/><circle cx="219.0" cy="249.2" r="3.5" fill="#7dcfff" stroke="#1a1b26" stroke-width="1.5"/><circle cx="225.7" cy="249.2" r="3.5" fill="#7dcfff" stroke="#1a1b26" stroke-width="1.5"/><circle cx="232.5" cy="249.2" r="3.5" fill="#7dcfff" stroke="#1a1b26" stroke-width="1.5"/><circle cx="239.3" cy="249.2" r="3.5" fill="#7dcfff" stroke="#1a1b26" stroke-width="1.5"/><circle cx="246.0" cy="249.2" r="3.5" fill="#7dcfff" stroke="#1a1b26" stroke-width="1.5"/><circle cx="252.8" cy="249.2" r="3.5" fill="#7dcfff" stroke="#1a1b26" stroke-width="1.5"/><circle cx="259.5" cy="249.2" r="3.5" fill="#7dcfff" stroke="#1a1b26" stroke-width="1.5"/><circle cx="266.3" cy="249.2" r="3.5" fill="#7dcfff" stroke="#1a1b26" stroke-width="1.5"/><circle cx="273.1" cy="249.2" r="3.5" fill="#7dcfff" stroke="#1a1b26" stroke-width="1.5"/><circle cx="279.8" cy="249.2" r="3.5" fill="#7dcfff" stroke="#1a1b26" stroke-width="1.5"/><circle cx="286.6" cy="249.2" r="3.5" fill="#7dcfff" stroke="#1a1b26" stroke-width="1.5"/><circle cx="293.3" cy="249.2" r="3.5" fill="#7dcfff" stroke="#1a1b26" stroke-width="1.5"/><circle cx="300.1" cy="249.2" r="3.5" fill="#7dcfff" stroke="#1a1b26" stroke-width="1.5"/><circle cx="306.9" cy="249.2" r="3.5" fill="#7dcfff" stroke="#1a1b26" stroke-width="1.5"/><circle cx="313.6" cy="249.2" r="3.5" fill="#7dcfff" stroke="#1a1b26" stroke-width="1.5"/><circle cx="320.4" cy="249.2" r="3.5" fill="#7dcfff" stroke="#1a1b26" stroke-width="1.5"/><circle cx="327.1" cy="249.2" r="3.5" fill="#7dcfff" stroke="#1a1b26" stroke-width="1.5"/><circle cx="333.9" cy="249.2" r="3.5" fill="#7dcfff" stroke="#1a1b26" stroke-width="1.5"/><circle cx="340.6" cy="249.2" r="3.5" fill="#7dcfff" stroke="#1a1b26" stroke-width="1.5"/><circle cx="347.4" cy="249.2" r="3.5" fill="#7dcfff" stroke="#1a1b26" stroke-width="1.5"/><circle cx="354.2" cy="249.2" r="3.5" fill="#7dcfff" stroke="#1a1b26" stroke-width="1.5"/><circle cx="360.9" cy="249.2" r="3.5" fill="#7dcfff" stroke="#1a1b26" stroke-width="1.5"/><circle cx="367.7" cy="249.2" r="3.5" fill="#7dcfff" stroke="#1a1b26" stroke-width="1.5"/><circle cx="374.4" cy="249.2" r="3.5" fill="#7dcfff" stroke="#1a1b26" stroke-width="1.5"/><circle cx="381.2" cy="249.2" r="3.5" fill="#7dcfff" stroke="#1a1b26" stroke-width="1.5"/><circle cx="388.0" cy="249.2" r="3.5" fill="#7dcfff" stroke="#1a1b26" stroke-width="1.5"/><circle cx="394.7" cy="249.2" r="3.5" fill="#7dcfff" stroke="#1a1b26" stroke-width="1.5"/><circle cx="401.5" cy="249.2" r="3.5" fill="#7dcfff" stroke="#1a1b26" stroke-width="1.5"/><circle cx="408.2" cy="249.2" r="3.5" fill="#7dcfff" stroke="#1a1b26" stroke-width="1.5"/><circle cx="415.0" cy="249.2" r="3.5" fill="#7dcfff" stroke="#1a1b26" stroke-width="1.5"/><circle cx="421.8" cy="249.2" r="3.5" fill="#7dcfff" stroke="#1a1b26" stroke-width="1.5"/><circle cx="428.5" cy="249.2" r="3.5" fill="#7dcfff" stroke="#1a1b26" stroke-width="1.5"/><circle cx="435.3" cy="249.2" r="3.5" fill="#7dcfff" stroke="#1a1b26" stroke-width="1.5"/><circle cx="442.0" cy="249.2" r="3.5" fill="#7dcfff" stroke="#1a1b26" stroke-width="1.5"/><circle cx="448.8" cy="249.2" r="3.5" fill="#7dcfff" stroke="#1a1b26" stroke-width="1.5"/><circle cx="455.6" cy="249.2" r="3.5" fill="#7dcfff" stroke="#1a1b26" stroke-width="1.5"/><circle cx="462.3" cy="249.2" r="3.5" fill="#7dcfff" stroke="#1a1b26" stroke-width="1.5"/><circle cx="469.1" cy="249.2" r="3.5" fill="#7dcfff" stroke="#1a1b26" stroke-width="1.5"/><circle cx="475.8" cy="249.2" r="3.5" fill="#7dcfff" stroke="#1a1b26" stroke-width="1.5"/><circle cx="482.6" cy="249.2" r="3.5" fill="#7dcfff" stroke="#1a1b26" stroke-width="1.5"/><circle cx="489.4" cy="249.2" r="3.5" fill="#7dcfff" stroke="#1a1b26" stroke-width="1.5"/><circle cx="496.1" cy="249.2" r="3.5" fill="#7dcfff" stroke="#1a1b26" stroke-width="1.5"/><circle cx="502.9" cy="249.2" r="3.5" fill="#7dcfff" stroke="#1a1b26" stroke-width="1.5"/><circle cx="509.6" cy="249.2" r="3.5" fill="#7dcfff" stroke="#1a1b26" stroke-width="1.5"/><circle cx="516.4" cy="249.2" r="3.5" fill="#7dcfff" stroke="#1a1b26" stroke-width="1.5"/><circle cx="523.1" cy="249.2" r="3.5" fill="#7dcfff" stroke="#1a1b26" stroke-width="1.5"/><circle cx="529.9" cy="249.2" r="3.5" fill="#7dcfff" stroke="#1a1b26" stroke-width="1.5"/><circle cx="536.7" cy="249.2" r="3.5" fill="#7dcfff" stroke="#1a1b26" stroke-width="1.5"/><circle cx="543.4" cy="249.2" r="3.5" fill="#7dcfff" stroke="#1a1b26" stroke-width="1.5"/><circle cx="550.2" cy="249.2" r="3.5" fill="#7dcfff" stroke="#1a1b26" stroke-width="1.5"/><circle cx="556.9" cy="249.2" r="3.5" fill="#7dcfff" stroke="#1a1b26" stroke-width="1.5"/><circle cx="563.7" cy="249.2" r="3.5" fill="#7dcfff" stroke="#1a1b26" stroke-width="1.5"/><circle cx="570.5" cy="249.2" r="3.5" fill="#7dcfff" stroke="#1a1b26" stroke-width="1.5"/><circle cx="577.2" cy="249.2" r="3.5" fill="#7dcfff" stroke="#1a1b26" stroke-width="1.5"/><circle cx="584.0" cy="249.2" r="3.5" fill="#7dcfff" stroke="#1a1b26" stroke-width="1.5"/><circle cx="590.7" cy="249.2" r="3.5" fill="#7dcfff" stroke="#1a1b26" stroke-width="1.5"/><circle cx="597.5" cy="249.2" r="3.5" fill="#7dcfff" stroke="#1a1b26" stroke-width="1.5"/><circle cx="604.3" cy="249.2" r="3.5" fill="#7dcfff" stroke="#1a1b26" stroke-width="1.5"/><circle cx="611.0" cy="249.2" r="3.5" fill="#7dcfff" stroke="#1a1b26" stroke-width="1.5"/><circle cx="617.8" cy="249.2" r="3.5" fill="#7dcfff" stroke="#1a1b26" stroke-width="1.5"/><circle cx="624.5" cy="249.2" r="3.5" fill="#7dcfff" stroke="#1a1b26" stroke-width="1.5"/><circle cx="631.3" cy="249.2" r="3.5" fill="#7dcfff" stroke="#1a1b26" stroke-width="1.5"/><circle cx="638.1" cy="249.2" r="3.5" fill="#7dcfff" stroke="#1a1b26" stroke-width="1.5"/><circle cx="644.8" cy="249.2" r="3.5" fill="#7dcfff" stroke="#1a1b26" stroke-width="1.5"/><circle cx="651.6" cy="249.2" r="3.5" fill="#7dcfff" stroke="#1a1b26" stroke-width="1.5"/><circle cx="658.3" cy="249.2" r="3.5" fill="#7dcfff" stroke="#1a1b26" stroke-width="1.5"/><circle cx="665.1" cy="249.2" r="3.5" fill="#7dcfff" stroke="#1a1b26" stroke-width="1.5"/><circle cx="671.9" cy="249.2" r="3.5" fill="#7dcfff" stroke="#1a1b26" stroke-width="1.5"/><circle cx="678.6" cy="249.2" r="3.5" fill="#7dcfff" stroke="#1a1b26" stroke-width="1.5"/><circle cx="685.4" cy="249.2" r="3.5" fill="#7dcfff" stroke="#1a1b26" stroke-width="1.5"/><circle cx="692.1" cy="249.2" r="3.5" fill="#7dcfff" stroke="#1a1b26" stroke-width="1.5"/><circle cx="698.9" cy="249.2" r="3.5" fill="#7dcfff" stroke="#1a1b26" stroke-width="1.5"/><circle cx="705.6" cy="249.2" r="3.5" fill="#7dcfff" stroke="#1a1b26" stroke-width="1.5"/><circle cx="712.4" cy="249.2" r="3.5" fill="#7dcfff" stroke="#1a1b26" stroke-width="1.5"/><circle cx="719.2" cy="249.2" r="3.5" fill="#7dcfff" stroke="#1a1b26" stroke-width="1.5"/><circle cx="725.9" cy="249.2" r="3.5" fill="#7dcfff" stroke="#1a1b26" stroke-width="1.5"/><circle cx="732.7" cy="249.2" r="3.5" fill="#7dcfff" stroke="#1a1b26" stroke-width="1.5"/><circle cx="739.4" cy="249.2" r="3.5" fill="#7dcfff" stroke="#1a1b26" stroke-width="1.5"/><circle cx="746.2" cy="249.2" r="3.5" fill="#7dcfff" stroke="#1a1b26" stroke-width="1.5"/><circle cx="753.0" cy="249.2" r="3.5" fill="#7dcfff" stroke="#1a1b26" stroke-width="1.5"/><circle cx="759.7" cy="249.2" r="3.5" fill="#7dcfff" stroke="#1a1b26" stroke-width="1.5"/><circle cx="766.5" cy="249.2" r="3.5" fill="#7dcfff" stroke="#1a1b26" stroke-width="1.5"/><circle cx="773.2" cy="249.2" r="3.5" fill="#7dcfff" stroke="#1a1b26" stroke-width="1.5"/><circle cx="780.0" cy="249.2" r="3.5" fill="#7dcfff" stroke="#1a1b26" stroke-width="1.5"/>
  <rect x="50" y="278" width="10" height="10" rx="2" fill="#7aa2f7"/><text x="64" y="286" fill="#565f89" font-size="11" font-family="monospace">History of God</text><rect x="290" y="278" width="10" height="10" rx="2" fill="#9ece6a"/><text x="304" y="286" fill="#565f89" font-size="11" font-family="monospace">The Prince</text><rect x="530" y="278" width="10" height="10" rx="2" fill="#e0af68"/><text x="544" y="286" fill="#565f89" font-size="11" font-family="monospace">Python for Data Science For …</text><rect x="50" y="278" width="10" height="10" rx="2" fill="#bb9af7"/><text x="64" y="286" fill="#565f89" font-size="11" font-family="monospace">Crucial Conversations: Tools…</text><rect x="290" y="278" width="10" height="10" rx="2" fill="#7dcfff"/><text x="304" y="286" fill="#565f89" font-size="11" font-family="monospace">Eloquent JavaScript</text>
</svg>