<svg xmlns="http://www.w3.org/2000/svg" width="800" height="300" viewBox="0 0 800 300">
  <rect width="800" height="300" rx="12" fill="#1a1b26"/>
  <rect x="1" y="1" width="798" height="298" rx="11" fill="none" stroke="#414868" stroke-width="1"/>
  <text x="50" y="22" fill="#c0caf5" font-size="13" font-family="monospace" font-weight="bold">📖 Reading Progress</text>
  <text x="780" y="22" fill="#565f89" font-size="10" font-family="monospace" text-anchor="end">Updated 2026-04-02</text>
  <line x1="50" y1="250.0" x2="780" y2="250.0" stroke="#414868" stroke-width="0.5" stroke-dasharray="4,4"/><text x="44" y="254.0" fill="#565f89" font-size="10" font-family="monospace" text-anchor="end">0%</text><line x1="50" y1="197.5" x2="780" y2="197.5" stroke="#414868" stroke-width="0.5" stroke-dasharray="4,4"/><text x="44" y="201.5" fill="#565f89" font-size="10" font-family="monospace" text-anchor="end">25%</text><line x1="50" y1="145.0" x2="780" y2="145.0" stroke="#414868" stroke-width="0.5" stroke-dasharray="4,4"/><text x="44" y="149.0" fill="#565f89" font-size="10" font-family="monospace" text-anchor="end">50%</text><line x1="50" y1="92.5" x2="780" y2="92.5" stroke="#414868" stroke-width="0.5" stroke-dasharray="4,4"/><text x="44" y="96.5" fill="#565f89" font-size="10" font-family="monospace" text-anchor="end">75%</text><line x1="50" y1="40.0" x2="780" y2="40.0" stroke="#414868" stroke-width="0.5" stroke-dasharray="4,4"/><text x="44" y="44.0" fill="#565f89" font-size="10" font-family="monospace" text-anchor="end">100%</text>
  <text x="50.0" y="268" fill="#565f89" font-size="10" font-family="monospace" text-anchor="middle">03-09</text><text x="154.3" y="268" fill="#565f89" font-size="10" font-family="monospace" text-anchor="middle">03-12</text><text x="258.6" y="268" fill="#565f89" font-size="10" font-family="monospace" text-anchor="middle">03-16</text><text x="362.9" y="268" fill="#565f89" font-size="10" font-family="monospace" text-anchor="middle">03-19</text><text x="467.1" y="268" fill="#565f89" font-size="10" font-family="monospace" text-anchor="middle">03-24</text><text x="571.4" y="268" fill="#565f89" font-size="10" font-family="monospace" text-anchor="middle">03-27</text><text x="675.7" y="268" fill="#565f89" font-size="10" font-family="monospace" text-anchor="middle">03-30</text><text x="780.0" y="268" fill="#565f89" font-size="10" font-family="monospace" text-anchor="middle">04-02</text>
  <path d="M 50.0,236.0 L 84.8,234.1 L 119.5,234.0 L 154.3,233.3 L 189.0,231.5 L 223.8,208.1 L 258.6,208.1 L 293.3,208.1 L 328.1,208.1 L 362.9,208.1 L 397.6,208.1 L 432.4,208.1 L 467.1,208.1 L 501.9,208.1 L 536.7,208.1 L 571.4,208.1 L 606.2,208.1 L 641.0,208.1 L 675.7,208.1 L 710.5,208.1 L 745.2,208.1 L 780.0,208.1" fill="none" stroke="#7aa2f7" stroke-width="2.5" stroke-linejoin="round" stroke-linecap="round" opacity="0.9"/><path d="M 258.6,239.5 L 293.3,237.4 L 328.1,239.4 L 362.9,239.4 L 397.6,239.4 L 432.4,239.4 L 467.1,239.4 L 501.9,239.4 L 536.7,239.4 L 571.4,239.4 L 606.2,239.4 L 641.0,239.4 L 675.7,239.4 L 710.5,239.4 L 745.2,239.4 L 780.0,239.4" fill="none" stroke="#9ece6a" stroke-width="2.5" stroke-linejoin="round" stroke-linecap="round" opacity="0.9"/><path d="M 536.7,239.4 L 571.4,239.4 L 606.2,239.4 L 641.0,239.4 L 675.7,239.4 L 710.5,239.4 L 745.2,239.4 L 780.0,239.4" fill="none" stroke="#e0af68" stroke-width="2.5" stroke-linejoin="round" stroke-linecap="round" opacity="0.9"/><path d="M 536.7,249.2 L 571.4,249.2 L 606.2,249.2 L 641.0,249.2 L 675.7,249.2 L 710.5,249.2 L 745.2,249.2 L 780.0,249.2" fill="none" stroke="#bb9af7" stroke-width="2.5" stroke-linejoin="round" stroke-linecap="round" opacity="0.9"/>
  <circle cx="50.0" cy="236.0" r="3.5" fill="#7aa2f7" stroke="#1a1b26" stroke-width="1.5"/><circle cx="84.8" cy="234.1" r="3.5" fill="#7aa2f7" stroke="#1a1b26" stroke-width="1.5"/><circle cx="119.5" cy="234.0" r="3.5" fill="#7aa2f7" stroke="#1a1b26" stroke-width="1.5"/><circle cx="154.3" cy="233.3" r="3.5" fill="#7aa2f7" stroke="#1a1b26" stroke-width="1.5"/><circle cx="189.0" cy="231.5" r="3.5" fill="#7aa2f7" stroke="#1a1b26" stroke-width="1.5"/><circle cx="223.8" cy="208.1" r="3.5" fill="#7aa2f7" stroke="#1a1b26" stroke-width="1.5"/><circle cx="258.6" cy="208.1" r="3.5" fill="#7aa2f7" stroke="#1a1b26" stroke-width="1.5"/><circle cx="293.3" cy="208.1" r="3.5" fill="#7aa2f7" stroke="#1a1b26" stroke-width="1.5"/><circle cx="328.1" cy="208.1" r="3.5" fill="#7aa2f7" stroke="#1a1b26" stroke-width="1.5"/><circle cx="362.9" cy="208.1" r="3.5" fill="#7aa2f7" stroke="#1a1b26" stroke-width="1.5"/><circle cx="397.6" cy="208.1" r="3.5" fill="#7aa2f7" stroke="#1a1b26" stroke-width="1.5"/><circle cx="432.4" cy="208.1" r="3.5" fill="#7aa2f7" stroke="#1a1b26" stroke-width="1.5"/><circle cx="467.1" cy="208.1" r="3.5" fill="#7aa2f7" stroke="#1a1b26" stroke-width="1.5"/><circle cx="501.9" cy="208.1" r="3.5" fill="#7aa2f7" stroke="#1a1b26" stroke-width="1.5"/><circle cx="536.7" cy="208.1" r="3.5" fill="#7aa2f7" stroke="#1a1b26" stroke-width="1.5"/><circle cx="571.4" cy="208.1" r="3.5" fill="#7aa2f7" stroke="#1a1b26" stroke-width="1.5"/><circle cx="606.2" cy="208.1" r="3.5" fill="#7aa2f7" stroke="#1a1b26" stroke-width="1.5"/><circle cx="641.0" cy="208.1" r="3.5" fill="#7aa2f7" stroke="#1a1b26" stroke-width="1.5"/><circle cx="675.7" cy="208.1" r="3.5" fill="#7aa2f7" stroke="#1a1b26" stroke-width="1.5"/><circle cx="710.5" cy="208.1" r="3.5" fill="#7aa2f7" stroke="#1a1b26" stroke-width="1.5"/><circle cx="745.2" cy="208.1" r="3.5" fill="#7aa2f7" stroke="#1a1b26" stroke-width="1.5"/><circle cx="780.0" cy="208.1" r="3.5" fill="#7aa2f7" stroke="#1a1b26" stroke-width="1.5"/><circle cx="258.6" cy="239.5" r="3.5" fill="#9ece6a" stroke="#1a1b26" stroke-width="1.5"/><circle cx="293.3" cy="237.4" r="3.5" fill="#9ece6a" stroke="#1a1b26" stroke-width="1.5"/><circle cx="328.1" cy="239.4" r="3.5" fill="#9ece6a" stroke="#1a1b26" stroke-width="1.5"/><circle cx="362.9" cy="239.4" r="3.5" fill="#9ece6a" stroke="#1a1b26" stroke-width="1.5"/><circle cx="397.6" cy="239.4" r="3.5" fill="#9ece6a" stroke="#1a1b26" stroke-width="1.5"/><circle cx="432.4" cy="239.4" r="3.5" fill="#9ece6a" stroke="#1a1b26" stroke-width="1.5"/><circle cx="467.1" cy="239.4" r="3.5" fill="#9ece6a" stroke="#1a1b26" stroke-width="1.5"/><circle cx="501.9" cy="239.4" r="3.5" fill="#9ece6a" stroke="#1a1b26" stroke-width="1.5"/><circle cx="536.7" cy="239.4" r="3.5" fill="#9ece6a" stroke="#1a1b26" stroke-width="1.5"/><circle cx="571.4" cy="239.4" r="3.5" fill="#9ece6a" stroke="#1a1b26" stroke-width="1.5"/><circle cx="606.2" cy="239.4" r="3.5" fill="#9ece6a" stroke="#1a1b26" stroke-width="1.5"/><circle cx="641.0" cy="239.4" r="3.5" fill="#9ece6a" stroke="#1a1b26" stroke-width="1.5"/><circle cx="675.7" cy="239.4" r="3.5" fill="#9ece6a" stroke="#1a1b26" stroke-width="1.5"/><circle cx="710.5" cy="239.4" r="3.5" fill="#9ece6a" stroke="#1a1b26" stroke-width="1.5"/><circle cx="745.2" cy="239.4" r="3.5" fill="#9ece6a" stroke="#1a1b26" stroke-width="1.5"/><circle cx="780.0" cy="239.4" r="3.5" fill="#9ece6a" stroke="#1a1b26" stroke-width="1.5"/><circle cx="536.7" cy="239.4" r="3.5" fill="#e0af68" stroke="#1a1b26" stroke-width="1.5"/><circle cx="571.4" cy="239.4" r="3.5" fill="#e0af68" stroke="#1a1b26" stroke-width="1.5"/><circle cx="606.2" cy="239.4" r="3.5" fill="#e0af68" stroke="#1a1b26" stroke-width="1.5"/><circle cx="641.0" cy="239.4" r="3.5" fill="#e0af68" stroke="#1a1b26" stroke-width="1.5"/><circle cx="675.7" cy="239.4" r="3.5" fill="#e0af68" stroke="#1a1b26" stroke-width="1.5"/><circle cx="710.5" cy="239.4" r="3.5" fill="#e0af68" stroke="#1a1b26" stroke-width="1.5"/><circle cx="745.2" cy="239.4" r="3.5" fill="#e0af68" stroke="#1a1b26" stroke-width="1.5"/><circle cx="780.0" cy="239.4" r="3.5" fill="#e0af68" stroke="#1a1b26" stroke-width="1.5"/><circle cx="536.7" cy="249.2" r="3.5" fill="#bb9af7" stroke="#1a1b26" stroke-width="1.5"/><circle cx="571.4" cy="249.2" r="3.5" fill="#bb9af7" stroke="#1a1b26" stroke-width="1.5"/><circle cx="606.2" cy="249.2" r="3.5" fill="#bb9af7" stroke="#1a1b26" stroke-width="1.5"/><circle cx="641.0" cy="249.2" r="3.5" fill="#bb9af7" stroke="#1a1b26" stroke-width="1.5"/><circle cx="675.7" cy="249.2" r="3.5" fill="#bb9af7" stroke="#1a1b26" stroke-width="1.5"/><circle cx="710.5" cy="249.2" r="3.5" fill="#bb9af7" stroke="#1a1b26" stroke-width="1.5"/><circle cx="745.2" cy="249.2" r="3.5" fill="#bb9af7" stroke="#1a1b26" stroke-width="1.5"/><circle cx="780.0" cy="249.2" r="3.5" fill="#bb9af7" stroke="#1a1b26" stroke-width="1.5"/>
  <rect x="50" y="278" width="10" height="10" rx="2" fill="#7aa2f7"/><text x="64" y="286" fill="#565f89" font-size="11" font-family="monospace">History of God</text><rect x="290" y="278" width="10" height="10" rx="2" fill="#9ece6a"/><text x="304" y="286" fill="#565f89" font-size="11" font-family="monospace">Python for Data Science For …</text><rect x="530" y="278" width="10" height="10" rx="2" fill="#e0af68"/><text x="544" y="286" fill="#565f89" font-size="11" font-family="monospace">Crucial Conversations: Tools…</text><rect x="50" y="278" width="10" height="10" rx="2" fill="#bb9af7"/><text x="64" y="286" fill="#565f89" font-size="11" font-family="monospace">Eloquent JavaScript</text>
</svg>