<svg xmlns="http://www.w3.org/2000/svg" width="800" height="300" viewBox="0 0 800 300">
  <rect width="800" height="300" rx="12" fill="#1a1b26"/>
  <rect x="1" y="1" width="798" height="298" rx="11" fill="none" stroke="#414868" stroke-width="1"/>
  <text x="50" y="22" fill="#c0caf5" font-size="13" font-family="monospace" font-weight="bold">📖 Reading Progress</text>
  <text x="780" y="22" fill="#565f89" font-size="10" font-family="monospace" text-anchor="end">Updated 2026-06-30</text>
  <line x1="50" y1="250.0" x2="780" y2="250.0" stroke="#414868" stroke-width="0.5" stroke-dasharray="4,4"/><text x="44" y="254.0" fill="#565f89" font-size="10" font-family="monospace" text-anchor="end">0%</text><line x1="50" y1="197.5" x2="780" y2="197.5" stroke="#414868" stroke-width="0.5" stroke-dasharray="4,4"/><text x="44" y="201.5" fill="#565f89" font-size="10" font-family="monospace" text-anchor="end">25%</text><line x1="50" y1="145.0" x2="780" y2="145.0" stroke="#414868" stroke-width="0.5" stroke-dasharray="4,4"/><text x="44" y="149.0" fill="#565f89" font-size="10" font-family="monospace" text-anchor="end">50%</text><line x1="50" y1="92.5" x2="780" y2="92.5" stroke="#414868" stroke-width="0.5" stroke-dasharray="4,4"/><text x="44" y="96.5" fill="#565f89" font-size="10" font-family="monospace" text-anchor="end">75%</text><line x1="50" y1="40.0" x2="780" y2="40.0" stroke="#414868" stroke-width="0.5" stroke-dasharray="4,4"/><text x="44" y="44.0" fill="#565f89" font-size="10" font-family="monospace" text-anchor="end">100%</text>
  <text x="50.0" y="268" fill="#565f89" font-size="10" font-family="monospace" text-anchor="middle">03-09</text><text x="170.3" y="268" fill="#565f89" font-size="10" font-family="monospace" text-anchor="middle">03-27</text><text x="290.7" y="268" fill="#565f89" font-size="10" font-family="monospace" text-anchor="middle">04-13</text><text x="411.0" y="268" fill="#565f89" font-size="10" font-family="monospace" text-anchor="middle">04-29</text><text x="531.3" y="268" fill="#565f89" font-size="10" font-family="monospace" text-anchor="middle">05-16</text><text x="651.6" y="268" fill="#565f89" font-size="10" font-family="monospace" text-anchor="middle">06-05</text><text x="772.0" y="268" fill="#565f89" font-size="10" font-family="monospace" text-anchor="middle">06-28</text>
  <path d="M 50.0,236.0 L 58.0,234.1 L 66.0,234.0 L 74.1,233.3 L 82.1,231.5 L 90.1,208.1 L 98.1,208.1 L 106.2,208.1 L 114.2,208.1 L 122.2,208.1 L 130.2,208.1 L 138.2,208.1 L 146.3,208.1 L 154.3,208.1 L 162.3,208.1 L 170.3,208.1 L 178.4,208.1 L 186.4,208.1 L 194.4,208.1 L 202.4,208.1 L 210.4,208.1 L 218.5,208.1 L 226.5,208.1 L 234.5,208.1 L 242.5,208.1 L 250.5,208.1 L 258.6,208.1 L 266.6,208.1 L 274.6,208.1 L 282.6,208.1 L 290.7,208.1 L 298.7,208.1 L 306.7,208.1 L 314.7,208.1 L 322.7,208.1 L 330.8,208.1 L 338.8,208.1 L 346.8,208.1 L 354.8,208.1 L 362.9,208.1 L 370.9,208.1 L 378.9,208.1 L 386.9,208.1 L 394.9,208.1 L 403.0,208.1 L 411.0,208.1 L 419.0,208.1 L 427.0,208.1 L 435.1,208.1 L 443.1,208.1 L 451.1,208.1 L 459.1,208.1 L 467.1,208.1 L 475.2,208.1 L 483.2,208.1 L 491.2,208.1 L 499.2,208.1 L 507.3,208.1 L 515.3,208.1 L 523.3,208.1 L 531.3,208.1 L 539.3,208.1 L 547.4,208.1 L 555.4,208.1 L 563.4,208.1 L 571.4,208.1 L 579.5,208.1 L 587.5,208.1 L 595.5,208.1 L 603.5,208.1 L 611.5,208.1 L 619.6,208.1 L 627.6,208.1 L 635.6,208.1 L 643.6,208.1 L 651.6,208.1 L 659.7,208.1 L 667.7,208.1 L 675.7,208.1 L 683.7,208.1 L 691.8,208.1 L 699.8,208.1 L 707.8,208.1 L 715.8,208.1 L 723.8,208.1 L 731.9,208.1 L 739.9,208.1 L 747.9,208.1 L 755.9,208.1 L 764.0,208.1 L 772.0,208.1 L 780.0,208.1" fill="none" stroke="#7aa2f7" stroke-width="2.5" stroke-linejoin="round" stroke-linecap="round" opacity="0.9"/><path d="M 98.1,239.5 L 106.2,237.4 L 114.2,239.4 L 122.2,239.4 L 130.2,239.4 L 138.2,239.4 L 146.3,239.4 L 154.3,239.4 L 162.3,239.4 L 170.3,239.4 L 178.4,239.4 L 186.4,239.4 L 194.4,239.4 L 202.4,239.4 L 210.4,239.4 L 218.5,239.4 L 226.5,239.4 L 234.5,239.4 L 242.5,239.4 L 250.5,239.4 L 258.6,239.4 L 266.6,239.4 L 274.6,239.4 L 282.6,239.4 L 290.7,239.4 L 298.7,239.4 L 306.7,239.4 L 314.7,239.4 L 322.7,239.4 L 330.8,239.4 L 338.8,239.4 L 346.8,239.4 L 354.8,239.4 L 362.9,239.4 L 370.9,239.4 L 378.9,239.4 L 386.9,239.4 L 394.9,239.4 L 403.0,239.4 L 411.0,239.4 L 419.0,239.4 L 427.0,239.4 L 435.1,239.4 L 443.1,239.4 L 451.1,239.4 L 459.1,239.4 L 467.1,239.4 L 475.2,239.4 L 483.2,239.4 L 491.2,239.4 L 499.2,239.4 L 507.3,239.4 L 515.3,239.4 L 523.3,239.4 L 531.3,239.4 L 539.3,239.4 L 547.4,239.4 L 555.4,239.4 L 563.4,239.4 L 571.4,239.4 L 579.5,239.4 L 587.5,239.4 L 595.5,239.4 L 603.5,239.4 L 611.5,239.4 L 619.6,239.4 L 627.6,239.4 L 635.6,239.4 L 643.6,239.4 L 651.6,239.4 L 659.7,239.4 L 667.7,239.4 L 675.7,239.4 L 683.7,239.4 L 691.8,239.4 L 699.8,239.4 L 707.8,239.4 L 715.8,239.4 L 723.8,239.4 L 731.9,239.4 L 739.9,239.4 L 747.9,239.4 L 755.9,239.4 L 764.0,239.4 L 772.0,239.4 L 780.0,239.4" fill="none" stroke="#9ece6a" stroke-width="2.5" stroke-linejoin="round" stroke-linecap="round" opacity="0.9"/><path d="M 162.3,239.4 L 170.3,239.4 L 178.4,239.4 L 186.4,239.4 L 194.4,239.4 L 202.4,239.4 L 210.4,239.4 L 218.5,239.4 L 226.5,239.4 L 234.5,239.4 L 242.5,237.0 L 250.5,237.0 L 258.6,237.0 L 266.6,237.0 L 274.6,237.0 L 282.6,237.0 L 290.7,237.0 L 298.7,237.0 L 306.7,237.0 L 314.7,237.0 L 322.7,237.0 L 330.8,237.0 L 338.8,237.0 L 346.8,237.0 L 354.8,237.0 L 362.9,237.0 L 370.9,234.6 L 378.9,234.6 L 386.9,234.6 L 394.9,234.6 L 403.0,234.6 L 411.0,232.9 L 419.0,232.9 L 427.0,232.9 L 435.1,232.9 L 443.1,232.9 L 451.1,232.9 L 459.1,232.9 L 467.1,232.9 L 475.2,232.9 L 483.2,232.9 L 491.2,232.9 L 499.2,232.9 L 507.3,232.9 L 515.3,232.9 L 523.3,232.9 L 531.3,232.9 L 539.3,232.9 L 547.4,232.9 L 555.4,232.9 L 563.4,232.9 L 571.4,232.9 L 579.5,232.9 L 587.5,232.9 L 595.5,232.9 L 603.5,232.9 L 611.5,232.9 L 619.6,232.9 L 627.6,232.9 L 635.6,232.9 L 643.6,232.9 L 651.6,232.9 L 659.7,232.9 L 667.7,232.9 L 675.7,232.9 L 683.7,232.9 L 691.8,232.9 L 699.8,232.9 L 707.8,232.9 L 715.8,232.9 L 723.8,232.9 L 731.9,232.9 L 739.9,232.9 L 747.9,232.9 L 755.9,232.9 L 764.0,232.9 L 772.0,232.9 L 780.0,232.9" fill="none" stroke="#e0af68" stroke-width="2.5" stroke-linejoin="round" stroke-linecap="round" opacity="0.9"/><path d="M 162.3,249.2 L 170.3,249.2 L 178.4,249.2 L 186.4,249.2 L 194.4,249.2 L 202.4,249.2 L 210.4,249.2 L 218.5,249.2 L 226.5,249.2 L 234.5,249.2 L 242.5,249.2 L 250.5,249.2 L 258.6,249.2 L 266.6,249.2 L 274.6,249.2 L 282.6,249.2 L 290.7,249.2 L 298.7,249.2 L 306.7,249.2 L 314.7,249.2 L 322.7,249.2 L 330.8,249.2 L 338.8,249.2 L 346.8,249.2 L 354.8,249.2 L 362.9,249.2 L 370.9,249.2 L 378.9,249.2 L 386.9,249.2 L 394.9,249.2 L 403.0,249.2 L 411.0,249.2 L 419.0,249.2 L 427.0,249.2 L 435.1,249.2 L 443.1,249.2 L 451.1,249.2 L 459.1,249.2 L 467.1,249.2 L 475.2,249.2 L 483.2,249.2 L 491.2,249.2 L 499.2,249.2 L 507.3,249.2 L 515.3,249.2 L 523.3,249.2 L 531.3,249.2 L 539.3,249.2 L 547.4,249.2 L 555.4,249.2 L 563.4,249.2 L 571.4,249.2 L 579.5,249.2 L 587.5,249.2 L 595.5,249.2 L 603.5,249.2 L 611.5,249.2 L 619.6,249.2 L 627.6,249.2 L 635.6,249.2 L 643.6,249.2 L 651.6,249.2 L 659.7,249.2 L 667.7,249.2 L 675.7,249.2 L 683.7,249.2 L 691.8,249.2 L 699.8,249.2 L 707.8,249.2 L 715.8,249.2 L 723.8,249.2 L 731.9,249.2 L 739.9,249.2 L 747.9,249.2 L 755.9,249.2 L 764.0,249.2 L 772.0,249.2 L 780.0,249.2" fill="none" stroke="#bb9af7" stroke-width="2.5" stroke-linejoin="round" stroke-linecap="round" opacity="0.9"/>
  <circle cx="50.0" cy="236.0" r="3.5" fill="#7aa2f7" stroke="#1a1b26" stroke-width="1.5"/><circle cx="58.0" cy="234.1" r="3.5" fill="#7aa2f7" stroke="#1a1b26" stroke-width="1.5"/><circle cx="66.0" cy="234.0" r="3.5" fill="#7aa2f7" stroke="#1a1b26" stroke-width="1.5"/><circle cx="74.1" cy="233.3" r="3.5" fill="#7aa2f7" stroke="#1a1b26" stroke-width="1.5"/><circle cx="82.1" cy="231.5" r="3.5" fill="#7aa2f7" stroke="#1a1b26" stroke-width="1.5"/><circle cx="90.1" cy="208.1" r="3.5" fill="#7aa2f7" stroke="#1a1b26" stroke-width="1.5"/><circle cx="98.1" cy="208.1" r="3.5" fill="#7aa2f7" stroke="#1a1b26" stroke-width="1.5"/><circle cx="106.2" cy="208.1" r="3.5" fill="#7aa2f7" stroke="#1a1b26" stroke-width="1.5"/><circle cx="114.2" cy="208.1" r="3.5" fill="#7aa2f7" stroke="#1a1b26" stroke-width="1.5"/><circle cx="122.2" cy="208.1" r="3.5" fill="#7aa2f7" stroke="#1a1b26" stroke-width="1.5"/><circle cx="130.2" cy="208.1" r="3.5" fill="#7aa2f7" stroke="#1a1b26" stroke-width="1.5"/><circle cx="138.2" cy="208.1" r="3.5" fill="#7aa2f7" stroke="#1a1b26" stroke-width="1.5"/><circle cx="146.3" cy="208.1" r="3.5" fill="#7aa2f7" stroke="#1a1b26" stroke-width="1.5"/><circle cx="154.3" cy="208.1" r="3.5" fill="#7aa2f7" stroke="#1a1b26" stroke-width="1.5"/><circle cx="162.3" cy="208.1" r="3.5" fill="#7aa2f7" stroke="#1a1b26" stroke-width="1.5"/><circle cx="170.3" cy="208.1" r="3.5" fill="#7aa2f7" stroke="#1a1b26" stroke-width="1.5"/><circle cx="178.4" cy="208.1" r="3.5" fill="#7aa2f7" stroke="#1a1b26" stroke-width="1.5"/><circle cx="186.4" cy="208.1" r="3.5" fill="#7aa2f7" stroke="#1a1b26" stroke-width="1.5"/><circle cx="194.4" cy="208.1" r="3.5" fill="#7aa2f7" stroke="#1a1b26" stroke-width="1.5"/><circle cx="202.4" cy="208.1" r="3.5" fill="#7aa2f7" stroke="#1a1b26" stroke-width="1.5"/><circle cx="210.4" cy="208.1" r="3.5" fill="#7aa2f7" stroke="#1a1b26" stroke-width="1.5"/><circle cx="218.5" cy="208.1" r="3.5" fill="#7aa2f7" stroke="#1a1b26" stroke-width="1.5"/><circle cx="226.5" cy="208.1" r="3.5" fill="#7aa2f7" stroke="#1a1b26" stroke-width="1.5"/><circle cx="234.5" cy="208.1" r="3.5" fill="#7aa2f7" stroke="#1a1b26" stroke-width="1.5"/><circle cx="242.5" cy="208.1" r="3.5" fill="#7aa2f7" stroke="#1a1b26" stroke-width="1.5"/><circle cx="250.5" cy="208.1" r="3.5" fill="#7aa2f7" stroke="#1a1b26" stroke-width="1.5"/><circle cx="258.6" cy="208.1" r="3.5" fill="#7aa2f7" stroke="#1a1b26" stroke-width="1.5"/><circle cx="266.6" cy="208.1" r="3.5" fill="#7aa2f7" stroke="#1a1b26" stroke-width="1.5"/><circle cx="274.6" cy="208.1" r="3.5" fill="#7aa2f7" stroke="#1a1b26" stroke-width="1.5"/><circle cx="282.6" cy="208.1" r="3.5" fill="#7aa2f7" stroke="#1a1b26" stroke-width="1.5"/><circle cx="290.7" cy="208.1" r="3.5" fill="#7aa2f7" stroke="#1a1b26" stroke-width="1.5"/><circle cx="298.7" cy="208.1" r="3.5" fill="#7aa2f7" stroke="#1a1b26" stroke-width="1.5"/><circle cx="306.7" cy="208.1" r="3.5" fill="#7aa2f7" stroke="#1a1b26" stroke-width="1.5"/><circle cx="314.7" cy="208.1" r="3.5" fill="#7aa2f7" stroke="#1a1b26" stroke-width="1.5"/><circle cx="322.7" cy="208.1" r="3.5" fill="#7aa2f7" stroke="#1a1b26" stroke-width="1.5"/><circle cx="330.8" cy="208.1" r="3.5" fill="#7aa2f7" stroke="#1a1b26" stroke-width="1.5"/><circle cx="338.8" cy="208.1" r="3.5" fill="#7aa2f7" stroke="#1a1b26" stroke-width="1.5"/><circle cx="346.8" cy="208.1" r="3.5" fill="#7aa2f7" stroke="#1a1b26" stroke-width="1.5"/><circle cx="354.8" cy="208.1" r="3.5" fill="#7aa2f7" stroke="#1a1b26" stroke-width="1.5"/><circle cx="362.9" cy="208.1" r="3.5" fill="#7aa2f7" stroke="#1a1b26" stroke-width="1.5"/><circle cx="370.9" cy="208.1" r="3.5" fill="#7aa2f7" stroke="#1a1b26" stroke-width="1.5"/><circle cx="378.9" cy="208.1" r="3.5" fill="#7aa2f7" stroke="#1a1b26" stroke-width="1.5"/><circle cx="386.9" cy="208.1" r="3.5" fill="#7aa2f7" stroke="#1a1b26" stroke-width="1.5"/><circle cx="394.9" cy="208.1" r="3.5" fill="#7aa2f7" stroke="#1a1b26" stroke-width="1.5"/><circle cx="403.0" cy="208.1" r="3.5" fill="#7aa2f7" stroke="#1a1b26" stroke-width="1.5"/><circle cx="411.0" cy="208.1" r="3.5" fill="#7aa2f7" stroke="#1a1b26" stroke-width="1.5"/><circle cx="419.0" cy="208.1" r="3.5" fill="#7aa2f7" stroke="#1a1b26" stroke-width="1.5"/><circle cx="427.0" cy="208.1" r="3.5" fill="#7aa2f7" stroke="#1a1b26" stroke-width="1.5"/><circle cx="435.1" cy="208.1" r="3.5" fill="#7aa2f7" stroke="#1a1b26" stroke-width="1.5"/><circle cx="443.1" cy="208.1" r="3.5" fill="#7aa2f7" stroke="#1a1b26" stroke-width="1.5"/><circle cx="451.1" cy="208.1" r="3.5" fill="#7aa2f7" stroke="#1a1b26" stroke-width="1.5"/><circle cx="459.1" cy="208.1" r="3.5" fill="#7aa2f7" stroke="#1a1b26" stroke-width="1.5"/><circle cx="467.1" cy="208.1" r="3.5" fill="#7aa2f7" stroke="#1a1b26" stroke-width="1.5"/><circle cx="475.2" cy="208.1" r="3.5" fill="#7aa2f7" stroke="#1a1b26" stroke-width="1.5"/><circle cx="483.2" cy="208.1" r="3.5" fill="#7aa2f7" stroke="#1a1b26" stroke-width="1.5"/><circle cx="491.2" cy="208.1" r="3.5" fill="#7aa2f7" stroke="#1a1b26" stroke-width="1.5"/><circle cx="499.2" cy="208.1" r="3.5" fill="#7aa2f7" stroke="#1a1b26" stroke-width="1.5"/><circle cx="507.3" cy="208.1" r="3.5" fill="#7aa2f7" stroke="#1a1b26" stroke-width="1.5"/><circle cx="515.3" cy="208.1" r="3.5" fill="#7aa2f7" stroke="#1a1b26" stroke-width="1.5"/><circle cx="523.3" cy="208.1" r="3.5" fill="#7aa2f7" stroke="#1a1b26" stroke-width="1.5"/><circle cx="531.3" cy="208.1" r="3.5" fill="#7aa2f7" stroke="#1a1b26" stroke-width="1.5"/><circle cx="539.3" cy="208.1" r="3.5" fill="#7aa2f7" stroke="#1a1b26" stroke-width="1.5"/><circle cx="547.4" cy="208.1" r="3.5" fill="#7aa2f7" stroke="#1a1b26" stroke-width="1.5"/><circle cx="555.4" cy="208.1" r="3.5" fill="#7aa2f7" stroke="#1a1b26" stroke-width="1.5"/><circle cx="563.4" cy="208.1" r="3.5" fill="#7aa2f7" stroke="#1a1b26" stroke-width="1.5"/><circle cx="571.4" cy="208.1" r="3.5" fill="#7aa2f7" stroke="#1a1b26" stroke-width="1.5"/><circle cx="579.5" cy="208.1" r="3.5" fill="#7aa2f7" stroke="#1a1b26" stroke-width="1.5"/><circle cx="587.5" cy="208.1" r="3.5" fill="#7aa2f7" stroke="#1a1b26" stroke-width="1.5"/><circle cx="595.5" cy="208.1" r="3.5" fill="#7aa2f7" stroke="#1a1b26" stroke-width="1.5"/><circle cx="603.5" cy="208.1" r="3.5" fill="#7aa2f7" stroke="#1a1b26" stroke-width="1.5"/><circle cx="611.5" cy="208.1" r="3.5" fill="#7aa2f7" stroke="#1a1b26" stroke-width="1.5"/><circle cx="619.6" cy="208.1" r="3.5" fill="#7aa2f7" stroke="#1a1b26" stroke-width="1.5"/><circle cx="627.6" cy="208.1" r="3.5" fill="#7aa2f7" stroke="#1a1b26" stroke-width="1.5"/><circle cx="635.6" cy="208.1" r="3.5" fill="#7aa2f7" stroke="#1a1b26" stroke-width="1.5"/><circle cx="643.6" cy="208.1" r="3.5" fill="#7aa2f7" stroke="#1a1b26" stroke-width="1.5"/><circle cx="651.6" cy="208.1" r="3.5" fill="#7aa2f7" stroke="#1a1b26" stroke-width="1.5"/><circle cx="659.7" cy="208.1" r="3.5" fill="#7aa2f7" stroke="#1a1b26" stroke-width="1.5"/><circle cx="667.7" cy="208.1" r="3.5" fill="#7aa2f7" stroke="#1a1b26" stroke-width="1.5"/><circle cx="675.7" cy="208.1" r="3.5" fill="#7aa2f7" stroke="#1a1b26" stroke-width="1.5"/><circle cx="683.7" cy="208.1" r="3.5" fill="#7aa2f7" stroke="#1a1b26" stroke-width="1.5"/><circle cx="691.8" cy="208.1" r="3.5" fill="#7aa2f7" stroke="#1a1b26" stroke-width="1.5"/><circle cx="699.8" cy="208.1" r="3.5" fill="#7aa2f7" stroke="#1a1b26" stroke-width="1.5"/><circle cx="707.8" cy="208.1" r="3.5" fill="#7aa2f7" stroke="#1a1b26" stroke-width="1.5"/><circle cx="715.8" cy="208.1" r="3.5" fill="#7aa2f7" stroke="#1a1b26" stroke-width="1.5"/><circle cx="723.8" cy="208.1" r="3.5" fill="#7aa2f7" stroke="#1a1b26" stroke-width="1.5"/><circle cx="731.9" cy="208.1" r="3.5" fill="#7aa2f7" stroke="#1a1b26" stroke-width="1.5"/><circle cx="739.9" cy="208.1" r="3.5" fill="#7aa2f7" stroke="#1a1b26" stroke-width="1.5"/><circle cx="747.9" cy="208.1" r="3.5" fill="#7aa2f7" stroke="#1a1b26" stroke-width="1.5"/><circle cx="755.9" cy="208.1" r="3.5" fill="#7aa2f7" stroke="#1a1b26" stroke-width="1.5"/><circle cx="764.0" cy="208.1" r="3.5" fill="#7aa2f7" stroke="#1a1b26" stroke-width="1.5"/><circle cx="772.0" cy="208.1" r="3.5" fill="#7aa2f7" stroke="#1a1b26" stroke-width="1.5"/><circle cx="780.0" cy="208.1" r="3.5" fill="#7aa2f7" stroke="#1a1b26" stroke-width="1.5"/><circle cx="98.1" cy="239.5" r="3.5" fill="#9ece6a" stroke="#1a1b26" stroke-width="1.5"/><circle cx="106.2" cy="237.4" r="3.5" fill="#9ece6a" stroke="#1a1b26" stroke-width="1.5"/><circle cx="114.2" cy="239.4" r="3.5" fill="#9ece6a" stroke="#1a1b26" stroke-width="1.5"/><circle cx="122.2" cy="239.4" r="3.5" fill="#9ece6a" stroke="#1a1b26" stroke-width="1.5"/><circle cx="130.2" cy="239.4" r="3.5" fill="#9ece6a" stroke="#1a1b26" stroke-width="1.5"/><circle cx="138.2" cy="239.4" r="3.5" fill="#9ece6a" stroke="#1a1b26" stroke-width="1.5"/><circle cx="146.3" cy="239.4" r="3.5" fill="#9ece6a" stroke="#1a1b26" stroke-width="1.5"/><circle cx="154.3" cy="239.4" r="3.5" fill="#9ece6a" stroke="#1a1b26" stroke-width="1.5"/><circle cx="162.3" cy="239.4" r="3.5" fill="#9ece6a" stroke="#1a1b26" stroke-width="1.5"/><circle cx="170.3" cy="239.4" r="3.5" fill="#9ece6a" stroke="#1a1b26" stroke-width="1.5"/><circle cx="178.4" cy="239.4" r="3.5" fill="#9ece6a" stroke="#1a1b26" stroke-width="1.5"/><circle cx="186.4" cy="239.4" r="3.5" fill="#9ece6a" stroke="#1a1b26" stroke-width="1.5"/><circle cx="194.4" cy="239.4" r="3.5" fill="#9ece6a" stroke="#1a1b26" stroke-width="1.5"/><circle cx="202.4" cy="239.4" r="3.5" fill="#9ece6a" stroke="#1a1b26" stroke-width="1.5"/><circle cx="210.4" cy="239.4" r="3.5" fill="#9ece6a" stroke="#1a1b26" stroke-width="1.5"/><circle cx="218.5" cy="239.4" r="3.5" fill="#9ece6a" stroke="#1a1b26" stroke-width="1.5"/><circle cx="226.5" cy="239.4" r="3.5" fill="#9ece6a" stroke="#1a1b26" stroke-width="1.5"/><circle cx="234.5" cy="239.4" r="3.5" fill="#9ece6a" stroke="#1a1b26" stroke-width="1.5"/><circle cx="242.5" cy="239.4" r="3.5" fill="#9ece6a" stroke="#1a1b26" stroke-width="1.5"/><circle cx="250.5" cy="239.4" r="3.5" fill="#9ece6a" stroke="#1a1b26" stroke-width="1.5"/><circle cx="258.6" cy="239.4" r="3.5" fill="#9ece6a" stroke="#1a1b26" stroke-width="1.5"/><circle cx="266.6" cy="239.4" r="3.5" fill="#9ece6a" stroke="#1a1b26" stroke-width="1.5"/><circle cx="274.6" cy="239.4" r="3.5" fill="#9ece6a" stroke="#1a1b26" stroke-width="1.5"/><circle cx="282.6" cy="239.4" r="3.5" fill="#9ece6a" stroke="#1a1b26" stroke-width="1.5"/><circle cx="290.7" cy="239.4" r="3.5" fill="#9ece6a" stroke="#1a1b26" stroke-width="1.5"/><circle cx="298.7" cy="239.4" r="3.5" fill="#9ece6a" stroke="#1a1b26" stroke-width="1.5"/><circle cx="306.7" cy="239.4" r="3.5" fill="#9ece6a" stroke="#1a1b26" stroke-width="1.5"/><circle cx="314.7" cy="239.4" r="3.5" fill="#9ece6a" stroke="#1a1b26" stroke-width="1.5"/><circle cx="322.7" cy="239.4" r="3.5" fill="#9ece6a" stroke="#1a1b26" stroke-width="1.5"/><circle cx="330.8" cy="239.4" r="3.5" fill="#9ece6a" stroke="#1a1b26" stroke-width="1.5"/><circle cx="338.8" cy="239.4" r="3.5" fill="#9ece6a" stroke="#1a1b26" stroke-width="1.5"/><circle cx="346.8" cy="239.4" r="3.5" fill="#9ece6a" stroke="#1a1b26" stroke-width="1.5"/><circle cx="354.8" cy="239.4" r="3.5" fill="#9ece6a" stroke="#1a1b26" stroke-width="1.5"/><circle cx="362.9" cy="239.4" r="3.5" fill="#9ece6a" stroke="#1a1b26" stroke-width="1.5"/><circle cx="370.9" cy="239.4" r="3.5" fill="#9ece6a" stroke="#1a1b26" stroke-width="1.5"/><circle cx="378.9" cy="239.4" r="3.5" fill="#9ece6a" stroke="#1a1b26" stroke-width="1.5"/><circle cx="386.9" cy="239.4" r="3.5" fill="#9ece6a" stroke="#1a1b26" stroke-width="1.5"/><circle cx="394.9" cy="239.4" r="3.5" fill="#9ece6a" stroke="#1a1b26" stroke-width="1.5"/><circle cx="403.0" cy="239.4" r="3.5" fill="#9ece6a" stroke="#1a1b26" stroke-width="1.5"/><circle cx="411.0" cy="239.4" r="3.5" fill="#9ece6a" stroke="#1a1b26" stroke-width="1.5"/><circle cx="419.0" cy="239.4" r="3.5" fill="#9ece6a" stroke="#1a1b26" stroke-width="1.5"/><circle cx="427.0" cy="239.4" r="3.5" fill="#9ece6a" stroke="#1a1b26" stroke-width="1.5"/><circle cx="435.1" cy="239.4" r="3.5" fill="#9ece6a" stroke="#1a1b26" stroke-width="1.5"/><circle cx="443.1" cy="239.4" r="3.5" fill="#9ece6a" stroke="#1a1b26" stroke-width="1.5"/><circle cx="451.1" cy="239.4" r="3.5" fill="#9ece6a" stroke="#1a1b26" stroke-width="1.5"/><circle cx="459.1" cy="239.4" r="3.5" fill="#9ece6a" stroke="#1a1b26" stroke-width="1.5"/><circle cx="467.1" cy="239.4" r="3.5" fill="#9ece6a" stroke="#1a1b26" stroke-width="1.5"/><circle cx="475.2" cy="239.4" r="3.5" fill="#9ece6a" stroke="#1a1b26" stroke-width="1.5"/><circle cx="483.2" cy="239.4" r="3.5" fill="#9ece6a" stroke="#1a1b26" stroke-width="1.5"/><circle cx="491.2" cy="239.4" r="3.5" fill="#9ece6a" stroke="#1a1b26" stroke-width="1.5"/><circle cx="499.2" cy="239.4" r="3.5" fill="#9ece6a" stroke="#1a1b26" stroke-width="1.5"/><circle cx="507.3" cy="239.4" r="3.5" fill="#9ece6a" stroke="#1a1b26" stroke-width="1.5"/><circle cx="515.3" cy="239.4" r="3.5" fill="#9ece6a" stroke="#1a1b26" stroke-width="1.5"/><circle cx="523.3" cy="239.4" r="3.5" fill="#9ece6a" stroke="#1a1b26" stroke-width="1.5"/><circle cx="531.3" cy="239.4" r="3.5" fill="#9ece6a" stroke="#1a1b26" stroke-width="1.5"/><circle cx="539.3" cy="239.4" r="3.5" fill="#9ece6a" stroke="#1a1b26" stroke-width="1.5"/><circle cx="547.4" cy="239.4" r="3.5" fill="#9ece6a" stroke="#1a1b26" stroke-width="1.5"/><circle cx="555.4" cy="239.4" r="3.5" fill="#9ece6a" stroke="#1a1b26" stroke-width="1.5"/><circle cx="563.4" cy="239.4" r="3.5" fill="#9ece6a" stroke="#1a1b26" stroke-width="1.5"/><circle cx="571.4" cy="239.4" r="3.5" fill="#9ece6a" stroke="#1a1b26" stroke-width="1.5"/><circle cx="579.5" cy="239.4" r="3.5" fill="#9ece6a" stroke="#1a1b26" stroke-width="1.5"/><circle cx="587.5" cy="239.4" r="3.5" fill="#9ece6a" stroke="#1a1b26" stroke-width="1.5"/><circle cx="595.5" cy="239.4" r="3.5" fill="#9ece6a" stroke="#1a1b26" stroke-width="1.5"/><circle cx="603.5" cy="239.4" r="3.5" fill="#9ece6a" stroke="#1a1b26" stroke-width="1.5"/><circle cx="611.5" cy="239.4" r="3.5" fill="#9ece6a" stroke="#1a1b26" stroke-width="1.5"/><circle cx="619.6" cy="239.4" r="3.5" fill="#9ece6a" stroke="#1a1b26" stroke-width="1.5"/><circle cx="627.6" cy="239.4" r="3.5" fill="#9ece6a" stroke="#1a1b26" stroke-width="1.5"/><circle cx="635.6" cy="239.4" r="3.5" fill="#9ece6a" stroke="#1a1b26" stroke-width="1.5"/><circle cx="643.6" cy="239.4" r="3.5" fill="#9ece6a" stroke="#1a1b26" stroke-width="1.5"/><circle cx="651.6" cy="239.4" r="3.5" fill="#9ece6a" stroke="#1a1b26" stroke-width="1.5"/><circle cx="659.7" cy="239.4" r="3.5" fill="#9ece6a" stroke="#1a1b26" stroke-width="1.5"/><circle cx="667.7" cy="239.4" r="3.5" fill="#9ece6a" stroke="#1a1b26" stroke-width="1.5"/><circle cx="675.7" cy="239.4" r="3.5" fill="#9ece6a" stroke="#1a1b26" stroke-width="1.5"/><circle cx="683.7" cy="239.4" r="3.5" fill="#9ece6a" stroke="#1a1b26" stroke-width="1.5"/><circle cx="691.8" cy="239.4" r="3.5" fill="#9ece6a" stroke="#1a1b26" stroke-width="1.5"/><circle cx="699.8" cy="239.4" r="3.5" fill="#9ece6a" stroke="#1a1b26" stroke-width="1.5"/><circle cx="707.8" cy="239.4" r="3.5" fill="#9ece6a" stroke="#1a1b26" stroke-width="1.5"/><circle cx="715.8" cy="239.4" r="3.5" fill="#9ece6a" stroke="#1a1b26" stroke-width="1.5"/><circle cx="723.8" cy="239.4" r="3.5" fill="#9ece6a" stroke="#1a1b26" stroke-width="1.5"/><circle cx="731.9" cy="239.4" r="3.5" fill="#9ece6a" stroke="#1a1b26" stroke-width="1.5"/><circle cx="739.9" cy="239.4" r="3.5" fill="#9ece6a" stroke="#1a1b26" stroke-width="1.5"/><circle cx="747.9" cy="239.4" r="3.5" fill="#9ece6a" stroke="#1a1b26" stroke-width="1.5"/><circle cx="755.9" cy="239.4" r="3.5" fill="#9ece6a" stroke="#1a1b26" stroke-width="1.5"/><circle cx="764.0" cy="239.4" r="3.5" fill="#9ece6a" stroke="#1a1b26" stroke-width="1.5"/><circle cx="772.0" cy="239.4" r="3.5" fill="#9ece6a" stroke="#1a1b26" stroke-width="1.5"/><circle cx="780.0" cy="239.4" r="3.5" fill="#9ece6a" stroke="#1a1b26" stroke-width="1.5"/><circle cx="162.3" cy="239.4" r="3.5" fill="#e0af68" stroke="#1a1b26" stroke-width="1.5"/><circle cx="170.3" cy="239.4" r="3.5" fill="#e0af68" stroke="#1a1b26" stroke-width="1.5"/><circle cx="178.4" cy="239.4" r="3.5" fill="#e0af68" stroke="#1a1b26" stroke-width="1.5"/><circle cx="186.4" cy="239.4" r="3.5" fill="#e0af68" stroke="#1a1b26" stroke-width="1.5"/><circle cx="194.4" cy="239.4" r="3.5" fill="#e0af68" stroke="#1a1b26" stroke-width="1.5"/><circle cx="202.4" cy="239.4" r="3.5" fill="#e0af68" stroke="#1a1b26" stroke-width="1.5"/><circle cx="210.4" cy="239.4" r="3.5" fill="#e0af68" stroke="#1a1b26" stroke-width="1.5"/><circle cx="218.5" cy="239.4" r="3.5" fill="#e0af68" stroke="#1a1b26" stroke-width="1.5"/><circle cx="226.5" cy="239.4" r="3.5" fill="#e0af68" stroke="#1a1b26" stroke-width="1.5"/><circle cx="234.5" cy="239.4" r="3.5" fill="#e0af68" stroke="#1a1b26" stroke-width="1.5"/><circle cx="242.5" cy="237.0" r="3.5" fill="#e0af68" stroke="#1a1b26" stroke-width="1.5"/><circle cx="250.5" cy="237.0" r="3.5" fill="#e0af68" stroke="#1a1b26" stroke-width="1.5"/><circle cx="258.6" cy="237.0" r="3.5" fill="#e0af68" stroke="#1a1b26" stroke-width="1.5"/><circle cx="266.6" cy="237.0" r="3.5" fill="#e0af68" stroke="#1a1b26" stroke-width="1.5"/><circle cx="274.6" cy="237.0" r="3.5" fill="#e0af68" stroke="#1a1b26" stroke-width="1.5"/><circle cx="282.6" cy="237.0" r="3.5" fill="#e0af68" stroke="#1a1b26" stroke-width="1.5"/><circle cx="290.7" cy="237.0" r="3.5" fill="#e0af68" stroke="#1a1b26" stroke-width="1.5"/><circle cx="298.7" cy="237.0" r="3.5" fill="#e0af68" stroke="#1a1b26" stroke-width="1.5"/><circle cx="306.7" cy="237.0" r="3.5" fill="#e0af68" stroke="#1a1b26" stroke-width="1.5"/><circle cx="314.7" cy="237.0" r="3.5" fill="#e0af68" stroke="#1a1b26" stroke-width="1.5"/><circle cx="322.7" cy="237.0" r="3.5" fill="#e0af68" stroke="#1a1b26" stroke-width="1.5"/><circle cx="330.8" cy="237.0" r="3.5" fill="#e0af68" stroke="#1a1b26" stroke-width="1.5"/><circle cx="338.8" cy="237.0" r="3.5" fill="#e0af68" stroke="#1a1b26" stroke-width="1.5"/><circle cx="346.8" cy="237.0" r="3.5" fill="#e0af68" stroke="#1a1b26" stroke-width="1.5"/><circle cx="354.8" cy="237.0" r="3.5" fill="#e0af68" stroke="#1a1b26" stroke-width="1.5"/><circle cx="362.9" cy="237.0" r="3.5" fill="#e0af68" stroke="#1a1b26" stroke-width="1.5"/><circle cx="370.9" cy="234.6" r="3.5" fill="#e0af68" stroke="#1a1b26" stroke-width="1.5"/><circle cx="378.9" cy="234.6" r="3.5" fill="#e0af68" stroke="#1a1b26" stroke-width="1.5"/><circle cx="386.9" cy="234.6" r="3.5" fill="#e0af68" stroke="#1a1b26" stroke-width="1.5"/><circle cx="394.9" cy="234.6" r="3.5" fill="#e0af68" stroke="#1a1b26" stroke-width="1.5"/><circle cx="403.0" cy="234.6" r="3.5" fill="#e0af68" stroke="#1a1b26" stroke-width="1.5"/><circle cx="411.0" cy="232.9" r="3.5" fill="#e0af68" stroke="#1a1b26" stroke-width="1.5"/><circle cx="419.0" cy="232.9" r="3.5" fill="#e0af68" stroke="#1a1b26" stroke-width="1.5"/><circle cx="427.0" cy="232.9" r="3.5" fill="#e0af68" stroke="#1a1b26" stroke-width="1.5"/><circle cx="435.1" cy="232.9" r="3.5" fill="#e0af68" stroke="#1a1b26" stroke-width="1.5"/><circle cx="443.1" cy="232.9" r="3.5" fill="#e0af68" stroke="#1a1b26" stroke-width="1.5"/><circle cx="451.1" cy="232.9" r="3.5" fill="#e0af68" stroke="#1a1b26" stroke-width="1.5"/><circle cx="459.1" cy="232.9" r="3.5" fill="#e0af68" stroke="#1a1b26" stroke-width="1.5"/><circle cx="467.1" cy="232.9" r="3.5" fill="#e0af68" stroke="#1a1b26" stroke-width="1.5"/><circle cx="475.2" cy="232.9" r="3.5" fill="#e0af68" stroke="#1a1b26" stroke-width="1.5"/><circle cx="483.2" cy="232.9" r="3.5" fill="#e0af68" stroke="#1a1b26" stroke-width="1.5"/><circle cx="491.2" cy="232.9" r="3.5" fill="#e0af68" stroke="#1a1b26" stroke-width="1.5"/><circle cx="499.2" cy="232.9" r="3.5" fill="#e0af68" stroke="#1a1b26" stroke-width="1.5"/><circle cx="507.3" cy="232.9" r="3.5" fill="#e0af68" stroke="#1a1b26" stroke-width="1.5"/><circle cx="515.3" cy="232.9" r="3.5" fill="#e0af68" stroke="#1a1b26" stroke-width="1.5"/><circle cx="523.3" cy="232.9" r="3.5" fill="#e0af68" stroke="#1a1b26" stroke-width="1.5"/><circle cx="531.3" cy="232.9" r="3.5" fill="#e0af68" stroke="#1a1b26" stroke-width="1.5"/><circle cx="539.3" cy="232.9" r="3.5" fill="#e0af68" stroke="#1a1b26" stroke-width="1.5"/><circle cx="547.4" cy="232.9" r="3.5" fill="#e0af68" stroke="#1a1b26" stroke-width="1.5"/><circle cx="555.4" cy="232.9" r="3.5" fill="#e0af68" stroke="#1a1b26" stroke-width="1.5"/><circle cx="563.4" cy="232.9" r="3.5" fill="#e0af68" stroke="#1a1b26" stroke-width="1.5"/><circle cx="571.4" cy="232.9" r="3.5" fill="#e0af68" stroke="#1a1b26" stroke-width="1.5"/><circle cx="579.5" cy="232.9" r="3.5" fill="#e0af68" stroke="#1a1b26" stroke-width="1.5"/><circle cx="587.5" cy="232.9" r="3.5" fill="#e0af68" stroke="#1a1b26" stroke-width="1.5"/><circle cx="595.5" cy="232.9" r="3.5" fill="#e0af68" stroke="#1a1b26" stroke-width="1.5"/><circle cx="603.5" cy="232.9" r="3.5" fill="#e0af68" stroke="#1a1b26" stroke-width="1.5"/><circle cx="611.5" cy="232.9" r="3.5" fill="#e0af68" stroke="#1a1b26" stroke-width="1.5"/><circle cx="619.6" cy="232.9" r="3.5" fill="#e0af68" stroke="#1a1b26" stroke-width="1.5"/><circle cx="627.6" cy="232.9" r="3.5" fill="#e0af68" stroke="#1a1b26" stroke-width="1.5"/><circle cx="635.6" cy="232.9" r="3.5" fill="#e0af68" stroke="#1a1b26" stroke-width="1.5"/><circle cx="643.6" cy="232.9" r="3.5" fill="#e0af68" stroke="#1a1b26" stroke-width="1.5"/><circle cx="651.6" cy="232.9" r="3.5" fill="#e0af68" stroke="#1a1b26" stroke-width="1.5"/><circle cx="659.7" cy="232.9" r="3.5" fill="#e0af68" stroke="#1a1b26" stroke-width="1.5"/><circle cx="667.7" cy="232.9" r="3.5" fill="#e0af68" stroke="#1a1b26" stroke-width="1.5"/><circle cx="675.7" cy="232.9" r="3.5" fill="#e0af68" stroke="#1a1b26" stroke-width="1.5"/><circle cx="683.7" cy="232.9" r="3.5" fill="#e0af68" stroke="#1a1b26" stroke-width="1.5"/><circle cx="691.8" cy="232.9" r="3.5" fill="#e0af68" stroke="#1a1b26" stroke-width="1.5"/><circle cx="699.8" cy="232.9" r="3.5" fill="#e0af68" stroke="#1a1b26" stroke-width="1.5"/><circle cx="707.8" cy="232.9" r="3.5" fill="#e0af68" stroke="#1a1b26" stroke-width="1.5"/><circle cx="715.8" cy="232.9" r="3.5" fill="#e0af68" stroke="#1a1b26" stroke-width="1.5"/><circle cx="723.8" cy="232.9" r="3.5" fill="#e0af68" stroke="#1a1b26" stroke-width="1.5"/><circle cx="731.9" cy="232.9" r="3.5" fill="#e0af68" stroke="#1a1b26" stroke-width="1.5"/><circle cx="739.9" cy="232.9" r="3.5" fill="#e0af68" stroke="#1a1b26" stroke-width="1.5"/><circle cx="747.9" cy="232.9" r="3.5" fill="#e0af68" stroke="#1a1b26" stroke-width="1.5"/><circle cx="755.9" cy="232.9" r="3.5" fill="#e0af68" stroke="#1a1b26" stroke-width="1.5"/><circle cx="764.0" cy="232.9" r="3.5" fill="#e0af68" stroke="#1a1b26" stroke-width="1.5"/><circle cx="772.0" cy="232.9" r="3.5" fill="#e0af68" stroke="#1a1b26" stroke-width="1.5"/><circle cx="780.0" cy="232.9" r="3.5" fill="#e0af68" stroke="#1a1b26" stroke-width="1.5"/><circle cx="162.3" cy="249.2" r="3.5" fill="#bb9af7" stroke="#1a1b26" stroke-width="1.5"/><circle cx="170.3" cy="249.2" r="3.5" fill="#bb9af7" stroke="#1a1b26" stroke-width="1.5"/><circle cx="178.4" cy="249.2" r="3.5" fill="#bb9af7" stroke="#1a1b26" stroke-width="1.5"/><circle cx="186.4" cy="249.2" r="3.5" fill="#bb9af7" stroke="#1a1b26" stroke-width="1.5"/><circle cx="194.4" cy="249.2" r="3.5" fill="#bb9af7" stroke="#1a1b26" stroke-width="1.5"/><circle cx="202.4" cy="249.2" r="3.5" fill="#bb9af7" stroke="#1a1b26" stroke-width="1.5"/><circle cx="210.4" cy="249.2" r="3.5" fill="#bb9af7" stroke="#1a1b26" stroke-width="1.5"/><circle cx="218.5" cy="249.2" r="3.5" fill="#bb9af7" stroke="#1a1b26" stroke-width="1.5"/><circle cx="226.5" cy="249.2" r="3.5" fill="#bb9af7" stroke="#1a1b26" stroke-width="1.5"/><circle cx="234.5" cy="249.2" r="3.5" fill="#bb9af7" stroke="#1a1b26" stroke-width="1.5"/><circle cx="242.5" cy="249.2" r="3.5" fill="#bb9af7" stroke="#1a1b26" stroke-width="1.5"/><circle cx="250.5" cy="249.2" r="3.5" fill="#bb9af7" stroke="#1a1b26" stroke-width="1.5"/><circle cx="258.6" cy="249.2" r="3.5" fill="#bb9af7" stroke="#1a1b26" stroke-width="1.5"/><circle cx="266.6" cy="249.2" r="3.5" fill="#bb9af7" stroke="#1a1b26" stroke-width="1.5"/><circle cx="274.6" cy="249.2" r="3.5" fill="#bb9af7" stroke="#1a1b26" stroke-width="1.5"/><circle cx="282.6" cy="249.2" r="3.5" fill="#bb9af7" stroke="#1a1b26" stroke-width="1.5"/><circle cx="290.7" cy="249.2" r="3.5" fill="#bb9af7" stroke="#1a1b26" stroke-width="1.5"/><circle cx="298.7" cy="249.2" r="3.5" fill="#bb9af7" stroke="#1a1b26" stroke-width="1.5"/><circle cx="306.7" cy="249.2" r="3.5" fill="#bb9af7" stroke="#1a1b26" stroke-width="1.5"/><circle cx="314.7" cy="249.2" r="3.5" fill="#bb9af7" stroke="#1a1b26" stroke-width="1.5"/><circle cx="322.7" cy="249.2" r="3.5" fill="#bb9af7" stroke="#1a1b26" stroke-width="1.5"/><circle cx="330.8" cy="249.2" r="3.5" fill="#bb9af7" stroke="#1a1b26" stroke-width="1.5"/><circle cx="338.8" cy="249.2" r="3.5" fill="#bb9af7" stroke="#1a1b26" stroke-width="1.5"/><circle cx="346.8" cy="249.2" r="3.5" fill="#bb9af7" stroke="#1a1b26" stroke-width="1.5"/><circle cx="354.8" cy="249.2" r="3.5" fill="#bb9af7" stroke="#1a1b26" stroke-width="1.5"/><circle cx="362.9" cy="249.2" r="3.5" fill="#bb9af7" stroke="#1a1b26" stroke-width="1.5"/><circle cx="370.9" cy="249.2" r="3.5" fill="#bb9af7" stroke="#1a1b26" stroke-width="1.5"/><circle cx="378.9" cy="249.2" r="3.5" fill="#bb9af7" stroke="#1a1b26" stroke-width="1.5"/><circle cx="386.9" cy="249.2" r="3.5" fill="#bb9af7" stroke="#1a1b26" stroke-width="1.5"/><circle cx="394.9" cy="249.2" r="3.5" fill="#bb9af7" stroke="#1a1b26" stroke-width="1.5"/><circle cx="403.0" cy="249.2" r="3.5" fill="#bb9af7" stroke="#1a1b26" stroke-width="1.5"/><circle cx="411.0" cy="249.2" r="3.5" fill="#bb9af7" stroke="#1a1b26" stroke-width="1.5"/><circle cx="419.0" cy="249.2" r="3.5" fill="#bb9af7" stroke="#1a1b26" stroke-width="1.5"/><circle cx="427.0" cy="249.2" r="3.5" fill="#bb9af7" stroke="#1a1b26" stroke-width="1.5"/><circle cx="435.1" cy="249.2" r="3.5" fill="#bb9af7" stroke="#1a1b26" stroke-width="1.5"/><circle cx="443.1" cy="249.2" r="3.5" fill="#bb9af7" stroke="#1a1b26" stroke-width="1.5"/><circle cx="451.1" cy="249.2" r="3.5" fill="#bb9af7" stroke="#1a1b26" stroke-width="1.5"/><circle cx="459.1" cy="249.2" r="3.5" fill="#bb9af7" stroke="#1a1b26" stroke-width="1.5"/><circle cx="467.1" cy="249.2" r="3.5" fill="#bb9af7" stroke="#1a1b26" stroke-width="1.5"/><circle cx="475.2" cy="249.2" r="3.5" fill="#bb9af7" stroke="#1a1b26" stroke-width="1.5"/><circle cx="483.2" cy="249.2" r="3.5" fill="#bb9af7" stroke="#1a1b26" stroke-width="1.5"/><circle cx="491.2" cy="249.2" r="3.5" fill="#bb9af7" stroke="#1a1b26" stroke-width="1.5"/><circle cx="499.2" cy="249.2" r="3.5" fill="#bb9af7" stroke="#1a1b26" stroke-width="1.5"/><circle cx="507.3" cy="249.2" r="3.5" fill="#bb9af7" stroke="#1a1b26" stroke-width="1.5"/><circle cx="515.3" cy="249.2" r="3.5" fill="#bb9af7" stroke="#1a1b26" stroke-width="1.5"/><circle cx="523.3" cy="249.2" r="3.5" fill="#bb9af7" stroke="#1a1b26" stroke-width="1.5"/><circle cx="531.3" cy="249.2" r="3.5" fill="#bb9af7" stroke="#1a1b26" stroke-width="1.5"/><circle cx="539.3" cy="249.2" r="3.5" fill="#bb9af7" stroke="#1a1b26" stroke-width="1.5"/><circle cx="547.4" cy="249.2" r="3.5" fill="#bb9af7" stroke="#1a1b26" stroke-width="1.5"/><circle cx="555.4" cy="249.2" r="3.5" fill="#bb9af7" stroke="#1a1b26" stroke-width="1.5"/><circle cx="563.4" cy="249.2" r="3.5" fill="#bb9af7" stroke="#1a1b26" stroke-width="1.5"/><circle cx="571.4" cy="249.2" r="3.5" fill="#bb9af7" stroke="#1a1b26" stroke-width="1.5"/><circle cx="579.5" cy="249.2" r="3.5" fill="#bb9af7" stroke="#1a1b26" stroke-width="1.5"/><circle cx="587.5" cy="249.2" r="3.5" fill="#bb9af7" stroke="#1a1b26" stroke-width="1.5"/><circle cx="595.5" cy="249.2" r="3.5" fill="#bb9af7" stroke="#1a1b26" stroke-width="1.5"/><circle cx="603.5" cy="249.2" r="3.5" fill="#bb9af7" stroke="#1a1b26" stroke-width="1.5"/><circle cx="611.5" cy="249.2" r="3.5" fill="#bb9af7" stroke="#1a1b26" stroke-width="1.5"/><circle cx="619.6" cy="249.2" r="3.5" fill="#bb9af7" stroke="#1a1b26" stroke-width="1.5"/><circle cx="627.6" cy="249.2" r="3.5" fill="#bb9af7" stroke="#1a1b26" stroke-width="1.5"/><circle cx="635.6" cy="249.2" r="3.5" fill="#bb9af7" stroke="#1a1b26" stroke-width="1.5"/><circle cx="643.6" cy="249.2" r="3.5" fill="#bb9af7" stroke="#1a1b26" stroke-width="1.5"/><circle cx="651.6" cy="249.2" r="3.5" fill="#bb9af7" stroke="#1a1b26" stroke-width="1.5"/><circle cx="659.7" cy="249.2" r="3.5" fill="#bb9af7" stroke="#1a1b26" stroke-width="1.5"/><circle cx="667.7" cy="249.2" r="3.5" fill="#bb9af7" stroke="#1a1b26" stroke-width="1.5"/><circle cx="675.7" cy="249.2" r="3.5" fill="#bb9af7" stroke="#1a1b26" stroke-width="1.5"/><circle cx="683.7" cy="249.2" r="3.5" fill="#bb9af7" stroke="#1a1b26" stroke-width="1.5"/><circle cx="691.8" cy="249.2" r="3.5" fill="#bb9af7" stroke="#1a1b26" stroke-width="1.5"/><circle cx="699.8" cy="249.2" r="3.5" fill="#bb9af7" stroke="#1a1b26" stroke-width="1.5"/><circle cx="707.8" cy="249.2" r="3.5" fill="#bb9af7" stroke="#1a1b26" stroke-width="1.5"/><circle cx="715.8" cy="249.2" r="3.5" fill="#bb9af7" stroke="#1a1b26" stroke-width="1.5"/><circle cx="723.8" cy="249.2" r="3.5" fill="#bb9af7" stroke="#1a1b26" stroke-width="1.5"/><circle cx="731.9" cy="249.2" r="3.5" fill="#bb9af7" stroke="#1a1b26" stroke-width="1.5"/><circle cx="739.9" cy="249.2" r="3.5" fill="#bb9af7" stroke="#1a1b26" stroke-width="1.5"/><circle cx="747.9" cy="249.2" r="3.5" fill="#bb9af7" stroke="#1a1b26" stroke-width="1.5"/><circle cx="755.9" cy="249.2" r="3.5" fill="#bb9af7" stroke="#1a1b26" stroke-width="1.5"/><circle cx="764.0" cy="249.2" r="3.5" fill="#bb9af7" stroke="#1a1b26" stroke-width="1.5"/><circle cx="772.0" cy="249.2" r="3.5" fill="#bb9af7" stroke="#1a1b26" stroke-width="1.5"/><circle cx="780.0" cy="249.2" r="3.5" fill="#bb9af7" stroke="#1a1b26" stroke-width="1.5"/>
  <rect x="50" y="278" width="10" height="10" rx="2" fill="#7aa2f7"/><text x="64" y="286" fill="#565f89" font-size="11" font-family="monospace">History of God</text><rect x="290" y="278" width="10" height="10" rx="2" fill="#9ece6a"/><text x="304" y="286" fill="#565f89" font-size="11" font-family="monospace">Python for Data Science For …</text><rect x="530" y="278" width="10" height="10" rx="2" fill="#e0af68"/><text x="544" y="286" fill="#565f89" font-size="11" font-family="monospace">Crucial Conversations: Tools…</text><rect x="50" y="278" width="10" height="10" rx="2" fill="#bb9af7"/><text x="64" y="286" fill="#565f89" font-size="11" font-family="monospace">Eloquent JavaScript</text>
</svg>