<svg xmlns="http://www.w3.org/2000/svg" width="800" height="300" viewBox="0 0 800 300">
  <rect width="800" height="300" rx="12" fill="#1a1b26"/>
  <rect x="1" y="1" width="798" height="298" rx="11" fill="none" stroke="#414868" stroke-width="1"/>
  <text x="50" y="22" fill="#c0caf5" font-size="13" font-family="monospace" font-weight="bold">📖 Reading Progress</text>
  <text x="780" y="22" fill="#565f89" font-size="10" font-family="monospace" text-anchor="end">Updated 2026-07-19</text>
  <line x1="50" y1="250.0" x2="780" y2="250.0" stroke="#414868" stroke-width="0.5" stroke-dasharray="4,4"/><text x="44" y="254.0" fill="#565f89" font-size="10" font-family="monospace" text-anchor="end">0%</text><line x1="50" y1="197.5" x2="780" y2="197.5" stroke="#414868" stroke-width="0.5" stroke-dasharray="4,4"/><text x="44" y="201.5" fill="#565f89" font-size="10" font-family="monospace" text-anchor="end">25%</text><line x1="50" y1="145.0" x2="780" y2="145.0" stroke="#414868" stroke-width="0.5" stroke-dasharray="4,4"/><text x="44" y="149.0" fill="#565f89" font-size="10" font-family="monospace" text-anchor="end">50%</text><line x1="50" y1="92.5" x2="780" y2="92.5" stroke="#414868" stroke-width="0.5" stroke-dasharray="4,4"/><text x="44" y="96.5" fill="#565f89" font-size="10" font-family="monospace" text-anchor="end">75%</text><line x1="50" y1="40.0" x2="780" y2="40.0" stroke="#414868" stroke-width="0.5" stroke-dasharray="4,4"/><text x="44" y="44.0" fill="#565f89" font-size="10" font-family="monospace" text-anchor="end">100%</text>
  <text x="50.0" y="268" fill="#565f89" font-size="10" font-family="monospace" text-anchor="middle">03-09</text><text x="170.6" y="268" fill="#565f89" font-size="10" font-family="monospace" text-anchor="middle">03-30</text><text x="291.1" y="268" fill="#565f89" font-size="10" font-family="monospace" text-anchor="middle">04-19</text><text x="411.7" y="268" fill="#565f89" font-size="10" font-family="monospace" text-anchor="middle">05-09</text><text x="532.2" y="268" fill="#565f89" font-size="10" font-family="monospace" text-anchor="middle">06-02</text><text x="652.8" y="268" fill="#565f89" font-size="10" font-family="monospace" text-anchor="middle">06-28</text><text x="773.3" y="268" fill="#565f89" font-size="10" font-family="monospace" text-anchor="middle">07-18</text>
  <path d="M 50.0,236.0 L 56.7,234.1 L 63.4,234.0 L 70.1,233.3 L 76.8,231.5 L 83.5,208.1 L 90.2,208.1 L 96.9,208.1 L 103.6,208.1 L 110.3,208.1 L 117.0,208.1 L 123.7,208.1 L 130.4,208.1 L 137.1,208.1 L 143.8,208.1 L 150.5,208.1 L 157.2,208.1 L 163.9,208.1 L 170.6,208.1 L 177.2,208.1 L 183.9,208.1 L 190.6,208.1 L 197.3,208.1 L 204.0,208.1 L 210.7,208.1 L 217.4,208.1 L 224.1,208.1 L 230.8,208.1 L 237.5,208.1 L 244.2,208.1 L 250.9,208.1 L 257.6,208.1 L 264.3,208.1 L 271.0,208.1 L 277.7,208.1 L 284.4,208.1 L 291.1,208.1 L 297.8,208.1 L 304.5,208.1 L 311.2,208.1 L 317.9,208.1 L 324.6,208.1 L 331.3,208.1 L 338.0,208.1 L 344.7,208.1 L 351.4,208.1 L 358.1,208.1 L 364.8,208.1 L 371.5,208.1 L 378.2,208.1 L 384.9,208.1 L 391.6,208.1 L 398.3,208.1 L 405.0,208.1 L 411.7,208.1 L 418.3,208.1 L 425.0,208.1 L 431.7,208.1 L 438.4,208.1 L 445.1,208.1 L 451.8,208.1 L 458.5,208.1 L 465.2,208.1 L 471.9,208.1 L 478.6,208.1 L 485.3,208.1 L 492.0,208.1 L 498.7,208.1 L 505.4,208.1 L 512.1,208.1 L 518.8,208.1 L 525.5,208.1 L 532.2,208.1 L 538.9,208.1 L 545.6,208.1 L 552.3,208.1 L 559.0,208.1 L 565.7,208.1 L 572.4,208.1 L 579.1,208.1 L 585.8,208.1 L 592.5,208.1 L 599.2,208.1 L 605.9,208.1 L 612.6,208.1 L 619.3,208.1 L 626.0,208.1 L 632.7,208.1 L 639.4,208.1 L 646.1,208.1 L 652.8,208.1 L 659.4,208.1 L 666.1,208.1 L 672.8,208.1 L 679.5,208.1 L 686.2,208.1 L 692.9,208.1 L 699.6,208.1 L 706.3,208.1 L 713.0,208.1 L 719.7,208.1 L 726.4,208.1 L 733.1,208.1 L 739.8,208.1 L 746.5,208.1 L 753.2,208.1 L 759.9,208.1 L 766.6,208.1 L 773.3,208.1 L 780.0,208.1" fill="none" stroke="#7aa2f7" stroke-width="2.5" stroke-linejoin="round" stroke-linecap="round" opacity="0.9"/><path d="M 692.9,244.4 L 699.6,244.4 L 706.3,244.4 L 713.0,244.4 L 719.7,244.4 L 726.4,244.4 L 733.1,244.4 L 739.8,244.4 L 746.5,244.4 L 753.2,244.4 L 759.9,244.4 L 766.6,244.4 L 773.3,244.4 L 780.0,244.4" fill="none" stroke="#9ece6a" stroke-width="2.5" stroke-linejoin="round" stroke-linecap="round" opacity="0.9"/><path d="M 90.2,239.5 L 96.9,237.4 L 103.6,239.4 L 110.3,239.4 L 117.0,239.4 L 123.7,239.4 L 130.4,239.4 L 137.1,239.4 L 143.8,239.4 L 150.5,239.4 L 157.2,239.4 L 163.9,239.4 L 170.6,239.4 L 177.2,239.4 L 183.9,239.4 L 190.6,239.4 L 197.3,239.4 L 204.0,239.4 L 210.7,239.4 L 217.4,239.4 L 224.1,239.4 L 230.8,239.4 L 237.5,239.4 L 244.2,239.4 L 250.9,239.4 L 257.6,239.4 L 264.3,239.4 L 271.0,239.4 L 277.7,239.4 L 284.4,239.4 L 291.1,239.4 L 297.8,239.4 L 304.5,239.4 L 311.2,239.4 L 317.9,239.4 L 324.6,239.4 L 331.3,239.4 L 338.0,239.4 L 344.7,239.4 L 351.4,239.4 L 358.1,239.4 L 364.8,239.4 L 371.5,239.4 L 378.2,239.4 L 384.9,239.4 L 391.6,239.4 L 398.3,239.4 L 405.0,239.4 L 411.7,239.4 L 418.3,239.4 L 425.0,239.4 L 431.7,239.4 L 438.4,239.4 L 445.1,239.4 L 451.8,239.4 L 458.5,239.4 L 465.2,239.4 L 471.9,239.4 L 478.6,239.4 L 485.3,239.4 L 492.0,239.4 L 498.7,239.4 L 505.4,239.4 L 512.1,239.4 L 518.8,239.4 L 525.5,239.4 L 532.2,239.4 L 538.9,239.4 L 545.6,239.4 L 552.3,239.4 L 559.0,239.4 L 565.7,239.4 L 572.4,239.4 L 579.1,239.4 L 585.8,239.4 L 592.5,239.4 L 599.2,239.4 L 605.9,239.4 L 612.6,239.4 L 619.3,239.4 L 626.0,239.4 L 632.7,239.4 L 639.4,239.4 L 646.1,239.4 L 652.8,239.4 L 659.4,239.4 L 666.1,239.4 L 672.8,239.4 L 679.5,239.4 L 686.2,239.4 L 692.9,239.4 L 699.6,239.4 L 706.3,239.4 L 713.0,239.4 L 719.7,239.4 L 726.4,239.4 L 733.1,239.4 L 739.8,239.4 L 746.5,239.4 L 753.2,239.4 L 759.9,239.4 L 766.6,239.4 L 773.3,239.4 L 780.0,239.4" fill="none" stroke="#e0af68" stroke-width="2.5" stroke-linejoin="round" stroke-linecap="round" opacity="0.9"/><path d="M 143.8,239.4 L 150.5,239.4 L 157.2,239.4 L 163.9,239.4 L 170.6,239.4 L 177.2,239.4 L 183.9,239.4 L 190.6,239.4 L 197.3,239.4 L 204.0,239.4 L 210.7,237.0 L 217.4,237.0 L 224.1,237.0 L 230.8,237.0 L 237.5,237.0 L 244.2,237.0 L 250.9,237.0 L 257.6,237.0 L 264.3,237.0 L 271.0,237.0 L 277.7,237.0 L 284.4,237.0 L 291.1,237.0 L 297.8,237.0 L 304.5,237.0 L 311.2,237.0 L 317.9,234.6 L 324.6,234.6 L 331.3,234.6 L 338.0,234.6 L 344.7,234.6 L 351.4,232.9 L 358.1,232.9 L 364.8,232.9 L 371.5,232.9 L 378.2,232.9 L 384.9,232.9 L 391.6,232.9 L 398.3,232.9 L 405.0,232.9 L 411.7,232.9 L 418.3,232.9 L 425.0,232.9 L 431.7,232.9 L 438.4,232.9 L 445.1,232.9 L 451.8,232.9 L 458.5,232.9 L 465.2,232.9 L 471.9,232.9 L 478.6,232.9 L 485.3,232.9 L 492.0,232.9 L 498.7,232.9 L 505.4,232.9 L 512.1,232.9 L 518.8,232.9 L 525.5,232.9 L 532.2,232.9 L 538.9,232.9 L 545.6,232.9 L 552.3,232.9 L 559.0,232.9 L 565.7,232.9 L 572.4,232.9 L 579.1,232.9 L 585.8,232.9 L 592.5,232.9 L 599.2,232.9 L 605.9,232.9 L 612.6,232.9 L 619.3,232.9 L 626.0,232.9 L 632.7,232.9 L 639.4,232.9 L 646.1,232.9 L 652.8,232.9 L 659.4,232.9 L 666.1,232.9 L 672.8,232.9 L 679.5,231.3 L 686.2,231.3 L 692.9,228.9 L 699.6,228.9 L 706.3,227.3 L 713.0,227.3 L 719.7,227.3 L 726.4,227.3 L 733.1,227.3 L 739.8,227.3 L 746.5,227.3 L 753.2,227.3 L 759.9,227.3 L 766.6,227.3 L 773.3,227.3 L 780.0,227.3" fill="none" stroke="#bb9af7" stroke-width="2.5" stroke-linejoin="round" stroke-linecap="round" opacity="0.9"/><path d="M 143.8,249.2 L 150.5,249.2 L 157.2,249.2 L 163.9,249.2 L 170.6,249.2 L 177.2,249.2 L 183.9,249.2 L 190.6,249.2 L 197.3,249.2 L 204.0,249.2 L 210.7,249.2 L 217.4,249.2 L 224.1,249.2 L 230.8,249.2 L 237.5,249.2 L 244.2,249.2 L 250.9,249.2 L 257.6,249.2 L 264.3,249.2 L 271.0,249.2 L 277.7,249.2 L 284.4,249.2 L 291.1,249.2 L 297.8,249.2 L 304.5,249.2 L 311.2,249.2 L 317.9,249.2 L 324.6,249.2 L 331.3,249.2 L 338.0,249.2 L 344.7,249.2 L 351.4,249.2 L 358.1,249.2 L 364.8,249.2 L 371.5,249.2 L 378.2,249.2 L 384.9,249.2 L 391.6,249.2 L 398.3,249.2 L 405.0,249.2 L 411.7,249.2 L 418.3,249.2 L 425.0,249.2 L 431.7,249.2 L 438.4,249.2 L 445.1,249.2 L 451.8,249.2 L 458.5,249.2 L 465.2,249.2 L 471.9,249.2 L 478.6,249.2 L 485.3,249.2 L 492.0,249.2 L 498.7,249.2 L 505.4,249.2 L 512.1,249.2 L 518.8,249.2 L 525.5,249.2 L 532.2,249.2 L 538.9,249.2 L 545.6,249.2 L 552.3,249.2 L 559.0,249.2 L 565.7,249.2 L 572.4,249.2 L 579.1,249.2 L 585.8,249.2 L 592.5,249.2 L 599.2,249.2 L 605.9,249.2 L 612.6,249.2 L 619.3,249.2 L 626.0,249.2 L 632.7,249.2 L 639.4,249.2 L 646.1,249.2 L 652.8,249.2 L 659.4,249.2 L 666.1,249.2 L 672.8,249.2 L 679.5,249.2 L 686.2,249.2 L 692.9,249.2 L 699.6,249.2 L 706.3,249.2 L 713.0,249.2 L 719.7,249.2 L 726.4,249.2 L 733.1,249.2 L 739.8,249.2 L 746.5,249.2 L 753.2,249.2 L 759.9,249.2 L 766.6,249.2 L 773.3,249.2 L 780.0,249.2" fill="none" stroke="#7dcfff" stroke-width="2.5" stroke-linejoin="round" stroke-linecap="round" opacity="0.9"/>
  <circle cx="50.0" cy="236.0" r="3.5" fill="#7aa2f7" stroke="#1a1b26" stroke-width="1.5"/><circle cx="56.7" cy="234.1" r="3.5" fill="#7aa2f7" stroke="#1a1b26" stroke-width="1.5"/><circle cx="63.4" cy="234.0" r="3.5" fill="#7aa2f7" stroke="#1a1b26" stroke-width="1.5"/><circle cx="70.1" cy="233.3" r="3.5" fill="#7aa2f7" stroke="#1a1b26" stroke-width="1.5"/><circle cx="76.8" cy="231.5" r="3.5" fill="#7aa2f7" stroke="#1a1b26" stroke-width="1.5"/><circle cx="83.5" cy="208.1" r="3.5" fill="#7aa2f7" stroke="#1a1b26" stroke-width="1.5"/><circle cx="90.2" cy="208.1" r="3.5" fill="#7aa2f7" stroke="#1a1b26" stroke-width="1.5"/><circle cx="96.9" cy="208.1" r="3.5" fill="#7aa2f7" stroke="#1a1b26" stroke-width="1.5"/><circle cx="103.6" cy="208.1" r="3.5" fill="#7aa2f7" stroke="#1a1b26" stroke-width="1.5"/><circle cx="110.3" cy="208.1" r="3.5" fill="#7aa2f7" stroke="#1a1b26" stroke-width="1.5"/><circle cx="117.0" cy="208.1" r="3.5" fill="#7aa2f7" stroke="#1a1b26" stroke-width="1.5"/><circle cx="123.7" cy="208.1" r="3.5" fill="#7aa2f7" stroke="#1a1b26" stroke-width="1.5"/><circle cx="130.4" cy="208.1" r="3.5" fill="#7aa2f7" stroke="#1a1b26" stroke-width="1.5"/><circle cx="137.1" cy="208.1" r="3.5" fill="#7aa2f7" stroke="#1a1b26" stroke-width="1.5"/><circle cx="143.8" cy="208.1" r="3.5" fill="#7aa2f7" stroke="#1a1b26" stroke-width="1.5"/><circle cx="150.5" cy="208.1" r="3.5" fill="#7aa2f7" stroke="#1a1b26" stroke-width="1.5"/><circle cx="157.2" cy="208.1" r="3.5" fill="#7aa2f7" stroke="#1a1b26" stroke-width="1.5"/><circle cx="163.9" cy="208.1" r="3.5" fill="#7aa2f7" stroke="#1a1b26" stroke-width="1.5"/><circle cx="170.6" cy="208.1" r="3.5" fill="#7aa2f7" stroke="#1a1b26" stroke-width="1.5"/><circle cx="177.2" cy="208.1" r="3.5" fill="#7aa2f7" stroke="#1a1b26" stroke-width="1.5"/><circle cx="183.9" cy="208.1" r="3.5" fill="#7aa2f7" stroke="#1a1b26" stroke-width="1.5"/><circle cx="190.6" cy="208.1" r="3.5" fill="#7aa2f7" stroke="#1a1b26" stroke-width="1.5"/><circle cx="197.3" cy="208.1" r="3.5" fill="#7aa2f7" stroke="#1a1b26" stroke-width="1.5"/><circle cx="204.0" cy="208.1" r="3.5" fill="#7aa2f7" stroke="#1a1b26" stroke-width="1.5"/><circle cx="210.7" cy="208.1" r="3.5" fill="#7aa2f7" stroke="#1a1b26" stroke-width="1.5"/><circle cx="217.4" cy="208.1" r="3.5" fill="#7aa2f7" stroke="#1a1b26" stroke-width="1.5"/><circle cx="224.1" cy="208.1" r="3.5" fill="#7aa2f7" stroke="#1a1b26" stroke-width="1.5"/><circle cx="230.8" cy="208.1" r="3.5" fill="#7aa2f7" stroke="#1a1b26" stroke-width="1.5"/><circle cx="237.5" cy="208.1" r="3.5" fill="#7aa2f7" stroke="#1a1b26" stroke-width="1.5"/><circle cx="244.2" cy="208.1" r="3.5" fill="#7aa2f7" stroke="#1a1b26" stroke-width="1.5"/><circle cx="250.9" cy="208.1" r="3.5" fill="#7aa2f7" stroke="#1a1b26" stroke-width="1.5"/><circle cx="257.6" cy="208.1" r="3.5" fill="#7aa2f7" stroke="#1a1b26" stroke-width="1.5"/><circle cx="264.3" cy="208.1" r="3.5" fill="#7aa2f7" stroke="#1a1b26" stroke-width="1.5"/><circle cx="271.0" cy="208.1" r="3.5" fill="#7aa2f7" stroke="#1a1b26" stroke-width="1.5"/><circle cx="277.7" cy="208.1" r="3.5" fill="#7aa2f7" stroke="#1a1b26" stroke-width="1.5"/><circle cx="284.4" cy="208.1" r="3.5" fill="#7aa2f7" stroke="#1a1b26" stroke-width="1.5"/><circle cx="291.1" cy="208.1" r="3.5" fill="#7aa2f7" stroke="#1a1b26" stroke-width="1.5"/><circle cx="297.8" cy="208.1" r="3.5" fill="#7aa2f7" stroke="#1a1b26" stroke-width="1.5"/><circle cx="304.5" cy="208.1" r="3.5" fill="#7aa2f7" stroke="#1a1b26" stroke-width="1.5"/><circle cx="311.2" cy="208.1" r="3.5" fill="#7aa2f7" stroke="#1a1b26" stroke-width="1.5"/><circle cx="317.9" cy="208.1" r="3.5" fill="#7aa2f7" stroke="#1a1b26" stroke-width="1.5"/><circle cx="324.6" cy="208.1" r="3.5" fill="#7aa2f7" stroke="#1a1b26" stroke-width="1.5"/><circle cx="331.3" cy="208.1" r="3.5" fill="#7aa2f7" stroke="#1a1b26" stroke-width="1.5"/><circle cx="338.0" cy="208.1" r="3.5" fill="#7aa2f7" stroke="#1a1b26" stroke-width="1.5"/><circle cx="344.7" cy="208.1" r="3.5" fill="#7aa2f7" stroke="#1a1b26" stroke-width="1.5"/><circle cx="351.4" cy="208.1" r="3.5" fill="#7aa2f7" stroke="#1a1b26" stroke-width="1.5"/><circle cx="358.1" cy="208.1" r="3.5" fill="#7aa2f7" stroke="#1a1b26" stroke-width="1.5"/><circle cx="364.8" cy="208.1" r="3.5" fill="#7aa2f7" stroke="#1a1b26" stroke-width="1.5"/><circle cx="371.5" cy="208.1" r="3.5" fill="#7aa2f7" stroke="#1a1b26" stroke-width="1.5"/><circle cx="378.2" cy="208.1" r="3.5" fill="#7aa2f7" stroke="#1a1b26" stroke-width="1.5"/><circle cx="384.9" cy="208.1" r="3.5" fill="#7aa2f7" stroke="#1a1b26" stroke-width="1.5"/><circle cx="391.6" cy="208.1" r="3.5" fill="#7aa2f7" stroke="#1a1b26" stroke-width="1.5"/><circle cx="398.3" cy="208.1" r="3.5" fill="#7aa2f7" stroke="#1a1b26" stroke-width="1.5"/><circle cx="405.0" cy="208.1" r="3.5" fill="#7aa2f7" stroke="#1a1b26" stroke-width="1.5"/><circle cx="411.7" cy="208.1" r="3.5" fill="#7aa2f7" stroke="#1a1b26" stroke-width="1.5"/><circle cx="418.3" cy="208.1" r="3.5" fill="#7aa2f7" stroke="#1a1b26" stroke-width="1.5"/><circle cx="425.0" cy="208.1" r="3.5" fill="#7aa2f7" stroke="#1a1b26" stroke-width="1.5"/><circle cx="431.7" cy="208.1" r="3.5" fill="#7aa2f7" stroke="#1a1b26" stroke-width="1.5"/><circle cx="438.4" cy="208.1" r="3.5" fill="#7aa2f7" stroke="#1a1b26" stroke-width="1.5"/><circle cx="445.1" cy="208.1" r="3.5" fill="#7aa2f7" stroke="#1a1b26" stroke-width="1.5"/><circle cx="451.8" cy="208.1" r="3.5" fill="#7aa2f7" stroke="#1a1b26" stroke-width="1.5"/><circle cx="458.5" cy="208.1" r="3.5" fill="#7aa2f7" stroke="#1a1b26" stroke-width="1.5"/><circle cx="465.2" cy="208.1" r="3.5" fill="#7aa2f7" stroke="#1a1b26" stroke-width="1.5"/><circle cx="471.9" cy="208.1" r="3.5" fill="#7aa2f7" stroke="#1a1b26" stroke-width="1.5"/><circle cx="478.6" cy="208.1" r="3.5" fill="#7aa2f7" stroke="#1a1b26" stroke-width="1.5"/><circle cx="485.3" cy="208.1" r="3.5" fill="#7aa2f7" stroke="#1a1b26" stroke-width="1.5"/><circle cx="492.0" cy="208.1" r="3.5" fill="#7aa2f7" stroke="#1a1b26" stroke-width="1.5"/><circle cx="498.7" cy="208.1" r="3.5" fill="#7aa2f7" stroke="#1a1b26" stroke-width="1.5"/><circle cx="505.4" cy="208.1" r="3.5" fill="#7aa2f7" stroke="#1a1b26" stroke-width="1.5"/><circle cx="512.1" cy="208.1" r="3.5" fill="#7aa2f7" stroke="#1a1b26" stroke-width="1.5"/><circle cx="518.8" cy="208.1" r="3.5" fill="#7aa2f7" stroke="#1a1b26" stroke-width="1.5"/><circle cx="525.5" cy="208.1" r="3.5" fill="#7aa2f7" stroke="#1a1b26" stroke-width="1.5"/><circle cx="532.2" cy="208.1" r="3.5" fill="#7aa2f7" stroke="#1a1b26" stroke-width="1.5"/><circle cx="538.9" cy="208.1" r="3.5" fill="#7aa2f7" stroke="#1a1b26" stroke-width="1.5"/><circle cx="545.6" cy="208.1" r="3.5" fill="#7aa2f7" stroke="#1a1b26" stroke-width="1.5"/><circle cx="552.3" cy="208.1" r="3.5" fill="#7aa2f7" stroke="#1a1b26" stroke-width="1.5"/><circle cx="559.0" cy="208.1" r="3.5" fill="#7aa2f7" stroke="#1a1b26" stroke-width="1.5"/><circle cx="565.7" cy="208.1" r="3.5" fill="#7aa2f7" stroke="#1a1b26" stroke-width="1.5"/><circle cx="572.4" cy="208.1" r="3.5" fill="#7aa2f7" stroke="#1a1b26" stroke-width="1.5"/><circle cx="579.1" cy="208.1" r="3.5" fill="#7aa2f7" stroke="#1a1b26" stroke-width="1.5"/><circle cx="585.8" cy="208.1" r="3.5" fill="#7aa2f7" stroke="#1a1b26" stroke-width="1.5"/><circle cx="592.5" cy="208.1" r="3.5" fill="#7aa2f7" stroke="#1a1b26" stroke-width="1.5"/><circle cx="599.2" cy="208.1" r="3.5" fill="#7aa2f7" stroke="#1a1b26" stroke-width="1.5"/><circle cx="605.9" cy="208.1" r="3.5" fill="#7aa2f7" stroke="#1a1b26" stroke-width="1.5"/><circle cx="612.6" cy="208.1" r="3.5" fill="#7aa2f7" stroke="#1a1b26" stroke-width="1.5"/><circle cx="619.3" cy="208.1" r="3.5" fill="#7aa2f7" stroke="#1a1b26" stroke-width="1.5"/><circle cx="626.0" cy="208.1" r="3.5" fill="#7aa2f7" stroke="#1a1b26" stroke-width="1.5"/><circle cx="632.7" cy="208.1" r="3.5" fill="#7aa2f7" stroke="#1a1b26" stroke-width="1.5"/><circle cx="639.4" cy="208.1" r="3.5" fill="#7aa2f7" stroke="#1a1b26" stroke-width="1.5"/><circle cx="646.1" cy="208.1" r="3.5" fill="#7aa2f7" stroke="#1a1b26" stroke-width="1.5"/><circle cx="652.8" cy="208.1" r="3.5" fill="#7aa2f7" stroke="#1a1b26" stroke-width="1.5"/><circle cx="659.4" cy="208.1" r="3.5" fill="#7aa2f7" stroke="#1a1b26" stroke-width="1.5"/><circle cx="666.1" cy="208.1" r="3.5" fill="#7aa2f7" stroke="#1a1b26" stroke-width="1.5"/><circle cx="672.8" cy="208.1" r="3.5" fill="#7aa2f7" stroke="#1a1b26" stroke-width="1.5"/><circle cx="679.5" cy="208.1" r="3.5" fill="#7aa2f7" stroke="#1a1b26" stroke-width="1.5"/><circle cx="686.2" cy="208.1" r="3.5" fill="#7aa2f7" stroke="#1a1b26" stroke-width="1.5"/><circle cx="692.9" cy="208.1" r="3.5" fill="#7aa2f7" stroke="#1a1b26" stroke-width="1.5"/><circle cx="699.6" cy="208.1" r="3.5" fill="#7aa2f7" stroke="#1a1b26" stroke-width="1.5"/><circle cx="706.3" cy="208.1" r="3.5" fill="#7aa2f7" stroke="#1a1b26" stroke-width="1.5"/><circle cx="713.0" cy="208.1" r="3.5" fill="#7aa2f7" stroke="#1a1b26" stroke-width="1.5"/><circle cx="719.7" cy="208.1" r="3.5" fill="#7aa2f7" stroke="#1a1b26" stroke-width="1.5"/><circle cx="726.4" cy="208.1" r="3.5" fill="#7aa2f7" stroke="#1a1b26" stroke-width="1.5"/><circle cx="733.1" cy="208.1" r="3.5" fill="#7aa2f7" stroke="#1a1b26" stroke-width="1.5"/><circle cx="739.8" cy="208.1" r="3.5" fill="#7aa2f7" stroke="#1a1b26" stroke-width="1.5"/><circle cx="746.5" cy="208.1" r="3.5" fill="#7aa2f7" stroke="#1a1b26" stroke-width="1.5"/><circle cx="753.2" cy="208.1" r="3.5" fill="#7aa2f7" stroke="#1a1b26" stroke-width="1.5"/><circle cx="759.9" cy="208.1" r="3.5" fill="#7aa2f7" stroke="#1a1b26" stroke-width="1.5"/><circle cx="766.6" cy="208.1" r="3.5" fill="#7aa2f7" stroke="#1a1b26" stroke-width="1.5"/><circle cx="773.3" cy="208.1" r="3.5" fill="#7aa2f7" stroke="#1a1b26" stroke-width="1.5"/><circle cx="780.0" cy="208.1" r="3.5" fill="#7aa2f7" stroke="#1a1b26" stroke-width="1.5"/><circle cx="692.9" cy="244.4" r="3.5" fill="#9ece6a" stroke="#1a1b26" stroke-width="1.5"/><circle cx="699.6" cy="244.4" r="3.5" fill="#9ece6a" stroke="#1a1b26" stroke-width="1.5"/><circle cx="706.3" cy="244.4" r="3.5" fill="#9ece6a" stroke="#1a1b26" stroke-width="1.5"/><circle cx="713.0" cy="244.4" r="3.5" fill="#9ece6a" stroke="#1a1b26" stroke-width="1.5"/><circle cx="719.7" cy="244.4" r="3.5" fill="#9ece6a" stroke="#1a1b26" stroke-width="1.5"/><circle cx="726.4" cy="244.4" r="3.5" fill="#9ece6a" stroke="#1a1b26" stroke-width="1.5"/><circle cx="733.1" cy="244.4" r="3.5" fill="#9ece6a" stroke="#1a1b26" stroke-width="1.5"/><circle cx="739.8" cy="244.4" r="3.5" fill="#9ece6a" stroke="#1a1b26" stroke-width="1.5"/><circle cx="746.5" cy="244.4" r="3.5" fill="#9ece6a" stroke="#1a1b26" stroke-width="1.5"/><circle cx="753.2" cy="244.4" r="3.5" fill="#9ece6a" stroke="#1a1b26" stroke-width="1.5"/><circle cx="759.9" cy="244.4" r="3.5" fill="#9ece6a" stroke="#1a1b26" stroke-width="1.5"/><circle cx="766.6" cy="244.4" r="3.5" fill="#9ece6a" stroke="#1a1b26" stroke-width="1.5"/><circle cx="773.3" cy="244.4" r="3.5" fill="#9ece6a" stroke="#1a1b26" stroke-width="1.5"/><circle cx="780.0" cy="244.4" r="3.5" fill="#9ece6a" stroke="#1a1b26" stroke-width="1.5"/><circle cx="90.2" cy="239.5" r="3.5" fill="#e0af68" stroke="#1a1b26" stroke-width="1.5"/><circle cx="96.9" cy="237.4" r="3.5" fill="#e0af68" stroke="#1a1b26" stroke-width="1.5"/><circle cx="103.6" cy="239.4" r="3.5" fill="#e0af68" stroke="#1a1b26" stroke-width="1.5"/><circle cx="110.3" cy="239.4" r="3.5" fill="#e0af68" stroke="#1a1b26" stroke-width="1.5"/><circle cx="117.0" cy="239.4" r="3.5" fill="#e0af68" stroke="#1a1b26" stroke-width="1.5"/><circle cx="123.7" cy="239.4" r="3.5" fill="#e0af68" stroke="#1a1b26" stroke-width="1.5"/><circle cx="130.4" cy="239.4" r="3.5" fill="#e0af68" stroke="#1a1b26" stroke-width="1.5"/><circle cx="137.1" cy="239.4" r="3.5" fill="#e0af68" stroke="#1a1b26" stroke-width="1.5"/><circle cx="143.8" cy="239.4" r="3.5" fill="#e0af68" stroke="#1a1b26" stroke-width="1.5"/><circle cx="150.5" cy="239.4" r="3.5" fill="#e0af68" stroke="#1a1b26" stroke-width="1.5"/><circle cx="157.2" cy="239.4" r="3.5" fill="#e0af68" stroke="#1a1b26" stroke-width="1.5"/><circle cx="163.9" cy="239.4" r="3.5" fill="#e0af68" stroke="#1a1b26" stroke-width="1.5"/><circle cx="170.6" cy="239.4" r="3.5" fill="#e0af68" stroke="#1a1b26" stroke-width="1.5"/><circle cx="177.2" cy="239.4" r="3.5" fill="#e0af68" stroke="#1a1b26" stroke-width="1.5"/><circle cx="183.9" cy="239.4" r="3.5" fill="#e0af68" stroke="#1a1b26" stroke-width="1.5"/><circle cx="190.6" cy="239.4" r="3.5" fill="#e0af68" stroke="#1a1b26" stroke-width="1.5"/><circle cx="197.3" cy="239.4" r="3.5" fill="#e0af68" stroke="#1a1b26" stroke-width="1.5"/><circle cx="204.0" cy="239.4" r="3.5" fill="#e0af68" stroke="#1a1b26" stroke-width="1.5"/><circle cx="210.7" cy="239.4" r="3.5" fill="#e0af68" stroke="#1a1b26" stroke-width="1.5"/><circle cx="217.4" cy="239.4" r="3.5" fill="#e0af68" stroke="#1a1b26" stroke-width="1.5"/><circle cx="224.1" cy="239.4" r="3.5" fill="#e0af68" stroke="#1a1b26" stroke-width="1.5"/><circle cx="230.8" cy="239.4" r="3.5" fill="#e0af68" stroke="#1a1b26" stroke-width="1.5"/><circle cx="237.5" cy="239.4" r="3.5" fill="#e0af68" stroke="#1a1b26" stroke-width="1.5"/><circle cx="244.2" cy="239.4" r="3.5" fill="#e0af68" stroke="#1a1b26" stroke-width="1.5"/><circle cx="250.9" cy="239.4" r="3.5" fill="#e0af68" stroke="#1a1b26" stroke-width="1.5"/><circle cx="257.6" cy="239.4" r="3.5" fill="#e0af68" stroke="#1a1b26" stroke-width="1.5"/><circle cx="264.3" cy="239.4" r="3.5" fill="#e0af68" stroke="#1a1b26" stroke-width="1.5"/><circle cx="271.0" cy="239.4" r="3.5" fill="#e0af68" stroke="#1a1b26" stroke-width="1.5"/><circle cx="277.7" cy="239.4" r="3.5" fill="#e0af68" stroke="#1a1b26" stroke-width="1.5"/><circle cx="284.4" cy="239.4" r="3.5" fill="#e0af68" stroke="#1a1b26" stroke-width="1.5"/><circle cx="291.1" cy="239.4" r="3.5" fill="#e0af68" stroke="#1a1b26" stroke-width="1.5"/><circle cx="297.8" cy="239.4" r="3.5" fill="#e0af68" stroke="#1a1b26" stroke-width="1.5"/><circle cx="304.5" cy="239.4" r="3.5" fill="#e0af68" stroke="#1a1b26" stroke-width="1.5"/><circle cx="311.2" cy="239.4" r="3.5" fill="#e0af68" stroke="#1a1b26" stroke-width="1.5"/><circle cx="317.9" cy="239.4" r="3.5" fill="#e0af68" stroke="#1a1b26" stroke-width="1.5"/><circle cx="324.6" cy="239.4" r="3.5" fill="#e0af68" stroke="#1a1b26" stroke-width="1.5"/><circle cx="331.3" cy="239.4" r="3.5" fill="#e0af68" stroke="#1a1b26" stroke-width="1.5"/><circle cx="338.0" cy="239.4" r="3.5" fill="#e0af68" stroke="#1a1b26" stroke-width="1.5"/><circle cx="344.7" cy="239.4" r="3.5" fill="#e0af68" stroke="#1a1b26" stroke-width="1.5"/><circle cx="351.4" cy="239.4" r="3.5" fill="#e0af68" stroke="#1a1b26" stroke-width="1.5"/><circle cx="358.1" cy="239.4" r="3.5" fill="#e0af68" stroke="#1a1b26" stroke-width="1.5"/><circle cx="364.8" cy="239.4" r="3.5" fill="#e0af68" stroke="#1a1b26" stroke-width="1.5"/><circle cx="371.5" cy="239.4" r="3.5" fill="#e0af68" stroke="#1a1b26" stroke-width="1.5"/><circle cx="378.2" cy="239.4" r="3.5" fill="#e0af68" stroke="#1a1b26" stroke-width="1.5"/><circle cx="384.9" cy="239.4" r="3.5" fill="#e0af68" stroke="#1a1b26" stroke-width="1.5"/><circle cx="391.6" cy="239.4" r="3.5" fill="#e0af68" stroke="#1a1b26" stroke-width="1.5"/><circle cx="398.3" cy="239.4" r="3.5" fill="#e0af68" stroke="#1a1b26" stroke-width="1.5"/><circle cx="405.0" cy="239.4" r="3.5" fill="#e0af68" stroke="#1a1b26" stroke-width="1.5"/><circle cx="411.7" cy="239.4" r="3.5" fill="#e0af68" stroke="#1a1b26" stroke-width="1.5"/><circle cx="418.3" cy="239.4" r="3.5" fill="#e0af68" stroke="#1a1b26" stroke-width="1.5"/><circle cx="425.0" cy="239.4" r="3.5" fill="#e0af68" stroke="#1a1b26" stroke-width="1.5"/><circle cx="431.7" cy="239.4" r="3.5" fill="#e0af68" stroke="#1a1b26" stroke-width="1.5"/><circle cx="438.4" cy="239.4" r="3.5" fill="#e0af68" stroke="#1a1b26" stroke-width="1.5"/><circle cx="445.1" cy="239.4" r="3.5" fill="#e0af68" stroke="#1a1b26" stroke-width="1.5"/><circle cx="451.8" cy="239.4" r="3.5" fill="#e0af68" stroke="#1a1b26" stroke-width="1.5"/><circle cx="458.5" cy="239.4" r="3.5" fill="#e0af68" stroke="#1a1b26" stroke-width="1.5"/><circle cx="465.2" cy="239.4" r="3.5" fill="#e0af68" stroke="#1a1b26" stroke-width="1.5"/><circle cx="471.9" cy="239.4" r="3.5" fill="#e0af68" stroke="#1a1b26" stroke-width="1.5"/><circle cx="478.6" cy="239.4" r="3.5" fill="#e0af68" stroke="#1a1b26" stroke-width="1.5"/><circle cx="485.3" cy="239.4" r="3.5" fill="#e0af68" stroke="#1a1b26" stroke-width="1.5"/><circle cx="492.0" cy="239.4" r="3.5" fill="#e0af68" stroke="#1a1b26" stroke-width="1.5"/><circle cx="498.7" cy="239.4" r="3.5" fill="#e0af68" stroke="#1a1b26" stroke-width="1.5"/><circle cx="505.4" cy="239.4" r="3.5" fill="#e0af68" stroke="#1a1b26" stroke-width="1.5"/><circle cx="512.1" cy="239.4" r="3.5" fill="#e0af68" stroke="#1a1b26" stroke-width="1.5"/><circle cx="518.8" cy="239.4" r="3.5" fill="#e0af68" stroke="#1a1b26" stroke-width="1.5"/><circle cx="525.5" cy="239.4" r="3.5" fill="#e0af68" stroke="#1a1b26" stroke-width="1.5"/><circle cx="532.2" cy="239.4" r="3.5" fill="#e0af68" stroke="#1a1b26" stroke-width="1.5"/><circle cx="538.9" cy="239.4" r="3.5" fill="#e0af68" stroke="#1a1b26" stroke-width="1.5"/><circle cx="545.6" cy="239.4" r="3.5" fill="#e0af68" stroke="#1a1b26" stroke-width="1.5"/><circle cx="552.3" cy="239.4" r="3.5" fill="#e0af68" stroke="#1a1b26" stroke-width="1.5"/><circle cx="559.0" cy="239.4" r="3.5" fill="#e0af68" stroke="#1a1b26" stroke-width="1.5"/><circle cx="565.7" cy="239.4" r="3.5" fill="#e0af68" stroke="#1a1b26" stroke-width="1.5"/><circle cx="572.4" cy="239.4" r="3.5" fill="#e0af68" stroke="#1a1b26" stroke-width="1.5"/><circle cx="579.1" cy="239.4" r="3.5" fill="#e0af68" stroke="#1a1b26" stroke-width="1.5"/><circle cx="585.8" cy="239.4" r="3.5" fill="#e0af68" stroke="#1a1b26" stroke-width="1.5"/><circle cx="592.5" cy="239.4" r="3.5" fill="#e0af68" stroke="#1a1b26" stroke-width="1.5"/><circle cx="599.2" cy="239.4" r="3.5" fill="#e0af68" stroke="#1a1b26" stroke-width="1.5"/><circle cx="605.9" cy="239.4" r="3.5" fill="#e0af68" stroke="#1a1b26" stroke-width="1.5"/><circle cx="612.6" cy="239.4" r="3.5" fill="#e0af68" stroke="#1a1b26" stroke-width="1.5"/><circle cx="619.3" cy="239.4" r="3.5" fill="#e0af68" stroke="#1a1b26" stroke-width="1.5"/><circle cx="626.0" cy="239.4" r="3.5" fill="#e0af68" stroke="#1a1b26" stroke-width="1.5"/><circle cx="632.7" cy="239.4" r="3.5" fill="#e0af68" stroke="#1a1b26" stroke-width="1.5"/><circle cx="639.4" cy="239.4" r="3.5" fill="#e0af68" stroke="#1a1b26" stroke-width="1.5"/><circle cx="646.1" cy="239.4" r="3.5" fill="#e0af68" stroke="#1a1b26" stroke-width="1.5"/><circle cx="652.8" cy="239.4" r="3.5" fill="#e0af68" stroke="#1a1b26" stroke-width="1.5"/><circle cx="659.4" cy="239.4" r="3.5" fill="#e0af68" stroke="#1a1b26" stroke-width="1.5"/><circle cx="666.1" cy="239.4" r="3.5" fill="#e0af68" stroke="#1a1b26" stroke-width="1.5"/><circle cx="672.8" cy="239.4" r="3.5" fill="#e0af68" stroke="#1a1b26" stroke-width="1.5"/><circle cx="679.5" cy="239.4" r="3.5" fill="#e0af68" stroke="#1a1b26" stroke-width="1.5"/><circle cx="686.2" cy="239.4" r="3.5" fill="#e0af68" stroke="#1a1b26" stroke-width="1.5"/><circle cx="692.9" cy="239.4" r="3.5" fill="#e0af68" stroke="#1a1b26" stroke-width="1.5"/><circle cx="699.6" cy="239.4" r="3.5" fill="#e0af68" stroke="#1a1b26" stroke-width="1.5"/><circle cx="706.3" cy="239.4" r="3.5" fill="#e0af68" stroke="#1a1b26" stroke-width="1.5"/><circle cx="713.0" cy="239.4" r="3.5" fill="#e0af68" stroke="#1a1b26" stroke-width="1.5"/><circle cx="719.7" cy="239.4" r="3.5" fill="#e0af68" stroke="#1a1b26" stroke-width="1.5"/><circle cx="726.4" cy="239.4" r="3.5" fill="#e0af68" stroke="#1a1b26" stroke-width="1.5"/><circle cx="733.1" cy="239.4" r="3.5" fill="#e0af68" stroke="#1a1b26" stroke-width="1.5"/><circle cx="739.8" cy="239.4" r="3.5" fill="#e0af68" stroke="#1a1b26" stroke-width="1.5"/><circle cx="746.5" cy="239.4" r="3.5" fill="#e0af68" stroke="#1a1b26" stroke-width="1.5"/><circle cx="753.2" cy="239.4" r="3.5" fill="#e0af68" stroke="#1a1b26" stroke-width="1.5"/><circle cx="759.9" cy="239.4" r="3.5" fill="#e0af68" stroke="#1a1b26" stroke-width="1.5"/><circle cx="766.6" cy="239.4" r="3.5" fill="#e0af68" stroke="#1a1b26" stroke-width="1.5"/><circle cx="773.3" cy="239.4" r="3.5" fill="#e0af68" stroke="#1a1b26" stroke-width="1.5"/><circle cx="780.0" cy="239.4" r="3.5" fill="#e0af68" stroke="#1a1b26" stroke-width="1.5"/><circle cx="143.8" cy="239.4" r="3.5" fill="#bb9af7" stroke="#1a1b26" stroke-width="1.5"/><circle cx="150.5" cy="239.4" r="3.5" fill="#bb9af7" stroke="#1a1b26" stroke-width="1.5"/><circle cx="157.2" cy="239.4" r="3.5" fill="#bb9af7" stroke="#1a1b26" stroke-width="1.5"/><circle cx="163.9" cy="239.4" r="3.5" fill="#bb9af7" stroke="#1a1b26" stroke-width="1.5"/><circle cx="170.6" cy="239.4" r="3.5" fill="#bb9af7" stroke="#1a1b26" stroke-width="1.5"/><circle cx="177.2" cy="239.4" r="3.5" fill="#bb9af7" stroke="#1a1b26" stroke-width="1.5"/><circle cx="183.9" cy="239.4" r="3.5" fill="#bb9af7" stroke="#1a1b26" stroke-width="1.5"/><circle cx="190.6" cy="239.4" r="3.5" fill="#bb9af7" stroke="#1a1b26" stroke-width="1.5"/><circle cx="197.3" cy="239.4" r="3.5" fill="#bb9af7" stroke="#1a1b26" stroke-width="1.5"/><circle cx="204.0" cy="239.4" r="3.5" fill="#bb9af7" stroke="#1a1b26" stroke-width="1.5"/><circle cx="210.7" cy="237.0" r="3.5" fill="#bb9af7" stroke="#1a1b26" stroke-width="1.5"/><circle cx="217.4" cy="237.0" r="3.5" fill="#bb9af7" stroke="#1a1b26" stroke-width="1.5"/><circle cx="224.1" cy="237.0" r="3.5" fill="#bb9af7" stroke="#1a1b26" stroke-width="1.5"/><circle cx="230.8" cy="237.0" r="3.5" fill="#bb9af7" stroke="#1a1b26" stroke-width="1.5"/><circle cx="237.5" cy="237.0" r="3.5" fill="#bb9af7" stroke="#1a1b26" stroke-width="1.5"/><circle cx="244.2" cy="237.0" r="3.5" fill="#bb9af7" stroke="#1a1b26" stroke-width="1.5"/><circle cx="250.9" cy="237.0" r="3.5" fill="#bb9af7" stroke="#1a1b26" stroke-width="1.5"/><circle cx="257.6" cy="237.0" r="3.5" fill="#bb9af7" stroke="#1a1b26" stroke-width="1.5"/><circle cx="264.3" cy="237.0" r="3.5" fill="#bb9af7" stroke="#1a1b26" stroke-width="1.5"/><circle cx="271.0" cy="237.0" r="3.5" fill="#bb9af7" stroke="#1a1b26" stroke-width="1.5"/><circle cx="277.7" cy="237.0" r="3.5" fill="#bb9af7" stroke="#1a1b26" stroke-width="1.5"/><circle cx="284.4" cy="237.0" r="3.5" fill="#bb9af7" stroke="#1a1b26" stroke-width="1.5"/><circle cx="291.1" cy="237.0" r="3.5" fill="#bb9af7" stroke="#1a1b26" stroke-width="1.5"/><circle cx="297.8" cy="237.0" r="3.5" fill="#bb9af7" stroke="#1a1b26" stroke-width="1.5"/><circle cx="304.5" cy="237.0" r="3.5" fill="#bb9af7" stroke="#1a1b26" stroke-width="1.5"/><circle cx="311.2" cy="237.0" r="3.5" fill="#bb9af7" stroke="#1a1b26" stroke-width="1.5"/><circle cx="317.9" cy="234.6" r="3.5" fill="#bb9af7" stroke="#1a1b26" stroke-width="1.5"/><circle cx="324.6" cy="234.6" r="3.5" fill="#bb9af7" stroke="#1a1b26" stroke-width="1.5"/><circle cx="331.3" cy="234.6" r="3.5" fill="#bb9af7" stroke="#1a1b26" stroke-width="1.5"/><circle cx="338.0" cy="234.6" r="3.5" fill="#bb9af7" stroke="#1a1b26" stroke-width="1.5"/><circle cx="344.7" cy="234.6" r="3.5" fill="#bb9af7" stroke="#1a1b26" stroke-width="1.5"/><circle cx="351.4" cy="232.9" r="3.5" fill="#bb9af7" stroke="#1a1b26" stroke-width="1.5"/><circle cx="358.1" cy="232.9" r="3.5" fill="#bb9af7" stroke="#1a1b26" stroke-width="1.5"/><circle cx="364.8" cy="232.9" r="3.5" fill="#bb9af7" stroke="#1a1b26" stroke-width="1.5"/><circle cx="371.5" cy="232.9" r="3.5" fill="#bb9af7" stroke="#1a1b26" stroke-width="1.5"/><circle cx="378.2" cy="232.9" r="3.5" fill="#bb9af7" stroke="#1a1b26" stroke-width="1.5"/><circle cx="384.9" cy="232.9" r="3.5" fill="#bb9af7" stroke="#1a1b26" stroke-width="1.5"/><circle cx="391.6" cy="232.9" r="3.5" fill="#bb9af7" stroke="#1a1b26" stroke-width="1.5"/><circle cx="398.3" cy="232.9" r="3.5" fill="#bb9af7" stroke="#1a1b26" stroke-width="1.5"/><circle cx="405.0" cy="232.9" r="3.5" fill="#bb9af7" stroke="#1a1b26" stroke-width="1.5"/><circle cx="411.7" cy="232.9" r="3.5" fill="#bb9af7" stroke="#1a1b26" stroke-width="1.5"/><circle cx="418.3" cy="232.9" r="3.5" fill="#bb9af7" stroke="#1a1b26" stroke-width="1.5"/><circle cx="425.0" cy="232.9" r="3.5" fill="#bb9af7" stroke="#1a1b26" stroke-width="1.5"/><circle cx="431.7" cy="232.9" r="3.5" fill="#bb9af7" stroke="#1a1b26" stroke-width="1.5"/><circle cx="438.4" cy="232.9" r="3.5" fill="#bb9af7" stroke="#1a1b26" stroke-width="1.5"/><circle cx="445.1" cy="232.9" r="3.5" fill="#bb9af7" stroke="#1a1b26" stroke-width="1.5"/><circle cx="451.8" cy="232.9" r="3.5" fill="#bb9af7" stroke="#1a1b26" stroke-width="1.5"/><circle cx="458.5" cy="232.9" r="3.5" fill="#bb9af7" stroke="#1a1b26" stroke-width="1.5"/><circle cx="465.2" cy="232.9" r="3.5" fill="#bb9af7" stroke="#1a1b26" stroke-width="1.5"/><circle cx="471.9" cy="232.9" r="3.5" fill="#bb9af7" stroke="#1a1b26" stroke-width="1.5"/><circle cx="478.6" cy="232.9" r="3.5" fill="#bb9af7" stroke="#1a1b26" stroke-width="1.5"/><circle cx="485.3" cy="232.9" r="3.5" fill="#bb9af7" stroke="#1a1b26" stroke-width="1.5"/><circle cx="492.0" cy="232.9" r="3.5" fill="#bb9af7" stroke="#1a1b26" stroke-width="1.5"/><circle cx="498.7" cy="232.9" r="3.5" fill="#bb9af7" stroke="#1a1b26" stroke-width="1.5"/><circle cx="505.4" cy="232.9" r="3.5" fill="#bb9af7" stroke="#1a1b26" stroke-width="1.5"/><circle cx="512.1" cy="232.9" r="3.5" fill="#bb9af7" stroke="#1a1b26" stroke-width="1.5"/><circle cx="518.8" cy="232.9" r="3.5" fill="#bb9af7" stroke="#1a1b26" stroke-width="1.5"/><circle cx="525.5" cy="232.9" r="3.5" fill="#bb9af7" stroke="#1a1b26" stroke-width="1.5"/><circle cx="532.2" cy="232.9" r="3.5" fill="#bb9af7" stroke="#1a1b26" stroke-width="1.5"/><circle cx="538.9" cy="232.9" r="3.5" fill="#bb9af7" stroke="#1a1b26" stroke-width="1.5"/><circle cx="545.6" cy="232.9" r="3.5" fill="#bb9af7" stroke="#1a1b26" stroke-width="1.5"/><circle cx="552.3" cy="232.9" r="3.5" fill="#bb9af7" stroke="#1a1b26" stroke-width="1.5"/><circle cx="559.0" cy="232.9" r="3.5" fill="#bb9af7" stroke="#1a1b26" stroke-width="1.5"/><circle cx="565.7" cy="232.9" r="3.5" fill="#bb9af7" stroke="#1a1b26" stroke-width="1.5"/><circle cx="572.4" cy="232.9" r="3.5" fill="#bb9af7" stroke="#1a1b26" stroke-width="1.5"/><circle cx="579.1" cy="232.9" r="3.5" fill="#bb9af7" stroke="#1a1b26" stroke-width="1.5"/><circle cx="585.8" cy="232.9" r="3.5" fill="#bb9af7" stroke="#1a1b26" stroke-width="1.5"/><circle cx="592.5" cy="232.9" r="3.5" fill="#bb9af7" stroke="#1a1b26" stroke-width="1.5"/><circle cx="599.2" cy="232.9" r="3.5" fill="#bb9af7" stroke="#1a1b26" stroke-width="1.5"/><circle cx="605.9" cy="232.9" r="3.5" fill="#bb9af7" stroke="#1a1b26" stroke-width="1.5"/><circle cx="612.6" cy="232.9" r="3.5" fill="#bb9af7" stroke="#1a1b26" stroke-width="1.5"/><circle cx="619.3" cy="232.9" r="3.5" fill="#bb9af7" stroke="#1a1b26" stroke-width="1.5"/><circle cx="626.0" cy="232.9" r="3.5" fill="#bb9af7" stroke="#1a1b26" stroke-width="1.5"/><circle cx="632.7" cy="232.9" r="3.5" fill="#bb9af7" stroke="#1a1b26" stroke-width="1.5"/><circle cx="639.4" cy="232.9" r="3.5" fill="#bb9af7" stroke="#1a1b26" stroke-width="1.5"/><circle cx="646.1" cy="232.9" r="3.5" fill="#bb9af7" stroke="#1a1b26" stroke-width="1.5"/><circle cx="652.8" cy="232.9" r="3.5" fill="#bb9af7" stroke="#1a1b26" stroke-width="1.5"/><circle cx="659.4" cy="232.9" r="3.5" fill="#bb9af7" stroke="#1a1b26" stroke-width="1.5"/><circle cx="666.1" cy="232.9" r="3.5" fill="#bb9af7" stroke="#1a1b26" stroke-width="1.5"/><circle cx="672.8" cy="232.9" r="3.5" fill="#bb9af7" stroke="#1a1b26" stroke-width="1.5"/><circle cx="679.5" cy="231.3" r="3.5" fill="#bb9af7" stroke="#1a1b26" stroke-width="1.5"/><circle cx="686.2" cy="231.3" r="3.5" fill="#bb9af7" stroke="#1a1b26" stroke-width="1.5"/><circle cx="692.9" cy="228.9" r="3.5" fill="#bb9af7" stroke="#1a1b26" stroke-width="1.5"/><circle cx="699.6" cy="228.9" r="3.5" fill="#bb9af7" stroke="#1a1b26" stroke-width="1.5"/><circle cx="706.3" cy="227.3" r="3.5" fill="#bb9af7" stroke="#1a1b26" stroke-width="1.5"/><circle cx="713.0" cy="227.3" r="3.5" fill="#bb9af7" stroke="#1a1b26" stroke-width="1.5"/><circle cx="719.7" cy="227.3" r="3.5" fill="#bb9af7" stroke="#1a1b26" stroke-width="1.5"/><circle cx="726.4" cy="227.3" r="3.5" fill="#bb9af7" stroke="#1a1b26" stroke-width="1.5"/><circle cx="733.1" cy="227.3" r="3.5" fill="#bb9af7" stroke="#1a1b26" stroke-width="1.5"/><circle cx="739.8" cy="227.3" r="3.5" fill="#bb9af7" stroke="#1a1b26" stroke-width="1.5"/><circle cx="746.5" cy="227.3" r="3.5" fill="#bb9af7" stroke="#1a1b26" stroke-width="1.5"/><circle cx="753.2" cy="227.3" r="3.5" fill="#bb9af7" stroke="#1a1b26" stroke-width="1.5"/><circle cx="759.9" cy="227.3" r="3.5" fill="#bb9af7" stroke="#1a1b26" stroke-width="1.5"/><circle cx="766.6" cy="227.3" r="3.5" fill="#bb9af7" stroke="#1a1b26" stroke-width="1.5"/><circle cx="773.3" cy="227.3" r="3.5" fill="#bb9af7" stroke="#1a1b26" stroke-width="1.5"/><circle cx="780.0" cy="227.3" r="3.5" fill="#bb9af7" stroke="#1a1b26" stroke-width="1.5"/><circle cx="143.8" cy="249.2" r="3.5" fill="#7dcfff" stroke="#1a1b26" stroke-width="1.5"/><circle cx="150.5" cy="249.2" r="3.5" fill="#7dcfff" stroke="#1a1b26" stroke-width="1.5"/><circle cx="157.2" cy="249.2" r="3.5" fill="#7dcfff" stroke="#1a1b26" stroke-width="1.5"/><circle cx="163.9" cy="249.2" r="3.5" fill="#7dcfff" stroke="#1a1b26" stroke-width="1.5"/><circle cx="170.6" cy="249.2" r="3.5" fill="#7dcfff" stroke="#1a1b26" stroke-width="1.5"/><circle cx="177.2" cy="249.2" r="3.5" fill="#7dcfff" stroke="#1a1b26" stroke-width="1.5"/><circle cx="183.9" cy="249.2" r="3.5" fill="#7dcfff" stroke="#1a1b26" stroke-width="1.5"/><circle cx="190.6" cy="249.2" r="3.5" fill="#7dcfff" stroke="#1a1b26" stroke-width="1.5"/><circle cx="197.3" cy="249.2" r="3.5" fill="#7dcfff" stroke="#1a1b26" stroke-width="1.5"/><circle cx="204.0" cy="249.2" r="3.5" fill="#7dcfff" stroke="#1a1b26" stroke-width="1.5"/><circle cx="210.7" cy="249.2" r="3.5" fill="#7dcfff" stroke="#1a1b26" stroke-width="1.5"/><circle cx="217.4" cy="249.2" r="3.5" fill="#7dcfff" stroke="#1a1b26" stroke-width="1.5"/><circle cx="224.1" cy="249.2" r="3.5" fill="#7dcfff" stroke="#1a1b26" stroke-width="1.5"/><circle cx="230.8" cy="249.2" r="3.5" fill="#7dcfff" stroke="#1a1b26" stroke-width="1.5"/><circle cx="237.5" cy="249.2" r="3.5" fill="#7dcfff" stroke="#1a1b26" stroke-width="1.5"/><circle cx="244.2" cy="249.2" r="3.5" fill="#7dcfff" stroke="#1a1b26" stroke-width="1.5"/><circle cx="250.9" cy="249.2" r="3.5" fill="#7dcfff" stroke="#1a1b26" stroke-width="1.5"/><circle cx="257.6" cy="249.2" r="3.5" fill="#7dcfff" stroke="#1a1b26" stroke-width="1.5"/><circle cx="264.3" cy="249.2" r="3.5" fill="#7dcfff" stroke="#1a1b26" stroke-width="1.5"/><circle cx="271.0" cy="249.2" r="3.5" fill="#7dcfff" stroke="#1a1b26" stroke-width="1.5"/><circle cx="277.7" cy="249.2" r="3.5" fill="#7dcfff" stroke="#1a1b26" stroke-width="1.5"/><circle cx="284.4" cy="249.2" r="3.5" fill="#7dcfff" stroke="#1a1b26" stroke-width="1.5"/><circle cx="291.1" cy="249.2" r="3.5" fill="#7dcfff" stroke="#1a1b26" stroke-width="1.5"/><circle cx="297.8" cy="249.2" r="3.5" fill="#7dcfff" stroke="#1a1b26" stroke-width="1.5"/><circle cx="304.5" cy="249.2" r="3.5" fill="#7dcfff" stroke="#1a1b26" stroke-width="1.5"/><circle cx="311.2" cy="249.2" r="3.5" fill="#7dcfff" stroke="#1a1b26" stroke-width="1.5"/><circle cx="317.9" cy="249.2" r="3.5" fill="#7dcfff" stroke="#1a1b26" stroke-width="1.5"/><circle cx="324.6" cy="249.2" r="3.5" fill="#7dcfff" stroke="#1a1b26" stroke-width="1.5"/><circle cx="331.3" cy="249.2" r="3.5" fill="#7dcfff" stroke="#1a1b26" stroke-width="1.5"/><circle cx="338.0" cy="249.2" r="3.5" fill="#7dcfff" stroke="#1a1b26" stroke-width="1.5"/><circle cx="344.7" cy="249.2" r="3.5" fill="#7dcfff" stroke="#1a1b26" stroke-width="1.5"/><circle cx="351.4" cy="249.2" r="3.5" fill="#7dcfff" stroke="#1a1b26" stroke-width="1.5"/><circle cx="358.1" cy="249.2" r="3.5" fill="#7dcfff" stroke="#1a1b26" stroke-width="1.5"/><circle cx="364.8" cy="249.2" r="3.5" fill="#7dcfff" stroke="#1a1b26" stroke-width="1.5"/><circle cx="371.5" cy="249.2" r="3.5" fill="#7dcfff" stroke="#1a1b26" stroke-width="1.5"/><circle cx="378.2" cy="249.2" r="3.5" fill="#7dcfff" stroke="#1a1b26" stroke-width="1.5"/><circle cx="384.9" cy="249.2" r="3.5" fill="#7dcfff" stroke="#1a1b26" stroke-width="1.5"/><circle cx="391.6" cy="249.2" r="3.5" fill="#7dcfff" stroke="#1a1b26" stroke-width="1.5"/><circle cx="398.3" cy="249.2" r="3.5" fill="#7dcfff" stroke="#1a1b26" stroke-width="1.5"/><circle cx="405.0" cy="249.2" r="3.5" fill="#7dcfff" stroke="#1a1b26" stroke-width="1.5"/><circle cx="411.7" cy="249.2" r="3.5" fill="#7dcfff" stroke="#1a1b26" stroke-width="1.5"/><circle cx="418.3" cy="249.2" r="3.5" fill="#7dcfff" stroke="#1a1b26" stroke-width="1.5"/><circle cx="425.0" cy="249.2" r="3.5" fill="#7dcfff" stroke="#1a1b26" stroke-width="1.5"/><circle cx="431.7" cy="249.2" r="3.5" fill="#7dcfff" stroke="#1a1b26" stroke-width="1.5"/><circle cx="438.4" cy="249.2" r="3.5" fill="#7dcfff" stroke="#1a1b26" stroke-width="1.5"/><circle cx="445.1" cy="249.2" r="3.5" fill="#7dcfff" stroke="#1a1b26" stroke-width="1.5"/><circle cx="451.8" cy="249.2" r="3.5" fill="#7dcfff" stroke="#1a1b26" stroke-width="1.5"/><circle cx="458.5" cy="249.2" r="3.5" fill="#7dcfff" stroke="#1a1b26" stroke-width="1.5"/><circle cx="465.2" cy="249.2" r="3.5" fill="#7dcfff" stroke="#1a1b26" stroke-width="1.5"/><circle cx="471.9" cy="249.2" r="3.5" fill="#7dcfff" stroke="#1a1b26" stroke-width="1.5"/><circle cx="478.6" cy="249.2" r="3.5" fill="#7dcfff" stroke="#1a1b26" stroke-width="1.5"/><circle cx="485.3" cy="249.2" r="3.5" fill="#7dcfff" stroke="#1a1b26" stroke-width="1.5"/><circle cx="492.0" cy="249.2" r="3.5" fill="#7dcfff" stroke="#1a1b26" stroke-width="1.5"/><circle cx="498.7" cy="249.2" r="3.5" fill="#7dcfff" stroke="#1a1b26" stroke-width="1.5"/><circle cx="505.4" cy="249.2" r="3.5" fill="#7dcfff" stroke="#1a1b26" stroke-width="1.5"/><circle cx="512.1" cy="249.2" r="3.5" fill="#7dcfff" stroke="#1a1b26" stroke-width="1.5"/><circle cx="518.8" cy="249.2" r="3.5" fill="#7dcfff" stroke="#1a1b26" stroke-width="1.5"/><circle cx="525.5" cy="249.2" r="3.5" fill="#7dcfff" stroke="#1a1b26" stroke-width="1.5"/><circle cx="532.2" cy="249.2" r="3.5" fill="#7dcfff" stroke="#1a1b26" stroke-width="1.5"/><circle cx="538.9" cy="249.2" r="3.5" fill="#7dcfff" stroke="#1a1b26" stroke-width="1.5"/><circle cx="545.6" cy="249.2" r="3.5" fill="#7dcfff" stroke="#1a1b26" stroke-width="1.5"/><circle cx="552.3" cy="249.2" r="3.5" fill="#7dcfff" stroke="#1a1b26" stroke-width="1.5"/><circle cx="559.0" cy="249.2" r="3.5" fill="#7dcfff" stroke="#1a1b26" stroke-width="1.5"/><circle cx="565.7" cy="249.2" r="3.5" fill="#7dcfff" stroke="#1a1b26" stroke-width="1.5"/><circle cx="572.4" cy="249.2" r="3.5" fill="#7dcfff" stroke="#1a1b26" stroke-width="1.5"/><circle cx="579.1" cy="249.2" r="3.5" fill="#7dcfff" stroke="#1a1b26" stroke-width="1.5"/><circle cx="585.8" cy="249.2" r="3.5" fill="#7dcfff" stroke="#1a1b26" stroke-width="1.5"/><circle cx="592.5" cy="249.2" r="3.5" fill="#7dcfff" stroke="#1a1b26" stroke-width="1.5"/><circle cx="599.2" cy="249.2" r="3.5" fill="#7dcfff" stroke="#1a1b26" stroke-width="1.5"/><circle cx="605.9" cy="249.2" r="3.5" fill="#7dcfff" stroke="#1a1b26" stroke-width="1.5"/><circle cx="612.6" cy="249.2" r="3.5" fill="#7dcfff" stroke="#1a1b26" stroke-width="1.5"/><circle cx="619.3" cy="249.2" r="3.5" fill="#7dcfff" stroke="#1a1b26" stroke-width="1.5"/><circle cx="626.0" cy="249.2" r="3.5" fill="#7dcfff" stroke="#1a1b26" stroke-width="1.5"/><circle cx="632.7" cy="249.2" r="3.5" fill="#7dcfff" stroke="#1a1b26" stroke-width="1.5"/><circle cx="639.4" cy="249.2" r="3.5" fill="#7dcfff" stroke="#1a1b26" stroke-width="1.5"/><circle cx="646.1" cy="249.2" r="3.5" fill="#7dcfff" stroke="#1a1b26" stroke-width="1.5"/><circle cx="652.8" cy="249.2" r="3.5" fill="#7dcfff" stroke="#1a1b26" stroke-width="1.5"/><circle cx="659.4" cy="249.2" r="3.5" fill="#7dcfff" stroke="#1a1b26" stroke-width="1.5"/><circle cx="666.1" cy="249.2" r="3.5" fill="#7dcfff" stroke="#1a1b26" stroke-width="1.5"/><circle cx="672.8" cy="249.2" r="3.5" fill="#7dcfff" stroke="#1a1b26" stroke-width="1.5"/><circle cx="679.5" cy="249.2" r="3.5" fill="#7dcfff" stroke="#1a1b26" stroke-width="1.5"/><circle cx="686.2" cy="249.2" r="3.5" fill="#7dcfff" stroke="#1a1b26" stroke-width="1.5"/><circle cx="692.9" cy="249.2" r="3.5" fill="#7dcfff" stroke="#1a1b26" stroke-width="1.5"/><circle cx="699.6" cy="249.2" r="3.5" fill="#7dcfff" stroke="#1a1b26" stroke-width="1.5"/><circle cx="706.3" cy="249.2" r="3.5" fill="#7dcfff" stroke="#1a1b26" stroke-width="1.5"/><circle cx="713.0" cy="249.2" r="3.5" fill="#7dcfff" stroke="#1a1b26" stroke-width="1.5"/><circle cx="719.7" cy="249.2" r="3.5" fill="#7dcfff" stroke="#1a1b26" stroke-width="1.5"/><circle cx="726.4" cy="249.2" r="3.5" fill="#7dcfff" stroke="#1a1b26" stroke-width="1.5"/><circle cx="733.1" cy="249.2" r="3.5" fill="#7dcfff" stroke="#1a1b26" stroke-width="1.5"/><circle cx="739.8" cy="249.2" r="3.5" fill="#7dcfff" stroke="#1a1b26" stroke-width="1.5"/><circle cx="746.5" cy="249.2" r="3.5" fill="#7dcfff" stroke="#1a1b26" stroke-width="1.5"/><circle cx="753.2" cy="249.2" r="3.5" fill="#7dcfff" stroke="#1a1b26" stroke-width="1.5"/><circle cx="759.9" cy="249.2" r="3.5" fill="#7dcfff" stroke="#1a1b26" stroke-width="1.5"/><circle cx="766.6" cy="249.2" r="3.5" fill="#7dcfff" stroke="#1a1b26" stroke-width="1.5"/><circle cx="773.3" cy="249.2" r="3.5" fill="#7dcfff" stroke="#1a1b26" stroke-width="1.5"/><circle cx="780.0" cy="249.2" r="3.5" fill="#7dcfff" stroke="#1a1b26" stroke-width="1.5"/>
  <rect x="50" y="278" width="10" height="10" rx="2" fill="#7aa2f7"/><text x="64" y="286" fill="#565f89" font-size="11" font-family="monospace">History of God</text><rect x="290" y="278" width="10" height="10" rx="2" fill="#9ece6a"/><text x="304" y="286" fill="#565f89" font-size="11" font-family="monospace">The Prince</text><rect x="530" y="278" width="10" height="10" rx="2" fill="#e0af68"/><text x="544" y="286" fill="#565f89" font-size="11" font-family="monospace">Python for Data Science For …</text><rect x="50" y="278" width="10" height="10" rx="2" fill="#bb9af7"/><text x="64" y="286" fill="#565f89" font-size="11" font-family="monospace">Crucial Conversations: Tools…</text><rect x="290" y="278" width="10" height="10" rx="2" fill="#7dcfff"/><text x="304" y="286" fill="#565f89" font-size="11" font-family="monospace">Eloquent JavaScript</text>
</svg>