<svg xmlns="http://www.w3.org/2000/svg" width="800" height="300" viewBox="0 0 800 300">
  <rect width="800" height="300" rx="12" fill="#1a1b26"/>
  <rect x="1" y="1" width="798" height="298" rx="11" fill="none" stroke="#414868" stroke-width="1"/>
  <text x="50" y="22" fill="#c0caf5" font-size="13" font-family="monospace" font-weight="bold">📖 Reading Progress</text>
  <text x="780" y="22" fill="#565f89" font-size="10" font-family="monospace" text-anchor="end">Updated 2026-04-10</text>
  <line x1="50" y1="250.0" x2="780" y2="250.0" stroke="#414868" stroke-width="0.5" stroke-dasharray="4,4"/><text x="44" y="254.0" fill="#565f89" font-size="10" font-family="monospace" text-anchor="end">0%</text><line x1="50" y1="197.5" x2="780" y2="197.5" stroke="#414868" stroke-width="0.5" stroke-dasharray="4,4"/><text x="44" y="201.5" fill="#565f89" font-size="10" font-family="monospace" text-anchor="end">25%</text><line x1="50" y1="145.0" x2="780" y2="145.0" stroke="#414868" stroke-width="0.5" stroke-dasharray="4,4"/><text x="44" y="149.0" fill="#565f89" font-size="10" font-family="monospace" text-anchor="end">50%</text><line x1="50" y1="92.5" x2="780" y2="92.5" stroke="#414868" stroke-width="0.5" stroke-dasharray="4,4"/><text x="44" y="96.5" fill="#565f89" font-size="10" font-family="monospace" text-anchor="end">75%</text><line x1="50" y1="40.0" x2="780" y2="40.0" stroke="#414868" stroke-width="0.5" stroke-dasharray="4,4"/><text x="44" y="44.0" fill="#565f89" font-size="10" font-family="monospace" text-anchor="end">100%</text>
  <text x="50.0" y="268" fill="#565f89" font-size="10" font-family="monospace" text-anchor="middle">03-09</text><text x="154.3" y="268" fill="#565f89" font-size="10" font-family="monospace" text-anchor="middle">03-14</text><text x="258.6" y="268" fill="#565f89" font-size="10" font-family="monospace" text-anchor="middle">03-18</text><text x="362.9" y="268" fill="#565f89" font-size="10" font-family="monospace" text-anchor="middle">03-24</text><text x="467.1" y="268" fill="#565f89" font-size="10" font-family="monospace" text-anchor="middle">03-28</text><text x="571.4" y="268" fill="#565f89" font-size="10" font-family="monospace" text-anchor="middle">04-01</text><text x="675.7" y="268" fill="#565f89" font-size="10" font-family="monospace" text-anchor="middle">04-05</text><text x="780.0" y="268" fill="#565f89" font-size="10" font-family="monospace" text-anchor="middle">04-10</text>
  <path d="M 50.0,236.0 L 76.1,234.1 L 102.1,234.0 L 128.2,233.3 L 154.3,231.5 L 180.4,208.1 L 206.4,208.1 L 232.5,208.1 L 258.6,208.1 L 284.6,208.1 L 310.7,208.1 L 336.8,208.1 L 362.9,208.1 L 388.9,208.1 L 415.0,208.1 L 441.1,208.1 L 467.1,208.1 L 493.2,208.1 L 519.3,208.1 L 545.4,208.1 L 571.4,208.1 L 597.5,208.1 L 623.6,208.1 L 649.6,208.1 L 675.7,208.1 L 701.8,208.1 L 727.9,208.1 L 753.9,208.1 L 780.0,208.1" fill="none" stroke="#7aa2f7" stroke-width="2.5" stroke-linejoin="round" stroke-linecap="round" opacity="0.9"/><path d="M 206.4,239.5 L 232.5,237.4 L 258.6,239.4 L 284.6,239.4 L 310.7,239.4 L 336.8,239.4 L 362.9,239.4 L 388.9,239.4 L 415.0,239.4 L 441.1,239.4 L 467.1,239.4 L 493.2,239.4 L 519.3,239.4 L 545.4,239.4 L 571.4,239.4 L 597.5,239.4 L 623.6,239.4 L 649.6,239.4 L 675.7,239.4 L 701.8,239.4 L 727.9,239.4 L 753.9,239.4 L 780.0,239.4" fill="none" stroke="#9ece6a" stroke-width="2.5" stroke-linejoin="round" stroke-linecap="round" opacity="0.9"/><path d="M 415.0,239.4 L 441.1,239.4 L 467.1,239.4 L 493.2,239.4 L 519.3,239.4 L 545.4,239.4 L 571.4,239.4 L 597.5,239.4 L 623.6,239.4 L 649.6,239.4 L 675.7,237.0 L 701.8,237.0 L 727.9,237.0 L 753.9,237.0 L 780.0,237.0" fill="none" stroke="#e0af68" stroke-width="2.5" stroke-linejoin="round" stroke-linecap="round" opacity="0.9"/><path d="M 415.0,249.2 L 441.1,249.2 L 467.1,249.2 L 493.2,249.2 L 519.3,249.2 L 545.4,249.2 L 571.4,249.2 L 597.5,249.2 L 623.6,249.2 L 649.6,249.2 L 675.7,249.2 L 701.8,249.2 L 727.9,249.2 L 753.9,249.2 L 780.0,249.2" fill="none" stroke="#bb9af7" stroke-width="2.5" stroke-linejoin="round" stroke-linecap="round" opacity="0.9"/>
  <circle cx="50.0" cy="236.0" r="3.5" fill="#7aa2f7" stroke="#1a1b26" stroke-width="1.5"/><circle cx="76.1" cy="234.1" r="3.5" fill="#7aa2f7" stroke="#1a1b26" stroke-width="1.5"/><circle cx="102.1" cy="234.0" r="3.5" fill="#7aa2f7" stroke="#1a1b26" stroke-width="1.5"/><circle cx="128.2" cy="233.3" r="3.5" fill="#7aa2f7" stroke="#1a1b26" stroke-width="1.5"/><circle cx="154.3" cy="231.5" r="3.5" fill="#7aa2f7" stroke="#1a1b26" stroke-width="1.5"/><circle cx="180.4" cy="208.1" r="3.5" fill="#7aa2f7" stroke="#1a1b26" stroke-width="1.5"/><circle cx="206.4" cy="208.1" r="3.5" fill="#7aa2f7" stroke="#1a1b26" stroke-width="1.5"/><circle cx="232.5" cy="208.1" r="3.5" fill="#7aa2f7" stroke="#1a1b26" stroke-width="1.5"/><circle cx="258.6" cy="208.1" r="3.5" fill="#7aa2f7" stroke="#1a1b26" stroke-width="1.5"/><circle cx="284.6" cy="208.1" r="3.5" fill="#7aa2f7" stroke="#1a1b26" stroke-width="1.5"/><circle cx="310.7" cy="208.1" r="3.5" fill="#7aa2f7" stroke="#1a1b26" stroke-width="1.5"/><circle cx="336.8" cy="208.1" r="3.5" fill="#7aa2f7" stroke="#1a1b26" stroke-width="1.5"/><circle cx="362.9" cy="208.1" r="3.5" fill="#7aa2f7" stroke="#1a1b26" stroke-width="1.5"/><circle cx="388.9" cy="208.1" r="3.5" fill="#7aa2f7" stroke="#1a1b26" stroke-width="1.5"/><circle cx="415.0" cy="208.1" r="3.5" fill="#7aa2f7" stroke="#1a1b26" stroke-width="1.5"/><circle cx="441.1" cy="208.1" r="3.5" fill="#7aa2f7" stroke="#1a1b26" stroke-width="1.5"/><circle cx="467.1" cy="208.1" r="3.5" fill="#7aa2f7" stroke="#1a1b26" stroke-width="1.5"/><circle cx="493.2" cy="208.1" r="3.5" fill="#7aa2f7" stroke="#1a1b26" stroke-width="1.5"/><circle cx="519.3" cy="208.1" r="3.5" fill="#7aa2f7" stroke="#1a1b26" stroke-width="1.5"/><circle cx="545.4" cy="208.1" r="3.5" fill="#7aa2f7" stroke="#1a1b26" stroke-width="1.5"/><circle cx="571.4" cy="208.1" r="3.5" fill="#7aa2f7" stroke="#1a1b26" stroke-width="1.5"/><circle cx="597.5" cy="208.1" r="3.5" fill="#7aa2f7" stroke="#1a1b26" stroke-width="1.5"/><circle cx="623.6" cy="208.1" r="3.5" fill="#7aa2f7" stroke="#1a1b26" stroke-width="1.5"/><circle cx="649.6" cy="208.1" r="3.5" fill="#7aa2f7" stroke="#1a1b26" stroke-width="1.5"/><circle cx="675.7" cy="208.1" r="3.5" fill="#7aa2f7" stroke="#1a1b26" stroke-width="1.5"/><circle cx="701.8" cy="208.1" r="3.5" fill="#7aa2f7" stroke="#1a1b26" stroke-width="1.5"/><circle cx="727.9" cy="208.1" r="3.5" fill="#7aa2f7" stroke="#1a1b26" stroke-width="1.5"/><circle cx="753.9" cy="208.1" r="3.5" fill="#7aa2f7" stroke="#1a1b26" stroke-width="1.5"/><circle cx="780.0" cy="208.1" r="3.5" fill="#7aa2f7" stroke="#1a1b26" stroke-width="1.5"/><circle cx="206.4" cy="239.5" r="3.5" fill="#9ece6a" stroke="#1a1b26" stroke-width="1.5"/><circle cx="232.5" cy="237.4" r="3.5" fill="#9ece6a" stroke="#1a1b26" stroke-width="1.5"/><circle cx="258.6" cy="239.4" r="3.5" fill="#9ece6a" stroke="#1a1b26" stroke-width="1.5"/><circle cx="284.6" cy="239.4" r="3.5" fill="#9ece6a" stroke="#1a1b26" stroke-width="1.5"/><circle cx="310.7" cy="239.4" r="3.5" fill="#9ece6a" stroke="#1a1b26" stroke-width="1.5"/><circle cx="336.8" cy="239.4" r="3.5" fill="#9ece6a" stroke="#1a1b26" stroke-width="1.5"/><circle cx="362.9" cy="239.4" r="3.5" fill="#9ece6a" stroke="#1a1b26" stroke-width="1.5"/><circle cx="388.9" cy="239.4" r="3.5" fill="#9ece6a" stroke="#1a1b26" stroke-width="1.5"/><circle cx="415.0" cy="239.4" r="3.5" fill="#9ece6a" stroke="#1a1b26" stroke-width="1.5"/><circle cx="441.1" cy="239.4" r="3.5" fill="#9ece6a" stroke="#1a1b26" stroke-width="1.5"/><circle cx="467.1" cy="239.4" r="3.5" fill="#9ece6a" stroke="#1a1b26" stroke-width="1.5"/><circle cx="493.2" cy="239.4" r="3.5" fill="#9ece6a" stroke="#1a1b26" stroke-width="1.5"/><circle cx="519.3" cy="239.4" r="3.5" fill="#9ece6a" stroke="#1a1b26" stroke-width="1.5"/><circle cx="545.4" cy="239.4" r="3.5" fill="#9ece6a" stroke="#1a1b26" stroke-width="1.5"/><circle cx="571.4" cy="239.4" r="3.5" fill="#9ece6a" stroke="#1a1b26" stroke-width="1.5"/><circle cx="597.5" cy="239.4" r="3.5" fill="#9ece6a" stroke="#1a1b26" stroke-width="1.5"/><circle cx="623.6" cy="239.4" r="3.5" fill="#9ece6a" stroke="#1a1b26" stroke-width="1.5"/><circle cx="649.6" cy="239.4" r="3.5" fill="#9ece6a" stroke="#1a1b26" stroke-width="1.5"/><circle cx="675.7" cy="239.4" r="3.5" fill="#9ece6a" stroke="#1a1b26" stroke-width="1.5"/><circle cx="701.8" cy="239.4" r="3.5" fill="#9ece6a" stroke="#1a1b26" stroke-width="1.5"/><circle cx="727.9" cy="239.4" r="3.5" fill="#9ece6a" stroke="#1a1b26" stroke-width="1.5"/><circle cx="753.9" cy="239.4" r="3.5" fill="#9ece6a" stroke="#1a1b26" stroke-width="1.5"/><circle cx="780.0" cy="239.4" r="3.5" fill="#9ece6a" stroke="#1a1b26" stroke-width="1.5"/><circle cx="415.0" cy="239.4" r="3.5" fill="#e0af68" stroke="#1a1b26" stroke-width="1.5"/><circle cx="441.1" cy="239.4" r="3.5" fill="#e0af68" stroke="#1a1b26" stroke-width="1.5"/><circle cx="467.1" cy="239.4" r="3.5" fill="#e0af68" stroke="#1a1b26" stroke-width="1.5"/><circle cx="493.2" cy="239.4" r="3.5" fill="#e0af68" stroke="#1a1b26" stroke-width="1.5"/><circle cx="519.3" cy="239.4" r="3.5" fill="#e0af68" stroke="#1a1b26" stroke-width="1.5"/><circle cx="545.4" cy="239.4" r="3.5" fill="#e0af68" stroke="#1a1b26" stroke-width="1.5"/><circle cx="571.4" cy="239.4" r="3.5" fill="#e0af68" stroke="#1a1b26" stroke-width="1.5"/><circle cx="597.5" cy="239.4" r="3.5" fill="#e0af68" stroke="#1a1b26" stroke-width="1.5"/><circle cx="623.6" cy="239.4" r="3.5" fill="#e0af68" stroke="#1a1b26" stroke-width="1.5"/><circle cx="649.6" cy="239.4" r="3.5" fill="#e0af68" stroke="#1a1b26" stroke-width="1.5"/><circle cx="675.7" cy="237.0" r="3.5" fill="#e0af68" stroke="#1a1b26" stroke-width="1.5"/><circle cx="701.8" cy="237.0" r="3.5" fill="#e0af68" stroke="#1a1b26" stroke-width="1.5"/><circle cx="727.9" cy="237.0" r="3.5" fill="#e0af68" stroke="#1a1b26" stroke-width="1.5"/><circle cx="753.9" cy="237.0" r="3.5" fill="#e0af68" stroke="#1a1b26" stroke-width="1.5"/><circle cx="780.0" cy="237.0" r="3.5" fill="#e0af68" stroke="#1a1b26" stroke-width="1.5"/><circle cx="415.0" cy="249.2" r="3.5" fill="#bb9af7" stroke="#1a1b26" stroke-width="1.5"/><circle cx="441.1" cy="249.2" r="3.5" fill="#bb9af7" stroke="#1a1b26" stroke-width="1.5"/><circle cx="467.1" cy="249.2" r="3.5" fill="#bb9af7" stroke="#1a1b26" stroke-width="1.5"/><circle cx="493.2" cy="249.2" r="3.5" fill="#bb9af7" stroke="#1a1b26" stroke-width="1.5"/><circle cx="519.3" cy="249.2" r="3.5" fill="#bb9af7" stroke="#1a1b26" stroke-width="1.5"/><circle cx="545.4" cy="249.2" r="3.5" fill="#bb9af7" stroke="#1a1b26" stroke-width="1.5"/><circle cx="571.4" cy="249.2" r="3.5" fill="#bb9af7" stroke="#1a1b26" stroke-width="1.5"/><circle cx="597.5" cy="249.2" r="3.5" fill="#bb9af7" stroke="#1a1b26" stroke-width="1.5"/><circle cx="623.6" cy="249.2" r="3.5" fill="#bb9af7" stroke="#1a1b26" stroke-width="1.5"/><circle cx="649.6" cy="249.2" r="3.5" fill="#bb9af7" stroke="#1a1b26" stroke-width="1.5"/><circle cx="675.7" cy="249.2" r="3.5" fill="#bb9af7" stroke="#1a1b26" stroke-width="1.5"/><circle cx="701.8" cy="249.2" r="3.5" fill="#bb9af7" stroke="#1a1b26" stroke-width="1.5"/><circle cx="727.9" cy="249.2" r="3.5" fill="#bb9af7" stroke="#1a1b26" stroke-width="1.5"/><circle cx="753.9" cy="249.2" r="3.5" fill="#bb9af7" stroke="#1a1b26" stroke-width="1.5"/><circle cx="780.0" cy="249.2" r="3.5" fill="#bb9af7" stroke="#1a1b26" stroke-width="1.5"/>
  <rect x="50" y="278" width="10" height="10" rx="2" fill="#7aa2f7"/><text x="64" y="286" fill="#565f89" font-size="11" font-family="monospace">History of God</text><rect x="290" y="278" width="10" height="10" rx="2" fill="#9ece6a"/><text x="304" y="286" fill="#565f89" font-size="11" font-family="monospace">Python for Data Science For …</text><rect x="530" y="278" width="10" height="10" rx="2" fill="#e0af68"/><text x="544" y="286" fill="#565f89" font-size="11" font-family="monospace">Crucial Conversations: Tools…</text><rect x="50" y="278" width="10" height="10" rx="2" fill="#bb9af7"/><text x="64" y="286" fill="#565f89" font-size="11" font-family="monospace">Eloquent JavaScript</text>
</svg>