<svg xmlns="http://www.w3.org/2000/svg" width="800" height="300" viewBox="0 0 800 300">
  <rect width="800" height="300" rx="12" fill="#1a1b26"/>
  <rect x="1" y="1" width="798" height="298" rx="11" fill="none" stroke="#414868" stroke-width="1"/>
  <text x="50" y="22" fill="#c0caf5" font-size="13" font-family="monospace" font-weight="bold">📖 Reading Progress</text>
  <text x="780" y="22" fill="#565f89" font-size="10" font-family="monospace" text-anchor="end">Updated 2026-07-13</text>
  <line x1="50" y1="250.0" x2="780" y2="250.0" stroke="#414868" stroke-width="0.5" stroke-dasharray="4,4"/><text x="44" y="254.0" fill="#565f89" font-size="10" font-family="monospace" text-anchor="end">0%</text><line x1="50" y1="197.5" x2="780" y2="197.5" stroke="#414868" stroke-width="0.5" stroke-dasharray="4,4"/><text x="44" y="201.5" fill="#565f89" font-size="10" font-family="monospace" text-anchor="end">25%</text><line x1="50" y1="145.0" x2="780" y2="145.0" stroke="#414868" stroke-width="0.5" stroke-dasharray="4,4"/><text x="44" y="149.0" fill="#565f89" font-size="10" font-family="monospace" text-anchor="end">50%</text><line x1="50" y1="92.5" x2="780" y2="92.5" stroke="#414868" stroke-width="0.5" stroke-dasharray="4,4"/><text x="44" y="96.5" fill="#565f89" font-size="10" font-family="monospace" text-anchor="end">75%</text><line x1="50" y1="40.0" x2="780" y2="40.0" stroke="#414868" stroke-width="0.5" stroke-dasharray="4,4"/><text x="44" y="44.0" fill="#565f89" font-size="10" font-family="monospace" text-anchor="end">100%</text>
  <text x="50.0" y="268" fill="#565f89" font-size="10" font-family="monospace" text-anchor="middle">03-09</text><text x="170.5" y="268" fill="#565f89" font-size="10" font-family="monospace" text-anchor="middle">03-29</text><text x="291.0" y="268" fill="#565f89" font-size="10" font-family="monospace" text-anchor="middle">04-17</text><text x="411.5" y="268" fill="#565f89" font-size="10" font-family="monospace" text-anchor="middle">05-06</text><text x="531.9" y="268" fill="#565f89" font-size="10" font-family="monospace" text-anchor="middle">05-28</text><text x="652.4" y="268" fill="#565f89" font-size="10" font-family="monospace" text-anchor="middle">06-19</text><text x="772.9" y="268" fill="#565f89" font-size="10" font-family="monospace" text-anchor="middle">07-12</text>
  <path d="M 50.0,236.0 L 57.1,234.1 L 64.2,234.0 L 71.3,233.3 L 78.3,231.5 L 85.4,208.1 L 92.5,208.1 L 99.6,208.1 L 106.7,208.1 L 113.8,208.1 L 120.9,208.1 L 128.0,208.1 L 135.0,208.1 L 142.1,208.1 L 149.2,208.1 L 156.3,208.1 L 163.4,208.1 L 170.5,208.1 L 177.6,208.1 L 184.7,208.1 L 191.7,208.1 L 198.8,208.1 L 205.9,208.1 L 213.0,208.1 L 220.1,208.1 L 227.2,208.1 L 234.3,208.1 L 241.4,208.1 L 248.4,208.1 L 255.5,208.1 L 262.6,208.1 L 269.7,208.1 L 276.8,208.1 L 283.9,208.1 L 291.0,208.1 L 298.1,208.1 L 305.1,208.1 L 312.2,208.1 L 319.3,208.1 L 326.4,208.1 L 333.5,208.1 L 340.6,208.1 L 347.7,208.1 L 354.8,208.1 L 361.8,208.1 L 368.9,208.1 L 376.0,208.1 L 383.1,208.1 L 390.2,208.1 L 397.3,208.1 L 404.4,208.1 L 411.5,208.1 L 418.5,208.1 L 425.6,208.1 L 432.7,208.1 L 439.8,208.1 L 446.9,208.1 L 454.0,208.1 L 461.1,208.1 L 468.2,208.1 L 475.2,208.1 L 482.3,208.1 L 489.4,208.1 L 496.5,208.1 L 503.6,208.1 L 510.7,208.1 L 517.8,208.1 L 524.9,208.1 L 531.9,208.1 L 539.0,208.1 L 546.1,208.1 L 553.2,208.1 L 560.3,208.1 L 567.4,208.1 L 574.5,208.1 L 581.6,208.1 L 588.6,208.1 L 595.7,208.1 L 602.8,208.1 L 609.9,208.1 L 617.0,208.1 L 624.1,208.1 L 631.2,208.1 L 638.3,208.1 L 645.3,208.1 L 652.4,208.1 L 659.5,208.1 L 666.6,208.1 L 673.7,208.1 L 680.8,208.1 L 687.9,208.1 L 695.0,208.1 L 702.0,208.1 L 709.1,208.1 L 716.2,208.1 L 723.3,208.1 L 730.4,208.1 L 737.5,208.1 L 744.6,208.1 L 751.7,208.1 L 758.7,208.1 L 765.8,208.1 L 772.9,208.1 L 780.0,208.1" fill="none" stroke="#7aa2f7" stroke-width="2.5" stroke-linejoin="round" stroke-linecap="round" opacity="0.9"/><path d="M 730.4,244.4 L 737.5,244.4 L 744.6,244.4 L 751.7,244.4 L 758.7,244.4 L 765.8,244.4 L 772.9,244.4 L 780.0,244.4" fill="none" stroke="#9ece6a" stroke-width="2.5" stroke-linejoin="round" stroke-linecap="round" opacity="0.9"/><path d="M 92.5,239.5 L 99.6,237.4 L 106.7,239.4 L 113.8,239.4 L 120.9,239.4 L 128.0,239.4 L 135.0,239.4 L 142.1,239.4 L 149.2,239.4 L 156.3,239.4 L 163.4,239.4 L 170.5,239.4 L 177.6,239.4 L 184.7,239.4 L 191.7,239.4 L 198.8,239.4 L 205.9,239.4 L 213.0,239.4 L 220.1,239.4 L 227.2,239.4 L 234.3,239.4 L 241.4,239.4 L 248.4,239.4 L 255.5,239.4 L 262.6,239.4 L 269.7,239.4 L 276.8,239.4 L 283.9,239.4 L 291.0,239.4 L 298.1,239.4 L 305.1,239.4 L 312.2,239.4 L 319.3,239.4 L 326.4,239.4 L 333.5,239.4 L 340.6,239.4 L 347.7,239.4 L 354.8,239.4 L 361.8,239.4 L 368.9,239.4 L 376.0,239.4 L 383.1,239.4 L 390.2,239.4 L 397.3,239.4 L 404.4,239.4 L 411.5,239.4 L 418.5,239.4 L 425.6,239.4 L 432.7,239.4 L 439.8,239.4 L 446.9,239.4 L 454.0,239.4 L 461.1,239.4 L 468.2,239.4 L 475.2,239.4 L 482.3,239.4 L 489.4,239.4 L 496.5,239.4 L 503.6,239.4 L 510.7,239.4 L 517.8,239.4 L 524.9,239.4 L 531.9,239.4 L 539.0,239.4 L 546.1,239.4 L 553.2,239.4 L 560.3,239.4 L 567.4,239.4 L 574.5,239.4 L 581.6,239.4 L 588.6,239.4 L 595.7,239.4 L 602.8,239.4 L 609.9,239.4 L 617.0,239.4 L 624.1,239.4 L 631.2,239.4 L 638.3,239.4 L 645.3,239.4 L 652.4,239.4 L 659.5,239.4 L 666.6,239.4 L 673.7,239.4 L 680.8,239.4 L 687.9,239.4 L 695.0,239.4 L 702.0,239.4 L 709.1,239.4 L 716.2,239.4 L 723.3,239.4 L 730.4,239.4 L 737.5,239.4 L 744.6,239.4 L 751.7,239.4 L 758.7,239.4 L 765.8,239.4 L 772.9,239.4 L 780.0,239.4" fill="none" stroke="#e0af68" stroke-width="2.5" stroke-linejoin="round" stroke-linecap="round" opacity="0.9"/><path d="M 149.2,239.4 L 156.3,239.4 L 163.4,239.4 L 170.5,239.4 L 177.6,239.4 L 184.7,239.4 L 191.7,239.4 L 198.8,239.4 L 205.9,239.4 L 213.0,239.4 L 220.1,237.0 L 227.2,237.0 L 234.3,237.0 L 241.4,237.0 L 248.4,237.0 L 255.5,237.0 L 262.6,237.0 L 269.7,237.0 L 276.8,237.0 L 283.9,237.0 L 291.0,237.0 L 298.1,237.0 L 305.1,237.0 L 312.2,237.0 L 319.3,237.0 L 326.4,237.0 L 333.5,234.6 L 340.6,234.6 L 347.7,234.6 L 354.8,234.6 L 361.8,234.6 L 368.9,232.9 L 376.0,232.9 L 383.1,232.9 L 390.2,232.9 L 397.3,232.9 L 404.4,232.9 L 411.5,232.9 L 418.5,232.9 L 425.6,232.9 L 432.7,232.9 L 439.8,232.9 L 446.9,232.9 L 454.0,232.9 L 461.1,232.9 L 468.2,232.9 L 475.2,232.9 L 482.3,232.9 L 489.4,232.9 L 496.5,232.9 L 503.6,232.9 L 510.7,232.9 L 517.8,232.9 L 524.9,232.9 L 531.9,232.9 L 539.0,232.9 L 546.1,232.9 L 553.2,232.9 L 560.3,232.9 L 567.4,232.9 L 574.5,232.9 L 581.6,232.9 L 588.6,232.9 L 595.7,232.9 L 602.8,232.9 L 609.9,232.9 L 617.0,232.9 L 624.1,232.9 L 631.2,232.9 L 638.3,232.9 L 645.3,232.9 L 652.4,232.9 L 659.5,232.9 L 666.6,232.9 L 673.7,232.9 L 680.8,232.9 L 687.9,232.9 L 695.0,232.9 L 702.0,232.9 L 709.1,232.9 L 716.2,231.3 L 723.3,231.3 L 730.4,228.9 L 737.5,228.9 L 744.6,227.3 L 751.7,227.3 L 758.7,227.3 L 765.8,227.3 L 772.9,227.3 L 780.0,227.3" fill="none" stroke="#bb9af7" stroke-width="2.5" stroke-linejoin="round" stroke-linecap="round" opacity="0.9"/><path d="M 149.2,249.2 L 156.3,249.2 L 163.4,249.2 L 170.5,249.2 L 177.6,249.2 L 184.7,249.2 L 191.7,249.2 L 198.8,249.2 L 205.9,249.2 L 213.0,249.2 L 220.1,249.2 L 227.2,249.2 L 234.3,249.2 L 241.4,249.2 L 248.4,249.2 L 255.5,249.2 L 262.6,249.2 L 269.7,249.2 L 276.8,249.2 L 283.9,249.2 L 291.0,249.2 L 298.1,249.2 L 305.1,249.2 L 312.2,249.2 L 319.3,249.2 L 326.4,249.2 L 333.5,249.2 L 340.6,249.2 L 347.7,249.2 L 354.8,249.2 L 361.8,249.2 L 368.9,249.2 L 376.0,249.2 L 383.1,249.2 L 390.2,249.2 L 397.3,249.2 L 404.4,249.2 L 411.5,249.2 L 418.5,249.2 L 425.6,249.2 L 432.7,249.2 L 439.8,249.2 L 446.9,249.2 L 454.0,249.2 L 461.1,249.2 L 468.2,249.2 L 475.2,249.2 L 482.3,249.2 L 489.4,249.2 L 496.5,249.2 L 503.6,249.2 L 510.7,249.2 L 517.8,249.2 L 524.9,249.2 L 531.9,249.2 L 539.0,249.2 L 546.1,249.2 L 553.2,249.2 L 560.3,249.2 L 567.4,249.2 L 574.5,249.2 L 581.6,249.2 L 588.6,249.2 L 595.7,249.2 L 602.8,249.2 L 609.9,249.2 L 617.0,249.2 L 624.1,249.2 L 631.2,249.2 L 638.3,249.2 L 645.3,249.2 L 652.4,249.2 L 659.5,249.2 L 666.6,249.2 L 673.7,249.2 L 680.8,249.2 L 687.9,249.2 L 695.0,249.2 L 702.0,249.2 L 709.1,249.2 L 716.2,249.2 L 723.3,249.2 L 730.4,249.2 L 737.5,249.2 L 744.6,249.2 L 751.7,249.2 L 758.7,249.2 L 765.8,249.2 L 772.9,249.2 L 780.0,249.2" fill="none" stroke="#7dcfff" stroke-width="2.5" stroke-linejoin="round" stroke-linecap="round" opacity="0.9"/>
  <circle cx="50.0" cy="236.0" r="3.5" fill="#7aa2f7" stroke="#1a1b26" stroke-width="1.5"/><circle cx="57.1" cy="234.1" r="3.5" fill="#7aa2f7" stroke="#1a1b26" stroke-width="1.5"/><circle cx="64.2" cy="234.0" r="3.5" fill="#7aa2f7" stroke="#1a1b26" stroke-width="1.5"/><circle cx="71.3" cy="233.3" r="3.5" fill="#7aa2f7" stroke="#1a1b26" stroke-width="1.5"/><circle cx="78.3" cy="231.5" r="3.5" fill="#7aa2f7" stroke="#1a1b26" stroke-width="1.5"/><circle cx="85.4" cy="208.1" r="3.5" fill="#7aa2f7" stroke="#1a1b26" stroke-width="1.5"/><circle cx="92.5" cy="208.1" r="3.5" fill="#7aa2f7" stroke="#1a1b26" stroke-width="1.5"/><circle cx="99.6" cy="208.1" r="3.5" fill="#7aa2f7" stroke="#1a1b26" stroke-width="1.5"/><circle cx="106.7" cy="208.1" r="3.5" fill="#7aa2f7" stroke="#1a1b26" stroke-width="1.5"/><circle cx="113.8" cy="208.1" r="3.5" fill="#7aa2f7" stroke="#1a1b26" stroke-width="1.5"/><circle cx="120.9" cy="208.1" r="3.5" fill="#7aa2f7" stroke="#1a1b26" stroke-width="1.5"/><circle cx="128.0" cy="208.1" r="3.5" fill="#7aa2f7" stroke="#1a1b26" stroke-width="1.5"/><circle cx="135.0" cy="208.1" r="3.5" fill="#7aa2f7" stroke="#1a1b26" stroke-width="1.5"/><circle cx="142.1" cy="208.1" r="3.5" fill="#7aa2f7" stroke="#1a1b26" stroke-width="1.5"/><circle cx="149.2" cy="208.1" r="3.5" fill="#7aa2f7" stroke="#1a1b26" stroke-width="1.5"/><circle cx="156.3" cy="208.1" r="3.5" fill="#7aa2f7" stroke="#1a1b26" stroke-width="1.5"/><circle cx="163.4" cy="208.1" r="3.5" fill="#7aa2f7" stroke="#1a1b26" stroke-width="1.5"/><circle cx="170.5" cy="208.1" r="3.5" fill="#7aa2f7" stroke="#1a1b26" stroke-width="1.5"/><circle cx="177.6" cy="208.1" r="3.5" fill="#7aa2f7" stroke="#1a1b26" stroke-width="1.5"/><circle cx="184.7" cy="208.1" r="3.5" fill="#7aa2f7" stroke="#1a1b26" stroke-width="1.5"/><circle cx="191.7" cy="208.1" r="3.5" fill="#7aa2f7" stroke="#1a1b26" stroke-width="1.5"/><circle cx="198.8" cy="208.1" r="3.5" fill="#7aa2f7" stroke="#1a1b26" stroke-width="1.5"/><circle cx="205.9" cy="208.1" r="3.5" fill="#7aa2f7" stroke="#1a1b26" stroke-width="1.5"/><circle cx="213.0" cy="208.1" r="3.5" fill="#7aa2f7" stroke="#1a1b26" stroke-width="1.5"/><circle cx="220.1" cy="208.1" r="3.5" fill="#7aa2f7" stroke="#1a1b26" stroke-width="1.5"/><circle cx="227.2" cy="208.1" r="3.5" fill="#7aa2f7" stroke="#1a1b26" stroke-width="1.5"/><circle cx="234.3" cy="208.1" r="3.5" fill="#7aa2f7" stroke="#1a1b26" stroke-width="1.5"/><circle cx="241.4" cy="208.1" r="3.5" fill="#7aa2f7" stroke="#1a1b26" stroke-width="1.5"/><circle cx="248.4" cy="208.1" r="3.5" fill="#7aa2f7" stroke="#1a1b26" stroke-width="1.5"/><circle cx="255.5" cy="208.1" r="3.5" fill="#7aa2f7" stroke="#1a1b26" stroke-width="1.5"/><circle cx="262.6" cy="208.1" r="3.5" fill="#7aa2f7" stroke="#1a1b26" stroke-width="1.5"/><circle cx="269.7" cy="208.1" r="3.5" fill="#7aa2f7" stroke="#1a1b26" stroke-width="1.5"/><circle cx="276.8" cy="208.1" r="3.5" fill="#7aa2f7" stroke="#1a1b26" stroke-width="1.5"/><circle cx="283.9" cy="208.1" r="3.5" fill="#7aa2f7" stroke="#1a1b26" stroke-width="1.5"/><circle cx="291.0" cy="208.1" r="3.5" fill="#7aa2f7" stroke="#1a1b26" stroke-width="1.5"/><circle cx="298.1" cy="208.1" r="3.5" fill="#7aa2f7" stroke="#1a1b26" stroke-width="1.5"/><circle cx="305.1" cy="208.1" r="3.5" fill="#7aa2f7" stroke="#1a1b26" stroke-width="1.5"/><circle cx="312.2" cy="208.1" r="3.5" fill="#7aa2f7" stroke="#1a1b26" stroke-width="1.5"/><circle cx="319.3" cy="208.1" r="3.5" fill="#7aa2f7" stroke="#1a1b26" stroke-width="1.5"/><circle cx="326.4" cy="208.1" r="3.5" fill="#7aa2f7" stroke="#1a1b26" stroke-width="1.5"/><circle cx="333.5" cy="208.1" r="3.5" fill="#7aa2f7" stroke="#1a1b26" stroke-width="1.5"/><circle cx="340.6" cy="208.1" r="3.5" fill="#7aa2f7" stroke="#1a1b26" stroke-width="1.5"/><circle cx="347.7" cy="208.1" r="3.5" fill="#7aa2f7" stroke="#1a1b26" stroke-width="1.5"/><circle cx="354.8" cy="208.1" r="3.5" fill="#7aa2f7" stroke="#1a1b26" stroke-width="1.5"/><circle cx="361.8" cy="208.1" r="3.5" fill="#7aa2f7" stroke="#1a1b26" stroke-width="1.5"/><circle cx="368.9" cy="208.1" r="3.5" fill="#7aa2f7" stroke="#1a1b26" stroke-width="1.5"/><circle cx="376.0" cy="208.1" r="3.5" fill="#7aa2f7" stroke="#1a1b26" stroke-width="1.5"/><circle cx="383.1" cy="208.1" r="3.5" fill="#7aa2f7" stroke="#1a1b26" stroke-width="1.5"/><circle cx="390.2" cy="208.1" r="3.5" fill="#7aa2f7" stroke="#1a1b26" stroke-width="1.5"/><circle cx="397.3" cy="208.1" r="3.5" fill="#7aa2f7" stroke="#1a1b26" stroke-width="1.5"/><circle cx="404.4" cy="208.1" r="3.5" fill="#7aa2f7" stroke="#1a1b26" stroke-width="1.5"/><circle cx="411.5" cy="208.1" r="3.5" fill="#7aa2f7" stroke="#1a1b26" stroke-width="1.5"/><circle cx="418.5" cy="208.1" r="3.5" fill="#7aa2f7" stroke="#1a1b26" stroke-width="1.5"/><circle cx="425.6" cy="208.1" r="3.5" fill="#7aa2f7" stroke="#1a1b26" stroke-width="1.5"/><circle cx="432.7" cy="208.1" r="3.5" fill="#7aa2f7" stroke="#1a1b26" stroke-width="1.5"/><circle cx="439.8" cy="208.1" r="3.5" fill="#7aa2f7" stroke="#1a1b26" stroke-width="1.5"/><circle cx="446.9" cy="208.1" r="3.5" fill="#7aa2f7" stroke="#1a1b26" stroke-width="1.5"/><circle cx="454.0" cy="208.1" r="3.5" fill="#7aa2f7" stroke="#1a1b26" stroke-width="1.5"/><circle cx="461.1" cy="208.1" r="3.5" fill="#7aa2f7" stroke="#1a1b26" stroke-width="1.5"/><circle cx="468.2" cy="208.1" r="3.5" fill="#7aa2f7" stroke="#1a1b26" stroke-width="1.5"/><circle cx="475.2" cy="208.1" r="3.5" fill="#7aa2f7" stroke="#1a1b26" stroke-width="1.5"/><circle cx="482.3" cy="208.1" r="3.5" fill="#7aa2f7" stroke="#1a1b26" stroke-width="1.5"/><circle cx="489.4" cy="208.1" r="3.5" fill="#7aa2f7" stroke="#1a1b26" stroke-width="1.5"/><circle cx="496.5" cy="208.1" r="3.5" fill="#7aa2f7" stroke="#1a1b26" stroke-width="1.5"/><circle cx="503.6" cy="208.1" r="3.5" fill="#7aa2f7" stroke="#1a1b26" stroke-width="1.5"/><circle cx="510.7" cy="208.1" r="3.5" fill="#7aa2f7" stroke="#1a1b26" stroke-width="1.5"/><circle cx="517.8" cy="208.1" r="3.5" fill="#7aa2f7" stroke="#1a1b26" stroke-width="1.5"/><circle cx="524.9" cy="208.1" r="3.5" fill="#7aa2f7" stroke="#1a1b26" stroke-width="1.5"/><circle cx="531.9" cy="208.1" r="3.5" fill="#7aa2f7" stroke="#1a1b26" stroke-width="1.5"/><circle cx="539.0" cy="208.1" r="3.5" fill="#7aa2f7" stroke="#1a1b26" stroke-width="1.5"/><circle cx="546.1" cy="208.1" r="3.5" fill="#7aa2f7" stroke="#1a1b26" stroke-width="1.5"/><circle cx="553.2" cy="208.1" r="3.5" fill="#7aa2f7" stroke="#1a1b26" stroke-width="1.5"/><circle cx="560.3" cy="208.1" r="3.5" fill="#7aa2f7" stroke="#1a1b26" stroke-width="1.5"/><circle cx="567.4" cy="208.1" r="3.5" fill="#7aa2f7" stroke="#1a1b26" stroke-width="1.5"/><circle cx="574.5" cy="208.1" r="3.5" fill="#7aa2f7" stroke="#1a1b26" stroke-width="1.5"/><circle cx="581.6" cy="208.1" r="3.5" fill="#7aa2f7" stroke="#1a1b26" stroke-width="1.5"/><circle cx="588.6" cy="208.1" r="3.5" fill="#7aa2f7" stroke="#1a1b26" stroke-width="1.5"/><circle cx="595.7" cy="208.1" r="3.5" fill="#7aa2f7" stroke="#1a1b26" stroke-width="1.5"/><circle cx="602.8" cy="208.1" r="3.5" fill="#7aa2f7" stroke="#1a1b26" stroke-width="1.5"/><circle cx="609.9" cy="208.1" r="3.5" fill="#7aa2f7" stroke="#1a1b26" stroke-width="1.5"/><circle cx="617.0" cy="208.1" r="3.5" fill="#7aa2f7" stroke="#1a1b26" stroke-width="1.5"/><circle cx="624.1" cy="208.1" r="3.5" fill="#7aa2f7" stroke="#1a1b26" stroke-width="1.5"/><circle cx="631.2" cy="208.1" r="3.5" fill="#7aa2f7" stroke="#1a1b26" stroke-width="1.5"/><circle cx="638.3" cy="208.1" r="3.5" fill="#7aa2f7" stroke="#1a1b26" stroke-width="1.5"/><circle cx="645.3" cy="208.1" r="3.5" fill="#7aa2f7" stroke="#1a1b26" stroke-width="1.5"/><circle cx="652.4" cy="208.1" r="3.5" fill="#7aa2f7" stroke="#1a1b26" stroke-width="1.5"/><circle cx="659.5" cy="208.1" r="3.5" fill="#7aa2f7" stroke="#1a1b26" stroke-width="1.5"/><circle cx="666.6" cy="208.1" r="3.5" fill="#7aa2f7" stroke="#1a1b26" stroke-width="1.5"/><circle cx="673.7" cy="208.1" r="3.5" fill="#7aa2f7" stroke="#1a1b26" stroke-width="1.5"/><circle cx="680.8" cy="208.1" r="3.5" fill="#7aa2f7" stroke="#1a1b26" stroke-width="1.5"/><circle cx="687.9" cy="208.1" r="3.5" fill="#7aa2f7" stroke="#1a1b26" stroke-width="1.5"/><circle cx="695.0" cy="208.1" r="3.5" fill="#7aa2f7" stroke="#1a1b26" stroke-width="1.5"/><circle cx="702.0" cy="208.1" r="3.5" fill="#7aa2f7" stroke="#1a1b26" stroke-width="1.5"/><circle cx="709.1" cy="208.1" r="3.5" fill="#7aa2f7" stroke="#1a1b26" stroke-width="1.5"/><circle cx="716.2" cy="208.1" r="3.5" fill="#7aa2f7" stroke="#1a1b26" stroke-width="1.5"/><circle cx="723.3" cy="208.1" r="3.5" fill="#7aa2f7" stroke="#1a1b26" stroke-width="1.5"/><circle cx="730.4" cy="208.1" r="3.5" fill="#7aa2f7" stroke="#1a1b26" stroke-width="1.5"/><circle cx="737.5" cy="208.1" r="3.5" fill="#7aa2f7" stroke="#1a1b26" stroke-width="1.5"/><circle cx="744.6" cy="208.1" r="3.5" fill="#7aa2f7" stroke="#1a1b26" stroke-width="1.5"/><circle cx="751.7" cy="208.1" r="3.5" fill="#7aa2f7" stroke="#1a1b26" stroke-width="1.5"/><circle cx="758.7" cy="208.1" r="3.5" fill="#7aa2f7" stroke="#1a1b26" stroke-width="1.5"/><circle cx="765.8" cy="208.1" r="3.5" fill="#7aa2f7" stroke="#1a1b26" stroke-width="1.5"/><circle cx="772.9" cy="208.1" r="3.5" fill="#7aa2f7" stroke="#1a1b26" stroke-width="1.5"/><circle cx="780.0" cy="208.1" r="3.5" fill="#7aa2f7" stroke="#1a1b26" stroke-width="1.5"/><circle cx="730.4" cy="244.4" r="3.5" fill="#9ece6a" stroke="#1a1b26" stroke-width="1.5"/><circle cx="737.5" cy="244.4" r="3.5" fill="#9ece6a" stroke="#1a1b26" stroke-width="1.5"/><circle cx="744.6" cy="244.4" r="3.5" fill="#9ece6a" stroke="#1a1b26" stroke-width="1.5"/><circle cx="751.7" cy="244.4" r="3.5" fill="#9ece6a" stroke="#1a1b26" stroke-width="1.5"/><circle cx="758.7" cy="244.4" r="3.5" fill="#9ece6a" stroke="#1a1b26" stroke-width="1.5"/><circle cx="765.8" cy="244.4" r="3.5" fill="#9ece6a" stroke="#1a1b26" stroke-width="1.5"/><circle cx="772.9" cy="244.4" r="3.5" fill="#9ece6a" stroke="#1a1b26" stroke-width="1.5"/><circle cx="780.0" cy="244.4" r="3.5" fill="#9ece6a" stroke="#1a1b26" stroke-width="1.5"/><circle cx="92.5" cy="239.5" r="3.5" fill="#e0af68" stroke="#1a1b26" stroke-width="1.5"/><circle cx="99.6" cy="237.4" r="3.5" fill="#e0af68" stroke="#1a1b26" stroke-width="1.5"/><circle cx="106.7" cy="239.4" r="3.5" fill="#e0af68" stroke="#1a1b26" stroke-width="1.5"/><circle cx="113.8" cy="239.4" r="3.5" fill="#e0af68" stroke="#1a1b26" stroke-width="1.5"/><circle cx="120.9" cy="239.4" r="3.5" fill="#e0af68" stroke="#1a1b26" stroke-width="1.5"/><circle cx="128.0" cy="239.4" r="3.5" fill="#e0af68" stroke="#1a1b26" stroke-width="1.5"/><circle cx="135.0" cy="239.4" r="3.5" fill="#e0af68" stroke="#1a1b26" stroke-width="1.5"/><circle cx="142.1" cy="239.4" r="3.5" fill="#e0af68" stroke="#1a1b26" stroke-width="1.5"/><circle cx="149.2" cy="239.4" r="3.5" fill="#e0af68" stroke="#1a1b26" stroke-width="1.5"/><circle cx="156.3" cy="239.4" r="3.5" fill="#e0af68" stroke="#1a1b26" stroke-width="1.5"/><circle cx="163.4" cy="239.4" r="3.5" fill="#e0af68" stroke="#1a1b26" stroke-width="1.5"/><circle cx="170.5" cy="239.4" r="3.5" fill="#e0af68" stroke="#1a1b26" stroke-width="1.5"/><circle cx="177.6" cy="239.4" r="3.5" fill="#e0af68" stroke="#1a1b26" stroke-width="1.5"/><circle cx="184.7" cy="239.4" r="3.5" fill="#e0af68" stroke="#1a1b26" stroke-width="1.5"/><circle cx="191.7" cy="239.4" r="3.5" fill="#e0af68" stroke="#1a1b26" stroke-width="1.5"/><circle cx="198.8" cy="239.4" r="3.5" fill="#e0af68" stroke="#1a1b26" stroke-width="1.5"/><circle cx="205.9" cy="239.4" r="3.5" fill="#e0af68" stroke="#1a1b26" stroke-width="1.5"/><circle cx="213.0" cy="239.4" r="3.5" fill="#e0af68" stroke="#1a1b26" stroke-width="1.5"/><circle cx="220.1" cy="239.4" r="3.5" fill="#e0af68" stroke="#1a1b26" stroke-width="1.5"/><circle cx="227.2" cy="239.4" r="3.5" fill="#e0af68" stroke="#1a1b26" stroke-width="1.5"/><circle cx="234.3" cy="239.4" r="3.5" fill="#e0af68" stroke="#1a1b26" stroke-width="1.5"/><circle cx="241.4" cy="239.4" r="3.5" fill="#e0af68" stroke="#1a1b26" stroke-width="1.5"/><circle cx="248.4" cy="239.4" r="3.5" fill="#e0af68" stroke="#1a1b26" stroke-width="1.5"/><circle cx="255.5" cy="239.4" r="3.5" fill="#e0af68" stroke="#1a1b26" stroke-width="1.5"/><circle cx="262.6" cy="239.4" r="3.5" fill="#e0af68" stroke="#1a1b26" stroke-width="1.5"/><circle cx="269.7" cy="239.4" r="3.5" fill="#e0af68" stroke="#1a1b26" stroke-width="1.5"/><circle cx="276.8" cy="239.4" r="3.5" fill="#e0af68" stroke="#1a1b26" stroke-width="1.5"/><circle cx="283.9" cy="239.4" r="3.5" fill="#e0af68" stroke="#1a1b26" stroke-width="1.5"/><circle cx="291.0" cy="239.4" r="3.5" fill="#e0af68" stroke="#1a1b26" stroke-width="1.5"/><circle cx="298.1" cy="239.4" r="3.5" fill="#e0af68" stroke="#1a1b26" stroke-width="1.5"/><circle cx="305.1" cy="239.4" r="3.5" fill="#e0af68" stroke="#1a1b26" stroke-width="1.5"/><circle cx="312.2" cy="239.4" r="3.5" fill="#e0af68" stroke="#1a1b26" stroke-width="1.5"/><circle cx="319.3" cy="239.4" r="3.5" fill="#e0af68" stroke="#1a1b26" stroke-width="1.5"/><circle cx="326.4" cy="239.4" r="3.5" fill="#e0af68" stroke="#1a1b26" stroke-width="1.5"/><circle cx="333.5" cy="239.4" r="3.5" fill="#e0af68" stroke="#1a1b26" stroke-width="1.5"/><circle cx="340.6" cy="239.4" r="3.5" fill="#e0af68" stroke="#1a1b26" stroke-width="1.5"/><circle cx="347.7" cy="239.4" r="3.5" fill="#e0af68" stroke="#1a1b26" stroke-width="1.5"/><circle cx="354.8" cy="239.4" r="3.5" fill="#e0af68" stroke="#1a1b26" stroke-width="1.5"/><circle cx="361.8" cy="239.4" r="3.5" fill="#e0af68" stroke="#1a1b26" stroke-width="1.5"/><circle cx="368.9" cy="239.4" r="3.5" fill="#e0af68" stroke="#1a1b26" stroke-width="1.5"/><circle cx="376.0" cy="239.4" r="3.5" fill="#e0af68" stroke="#1a1b26" stroke-width="1.5"/><circle cx="383.1" cy="239.4" r="3.5" fill="#e0af68" stroke="#1a1b26" stroke-width="1.5"/><circle cx="390.2" cy="239.4" r="3.5" fill="#e0af68" stroke="#1a1b26" stroke-width="1.5"/><circle cx="397.3" cy="239.4" r="3.5" fill="#e0af68" stroke="#1a1b26" stroke-width="1.5"/><circle cx="404.4" cy="239.4" r="3.5" fill="#e0af68" stroke="#1a1b26" stroke-width="1.5"/><circle cx="411.5" cy="239.4" r="3.5" fill="#e0af68" stroke="#1a1b26" stroke-width="1.5"/><circle cx="418.5" cy="239.4" r="3.5" fill="#e0af68" stroke="#1a1b26" stroke-width="1.5"/><circle cx="425.6" cy="239.4" r="3.5" fill="#e0af68" stroke="#1a1b26" stroke-width="1.5"/><circle cx="432.7" cy="239.4" r="3.5" fill="#e0af68" stroke="#1a1b26" stroke-width="1.5"/><circle cx="439.8" cy="239.4" r="3.5" fill="#e0af68" stroke="#1a1b26" stroke-width="1.5"/><circle cx="446.9" cy="239.4" r="3.5" fill="#e0af68" stroke="#1a1b26" stroke-width="1.5"/><circle cx="454.0" cy="239.4" r="3.5" fill="#e0af68" stroke="#1a1b26" stroke-width="1.5"/><circle cx="461.1" cy="239.4" r="3.5" fill="#e0af68" stroke="#1a1b26" stroke-width="1.5"/><circle cx="468.2" cy="239.4" r="3.5" fill="#e0af68" stroke="#1a1b26" stroke-width="1.5"/><circle cx="475.2" cy="239.4" r="3.5" fill="#e0af68" stroke="#1a1b26" stroke-width="1.5"/><circle cx="482.3" cy="239.4" r="3.5" fill="#e0af68" stroke="#1a1b26" stroke-width="1.5"/><circle cx="489.4" cy="239.4" r="3.5" fill="#e0af68" stroke="#1a1b26" stroke-width="1.5"/><circle cx="496.5" cy="239.4" r="3.5" fill="#e0af68" stroke="#1a1b26" stroke-width="1.5"/><circle cx="503.6" cy="239.4" r="3.5" fill="#e0af68" stroke="#1a1b26" stroke-width="1.5"/><circle cx="510.7" cy="239.4" r="3.5" fill="#e0af68" stroke="#1a1b26" stroke-width="1.5"/><circle cx="517.8" cy="239.4" r="3.5" fill="#e0af68" stroke="#1a1b26" stroke-width="1.5"/><circle cx="524.9" cy="239.4" r="3.5" fill="#e0af68" stroke="#1a1b26" stroke-width="1.5"/><circle cx="531.9" cy="239.4" r="3.5" fill="#e0af68" stroke="#1a1b26" stroke-width="1.5"/><circle cx="539.0" cy="239.4" r="3.5" fill="#e0af68" stroke="#1a1b26" stroke-width="1.5"/><circle cx="546.1" cy="239.4" r="3.5" fill="#e0af68" stroke="#1a1b26" stroke-width="1.5"/><circle cx="553.2" cy="239.4" r="3.5" fill="#e0af68" stroke="#1a1b26" stroke-width="1.5"/><circle cx="560.3" cy="239.4" r="3.5" fill="#e0af68" stroke="#1a1b26" stroke-width="1.5"/><circle cx="567.4" cy="239.4" r="3.5" fill="#e0af68" stroke="#1a1b26" stroke-width="1.5"/><circle cx="574.5" cy="239.4" r="3.5" fill="#e0af68" stroke="#1a1b26" stroke-width="1.5"/><circle cx="581.6" cy="239.4" r="3.5" fill="#e0af68" stroke="#1a1b26" stroke-width="1.5"/><circle cx="588.6" cy="239.4" r="3.5" fill="#e0af68" stroke="#1a1b26" stroke-width="1.5"/><circle cx="595.7" cy="239.4" r="3.5" fill="#e0af68" stroke="#1a1b26" stroke-width="1.5"/><circle cx="602.8" cy="239.4" r="3.5" fill="#e0af68" stroke="#1a1b26" stroke-width="1.5"/><circle cx="609.9" cy="239.4" r="3.5" fill="#e0af68" stroke="#1a1b26" stroke-width="1.5"/><circle cx="617.0" cy="239.4" r="3.5" fill="#e0af68" stroke="#1a1b26" stroke-width="1.5"/><circle cx="624.1" cy="239.4" r="3.5" fill="#e0af68" stroke="#1a1b26" stroke-width="1.5"/><circle cx="631.2" cy="239.4" r="3.5" fill="#e0af68" stroke="#1a1b26" stroke-width="1.5"/><circle cx="638.3" cy="239.4" r="3.5" fill="#e0af68" stroke="#1a1b26" stroke-width="1.5"/><circle cx="645.3" cy="239.4" r="3.5" fill="#e0af68" stroke="#1a1b26" stroke-width="1.5"/><circle cx="652.4" cy="239.4" r="3.5" fill="#e0af68" stroke="#1a1b26" stroke-width="1.5"/><circle cx="659.5" cy="239.4" r="3.5" fill="#e0af68" stroke="#1a1b26" stroke-width="1.5"/><circle cx="666.6" cy="239.4" r="3.5" fill="#e0af68" stroke="#1a1b26" stroke-width="1.5"/><circle cx="673.7" cy="239.4" r="3.5" fill="#e0af68" stroke="#1a1b26" stroke-width="1.5"/><circle cx="680.8" cy="239.4" r="3.5" fill="#e0af68" stroke="#1a1b26" stroke-width="1.5"/><circle cx="687.9" cy="239.4" r="3.5" fill="#e0af68" stroke="#1a1b26" stroke-width="1.5"/><circle cx="695.0" cy="239.4" r="3.5" fill="#e0af68" stroke="#1a1b26" stroke-width="1.5"/><circle cx="702.0" cy="239.4" r="3.5" fill="#e0af68" stroke="#1a1b26" stroke-width="1.5"/><circle cx="709.1" cy="239.4" r="3.5" fill="#e0af68" stroke="#1a1b26" stroke-width="1.5"/><circle cx="716.2" cy="239.4" r="3.5" fill="#e0af68" stroke="#1a1b26" stroke-width="1.5"/><circle cx="723.3" cy="239.4" r="3.5" fill="#e0af68" stroke="#1a1b26" stroke-width="1.5"/><circle cx="730.4" cy="239.4" r="3.5" fill="#e0af68" stroke="#1a1b26" stroke-width="1.5"/><circle cx="737.5" cy="239.4" r="3.5" fill="#e0af68" stroke="#1a1b26" stroke-width="1.5"/><circle cx="744.6" cy="239.4" r="3.5" fill="#e0af68" stroke="#1a1b26" stroke-width="1.5"/><circle cx="751.7" cy="239.4" r="3.5" fill="#e0af68" stroke="#1a1b26" stroke-width="1.5"/><circle cx="758.7" cy="239.4" r="3.5" fill="#e0af68" stroke="#1a1b26" stroke-width="1.5"/><circle cx="765.8" cy="239.4" r="3.5" fill="#e0af68" stroke="#1a1b26" stroke-width="1.5"/><circle cx="772.9" cy="239.4" r="3.5" fill="#e0af68" stroke="#1a1b26" stroke-width="1.5"/><circle cx="780.0" cy="239.4" r="3.5" fill="#e0af68" stroke="#1a1b26" stroke-width="1.5"/><circle cx="149.2" cy="239.4" r="3.5" fill="#bb9af7" stroke="#1a1b26" stroke-width="1.5"/><circle cx="156.3" cy="239.4" r="3.5" fill="#bb9af7" stroke="#1a1b26" stroke-width="1.5"/><circle cx="163.4" cy="239.4" r="3.5" fill="#bb9af7" stroke="#1a1b26" stroke-width="1.5"/><circle cx="170.5" cy="239.4" r="3.5" fill="#bb9af7" stroke="#1a1b26" stroke-width="1.5"/><circle cx="177.6" cy="239.4" r="3.5" fill="#bb9af7" stroke="#1a1b26" stroke-width="1.5"/><circle cx="184.7" cy="239.4" r="3.5" fill="#bb9af7" stroke="#1a1b26" stroke-width="1.5"/><circle cx="191.7" cy="239.4" r="3.5" fill="#bb9af7" stroke="#1a1b26" stroke-width="1.5"/><circle cx="198.8" cy="239.4" r="3.5" fill="#bb9af7" stroke="#1a1b26" stroke-width="1.5"/><circle cx="205.9" cy="239.4" r="3.5" fill="#bb9af7" stroke="#1a1b26" stroke-width="1.5"/><circle cx="213.0" cy="239.4" r="3.5" fill="#bb9af7" stroke="#1a1b26" stroke-width="1.5"/><circle cx="220.1" cy="237.0" r="3.5" fill="#bb9af7" stroke="#1a1b26" stroke-width="1.5"/><circle cx="227.2" cy="237.0" r="3.5" fill="#bb9af7" stroke="#1a1b26" stroke-width="1.5"/><circle cx="234.3" cy="237.0" r="3.5" fill="#bb9af7" stroke="#1a1b26" stroke-width="1.5"/><circle cx="241.4" cy="237.0" r="3.5" fill="#bb9af7" stroke="#1a1b26" stroke-width="1.5"/><circle cx="248.4" cy="237.0" r="3.5" fill="#bb9af7" stroke="#1a1b26" stroke-width="1.5"/><circle cx="255.5" cy="237.0" r="3.5" fill="#bb9af7" stroke="#1a1b26" stroke-width="1.5"/><circle cx="262.6" cy="237.0" r="3.5" fill="#bb9af7" stroke="#1a1b26" stroke-width="1.5"/><circle cx="269.7" cy="237.0" r="3.5" fill="#bb9af7" stroke="#1a1b26" stroke-width="1.5"/><circle cx="276.8" cy="237.0" r="3.5" fill="#bb9af7" stroke="#1a1b26" stroke-width="1.5"/><circle cx="283.9" cy="237.0" r="3.5" fill="#bb9af7" stroke="#1a1b26" stroke-width="1.5"/><circle cx="291.0" cy="237.0" r="3.5" fill="#bb9af7" stroke="#1a1b26" stroke-width="1.5"/><circle cx="298.1" cy="237.0" r="3.5" fill="#bb9af7" stroke="#1a1b26" stroke-width="1.5"/><circle cx="305.1" cy="237.0" r="3.5" fill="#bb9af7" stroke="#1a1b26" stroke-width="1.5"/><circle cx="312.2" cy="237.0" r="3.5" fill="#bb9af7" stroke="#1a1b26" stroke-width="1.5"/><circle cx="319.3" cy="237.0" r="3.5" fill="#bb9af7" stroke="#1a1b26" stroke-width="1.5"/><circle cx="326.4" cy="237.0" r="3.5" fill="#bb9af7" stroke="#1a1b26" stroke-width="1.5"/><circle cx="333.5" cy="234.6" r="3.5" fill="#bb9af7" stroke="#1a1b26" stroke-width="1.5"/><circle cx="340.6" cy="234.6" r="3.5" fill="#bb9af7" stroke="#1a1b26" stroke-width="1.5"/><circle cx="347.7" cy="234.6" r="3.5" fill="#bb9af7" stroke="#1a1b26" stroke-width="1.5"/><circle cx="354.8" cy="234.6" r="3.5" fill="#bb9af7" stroke="#1a1b26" stroke-width="1.5"/><circle cx="361.8" cy="234.6" r="3.5" fill="#bb9af7" stroke="#1a1b26" stroke-width="1.5"/><circle cx="368.9" cy="232.9" r="3.5" fill="#bb9af7" stroke="#1a1b26" stroke-width="1.5"/><circle cx="376.0" cy="232.9" r="3.5" fill="#bb9af7" stroke="#1a1b26" stroke-width="1.5"/><circle cx="383.1" cy="232.9" r="3.5" fill="#bb9af7" stroke="#1a1b26" stroke-width="1.5"/><circle cx="390.2" cy="232.9" r="3.5" fill="#bb9af7" stroke="#1a1b26" stroke-width="1.5"/><circle cx="397.3" cy="232.9" r="3.5" fill="#bb9af7" stroke="#1a1b26" stroke-width="1.5"/><circle cx="404.4" cy="232.9" r="3.5" fill="#bb9af7" stroke="#1a1b26" stroke-width="1.5"/><circle cx="411.5" cy="232.9" r="3.5" fill="#bb9af7" stroke="#1a1b26" stroke-width="1.5"/><circle cx="418.5" cy="232.9" r="3.5" fill="#bb9af7" stroke="#1a1b26" stroke-width="1.5"/><circle cx="425.6" cy="232.9" r="3.5" fill="#bb9af7" stroke="#1a1b26" stroke-width="1.5"/><circle cx="432.7" cy="232.9" r="3.5" fill="#bb9af7" stroke="#1a1b26" stroke-width="1.5"/><circle cx="439.8" cy="232.9" r="3.5" fill="#bb9af7" stroke="#1a1b26" stroke-width="1.5"/><circle cx="446.9" cy="232.9" r="3.5" fill="#bb9af7" stroke="#1a1b26" stroke-width="1.5"/><circle cx="454.0" cy="232.9" r="3.5" fill="#bb9af7" stroke="#1a1b26" stroke-width="1.5"/><circle cx="461.1" cy="232.9" r="3.5" fill="#bb9af7" stroke="#1a1b26" stroke-width="1.5"/><circle cx="468.2" cy="232.9" r="3.5" fill="#bb9af7" stroke="#1a1b26" stroke-width="1.5"/><circle cx="475.2" cy="232.9" r="3.5" fill="#bb9af7" stroke="#1a1b26" stroke-width="1.5"/><circle cx="482.3" cy="232.9" r="3.5" fill="#bb9af7" stroke="#1a1b26" stroke-width="1.5"/><circle cx="489.4" cy="232.9" r="3.5" fill="#bb9af7" stroke="#1a1b26" stroke-width="1.5"/><circle cx="496.5" cy="232.9" r="3.5" fill="#bb9af7" stroke="#1a1b26" stroke-width="1.5"/><circle cx="503.6" cy="232.9" r="3.5" fill="#bb9af7" stroke="#1a1b26" stroke-width="1.5"/><circle cx="510.7" cy="232.9" r="3.5" fill="#bb9af7" stroke="#1a1b26" stroke-width="1.5"/><circle cx="517.8" cy="232.9" r="3.5" fill="#bb9af7" stroke="#1a1b26" stroke-width="1.5"/><circle cx="524.9" cy="232.9" r="3.5" fill="#bb9af7" stroke="#1a1b26" stroke-width="1.5"/><circle cx="531.9" cy="232.9" r="3.5" fill="#bb9af7" stroke="#1a1b26" stroke-width="1.5"/><circle cx="539.0" cy="232.9" r="3.5" fill="#bb9af7" stroke="#1a1b26" stroke-width="1.5"/><circle cx="546.1" cy="232.9" r="3.5" fill="#bb9af7" stroke="#1a1b26" stroke-width="1.5"/><circle cx="553.2" cy="232.9" r="3.5" fill="#bb9af7" stroke="#1a1b26" stroke-width="1.5"/><circle cx="560.3" cy="232.9" r="3.5" fill="#bb9af7" stroke="#1a1b26" stroke-width="1.5"/><circle cx="567.4" cy="232.9" r="3.5" fill="#bb9af7" stroke="#1a1b26" stroke-width="1.5"/><circle cx="574.5" cy="232.9" r="3.5" fill="#bb9af7" stroke="#1a1b26" stroke-width="1.5"/><circle cx="581.6" cy="232.9" r="3.5" fill="#bb9af7" stroke="#1a1b26" stroke-width="1.5"/><circle cx="588.6" cy="232.9" r="3.5" fill="#bb9af7" stroke="#1a1b26" stroke-width="1.5"/><circle cx="595.7" cy="232.9" r="3.5" fill="#bb9af7" stroke="#1a1b26" stroke-width="1.5"/><circle cx="602.8" cy="232.9" r="3.5" fill="#bb9af7" stroke="#1a1b26" stroke-width="1.5"/><circle cx="609.9" cy="232.9" r="3.5" fill="#bb9af7" stroke="#1a1b26" stroke-width="1.5"/><circle cx="617.0" cy="232.9" r="3.5" fill="#bb9af7" stroke="#1a1b26" stroke-width="1.5"/><circle cx="624.1" cy="232.9" r="3.5" fill="#bb9af7" stroke="#1a1b26" stroke-width="1.5"/><circle cx="631.2" cy="232.9" r="3.5" fill="#bb9af7" stroke="#1a1b26" stroke-width="1.5"/><circle cx="638.3" cy="232.9" r="3.5" fill="#bb9af7" stroke="#1a1b26" stroke-width="1.5"/><circle cx="645.3" cy="232.9" r="3.5" fill="#bb9af7" stroke="#1a1b26" stroke-width="1.5"/><circle cx="652.4" cy="232.9" r="3.5" fill="#bb9af7" stroke="#1a1b26" stroke-width="1.5"/><circle cx="659.5" cy="232.9" r="3.5" fill="#bb9af7" stroke="#1a1b26" stroke-width="1.5"/><circle cx="666.6" cy="232.9" r="3.5" fill="#bb9af7" stroke="#1a1b26" stroke-width="1.5"/><circle cx="673.7" cy="232.9" r="3.5" fill="#bb9af7" stroke="#1a1b26" stroke-width="1.5"/><circle cx="680.8" cy="232.9" r="3.5" fill="#bb9af7" stroke="#1a1b26" stroke-width="1.5"/><circle cx="687.9" cy="232.9" r="3.5" fill="#bb9af7" stroke="#1a1b26" stroke-width="1.5"/><circle cx="695.0" cy="232.9" r="3.5" fill="#bb9af7" stroke="#1a1b26" stroke-width="1.5"/><circle cx="702.0" cy="232.9" r="3.5" fill="#bb9af7" stroke="#1a1b26" stroke-width="1.5"/><circle cx="709.1" cy="232.9" r="3.5" fill="#bb9af7" stroke="#1a1b26" stroke-width="1.5"/><circle cx="716.2" cy="231.3" r="3.5" fill="#bb9af7" stroke="#1a1b26" stroke-width="1.5"/><circle cx="723.3" cy="231.3" r="3.5" fill="#bb9af7" stroke="#1a1b26" stroke-width="1.5"/><circle cx="730.4" cy="228.9" r="3.5" fill="#bb9af7" stroke="#1a1b26" stroke-width="1.5"/><circle cx="737.5" cy="228.9" r="3.5" fill="#bb9af7" stroke="#1a1b26" stroke-width="1.5"/><circle cx="744.6" cy="227.3" r="3.5" fill="#bb9af7" stroke="#1a1b26" stroke-width="1.5"/><circle cx="751.7" cy="227.3" r="3.5" fill="#bb9af7" stroke="#1a1b26" stroke-width="1.5"/><circle cx="758.7" cy="227.3" r="3.5" fill="#bb9af7" stroke="#1a1b26" stroke-width="1.5"/><circle cx="765.8" cy="227.3" r="3.5" fill="#bb9af7" stroke="#1a1b26" stroke-width="1.5"/><circle cx="772.9" cy="227.3" r="3.5" fill="#bb9af7" stroke="#1a1b26" stroke-width="1.5"/><circle cx="780.0" cy="227.3" r="3.5" fill="#bb9af7" stroke="#1a1b26" stroke-width="1.5"/><circle cx="149.2" cy="249.2" r="3.5" fill="#7dcfff" stroke="#1a1b26" stroke-width="1.5"/><circle cx="156.3" cy="249.2" r="3.5" fill="#7dcfff" stroke="#1a1b26" stroke-width="1.5"/><circle cx="163.4" cy="249.2" r="3.5" fill="#7dcfff" stroke="#1a1b26" stroke-width="1.5"/><circle cx="170.5" cy="249.2" r="3.5" fill="#7dcfff" stroke="#1a1b26" stroke-width="1.5"/><circle cx="177.6" cy="249.2" r="3.5" fill="#7dcfff" stroke="#1a1b26" stroke-width="1.5"/><circle cx="184.7" cy="249.2" r="3.5" fill="#7dcfff" stroke="#1a1b26" stroke-width="1.5"/><circle cx="191.7" cy="249.2" r="3.5" fill="#7dcfff" stroke="#1a1b26" stroke-width="1.5"/><circle cx="198.8" cy="249.2" r="3.5" fill="#7dcfff" stroke="#1a1b26" stroke-width="1.5"/><circle cx="205.9" cy="249.2" r="3.5" fill="#7dcfff" stroke="#1a1b26" stroke-width="1.5"/><circle cx="213.0" cy="249.2" r="3.5" fill="#7dcfff" stroke="#1a1b26" stroke-width="1.5"/><circle cx="220.1" cy="249.2" r="3.5" fill="#7dcfff" stroke="#1a1b26" stroke-width="1.5"/><circle cx="227.2" cy="249.2" r="3.5" fill="#7dcfff" stroke="#1a1b26" stroke-width="1.5"/><circle cx="234.3" cy="249.2" r="3.5" fill="#7dcfff" stroke="#1a1b26" stroke-width="1.5"/><circle cx="241.4" cy="249.2" r="3.5" fill="#7dcfff" stroke="#1a1b26" stroke-width="1.5"/><circle cx="248.4" cy="249.2" r="3.5" fill="#7dcfff" stroke="#1a1b26" stroke-width="1.5"/><circle cx="255.5" cy="249.2" r="3.5" fill="#7dcfff" stroke="#1a1b26" stroke-width="1.5"/><circle cx="262.6" cy="249.2" r="3.5" fill="#7dcfff" stroke="#1a1b26" stroke-width="1.5"/><circle cx="269.7" cy="249.2" r="3.5" fill="#7dcfff" stroke="#1a1b26" stroke-width="1.5"/><circle cx="276.8" cy="249.2" r="3.5" fill="#7dcfff" stroke="#1a1b26" stroke-width="1.5"/><circle cx="283.9" cy="249.2" r="3.5" fill="#7dcfff" stroke="#1a1b26" stroke-width="1.5"/><circle cx="291.0" cy="249.2" r="3.5" fill="#7dcfff" stroke="#1a1b26" stroke-width="1.5"/><circle cx="298.1" cy="249.2" r="3.5" fill="#7dcfff" stroke="#1a1b26" stroke-width="1.5"/><circle cx="305.1" cy="249.2" r="3.5" fill="#7dcfff" stroke="#1a1b26" stroke-width="1.5"/><circle cx="312.2" cy="249.2" r="3.5" fill="#7dcfff" stroke="#1a1b26" stroke-width="1.5"/><circle cx="319.3" cy="249.2" r="3.5" fill="#7dcfff" stroke="#1a1b26" stroke-width="1.5"/><circle cx="326.4" cy="249.2" r="3.5" fill="#7dcfff" stroke="#1a1b26" stroke-width="1.5"/><circle cx="333.5" cy="249.2" r="3.5" fill="#7dcfff" stroke="#1a1b26" stroke-width="1.5"/><circle cx="340.6" cy="249.2" r="3.5" fill="#7dcfff" stroke="#1a1b26" stroke-width="1.5"/><circle cx="347.7" cy="249.2" r="3.5" fill="#7dcfff" stroke="#1a1b26" stroke-width="1.5"/><circle cx="354.8" cy="249.2" r="3.5" fill="#7dcfff" stroke="#1a1b26" stroke-width="1.5"/><circle cx="361.8" cy="249.2" r="3.5" fill="#7dcfff" stroke="#1a1b26" stroke-width="1.5"/><circle cx="368.9" cy="249.2" r="3.5" fill="#7dcfff" stroke="#1a1b26" stroke-width="1.5"/><circle cx="376.0" cy="249.2" r="3.5" fill="#7dcfff" stroke="#1a1b26" stroke-width="1.5"/><circle cx="383.1" cy="249.2" r="3.5" fill="#7dcfff" stroke="#1a1b26" stroke-width="1.5"/><circle cx="390.2" cy="249.2" r="3.5" fill="#7dcfff" stroke="#1a1b26" stroke-width="1.5"/><circle cx="397.3" cy="249.2" r="3.5" fill="#7dcfff" stroke="#1a1b26" stroke-width="1.5"/><circle cx="404.4" cy="249.2" r="3.5" fill="#7dcfff" stroke="#1a1b26" stroke-width="1.5"/><circle cx="411.5" cy="249.2" r="3.5" fill="#7dcfff" stroke="#1a1b26" stroke-width="1.5"/><circle cx="418.5" cy="249.2" r="3.5" fill="#7dcfff" stroke="#1a1b26" stroke-width="1.5"/><circle cx="425.6" cy="249.2" r="3.5" fill="#7dcfff" stroke="#1a1b26" stroke-width="1.5"/><circle cx="432.7" cy="249.2" r="3.5" fill="#7dcfff" stroke="#1a1b26" stroke-width="1.5"/><circle cx="439.8" cy="249.2" r="3.5" fill="#7dcfff" stroke="#1a1b26" stroke-width="1.5"/><circle cx="446.9" cy="249.2" r="3.5" fill="#7dcfff" stroke="#1a1b26" stroke-width="1.5"/><circle cx="454.0" cy="249.2" r="3.5" fill="#7dcfff" stroke="#1a1b26" stroke-width="1.5"/><circle cx="461.1" cy="249.2" r="3.5" fill="#7dcfff" stroke="#1a1b26" stroke-width="1.5"/><circle cx="468.2" cy="249.2" r="3.5" fill="#7dcfff" stroke="#1a1b26" stroke-width="1.5"/><circle cx="475.2" cy="249.2" r="3.5" fill="#7dcfff" stroke="#1a1b26" stroke-width="1.5"/><circle cx="482.3" cy="249.2" r="3.5" fill="#7dcfff" stroke="#1a1b26" stroke-width="1.5"/><circle cx="489.4" cy="249.2" r="3.5" fill="#7dcfff" stroke="#1a1b26" stroke-width="1.5"/><circle cx="496.5" cy="249.2" r="3.5" fill="#7dcfff" stroke="#1a1b26" stroke-width="1.5"/><circle cx="503.6" cy="249.2" r="3.5" fill="#7dcfff" stroke="#1a1b26" stroke-width="1.5"/><circle cx="510.7" cy="249.2" r="3.5" fill="#7dcfff" stroke="#1a1b26" stroke-width="1.5"/><circle cx="517.8" cy="249.2" r="3.5" fill="#7dcfff" stroke="#1a1b26" stroke-width="1.5"/><circle cx="524.9" cy="249.2" r="3.5" fill="#7dcfff" stroke="#1a1b26" stroke-width="1.5"/><circle cx="531.9" cy="249.2" r="3.5" fill="#7dcfff" stroke="#1a1b26" stroke-width="1.5"/><circle cx="539.0" cy="249.2" r="3.5" fill="#7dcfff" stroke="#1a1b26" stroke-width="1.5"/><circle cx="546.1" cy="249.2" r="3.5" fill="#7dcfff" stroke="#1a1b26" stroke-width="1.5"/><circle cx="553.2" cy="249.2" r="3.5" fill="#7dcfff" stroke="#1a1b26" stroke-width="1.5"/><circle cx="560.3" cy="249.2" r="3.5" fill="#7dcfff" stroke="#1a1b26" stroke-width="1.5"/><circle cx="567.4" cy="249.2" r="3.5" fill="#7dcfff" stroke="#1a1b26" stroke-width="1.5"/><circle cx="574.5" cy="249.2" r="3.5" fill="#7dcfff" stroke="#1a1b26" stroke-width="1.5"/><circle cx="581.6" cy="249.2" r="3.5" fill="#7dcfff" stroke="#1a1b26" stroke-width="1.5"/><circle cx="588.6" cy="249.2" r="3.5" fill="#7dcfff" stroke="#1a1b26" stroke-width="1.5"/><circle cx="595.7" cy="249.2" r="3.5" fill="#7dcfff" stroke="#1a1b26" stroke-width="1.5"/><circle cx="602.8" cy="249.2" r="3.5" fill="#7dcfff" stroke="#1a1b26" stroke-width="1.5"/><circle cx="609.9" cy="249.2" r="3.5" fill="#7dcfff" stroke="#1a1b26" stroke-width="1.5"/><circle cx="617.0" cy="249.2" r="3.5" fill="#7dcfff" stroke="#1a1b26" stroke-width="1.5"/><circle cx="624.1" cy="249.2" r="3.5" fill="#7dcfff" stroke="#1a1b26" stroke-width="1.5"/><circle cx="631.2" cy="249.2" r="3.5" fill="#7dcfff" stroke="#1a1b26" stroke-width="1.5"/><circle cx="638.3" cy="249.2" r="3.5" fill="#7dcfff" stroke="#1a1b26" stroke-width="1.5"/><circle cx="645.3" cy="249.2" r="3.5" fill="#7dcfff" stroke="#1a1b26" stroke-width="1.5"/><circle cx="652.4" cy="249.2" r="3.5" fill="#7dcfff" stroke="#1a1b26" stroke-width="1.5"/><circle cx="659.5" cy="249.2" r="3.5" fill="#7dcfff" stroke="#1a1b26" stroke-width="1.5"/><circle cx="666.6" cy="249.2" r="3.5" fill="#7dcfff" stroke="#1a1b26" stroke-width="1.5"/><circle cx="673.7" cy="249.2" r="3.5" fill="#7dcfff" stroke="#1a1b26" stroke-width="1.5"/><circle cx="680.8" cy="249.2" r="3.5" fill="#7dcfff" stroke="#1a1b26" stroke-width="1.5"/><circle cx="687.9" cy="249.2" r="3.5" fill="#7dcfff" stroke="#1a1b26" stroke-width="1.5"/><circle cx="695.0" cy="249.2" r="3.5" fill="#7dcfff" stroke="#1a1b26" stroke-width="1.5"/><circle cx="702.0" cy="249.2" r="3.5" fill="#7dcfff" stroke="#1a1b26" stroke-width="1.5"/><circle cx="709.1" cy="249.2" r="3.5" fill="#7dcfff" stroke="#1a1b26" stroke-width="1.5"/><circle cx="716.2" cy="249.2" r="3.5" fill="#7dcfff" stroke="#1a1b26" stroke-width="1.5"/><circle cx="723.3" cy="249.2" r="3.5" fill="#7dcfff" stroke="#1a1b26" stroke-width="1.5"/><circle cx="730.4" cy="249.2" r="3.5" fill="#7dcfff" stroke="#1a1b26" stroke-width="1.5"/><circle cx="737.5" cy="249.2" r="3.5" fill="#7dcfff" stroke="#1a1b26" stroke-width="1.5"/><circle cx="744.6" cy="249.2" r="3.5" fill="#7dcfff" stroke="#1a1b26" stroke-width="1.5"/><circle cx="751.7" cy="249.2" r="3.5" fill="#7dcfff" stroke="#1a1b26" stroke-width="1.5"/><circle cx="758.7" cy="249.2" r="3.5" fill="#7dcfff" stroke="#1a1b26" stroke-width="1.5"/><circle cx="765.8" cy="249.2" r="3.5" fill="#7dcfff" stroke="#1a1b26" stroke-width="1.5"/><circle cx="772.9" cy="249.2" r="3.5" fill="#7dcfff" stroke="#1a1b26" stroke-width="1.5"/><circle cx="780.0" cy="249.2" r="3.5" fill="#7dcfff" stroke="#1a1b26" stroke-width="1.5"/>
  <rect x="50" y="278" width="10" height="10" rx="2" fill="#7aa2f7"/><text x="64" y="286" fill="#565f89" font-size="11" font-family="monospace">History of God</text><rect x="290" y="278" width="10" height="10" rx="2" fill="#9ece6a"/><text x="304" y="286" fill="#565f89" font-size="11" font-family="monospace">The Prince</text><rect x="530" y="278" width="10" height="10" rx="2" fill="#e0af68"/><text x="544" y="286" fill="#565f89" font-size="11" font-family="monospace">Python for Data Science For …</text><rect x="50" y="278" width="10" height="10" rx="2" fill="#bb9af7"/><text x="64" y="286" fill="#565f89" font-size="11" font-family="monospace">Crucial Conversations: Tools…</text><rect x="290" y="278" width="10" height="10" rx="2" fill="#7dcfff"/><text x="304" y="286" fill="#565f89" font-size="11" font-family="monospace">Eloquent JavaScript</text>
</svg>