<svg xmlns="http://www.w3.org/2000/svg" width="800" height="300" viewBox="0 0 800 300">
  <rect width="800" height="300" rx="12" fill="#1a1b26"/>
  <rect x="1" y="1" width="798" height="298" rx="11" fill="none" stroke="#414868" stroke-width="1"/>
  <text x="50" y="22" fill="#c0caf5" font-size="13" font-family="monospace" font-weight="bold">📖 Reading Progress</text>
  <text x="780" y="22" fill="#565f89" font-size="10" font-family="monospace" text-anchor="end">Updated 2026-05-23</text>
  <line x1="50" y1="250.0" x2="780" y2="250.0" stroke="#414868" stroke-width="0.5" stroke-dasharray="4,4"/><text x="44" y="254.0" fill="#565f89" font-size="10" font-family="monospace" text-anchor="end">0%</text><line x1="50" y1="197.5" x2="780" y2="197.5" stroke="#414868" stroke-width="0.5" stroke-dasharray="4,4"/><text x="44" y="201.5" fill="#565f89" font-size="10" font-family="monospace" text-anchor="end">25%</text><line x1="50" y1="145.0" x2="780" y2="145.0" stroke="#414868" stroke-width="0.5" stroke-dasharray="4,4"/><text x="44" y="149.0" fill="#565f89" font-size="10" font-family="monospace" text-anchor="end">50%</text><line x1="50" y1="92.5" x2="780" y2="92.5" stroke="#414868" stroke-width="0.5" stroke-dasharray="4,4"/><text x="44" y="96.5" fill="#565f89" font-size="10" font-family="monospace" text-anchor="end">75%</text><line x1="50" y1="40.0" x2="780" y2="40.0" stroke="#414868" stroke-width="0.5" stroke-dasharray="4,4"/><text x="44" y="44.0" fill="#565f89" font-size="10" font-family="monospace" text-anchor="end">100%</text>
  <text x="50.0" y="268" fill="#565f89" font-size="10" font-family="monospace" text-anchor="middle">03-09</text><text x="171.7" y="268" fill="#565f89" font-size="10" font-family="monospace" text-anchor="middle">03-21</text><text x="293.3" y="268" fill="#565f89" font-size="10" font-family="monospace" text-anchor="middle">04-03</text><text x="415.0" y="268" fill="#565f89" font-size="10" font-family="monospace" text-anchor="middle">04-16</text><text x="536.7" y="268" fill="#565f89" font-size="10" font-family="monospace" text-anchor="middle">04-28</text><text x="658.3" y="268" fill="#565f89" font-size="10" font-family="monospace" text-anchor="middle">05-11</text><text x="780.0" y="268" fill="#565f89" font-size="10" font-family="monospace" text-anchor="middle">05-23</text>
  <path d="M 50.0,236.0 L 61.1,234.1 L 72.1,234.0 L 83.2,233.3 L 94.2,231.5 L 105.3,208.1 L 116.4,208.1 L 127.4,208.1 L 138.5,208.1 L 149.5,208.1 L 160.6,208.1 L 171.7,208.1 L 182.7,208.1 L 193.8,208.1 L 204.8,208.1 L 215.9,208.1 L 227.0,208.1 L 238.0,208.1 L 249.1,208.1 L 260.2,208.1 L 271.2,208.1 L 282.3,208.1 L 293.3,208.1 L 304.4,208.1 L 315.5,208.1 L 326.5,208.1 L 337.6,208.1 L 348.6,208.1 L 359.7,208.1 L 370.8,208.1 L 381.8,208.1 L 392.9,208.1 L 403.9,208.1 L 415.0,208.1 L 426.1,208.1 L 437.1,208.1 L 448.2,208.1 L 459.2,208.1 L 470.3,208.1 L 481.4,208.1 L 492.4,208.1 L 503.5,208.1 L 514.5,208.1 L 525.6,208.1 L 536.7,208.1 L 547.7,208.1 L 558.8,208.1 L 569.8,208.1 L 580.9,208.1 L 592.0,208.1 L 603.0,208.1 L 614.1,208.1 L 625.2,208.1 L 636.2,208.1 L 647.3,208.1 L 658.3,208.1 L 669.4,208.1 L 680.5,208.1 L 691.5,208.1 L 702.6,208.1 L 713.6,208.1 L 724.7,208.1 L 735.8,208.1 L 746.8,208.1 L 757.9,208.1 L 768.9,208.1 L 780.0,208.1" fill="none" stroke="#7aa2f7" stroke-width="2.5" stroke-linejoin="round" stroke-linecap="round" opacity="0.9"/><path d="M 116.4,239.5 L 127.4,237.4 L 138.5,239.4 L 149.5,239.4 L 160.6,239.4 L 171.7,239.4 L 182.7,239.4 L 193.8,239.4 L 204.8,239.4 L 215.9,239.4 L 227.0,239.4 L 238.0,239.4 L 249.1,239.4 L 260.2,239.4 L 271.2,239.4 L 282.3,239.4 L 293.3,239.4 L 304.4,239.4 L 315.5,239.4 L 326.5,239.4 L 337.6,239.4 L 348.6,239.4 L 359.7,239.4 L 370.8,239.4 L 381.8,239.4 L 392.9,239.4 L 403.9,239.4 L 415.0,239.4 L 426.1,239.4 L 437.1,239.4 L 448.2,239.4 L 459.2,239.4 L 470.3,239.4 L 481.4,239.4 L 492.4,239.4 L 503.5,239.4 L 514.5,239.4 L 525.6,239.4 L 536.7,239.4 L 547.7,239.4 L 558.8,239.4 L 569.8,239.4 L 580.9,239.4 L 592.0,239.4 L 603.0,239.4 L 614.1,239.4 L 625.2,239.4 L 636.2,239.4 L 647.3,239.4 L 658.3,239.4 L 669.4,239.4 L 680.5,239.4 L 691.5,239.4 L 702.6,239.4 L 713.6,239.4 L 724.7,239.4 L 735.8,239.4 L 746.8,239.4 L 757.9,239.4 L 768.9,239.4 L 780.0,239.4" fill="none" stroke="#9ece6a" stroke-width="2.5" stroke-linejoin="round" stroke-linecap="round" opacity="0.9"/><path d="M 204.8,239.4 L 215.9,239.4 L 227.0,239.4 L 238.0,239.4 L 249.1,239.4 L 260.2,239.4 L 271.2,239.4 L 282.3,239.4 L 293.3,239.4 L 304.4,239.4 L 315.5,237.0 L 326.5,237.0 L 337.6,237.0 L 348.6,237.0 L 359.7,237.0 L 370.8,237.0 L 381.8,237.0 L 392.9,237.0 L 403.9,237.0 L 415.0,237.0 L 426.1,237.0 L 437.1,237.0 L 448.2,237.0 L 459.2,237.0 L 470.3,237.0 L 481.4,237.0 L 492.4,234.6 L 503.5,234.6 L 514.5,234.6 L 525.6,234.6 L 536.7,234.6 L 547.7,232.9 L 558.8,232.9 L 569.8,232.9 L 580.9,232.9 L 592.0,232.9 L 603.0,232.9 L 614.1,232.9 L 625.2,232.9 L 636.2,232.9 L 647.3,232.9 L 658.3,232.9 L 669.4,232.9 L 680.5,232.9 L 691.5,232.9 L 702.6,232.9 L 713.6,232.9 L 724.7,232.9 L 735.8,232.9 L 746.8,232.9 L 757.9,232.9 L 768.9,232.9 L 780.0,232.9" fill="none" stroke="#e0af68" stroke-width="2.5" stroke-linejoin="round" stroke-linecap="round" opacity="0.9"/><path d="M 204.8,249.2 L 215.9,249.2 L 227.0,249.2 L 238.0,249.2 L 249.1,249.2 L 260.2,249.2 L 271.2,249.2 L 282.3,249.2 L 293.3,249.2 L 304.4,249.2 L 315.5,249.2 L 326.5,249.2 L 337.6,249.2 L 348.6,249.2 L 359.7,249.2 L 370.8,249.2 L 381.8,249.2 L 392.9,249.2 L 403.9,249.2 L 415.0,249.2 L 426.1,249.2 L 437.1,249.2 L 448.2,249.2 L 459.2,249.2 L 470.3,249.2 L 481.4,249.2 L 492.4,249.2 L 503.5,249.2 L 514.5,249.2 L 525.6,249.2 L 536.7,249.2 L 547.7,249.2 L 558.8,249.2 L 569.8,249.2 L 580.9,249.2 L 592.0,249.2 L 603.0,249.2 L 614.1,249.2 L 625.2,249.2 L 636.2,249.2 L 647.3,249.2 L 658.3,249.2 L 669.4,249.2 L 680.5,249.2 L 691.5,249.2 L 702.6,249.2 L 713.6,249.2 L 724.7,249.2 L 735.8,249.2 L 746.8,249.2 L 757.9,249.2 L 768.9,249.2 L 780.0,249.2" fill="none" stroke="#bb9af7" stroke-width="2.5" stroke-linejoin="round" stroke-linecap="round" opacity="0.9"/>
  <circle cx="50.0" cy="236.0" r="3.5" fill="#7aa2f7" stroke="#1a1b26" stroke-width="1.5"/><circle cx="61.1" cy="234.1" r="3.5" fill="#7aa2f7" stroke="#1a1b26" stroke-width="1.5"/><circle cx="72.1" cy="234.0" r="3.5" fill="#7aa2f7" stroke="#1a1b26" stroke-width="1.5"/><circle cx="83.2" cy="233.3" r="3.5" fill="#7aa2f7" stroke="#1a1b26" stroke-width="1.5"/><circle cx="94.2" cy="231.5" r="3.5" fill="#7aa2f7" stroke="#1a1b26" stroke-width="1.5"/><circle cx="105.3" cy="208.1" r="3.5" fill="#7aa2f7" stroke="#1a1b26" stroke-width="1.5"/><circle cx="116.4" cy="208.1" r="3.5" fill="#7aa2f7" stroke="#1a1b26" stroke-width="1.5"/><circle cx="127.4" cy="208.1" r="3.5" fill="#7aa2f7" stroke="#1a1b26" stroke-width="1.5"/><circle cx="138.5" cy="208.1" r="3.5" fill="#7aa2f7" stroke="#1a1b26" stroke-width="1.5"/><circle cx="149.5" cy="208.1" r="3.5" fill="#7aa2f7" stroke="#1a1b26" stroke-width="1.5"/><circle cx="160.6" cy="208.1" r="3.5" fill="#7aa2f7" stroke="#1a1b26" stroke-width="1.5"/><circle cx="171.7" cy="208.1" r="3.5" fill="#7aa2f7" stroke="#1a1b26" stroke-width="1.5"/><circle cx="182.7" cy="208.1" r="3.5" fill="#7aa2f7" stroke="#1a1b26" stroke-width="1.5"/><circle cx="193.8" cy="208.1" r="3.5" fill="#7aa2f7" stroke="#1a1b26" stroke-width="1.5"/><circle cx="204.8" cy="208.1" r="3.5" fill="#7aa2f7" stroke="#1a1b26" stroke-width="1.5"/><circle cx="215.9" cy="208.1" r="3.5" fill="#7aa2f7" stroke="#1a1b26" stroke-width="1.5"/><circle cx="227.0" cy="208.1" r="3.5" fill="#7aa2f7" stroke="#1a1b26" stroke-width="1.5"/><circle cx="238.0" cy="208.1" r="3.5" fill="#7aa2f7" stroke="#1a1b26" stroke-width="1.5"/><circle cx="249.1" cy="208.1" r="3.5" fill="#7aa2f7" stroke="#1a1b26" stroke-width="1.5"/><circle cx="260.2" cy="208.1" r="3.5" fill="#7aa2f7" stroke="#1a1b26" stroke-width="1.5"/><circle cx="271.2" cy="208.1" r="3.5" fill="#7aa2f7" stroke="#1a1b26" stroke-width="1.5"/><circle cx="282.3" cy="208.1" r="3.5" fill="#7aa2f7" stroke="#1a1b26" stroke-width="1.5"/><circle cx="293.3" cy="208.1" r="3.5" fill="#7aa2f7" stroke="#1a1b26" stroke-width="1.5"/><circle cx="304.4" cy="208.1" r="3.5" fill="#7aa2f7" stroke="#1a1b26" stroke-width="1.5"/><circle cx="315.5" cy="208.1" r="3.5" fill="#7aa2f7" stroke="#1a1b26" stroke-width="1.5"/><circle cx="326.5" cy="208.1" r="3.5" fill="#7aa2f7" stroke="#1a1b26" stroke-width="1.5"/><circle cx="337.6" cy="208.1" r="3.5" fill="#7aa2f7" stroke="#1a1b26" stroke-width="1.5"/><circle cx="348.6" cy="208.1" r="3.5" fill="#7aa2f7" stroke="#1a1b26" stroke-width="1.5"/><circle cx="359.7" cy="208.1" r="3.5" fill="#7aa2f7" stroke="#1a1b26" stroke-width="1.5"/><circle cx="370.8" cy="208.1" r="3.5" fill="#7aa2f7" stroke="#1a1b26" stroke-width="1.5"/><circle cx="381.8" cy="208.1" r="3.5" fill="#7aa2f7" stroke="#1a1b26" stroke-width="1.5"/><circle cx="392.9" cy="208.1" r="3.5" fill="#7aa2f7" stroke="#1a1b26" stroke-width="1.5"/><circle cx="403.9" cy="208.1" r="3.5" fill="#7aa2f7" stroke="#1a1b26" stroke-width="1.5"/><circle cx="415.0" cy="208.1" r="3.5" fill="#7aa2f7" stroke="#1a1b26" stroke-width="1.5"/><circle cx="426.1" cy="208.1" r="3.5" fill="#7aa2f7" stroke="#1a1b26" stroke-width="1.5"/><circle cx="437.1" cy="208.1" r="3.5" fill="#7aa2f7" stroke="#1a1b26" stroke-width="1.5"/><circle cx="448.2" cy="208.1" r="3.5" fill="#7aa2f7" stroke="#1a1b26" stroke-width="1.5"/><circle cx="459.2" cy="208.1" r="3.5" fill="#7aa2f7" stroke="#1a1b26" stroke-width="1.5"/><circle cx="470.3" cy="208.1" r="3.5" fill="#7aa2f7" stroke="#1a1b26" stroke-width="1.5"/><circle cx="481.4" cy="208.1" r="3.5" fill="#7aa2f7" stroke="#1a1b26" stroke-width="1.5"/><circle cx="492.4" cy="208.1" r="3.5" fill="#7aa2f7" stroke="#1a1b26" stroke-width="1.5"/><circle cx="503.5" cy="208.1" r="3.5" fill="#7aa2f7" stroke="#1a1b26" stroke-width="1.5"/><circle cx="514.5" cy="208.1" r="3.5" fill="#7aa2f7" stroke="#1a1b26" stroke-width="1.5"/><circle cx="525.6" cy="208.1" r="3.5" fill="#7aa2f7" stroke="#1a1b26" stroke-width="1.5"/><circle cx="536.7" cy="208.1" r="3.5" fill="#7aa2f7" stroke="#1a1b26" stroke-width="1.5"/><circle cx="547.7" cy="208.1" r="3.5" fill="#7aa2f7" stroke="#1a1b26" stroke-width="1.5"/><circle cx="558.8" cy="208.1" r="3.5" fill="#7aa2f7" stroke="#1a1b26" stroke-width="1.5"/><circle cx="569.8" cy="208.1" r="3.5" fill="#7aa2f7" stroke="#1a1b26" stroke-width="1.5"/><circle cx="580.9" cy="208.1" r="3.5" fill="#7aa2f7" stroke="#1a1b26" stroke-width="1.5"/><circle cx="592.0" cy="208.1" r="3.5" fill="#7aa2f7" stroke="#1a1b26" stroke-width="1.5"/><circle cx="603.0" cy="208.1" r="3.5" fill="#7aa2f7" stroke="#1a1b26" stroke-width="1.5"/><circle cx="614.1" cy="208.1" r="3.5" fill="#7aa2f7" stroke="#1a1b26" stroke-width="1.5"/><circle cx="625.2" cy="208.1" r="3.5" fill="#7aa2f7" stroke="#1a1b26" stroke-width="1.5"/><circle cx="636.2" cy="208.1" r="3.5" fill="#7aa2f7" stroke="#1a1b26" stroke-width="1.5"/><circle cx="647.3" cy="208.1" r="3.5" fill="#7aa2f7" stroke="#1a1b26" stroke-width="1.5"/><circle cx="658.3" cy="208.1" r="3.5" fill="#7aa2f7" stroke="#1a1b26" stroke-width="1.5"/><circle cx="669.4" cy="208.1" r="3.5" fill="#7aa2f7" stroke="#1a1b26" stroke-width="1.5"/><circle cx="680.5" cy="208.1" r="3.5" fill="#7aa2f7" stroke="#1a1b26" stroke-width="1.5"/><circle cx="691.5" cy="208.1" r="3.5" fill="#7aa2f7" stroke="#1a1b26" stroke-width="1.5"/><circle cx="702.6" cy="208.1" r="3.5" fill="#7aa2f7" stroke="#1a1b26" stroke-width="1.5"/><circle cx="713.6" cy="208.1" r="3.5" fill="#7aa2f7" stroke="#1a1b26" stroke-width="1.5"/><circle cx="724.7" cy="208.1" r="3.5" fill="#7aa2f7" stroke="#1a1b26" stroke-width="1.5"/><circle cx="735.8" cy="208.1" r="3.5" fill="#7aa2f7" stroke="#1a1b26" stroke-width="1.5"/><circle cx="746.8" cy="208.1" r="3.5" fill="#7aa2f7" stroke="#1a1b26" stroke-width="1.5"/><circle cx="757.9" cy="208.1" r="3.5" fill="#7aa2f7" stroke="#1a1b26" stroke-width="1.5"/><circle cx="768.9" cy="208.1" r="3.5" fill="#7aa2f7" stroke="#1a1b26" stroke-width="1.5"/><circle cx="780.0" cy="208.1" r="3.5" fill="#7aa2f7" stroke="#1a1b26" stroke-width="1.5"/><circle cx="116.4" cy="239.5" r="3.5" fill="#9ece6a" stroke="#1a1b26" stroke-width="1.5"/><circle cx="127.4" cy="237.4" r="3.5" fill="#9ece6a" stroke="#1a1b26" stroke-width="1.5"/><circle cx="138.5" cy="239.4" r="3.5" fill="#9ece6a" stroke="#1a1b26" stroke-width="1.5"/><circle cx="149.5" cy="239.4" r="3.5" fill="#9ece6a" stroke="#1a1b26" stroke-width="1.5"/><circle cx="160.6" cy="239.4" r="3.5" fill="#9ece6a" stroke="#1a1b26" stroke-width="1.5"/><circle cx="171.7" cy="239.4" r="3.5" fill="#9ece6a" stroke="#1a1b26" stroke-width="1.5"/><circle cx="182.7" cy="239.4" r="3.5" fill="#9ece6a" stroke="#1a1b26" stroke-width="1.5"/><circle cx="193.8" cy="239.4" r="3.5" fill="#9ece6a" stroke="#1a1b26" stroke-width="1.5"/><circle cx="204.8" cy="239.4" r="3.5" fill="#9ece6a" stroke="#1a1b26" stroke-width="1.5"/><circle cx="215.9" cy="239.4" r="3.5" fill="#9ece6a" stroke="#1a1b26" stroke-width="1.5"/><circle cx="227.0" cy="239.4" r="3.5" fill="#9ece6a" stroke="#1a1b26" stroke-width="1.5"/><circle cx="238.0" cy="239.4" r="3.5" fill="#9ece6a" stroke="#1a1b26" stroke-width="1.5"/><circle cx="249.1" cy="239.4" r="3.5" fill="#9ece6a" stroke="#1a1b26" stroke-width="1.5"/><circle cx="260.2" cy="239.4" r="3.5" fill="#9ece6a" stroke="#1a1b26" stroke-width="1.5"/><circle cx="271.2" cy="239.4" r="3.5" fill="#9ece6a" stroke="#1a1b26" stroke-width="1.5"/><circle cx="282.3" cy="239.4" r="3.5" fill="#9ece6a" stroke="#1a1b26" stroke-width="1.5"/><circle cx="293.3" cy="239.4" r="3.5" fill="#9ece6a" stroke="#1a1b26" stroke-width="1.5"/><circle cx="304.4" cy="239.4" r="3.5" fill="#9ece6a" stroke="#1a1b26" stroke-width="1.5"/><circle cx="315.5" cy="239.4" r="3.5" fill="#9ece6a" stroke="#1a1b26" stroke-width="1.5"/><circle cx="326.5" cy="239.4" r="3.5" fill="#9ece6a" stroke="#1a1b26" stroke-width="1.5"/><circle cx="337.6" cy="239.4" r="3.5" fill="#9ece6a" stroke="#1a1b26" stroke-width="1.5"/><circle cx="348.6" cy="239.4" r="3.5" fill="#9ece6a" stroke="#1a1b26" stroke-width="1.5"/><circle cx="359.7" cy="239.4" r="3.5" fill="#9ece6a" stroke="#1a1b26" stroke-width="1.5"/><circle cx="370.8" cy="239.4" r="3.5" fill="#9ece6a" stroke="#1a1b26" stroke-width="1.5"/><circle cx="381.8" cy="239.4" r="3.5" fill="#9ece6a" stroke="#1a1b26" stroke-width="1.5"/><circle cx="392.9" cy="239.4" r="3.5" fill="#9ece6a" stroke="#1a1b26" stroke-width="1.5"/><circle cx="403.9" cy="239.4" r="3.5" fill="#9ece6a" stroke="#1a1b26" stroke-width="1.5"/><circle cx="415.0" cy="239.4" r="3.5" fill="#9ece6a" stroke="#1a1b26" stroke-width="1.5"/><circle cx="426.1" cy="239.4" r="3.5" fill="#9ece6a" stroke="#1a1b26" stroke-width="1.5"/><circle cx="437.1" cy="239.4" r="3.5" fill="#9ece6a" stroke="#1a1b26" stroke-width="1.5"/><circle cx="448.2" cy="239.4" r="3.5" fill="#9ece6a" stroke="#1a1b26" stroke-width="1.5"/><circle cx="459.2" cy="239.4" r="3.5" fill="#9ece6a" stroke="#1a1b26" stroke-width="1.5"/><circle cx="470.3" cy="239.4" r="3.5" fill="#9ece6a" stroke="#1a1b26" stroke-width="1.5"/><circle cx="481.4" cy="239.4" r="3.5" fill="#9ece6a" stroke="#1a1b26" stroke-width="1.5"/><circle cx="492.4" cy="239.4" r="3.5" fill="#9ece6a" stroke="#1a1b26" stroke-width="1.5"/><circle cx="503.5" cy="239.4" r="3.5" fill="#9ece6a" stroke="#1a1b26" stroke-width="1.5"/><circle cx="514.5" cy="239.4" r="3.5" fill="#9ece6a" stroke="#1a1b26" stroke-width="1.5"/><circle cx="525.6" cy="239.4" r="3.5" fill="#9ece6a" stroke="#1a1b26" stroke-width="1.5"/><circle cx="536.7" cy="239.4" r="3.5" fill="#9ece6a" stroke="#1a1b26" stroke-width="1.5"/><circle cx="547.7" cy="239.4" r="3.5" fill="#9ece6a" stroke="#1a1b26" stroke-width="1.5"/><circle cx="558.8" cy="239.4" r="3.5" fill="#9ece6a" stroke="#1a1b26" stroke-width="1.5"/><circle cx="569.8" cy="239.4" r="3.5" fill="#9ece6a" stroke="#1a1b26" stroke-width="1.5"/><circle cx="580.9" cy="239.4" r="3.5" fill="#9ece6a" stroke="#1a1b26" stroke-width="1.5"/><circle cx="592.0" cy="239.4" r="3.5" fill="#9ece6a" stroke="#1a1b26" stroke-width="1.5"/><circle cx="603.0" cy="239.4" r="3.5" fill="#9ece6a" stroke="#1a1b26" stroke-width="1.5"/><circle cx="614.1" cy="239.4" r="3.5" fill="#9ece6a" stroke="#1a1b26" stroke-width="1.5"/><circle cx="625.2" cy="239.4" r="3.5" fill="#9ece6a" stroke="#1a1b26" stroke-width="1.5"/><circle cx="636.2" cy="239.4" r="3.5" fill="#9ece6a" stroke="#1a1b26" stroke-width="1.5"/><circle cx="647.3" cy="239.4" r="3.5" fill="#9ece6a" stroke="#1a1b26" stroke-width="1.5"/><circle cx="658.3" cy="239.4" r="3.5" fill="#9ece6a" stroke="#1a1b26" stroke-width="1.5"/><circle cx="669.4" cy="239.4" r="3.5" fill="#9ece6a" stroke="#1a1b26" stroke-width="1.5"/><circle cx="680.5" cy="239.4" r="3.5" fill="#9ece6a" stroke="#1a1b26" stroke-width="1.5"/><circle cx="691.5" cy="239.4" r="3.5" fill="#9ece6a" stroke="#1a1b26" stroke-width="1.5"/><circle cx="702.6" cy="239.4" r="3.5" fill="#9ece6a" stroke="#1a1b26" stroke-width="1.5"/><circle cx="713.6" cy="239.4" r="3.5" fill="#9ece6a" stroke="#1a1b26" stroke-width="1.5"/><circle cx="724.7" cy="239.4" r="3.5" fill="#9ece6a" stroke="#1a1b26" stroke-width="1.5"/><circle cx="735.8" cy="239.4" r="3.5" fill="#9ece6a" stroke="#1a1b26" stroke-width="1.5"/><circle cx="746.8" cy="239.4" r="3.5" fill="#9ece6a" stroke="#1a1b26" stroke-width="1.5"/><circle cx="757.9" cy="239.4" r="3.5" fill="#9ece6a" stroke="#1a1b26" stroke-width="1.5"/><circle cx="768.9" cy="239.4" r="3.5" fill="#9ece6a" stroke="#1a1b26" stroke-width="1.5"/><circle cx="780.0" cy="239.4" r="3.5" fill="#9ece6a" stroke="#1a1b26" stroke-width="1.5"/><circle cx="204.8" cy="239.4" r="3.5" fill="#e0af68" stroke="#1a1b26" stroke-width="1.5"/><circle cx="215.9" cy="239.4" r="3.5" fill="#e0af68" stroke="#1a1b26" stroke-width="1.5"/><circle cx="227.0" cy="239.4" r="3.5" fill="#e0af68" stroke="#1a1b26" stroke-width="1.5"/><circle cx="238.0" cy="239.4" r="3.5" fill="#e0af68" stroke="#1a1b26" stroke-width="1.5"/><circle cx="249.1" cy="239.4" r="3.5" fill="#e0af68" stroke="#1a1b26" stroke-width="1.5"/><circle cx="260.2" cy="239.4" r="3.5" fill="#e0af68" stroke="#1a1b26" stroke-width="1.5"/><circle cx="271.2" cy="239.4" r="3.5" fill="#e0af68" stroke="#1a1b26" stroke-width="1.5"/><circle cx="282.3" cy="239.4" r="3.5" fill="#e0af68" stroke="#1a1b26" stroke-width="1.5"/><circle cx="293.3" cy="239.4" r="3.5" fill="#e0af68" stroke="#1a1b26" stroke-width="1.5"/><circle cx="304.4" cy="239.4" r="3.5" fill="#e0af68" stroke="#1a1b26" stroke-width="1.5"/><circle cx="315.5" cy="237.0" r="3.5" fill="#e0af68" stroke="#1a1b26" stroke-width="1.5"/><circle cx="326.5" cy="237.0" r="3.5" fill="#e0af68" stroke="#1a1b26" stroke-width="1.5"/><circle cx="337.6" cy="237.0" r="3.5" fill="#e0af68" stroke="#1a1b26" stroke-width="1.5"/><circle cx="348.6" cy="237.0" r="3.5" fill="#e0af68" stroke="#1a1b26" stroke-width="1.5"/><circle cx="359.7" cy="237.0" r="3.5" fill="#e0af68" stroke="#1a1b26" stroke-width="1.5"/><circle cx="370.8" cy="237.0" r="3.5" fill="#e0af68" stroke="#1a1b26" stroke-width="1.5"/><circle cx="381.8" cy="237.0" r="3.5" fill="#e0af68" stroke="#1a1b26" stroke-width="1.5"/><circle cx="392.9" cy="237.0" r="3.5" fill="#e0af68" stroke="#1a1b26" stroke-width="1.5"/><circle cx="403.9" cy="237.0" r="3.5" fill="#e0af68" stroke="#1a1b26" stroke-width="1.5"/><circle cx="415.0" cy="237.0" r="3.5" fill="#e0af68" stroke="#1a1b26" stroke-width="1.5"/><circle cx="426.1" cy="237.0" r="3.5" fill="#e0af68" stroke="#1a1b26" stroke-width="1.5"/><circle cx="437.1" cy="237.0" r="3.5" fill="#e0af68" stroke="#1a1b26" stroke-width="1.5"/><circle cx="448.2" cy="237.0" r="3.5" fill="#e0af68" stroke="#1a1b26" stroke-width="1.5"/><circle cx="459.2" cy="237.0" r="3.5" fill="#e0af68" stroke="#1a1b26" stroke-width="1.5"/><circle cx="470.3" cy="237.0" r="3.5" fill="#e0af68" stroke="#1a1b26" stroke-width="1.5"/><circle cx="481.4" cy="237.0" r="3.5" fill="#e0af68" stroke="#1a1b26" stroke-width="1.5"/><circle cx="492.4" cy="234.6" r="3.5" fill="#e0af68" stroke="#1a1b26" stroke-width="1.5"/><circle cx="503.5" cy="234.6" r="3.5" fill="#e0af68" stroke="#1a1b26" stroke-width="1.5"/><circle cx="514.5" cy="234.6" r="3.5" fill="#e0af68" stroke="#1a1b26" stroke-width="1.5"/><circle cx="525.6" cy="234.6" r="3.5" fill="#e0af68" stroke="#1a1b26" stroke-width="1.5"/><circle cx="536.7" cy="234.6" r="3.5" fill="#e0af68" stroke="#1a1b26" stroke-width="1.5"/><circle cx="547.7" cy="232.9" r="3.5" fill="#e0af68" stroke="#1a1b26" stroke-width="1.5"/><circle cx="558.8" cy="232.9" r="3.5" fill="#e0af68" stroke="#1a1b26" stroke-width="1.5"/><circle cx="569.8" cy="232.9" r="3.5" fill="#e0af68" stroke="#1a1b26" stroke-width="1.5"/><circle cx="580.9" cy="232.9" r="3.5" fill="#e0af68" stroke="#1a1b26" stroke-width="1.5"/><circle cx="592.0" cy="232.9" r="3.5" fill="#e0af68" stroke="#1a1b26" stroke-width="1.5"/><circle cx="603.0" cy="232.9" r="3.5" fill="#e0af68" stroke="#1a1b26" stroke-width="1.5"/><circle cx="614.1" cy="232.9" r="3.5" fill="#e0af68" stroke="#1a1b26" stroke-width="1.5"/><circle cx="625.2" cy="232.9" r="3.5" fill="#e0af68" stroke="#1a1b26" stroke-width="1.5"/><circle cx="636.2" cy="232.9" r="3.5" fill="#e0af68" stroke="#1a1b26" stroke-width="1.5"/><circle cx="647.3" cy="232.9" r="3.5" fill="#e0af68" stroke="#1a1b26" stroke-width="1.5"/><circle cx="658.3" cy="232.9" r="3.5" fill="#e0af68" stroke="#1a1b26" stroke-width="1.5"/><circle cx="669.4" cy="232.9" r="3.5" fill="#e0af68" stroke="#1a1b26" stroke-width="1.5"/><circle cx="680.5" cy="232.9" r="3.5" fill="#e0af68" stroke="#1a1b26" stroke-width="1.5"/><circle cx="691.5" cy="232.9" r="3.5" fill="#e0af68" stroke="#1a1b26" stroke-width="1.5"/><circle cx="702.6" cy="232.9" r="3.5" fill="#e0af68" stroke="#1a1b26" stroke-width="1.5"/><circle cx="713.6" cy="232.9" r="3.5" fill="#e0af68" stroke="#1a1b26" stroke-width="1.5"/><circle cx="724.7" cy="232.9" r="3.5" fill="#e0af68" stroke="#1a1b26" stroke-width="1.5"/><circle cx="735.8" cy="232.9" r="3.5" fill="#e0af68" stroke="#1a1b26" stroke-width="1.5"/><circle cx="746.8" cy="232.9" r="3.5" fill="#e0af68" stroke="#1a1b26" stroke-width="1.5"/><circle cx="757.9" cy="232.9" r="3.5" fill="#e0af68" stroke="#1a1b26" stroke-width="1.5"/><circle cx="768.9" cy="232.9" r="3.5" fill="#e0af68" stroke="#1a1b26" stroke-width="1.5"/><circle cx="780.0" cy="232.9" r="3.5" fill="#e0af68" stroke="#1a1b26" stroke-width="1.5"/><circle cx="204.8" cy="249.2" r="3.5" fill="#bb9af7" stroke="#1a1b26" stroke-width="1.5"/><circle cx="215.9" cy="249.2" r="3.5" fill="#bb9af7" stroke="#1a1b26" stroke-width="1.5"/><circle cx="227.0" cy="249.2" r="3.5" fill="#bb9af7" stroke="#1a1b26" stroke-width="1.5"/><circle cx="238.0" cy="249.2" r="3.5" fill="#bb9af7" stroke="#1a1b26" stroke-width="1.5"/><circle cx="249.1" cy="249.2" r="3.5" fill="#bb9af7" stroke="#1a1b26" stroke-width="1.5"/><circle cx="260.2" cy="249.2" r="3.5" fill="#bb9af7" stroke="#1a1b26" stroke-width="1.5"/><circle cx="271.2" cy="249.2" r="3.5" fill="#bb9af7" stroke="#1a1b26" stroke-width="1.5"/><circle cx="282.3" cy="249.2" r="3.5" fill="#bb9af7" stroke="#1a1b26" stroke-width="1.5"/><circle cx="293.3" cy="249.2" r="3.5" fill="#bb9af7" stroke="#1a1b26" stroke-width="1.5"/><circle cx="304.4" cy="249.2" r="3.5" fill="#bb9af7" stroke="#1a1b26" stroke-width="1.5"/><circle cx="315.5" cy="249.2" r="3.5" fill="#bb9af7" stroke="#1a1b26" stroke-width="1.5"/><circle cx="326.5" cy="249.2" r="3.5" fill="#bb9af7" stroke="#1a1b26" stroke-width="1.5"/><circle cx="337.6" cy="249.2" r="3.5" fill="#bb9af7" stroke="#1a1b26" stroke-width="1.5"/><circle cx="348.6" cy="249.2" r="3.5" fill="#bb9af7" stroke="#1a1b26" stroke-width="1.5"/><circle cx="359.7" cy="249.2" r="3.5" fill="#bb9af7" stroke="#1a1b26" stroke-width="1.5"/><circle cx="370.8" cy="249.2" r="3.5" fill="#bb9af7" stroke="#1a1b26" stroke-width="1.5"/><circle cx="381.8" cy="249.2" r="3.5" fill="#bb9af7" stroke="#1a1b26" stroke-width="1.5"/><circle cx="392.9" cy="249.2" r="3.5" fill="#bb9af7" stroke="#1a1b26" stroke-width="1.5"/><circle cx="403.9" cy="249.2" r="3.5" fill="#bb9af7" stroke="#1a1b26" stroke-width="1.5"/><circle cx="415.0" cy="249.2" r="3.5" fill="#bb9af7" stroke="#1a1b26" stroke-width="1.5"/><circle cx="426.1" cy="249.2" r="3.5" fill="#bb9af7" stroke="#1a1b26" stroke-width="1.5"/><circle cx="437.1" cy="249.2" r="3.5" fill="#bb9af7" stroke="#1a1b26" stroke-width="1.5"/><circle cx="448.2" cy="249.2" r="3.5" fill="#bb9af7" stroke="#1a1b26" stroke-width="1.5"/><circle cx="459.2" cy="249.2" r="3.5" fill="#bb9af7" stroke="#1a1b26" stroke-width="1.5"/><circle cx="470.3" cy="249.2" r="3.5" fill="#bb9af7" stroke="#1a1b26" stroke-width="1.5"/><circle cx="481.4" cy="249.2" r="3.5" fill="#bb9af7" stroke="#1a1b26" stroke-width="1.5"/><circle cx="492.4" cy="249.2" r="3.5" fill="#bb9af7" stroke="#1a1b26" stroke-width="1.5"/><circle cx="503.5" cy="249.2" r="3.5" fill="#bb9af7" stroke="#1a1b26" stroke-width="1.5"/><circle cx="514.5" cy="249.2" r="3.5" fill="#bb9af7" stroke="#1a1b26" stroke-width="1.5"/><circle cx="525.6" cy="249.2" r="3.5" fill="#bb9af7" stroke="#1a1b26" stroke-width="1.5"/><circle cx="536.7" cy="249.2" r="3.5" fill="#bb9af7" stroke="#1a1b26" stroke-width="1.5"/><circle cx="547.7" cy="249.2" r="3.5" fill="#bb9af7" stroke="#1a1b26" stroke-width="1.5"/><circle cx="558.8" cy="249.2" r="3.5" fill="#bb9af7" stroke="#1a1b26" stroke-width="1.5"/><circle cx="569.8" cy="249.2" r="3.5" fill="#bb9af7" stroke="#1a1b26" stroke-width="1.5"/><circle cx="580.9" cy="249.2" r="3.5" fill="#bb9af7" stroke="#1a1b26" stroke-width="1.5"/><circle cx="592.0" cy="249.2" r="3.5" fill="#bb9af7" stroke="#1a1b26" stroke-width="1.5"/><circle cx="603.0" cy="249.2" r="3.5" fill="#bb9af7" stroke="#1a1b26" stroke-width="1.5"/><circle cx="614.1" cy="249.2" r="3.5" fill="#bb9af7" stroke="#1a1b26" stroke-width="1.5"/><circle cx="625.2" cy="249.2" r="3.5" fill="#bb9af7" stroke="#1a1b26" stroke-width="1.5"/><circle cx="636.2" cy="249.2" r="3.5" fill="#bb9af7" stroke="#1a1b26" stroke-width="1.5"/><circle cx="647.3" cy="249.2" r="3.5" fill="#bb9af7" stroke="#1a1b26" stroke-width="1.5"/><circle cx="658.3" cy="249.2" r="3.5" fill="#bb9af7" stroke="#1a1b26" stroke-width="1.5"/><circle cx="669.4" cy="249.2" r="3.5" fill="#bb9af7" stroke="#1a1b26" stroke-width="1.5"/><circle cx="680.5" cy="249.2" r="3.5" fill="#bb9af7" stroke="#1a1b26" stroke-width="1.5"/><circle cx="691.5" cy="249.2" r="3.5" fill="#bb9af7" stroke="#1a1b26" stroke-width="1.5"/><circle cx="702.6" cy="249.2" r="3.5" fill="#bb9af7" stroke="#1a1b26" stroke-width="1.5"/><circle cx="713.6" cy="249.2" r="3.5" fill="#bb9af7" stroke="#1a1b26" stroke-width="1.5"/><circle cx="724.7" cy="249.2" r="3.5" fill="#bb9af7" stroke="#1a1b26" stroke-width="1.5"/><circle cx="735.8" cy="249.2" r="3.5" fill="#bb9af7" stroke="#1a1b26" stroke-width="1.5"/><circle cx="746.8" cy="249.2" r="3.5" fill="#bb9af7" stroke="#1a1b26" stroke-width="1.5"/><circle cx="757.9" cy="249.2" r="3.5" fill="#bb9af7" stroke="#1a1b26" stroke-width="1.5"/><circle cx="768.9" cy="249.2" r="3.5" fill="#bb9af7" stroke="#1a1b26" stroke-width="1.5"/><circle cx="780.0" cy="249.2" r="3.5" fill="#bb9af7" stroke="#1a1b26" stroke-width="1.5"/>
  <rect x="50" y="278" width="10" height="10" rx="2" fill="#7aa2f7"/><text x="64" y="286" fill="#565f89" font-size="11" font-family="monospace">History of God</text><rect x="290" y="278" width="10" height="10" rx="2" fill="#9ece6a"/><text x="304" y="286" fill="#565f89" font-size="11" font-family="monospace">Python for Data Science For …</text><rect x="530" y="278" width="10" height="10" rx="2" fill="#e0af68"/><text x="544" y="286" fill="#565f89" font-size="11" font-family="monospace">Crucial Conversations: Tools…</text><rect x="50" y="278" width="10" height="10" rx="2" fill="#bb9af7"/><text x="64" y="286" fill="#565f89" font-size="11" font-family="monospace">Eloquent JavaScript</text>
</svg>