<svg xmlns="http://www.w3.org/2000/svg" width="800" height="300" viewBox="0 0 800 300">
  <rect width="800" height="300" rx="12" fill="#1a1b26"/>
  <rect x="1" y="1" width="798" height="298" rx="11" fill="none" stroke="#414868" stroke-width="1"/>
  <text x="50" y="22" fill="#c0caf5" font-size="13" font-family="monospace" font-weight="bold">📖 Reading Progress</text>
  <text x="780" y="22" fill="#565f89" font-size="10" font-family="monospace" text-anchor="end">Updated 2026-07-12</text>
  <line x1="50" y1="250.0" x2="780" y2="250.0" stroke="#414868" stroke-width="0.5" stroke-dasharray="4,4"/><text x="44" y="254.0" fill="#565f89" font-size="10" font-family="monospace" text-anchor="end">0%</text><line x1="50" y1="197.5" x2="780" y2="197.5" stroke="#414868" stroke-width="0.5" stroke-dasharray="4,4"/><text x="44" y="201.5" fill="#565f89" font-size="10" font-family="monospace" text-anchor="end">25%</text><line x1="50" y1="145.0" x2="780" y2="145.0" stroke="#414868" stroke-width="0.5" stroke-dasharray="4,4"/><text x="44" y="149.0" fill="#565f89" font-size="10" font-family="monospace" text-anchor="end">50%</text><line x1="50" y1="92.5" x2="780" y2="92.5" stroke="#414868" stroke-width="0.5" stroke-dasharray="4,4"/><text x="44" y="96.5" fill="#565f89" font-size="10" font-family="monospace" text-anchor="end">75%</text><line x1="50" y1="40.0" x2="780" y2="40.0" stroke="#414868" stroke-width="0.5" stroke-dasharray="4,4"/><text x="44" y="44.0" fill="#565f89" font-size="10" font-family="monospace" text-anchor="end">100%</text>
  <text x="50.0" y="268" fill="#565f89" font-size="10" font-family="monospace" text-anchor="middle">03-09</text><text x="171.7" y="268" fill="#565f89" font-size="10" font-family="monospace" text-anchor="middle">03-29</text><text x="293.3" y="268" fill="#565f89" font-size="10" font-family="monospace" text-anchor="middle">04-17</text><text x="415.0" y="268" fill="#565f89" font-size="10" font-family="monospace" text-anchor="middle">05-06</text><text x="536.7" y="268" fill="#565f89" font-size="10" font-family="monospace" text-anchor="middle">05-28</text><text x="658.3" y="268" fill="#565f89" font-size="10" font-family="monospace" text-anchor="middle">06-19</text><text x="780.0" y="268" fill="#565f89" font-size="10" font-family="monospace" text-anchor="middle">07-12</text>
  <path d="M 50.0,236.0 L 57.2,234.1 L 64.3,234.0 L 71.5,233.3 L 78.6,231.5 L 85.8,208.1 L 92.9,208.1 L 100.1,208.1 L 107.3,208.1 L 114.4,208.1 L 121.6,208.1 L 128.7,208.1 L 135.9,208.1 L 143.0,208.1 L 150.2,208.1 L 157.4,208.1 L 164.5,208.1 L 171.7,208.1 L 178.8,208.1 L 186.0,208.1 L 193.1,208.1 L 200.3,208.1 L 207.5,208.1 L 214.6,208.1 L 221.8,208.1 L 228.9,208.1 L 236.1,208.1 L 243.2,208.1 L 250.4,208.1 L 257.5,208.1 L 264.7,208.1 L 271.9,208.1 L 279.0,208.1 L 286.2,208.1 L 293.3,208.1 L 300.5,208.1 L 307.6,208.1 L 314.8,208.1 L 322.0,208.1 L 329.1,208.1 L 336.3,208.1 L 343.4,208.1 L 350.6,208.1 L 357.7,208.1 L 364.9,208.1 L 372.1,208.1 L 379.2,208.1 L 386.4,208.1 L 393.5,208.1 L 400.7,208.1 L 407.8,208.1 L 415.0,208.1 L 422.2,208.1 L 429.3,208.1 L 436.5,208.1 L 443.6,208.1 L 450.8,208.1 L 457.9,208.1 L 465.1,208.1 L 472.3,208.1 L 479.4,208.1 L 486.6,208.1 L 493.7,208.1 L 500.9,208.1 L 508.0,208.1 L 515.2,208.1 L 522.4,208.1 L 529.5,208.1 L 536.7,208.1 L 543.8,208.1 L 551.0,208.1 L 558.1,208.1 L 565.3,208.1 L 572.5,208.1 L 579.6,208.1 L 586.8,208.1 L 593.9,208.1 L 601.1,208.1 L 608.2,208.1 L 615.4,208.1 L 622.5,208.1 L 629.7,208.1 L 636.9,208.1 L 644.0,208.1 L 651.2,208.1 L 658.3,208.1 L 665.5,208.1 L 672.6,208.1 L 679.8,208.1 L 687.0,208.1 L 694.1,208.1 L 701.3,208.1 L 708.4,208.1 L 715.6,208.1 L 722.7,208.1 L 729.9,208.1 L 737.1,208.1 L 744.2,208.1 L 751.4,208.1 L 758.5,208.1 L 765.7,208.1 L 772.8,208.1 L 780.0,208.1" fill="none" stroke="#7aa2f7" stroke-width="2.5" stroke-linejoin="round" stroke-linecap="round" opacity="0.9"/><path d="M 737.1,244.4 L 744.2,244.4 L 751.4,244.4 L 758.5,244.4 L 765.7,244.4 L 772.8,244.4 L 780.0,244.4" fill="none" stroke="#9ece6a" stroke-width="2.5" stroke-linejoin="round" stroke-linecap="round" opacity="0.9"/><path d="M 92.9,239.5 L 100.1,237.4 L 107.3,239.4 L 114.4,239.4 L 121.6,239.4 L 128.7,239.4 L 135.9,239.4 L 143.0,239.4 L 150.2,239.4 L 157.4,239.4 L 164.5,239.4 L 171.7,239.4 L 178.8,239.4 L 186.0,239.4 L 193.1,239.4 L 200.3,239.4 L 207.5,239.4 L 214.6,239.4 L 221.8,239.4 L 228.9,239.4 L 236.1,239.4 L 243.2,239.4 L 250.4,239.4 L 257.5,239.4 L 264.7,239.4 L 271.9,239.4 L 279.0,239.4 L 286.2,239.4 L 293.3,239.4 L 300.5,239.4 L 307.6,239.4 L 314.8,239.4 L 322.0,239.4 L 329.1,239.4 L 336.3,239.4 L 343.4,239.4 L 350.6,239.4 L 357.7,239.4 L 364.9,239.4 L 372.1,239.4 L 379.2,239.4 L 386.4,239.4 L 393.5,239.4 L 400.7,239.4 L 407.8,239.4 L 415.0,239.4 L 422.2,239.4 L 429.3,239.4 L 436.5,239.4 L 443.6,239.4 L 450.8,239.4 L 457.9,239.4 L 465.1,239.4 L 472.3,239.4 L 479.4,239.4 L 486.6,239.4 L 493.7,239.4 L 500.9,239.4 L 508.0,239.4 L 515.2,239.4 L 522.4,239.4 L 529.5,239.4 L 536.7,239.4 L 543.8,239.4 L 551.0,239.4 L 558.1,239.4 L 565.3,239.4 L 572.5,239.4 L 579.6,239.4 L 586.8,239.4 L 593.9,239.4 L 601.1,239.4 L 608.2,239.4 L 615.4,239.4 L 622.5,239.4 L 629.7,239.4 L 636.9,239.4 L 644.0,239.4 L 651.2,239.4 L 658.3,239.4 L 665.5,239.4 L 672.6,239.4 L 679.8,239.4 L 687.0,239.4 L 694.1,239.4 L 701.3,239.4 L 708.4,239.4 L 715.6,239.4 L 722.7,239.4 L 729.9,239.4 L 737.1,239.4 L 744.2,239.4 L 751.4,239.4 L 758.5,239.4 L 765.7,239.4 L 772.8,239.4 L 780.0,239.4" fill="none" stroke="#e0af68" stroke-width="2.5" stroke-linejoin="round" stroke-linecap="round" opacity="0.9"/><path d="M 150.2,239.4 L 157.4,239.4 L 164.5,239.4 L 171.7,239.4 L 178.8,239.4 L 186.0,239.4 L 193.1,239.4 L 200.3,239.4 L 207.5,239.4 L 214.6,239.4 L 221.8,237.0 L 228.9,237.0 L 236.1,237.0 L 243.2,237.0 L 250.4,237.0 L 257.5,237.0 L 264.7,237.0 L 271.9,237.0 L 279.0,237.0 L 286.2,237.0 L 293.3,237.0 L 300.5,237.0 L 307.6,237.0 L 314.8,237.0 L 322.0,237.0 L 329.1,237.0 L 336.3,234.6 L 343.4,234.6 L 350.6,234.6 L 357.7,234.6 L 364.9,234.6 L 372.1,232.9 L 379.2,232.9 L 386.4,232.9 L 393.5,232.9 L 400.7,232.9 L 407.8,232.9 L 415.0,232.9 L 422.2,232.9 L 429.3,232.9 L 436.5,232.9 L 443.6,232.9 L 450.8,232.9 L 457.9,232.9 L 465.1,232.9 L 472.3,232.9 L 479.4,232.9 L 486.6,232.9 L 493.7,232.9 L 500.9,232.9 L 508.0,232.9 L 515.2,232.9 L 522.4,232.9 L 529.5,232.9 L 536.7,232.9 L 543.8,232.9 L 551.0,232.9 L 558.1,232.9 L 565.3,232.9 L 572.5,232.9 L 579.6,232.9 L 586.8,232.9 L 593.9,232.9 L 601.1,232.9 L 608.2,232.9 L 615.4,232.9 L 622.5,232.9 L 629.7,232.9 L 636.9,232.9 L 644.0,232.9 L 651.2,232.9 L 658.3,232.9 L 665.5,232.9 L 672.6,232.9 L 679.8,232.9 L 687.0,232.9 L 694.1,232.9 L 701.3,232.9 L 708.4,232.9 L 715.6,232.9 L 722.7,231.3 L 729.9,231.3 L 737.1,228.9 L 744.2,228.9 L 751.4,227.3 L 758.5,227.3 L 765.7,227.3 L 772.8,227.3 L 780.0,227.3" fill="none" stroke="#bb9af7" stroke-width="2.5" stroke-linejoin="round" stroke-linecap="round" opacity="0.9"/><path d="M 150.2,249.2 L 157.4,249.2 L 164.5,249.2 L 171.7,249.2 L 178.8,249.2 L 186.0,249.2 L 193.1,249.2 L 200.3,249.2 L 207.5,249.2 L 214.6,249.2 L 221.8,249.2 L 228.9,249.2 L 236.1,249.2 L 243.2,249.2 L 250.4,249.2 L 257.5,249.2 L 264.7,249.2 L 271.9,249.2 L 279.0,249.2 L 286.2,249.2 L 293.3,249.2 L 300.5,249.2 L 307.6,249.2 L 314.8,249.2 L 322.0,249.2 L 329.1,249.2 L 336.3,249.2 L 343.4,249.2 L 350.6,249.2 L 357.7,249.2 L 364.9,249.2 L 372.1,249.2 L 379.2,249.2 L 386.4,249.2 L 393.5,249.2 L 400.7,249.2 L 407.8,249.2 L 415.0,249.2 L 422.2,249.2 L 429.3,249.2 L 436.5,249.2 L 443.6,249.2 L 450.8,249.2 L 457.9,249.2 L 465.1,249.2 L 472.3,249.2 L 479.4,249.2 L 486.6,249.2 L 493.7,249.2 L 500.9,249.2 L 508.0,249.2 L 515.2,249.2 L 522.4,249.2 L 529.5,249.2 L 536.7,249.2 L 543.8,249.2 L 551.0,249.2 L 558.1,249.2 L 565.3,249.2 L 572.5,249.2 L 579.6,249.2 L 586.8,249.2 L 593.9,249.2 L 601.1,249.2 L 608.2,249.2 L 615.4,249.2 L 622.5,249.2 L 629.7,249.2 L 636.9,249.2 L 644.0,249.2 L 651.2,249.2 L 658.3,249.2 L 665.5,249.2 L 672.6,249.2 L 679.8,249.2 L 687.0,249.2 L 694.1,249.2 L 701.3,249.2 L 708.4,249.2 L 715.6,249.2 L 722.7,249.2 L 729.9,249.2 L 737.1,249.2 L 744.2,249.2 L 751.4,249.2 L 758.5,249.2 L 765.7,249.2 L 772.8,249.2 L 780.0,249.2" fill="none" stroke="#7dcfff" stroke-width="2.5" stroke-linejoin="round" stroke-linecap="round" opacity="0.9"/>
  <circle cx="50.0" cy="236.0" r="3.5" fill="#7aa2f7" stroke="#1a1b26" stroke-width="1.5"/><circle cx="57.2" cy="234.1" r="3.5" fill="#7aa2f7" stroke="#1a1b26" stroke-width="1.5"/><circle cx="64.3" cy="234.0" r="3.5" fill="#7aa2f7" stroke="#1a1b26" stroke-width="1.5"/><circle cx="71.5" cy="233.3" r="3.5" fill="#7aa2f7" stroke="#1a1b26" stroke-width="1.5"/><circle cx="78.6" cy="231.5" r="3.5" fill="#7aa2f7" stroke="#1a1b26" stroke-width="1.5"/><circle cx="85.8" cy="208.1" r="3.5" fill="#7aa2f7" stroke="#1a1b26" stroke-width="1.5"/><circle cx="92.9" cy="208.1" r="3.5" fill="#7aa2f7" stroke="#1a1b26" stroke-width="1.5"/><circle cx="100.1" cy="208.1" r="3.5" fill="#7aa2f7" stroke="#1a1b26" stroke-width="1.5"/><circle cx="107.3" cy="208.1" r="3.5" fill="#7aa2f7" stroke="#1a1b26" stroke-width="1.5"/><circle cx="114.4" cy="208.1" r="3.5" fill="#7aa2f7" stroke="#1a1b26" stroke-width="1.5"/><circle cx="121.6" cy="208.1" r="3.5" fill="#7aa2f7" stroke="#1a1b26" stroke-width="1.5"/><circle cx="128.7" cy="208.1" r="3.5" fill="#7aa2f7" stroke="#1a1b26" stroke-width="1.5"/><circle cx="135.9" cy="208.1" r="3.5" fill="#7aa2f7" stroke="#1a1b26" stroke-width="1.5"/><circle cx="143.0" cy="208.1" r="3.5" fill="#7aa2f7" stroke="#1a1b26" stroke-width="1.5"/><circle cx="150.2" cy="208.1" r="3.5" fill="#7aa2f7" stroke="#1a1b26" stroke-width="1.5"/><circle cx="157.4" cy="208.1" r="3.5" fill="#7aa2f7" stroke="#1a1b26" stroke-width="1.5"/><circle cx="164.5" cy="208.1" r="3.5" fill="#7aa2f7" stroke="#1a1b26" stroke-width="1.5"/><circle cx="171.7" cy="208.1" r="3.5" fill="#7aa2f7" stroke="#1a1b26" stroke-width="1.5"/><circle cx="178.8" cy="208.1" r="3.5" fill="#7aa2f7" stroke="#1a1b26" stroke-width="1.5"/><circle cx="186.0" cy="208.1" r="3.5" fill="#7aa2f7" stroke="#1a1b26" stroke-width="1.5"/><circle cx="193.1" cy="208.1" r="3.5" fill="#7aa2f7" stroke="#1a1b26" stroke-width="1.5"/><circle cx="200.3" cy="208.1" r="3.5" fill="#7aa2f7" stroke="#1a1b26" stroke-width="1.5"/><circle cx="207.5" cy="208.1" r="3.5" fill="#7aa2f7" stroke="#1a1b26" stroke-width="1.5"/><circle cx="214.6" cy="208.1" r="3.5" fill="#7aa2f7" stroke="#1a1b26" stroke-width="1.5"/><circle cx="221.8" cy="208.1" r="3.5" fill="#7aa2f7" stroke="#1a1b26" stroke-width="1.5"/><circle cx="228.9" cy="208.1" r="3.5" fill="#7aa2f7" stroke="#1a1b26" stroke-width="1.5"/><circle cx="236.1" cy="208.1" r="3.5" fill="#7aa2f7" stroke="#1a1b26" stroke-width="1.5"/><circle cx="243.2" cy="208.1" r="3.5" fill="#7aa2f7" stroke="#1a1b26" stroke-width="1.5"/><circle cx="250.4" cy="208.1" r="3.5" fill="#7aa2f7" stroke="#1a1b26" stroke-width="1.5"/><circle cx="257.5" cy="208.1" r="3.5" fill="#7aa2f7" stroke="#1a1b26" stroke-width="1.5"/><circle cx="264.7" cy="208.1" r="3.5" fill="#7aa2f7" stroke="#1a1b26" stroke-width="1.5"/><circle cx="271.9" cy="208.1" r="3.5" fill="#7aa2f7" stroke="#1a1b26" stroke-width="1.5"/><circle cx="279.0" cy="208.1" r="3.5" fill="#7aa2f7" stroke="#1a1b26" stroke-width="1.5"/><circle cx="286.2" cy="208.1" r="3.5" fill="#7aa2f7" stroke="#1a1b26" stroke-width="1.5"/><circle cx="293.3" cy="208.1" r="3.5" fill="#7aa2f7" stroke="#1a1b26" stroke-width="1.5"/><circle cx="300.5" cy="208.1" r="3.5" fill="#7aa2f7" stroke="#1a1b26" stroke-width="1.5"/><circle cx="307.6" cy="208.1" r="3.5" fill="#7aa2f7" stroke="#1a1b26" stroke-width="1.5"/><circle cx="314.8" cy="208.1" r="3.5" fill="#7aa2f7" stroke="#1a1b26" stroke-width="1.5"/><circle cx="322.0" cy="208.1" r="3.5" fill="#7aa2f7" stroke="#1a1b26" stroke-width="1.5"/><circle cx="329.1" cy="208.1" r="3.5" fill="#7aa2f7" stroke="#1a1b26" stroke-width="1.5"/><circle cx="336.3" cy="208.1" r="3.5" fill="#7aa2f7" stroke="#1a1b26" stroke-width="1.5"/><circle cx="343.4" cy="208.1" r="3.5" fill="#7aa2f7" stroke="#1a1b26" stroke-width="1.5"/><circle cx="350.6" cy="208.1" r="3.5" fill="#7aa2f7" stroke="#1a1b26" stroke-width="1.5"/><circle cx="357.7" cy="208.1" r="3.5" fill="#7aa2f7" stroke="#1a1b26" stroke-width="1.5"/><circle cx="364.9" cy="208.1" r="3.5" fill="#7aa2f7" stroke="#1a1b26" stroke-width="1.5"/><circle cx="372.1" cy="208.1" r="3.5" fill="#7aa2f7" stroke="#1a1b26" stroke-width="1.5"/><circle cx="379.2" cy="208.1" r="3.5" fill="#7aa2f7" stroke="#1a1b26" stroke-width="1.5"/><circle cx="386.4" cy="208.1" r="3.5" fill="#7aa2f7" stroke="#1a1b26" stroke-width="1.5"/><circle cx="393.5" cy="208.1" r="3.5" fill="#7aa2f7" stroke="#1a1b26" stroke-width="1.5"/><circle cx="400.7" cy="208.1" r="3.5" fill="#7aa2f7" stroke="#1a1b26" stroke-width="1.5"/><circle cx="407.8" cy="208.1" r="3.5" fill="#7aa2f7" stroke="#1a1b26" stroke-width="1.5"/><circle cx="415.0" cy="208.1" r="3.5" fill="#7aa2f7" stroke="#1a1b26" stroke-width="1.5"/><circle cx="422.2" cy="208.1" r="3.5" fill="#7aa2f7" stroke="#1a1b26" stroke-width="1.5"/><circle cx="429.3" cy="208.1" r="3.5" fill="#7aa2f7" stroke="#1a1b26" stroke-width="1.5"/><circle cx="436.5" cy="208.1" r="3.5" fill="#7aa2f7" stroke="#1a1b26" stroke-width="1.5"/><circle cx="443.6" cy="208.1" r="3.5" fill="#7aa2f7" stroke="#1a1b26" stroke-width="1.5"/><circle cx="450.8" cy="208.1" r="3.5" fill="#7aa2f7" stroke="#1a1b26" stroke-width="1.5"/><circle cx="457.9" cy="208.1" r="3.5" fill="#7aa2f7" stroke="#1a1b26" stroke-width="1.5"/><circle cx="465.1" cy="208.1" r="3.5" fill="#7aa2f7" stroke="#1a1b26" stroke-width="1.5"/><circle cx="472.3" cy="208.1" r="3.5" fill="#7aa2f7" stroke="#1a1b26" stroke-width="1.5"/><circle cx="479.4" cy="208.1" r="3.5" fill="#7aa2f7" stroke="#1a1b26" stroke-width="1.5"/><circle cx="486.6" cy="208.1" r="3.5" fill="#7aa2f7" stroke="#1a1b26" stroke-width="1.5"/><circle cx="493.7" cy="208.1" r="3.5" fill="#7aa2f7" stroke="#1a1b26" stroke-width="1.5"/><circle cx="500.9" cy="208.1" r="3.5" fill="#7aa2f7" stroke="#1a1b26" stroke-width="1.5"/><circle cx="508.0" cy="208.1" r="3.5" fill="#7aa2f7" stroke="#1a1b26" stroke-width="1.5"/><circle cx="515.2" cy="208.1" r="3.5" fill="#7aa2f7" stroke="#1a1b26" stroke-width="1.5"/><circle cx="522.4" cy="208.1" r="3.5" fill="#7aa2f7" stroke="#1a1b26" stroke-width="1.5"/><circle cx="529.5" cy="208.1" r="3.5" fill="#7aa2f7" stroke="#1a1b26" stroke-width="1.5"/><circle cx="536.7" cy="208.1" r="3.5" fill="#7aa2f7" stroke="#1a1b26" stroke-width="1.5"/><circle cx="543.8" cy="208.1" r="3.5" fill="#7aa2f7" stroke="#1a1b26" stroke-width="1.5"/><circle cx="551.0" cy="208.1" r="3.5" fill="#7aa2f7" stroke="#1a1b26" stroke-width="1.5"/><circle cx="558.1" cy="208.1" r="3.5" fill="#7aa2f7" stroke="#1a1b26" stroke-width="1.5"/><circle cx="565.3" cy="208.1" r="3.5" fill="#7aa2f7" stroke="#1a1b26" stroke-width="1.5"/><circle cx="572.5" cy="208.1" r="3.5" fill="#7aa2f7" stroke="#1a1b26" stroke-width="1.5"/><circle cx="579.6" cy="208.1" r="3.5" fill="#7aa2f7" stroke="#1a1b26" stroke-width="1.5"/><circle cx="586.8" cy="208.1" r="3.5" fill="#7aa2f7" stroke="#1a1b26" stroke-width="1.5"/><circle cx="593.9" cy="208.1" r="3.5" fill="#7aa2f7" stroke="#1a1b26" stroke-width="1.5"/><circle cx="601.1" cy="208.1" r="3.5" fill="#7aa2f7" stroke="#1a1b26" stroke-width="1.5"/><circle cx="608.2" cy="208.1" r="3.5" fill="#7aa2f7" stroke="#1a1b26" stroke-width="1.5"/><circle cx="615.4" cy="208.1" r="3.5" fill="#7aa2f7" stroke="#1a1b26" stroke-width="1.5"/><circle cx="622.5" cy="208.1" r="3.5" fill="#7aa2f7" stroke="#1a1b26" stroke-width="1.5"/><circle cx="629.7" cy="208.1" r="3.5" fill="#7aa2f7" stroke="#1a1b26" stroke-width="1.5"/><circle cx="636.9" cy="208.1" r="3.5" fill="#7aa2f7" stroke="#1a1b26" stroke-width="1.5"/><circle cx="644.0" cy="208.1" r="3.5" fill="#7aa2f7" stroke="#1a1b26" stroke-width="1.5"/><circle cx="651.2" cy="208.1" r="3.5" fill="#7aa2f7" stroke="#1a1b26" stroke-width="1.5"/><circle cx="658.3" cy="208.1" r="3.5" fill="#7aa2f7" stroke="#1a1b26" stroke-width="1.5"/><circle cx="665.5" cy="208.1" r="3.5" fill="#7aa2f7" stroke="#1a1b26" stroke-width="1.5"/><circle cx="672.6" cy="208.1" r="3.5" fill="#7aa2f7" stroke="#1a1b26" stroke-width="1.5"/><circle cx="679.8" cy="208.1" r="3.5" fill="#7aa2f7" stroke="#1a1b26" stroke-width="1.5"/><circle cx="687.0" cy="208.1" r="3.5" fill="#7aa2f7" stroke="#1a1b26" stroke-width="1.5"/><circle cx="694.1" cy="208.1" r="3.5" fill="#7aa2f7" stroke="#1a1b26" stroke-width="1.5"/><circle cx="701.3" cy="208.1" r="3.5" fill="#7aa2f7" stroke="#1a1b26" stroke-width="1.5"/><circle cx="708.4" cy="208.1" r="3.5" fill="#7aa2f7" stroke="#1a1b26" stroke-width="1.5"/><circle cx="715.6" cy="208.1" r="3.5" fill="#7aa2f7" stroke="#1a1b26" stroke-width="1.5"/><circle cx="722.7" cy="208.1" r="3.5" fill="#7aa2f7" stroke="#1a1b26" stroke-width="1.5"/><circle cx="729.9" cy="208.1" r="3.5" fill="#7aa2f7" stroke="#1a1b26" stroke-width="1.5"/><circle cx="737.1" cy="208.1" r="3.5" fill="#7aa2f7" stroke="#1a1b26" stroke-width="1.5"/><circle cx="744.2" cy="208.1" r="3.5" fill="#7aa2f7" stroke="#1a1b26" stroke-width="1.5"/><circle cx="751.4" cy="208.1" r="3.5" fill="#7aa2f7" stroke="#1a1b26" stroke-width="1.5"/><circle cx="758.5" cy="208.1" r="3.5" fill="#7aa2f7" stroke="#1a1b26" stroke-width="1.5"/><circle cx="765.7" cy="208.1" r="3.5" fill="#7aa2f7" stroke="#1a1b26" stroke-width="1.5"/><circle cx="772.8" cy="208.1" r="3.5" fill="#7aa2f7" stroke="#1a1b26" stroke-width="1.5"/><circle cx="780.0" cy="208.1" r="3.5" fill="#7aa2f7" stroke="#1a1b26" stroke-width="1.5"/><circle cx="737.1" cy="244.4" r="3.5" fill="#9ece6a" stroke="#1a1b26" stroke-width="1.5"/><circle cx="744.2" cy="244.4" r="3.5" fill="#9ece6a" stroke="#1a1b26" stroke-width="1.5"/><circle cx="751.4" cy="244.4" r="3.5" fill="#9ece6a" stroke="#1a1b26" stroke-width="1.5"/><circle cx="758.5" cy="244.4" r="3.5" fill="#9ece6a" stroke="#1a1b26" stroke-width="1.5"/><circle cx="765.7" cy="244.4" r="3.5" fill="#9ece6a" stroke="#1a1b26" stroke-width="1.5"/><circle cx="772.8" cy="244.4" r="3.5" fill="#9ece6a" stroke="#1a1b26" stroke-width="1.5"/><circle cx="780.0" cy="244.4" r="3.5" fill="#9ece6a" stroke="#1a1b26" stroke-width="1.5"/><circle cx="92.9" cy="239.5" r="3.5" fill="#e0af68" stroke="#1a1b26" stroke-width="1.5"/><circle cx="100.1" cy="237.4" r="3.5" fill="#e0af68" stroke="#1a1b26" stroke-width="1.5"/><circle cx="107.3" cy="239.4" r="3.5" fill="#e0af68" stroke="#1a1b26" stroke-width="1.5"/><circle cx="114.4" cy="239.4" r="3.5" fill="#e0af68" stroke="#1a1b26" stroke-width="1.5"/><circle cx="121.6" cy="239.4" r="3.5" fill="#e0af68" stroke="#1a1b26" stroke-width="1.5"/><circle cx="128.7" cy="239.4" r="3.5" fill="#e0af68" stroke="#1a1b26" stroke-width="1.5"/><circle cx="135.9" cy="239.4" r="3.5" fill="#e0af68" stroke="#1a1b26" stroke-width="1.5"/><circle cx="143.0" cy="239.4" r="3.5" fill="#e0af68" stroke="#1a1b26" stroke-width="1.5"/><circle cx="150.2" cy="239.4" r="3.5" fill="#e0af68" stroke="#1a1b26" stroke-width="1.5"/><circle cx="157.4" cy="239.4" r="3.5" fill="#e0af68" stroke="#1a1b26" stroke-width="1.5"/><circle cx="164.5" cy="239.4" r="3.5" fill="#e0af68" stroke="#1a1b26" stroke-width="1.5"/><circle cx="171.7" cy="239.4" r="3.5" fill="#e0af68" stroke="#1a1b26" stroke-width="1.5"/><circle cx="178.8" cy="239.4" r="3.5" fill="#e0af68" stroke="#1a1b26" stroke-width="1.5"/><circle cx="186.0" cy="239.4" r="3.5" fill="#e0af68" stroke="#1a1b26" stroke-width="1.5"/><circle cx="193.1" cy="239.4" r="3.5" fill="#e0af68" stroke="#1a1b26" stroke-width="1.5"/><circle cx="200.3" cy="239.4" r="3.5" fill="#e0af68" stroke="#1a1b26" stroke-width="1.5"/><circle cx="207.5" cy="239.4" r="3.5" fill="#e0af68" stroke="#1a1b26" stroke-width="1.5"/><circle cx="214.6" cy="239.4" r="3.5" fill="#e0af68" stroke="#1a1b26" stroke-width="1.5"/><circle cx="221.8" cy="239.4" r="3.5" fill="#e0af68" stroke="#1a1b26" stroke-width="1.5"/><circle cx="228.9" cy="239.4" r="3.5" fill="#e0af68" stroke="#1a1b26" stroke-width="1.5"/><circle cx="236.1" cy="239.4" r="3.5" fill="#e0af68" stroke="#1a1b26" stroke-width="1.5"/><circle cx="243.2" cy="239.4" r="3.5" fill="#e0af68" stroke="#1a1b26" stroke-width="1.5"/><circle cx="250.4" cy="239.4" r="3.5" fill="#e0af68" stroke="#1a1b26" stroke-width="1.5"/><circle cx="257.5" cy="239.4" r="3.5" fill="#e0af68" stroke="#1a1b26" stroke-width="1.5"/><circle cx="264.7" cy="239.4" r="3.5" fill="#e0af68" stroke="#1a1b26" stroke-width="1.5"/><circle cx="271.9" cy="239.4" r="3.5" fill="#e0af68" stroke="#1a1b26" stroke-width="1.5"/><circle cx="279.0" cy="239.4" r="3.5" fill="#e0af68" stroke="#1a1b26" stroke-width="1.5"/><circle cx="286.2" cy="239.4" r="3.5" fill="#e0af68" stroke="#1a1b26" stroke-width="1.5"/><circle cx="293.3" cy="239.4" r="3.5" fill="#e0af68" stroke="#1a1b26" stroke-width="1.5"/><circle cx="300.5" cy="239.4" r="3.5" fill="#e0af68" stroke="#1a1b26" stroke-width="1.5"/><circle cx="307.6" cy="239.4" r="3.5" fill="#e0af68" stroke="#1a1b26" stroke-width="1.5"/><circle cx="314.8" cy="239.4" r="3.5" fill="#e0af68" stroke="#1a1b26" stroke-width="1.5"/><circle cx="322.0" cy="239.4" r="3.5" fill="#e0af68" stroke="#1a1b26" stroke-width="1.5"/><circle cx="329.1" cy="239.4" r="3.5" fill="#e0af68" stroke="#1a1b26" stroke-width="1.5"/><circle cx="336.3" cy="239.4" r="3.5" fill="#e0af68" stroke="#1a1b26" stroke-width="1.5"/><circle cx="343.4" cy="239.4" r="3.5" fill="#e0af68" stroke="#1a1b26" stroke-width="1.5"/><circle cx="350.6" cy="239.4" r="3.5" fill="#e0af68" stroke="#1a1b26" stroke-width="1.5"/><circle cx="357.7" cy="239.4" r="3.5" fill="#e0af68" stroke="#1a1b26" stroke-width="1.5"/><circle cx="364.9" cy="239.4" r="3.5" fill="#e0af68" stroke="#1a1b26" stroke-width="1.5"/><circle cx="372.1" cy="239.4" r="3.5" fill="#e0af68" stroke="#1a1b26" stroke-width="1.5"/><circle cx="379.2" cy="239.4" r="3.5" fill="#e0af68" stroke="#1a1b26" stroke-width="1.5"/><circle cx="386.4" cy="239.4" r="3.5" fill="#e0af68" stroke="#1a1b26" stroke-width="1.5"/><circle cx="393.5" cy="239.4" r="3.5" fill="#e0af68" stroke="#1a1b26" stroke-width="1.5"/><circle cx="400.7" cy="239.4" r="3.5" fill="#e0af68" stroke="#1a1b26" stroke-width="1.5"/><circle cx="407.8" cy="239.4" r="3.5" fill="#e0af68" stroke="#1a1b26" stroke-width="1.5"/><circle cx="415.0" cy="239.4" r="3.5" fill="#e0af68" stroke="#1a1b26" stroke-width="1.5"/><circle cx="422.2" cy="239.4" r="3.5" fill="#e0af68" stroke="#1a1b26" stroke-width="1.5"/><circle cx="429.3" cy="239.4" r="3.5" fill="#e0af68" stroke="#1a1b26" stroke-width="1.5"/><circle cx="436.5" cy="239.4" r="3.5" fill="#e0af68" stroke="#1a1b26" stroke-width="1.5"/><circle cx="443.6" cy="239.4" r="3.5" fill="#e0af68" stroke="#1a1b26" stroke-width="1.5"/><circle cx="450.8" cy="239.4" r="3.5" fill="#e0af68" stroke="#1a1b26" stroke-width="1.5"/><circle cx="457.9" cy="239.4" r="3.5" fill="#e0af68" stroke="#1a1b26" stroke-width="1.5"/><circle cx="465.1" cy="239.4" r="3.5" fill="#e0af68" stroke="#1a1b26" stroke-width="1.5"/><circle cx="472.3" cy="239.4" r="3.5" fill="#e0af68" stroke="#1a1b26" stroke-width="1.5"/><circle cx="479.4" cy="239.4" r="3.5" fill="#e0af68" stroke="#1a1b26" stroke-width="1.5"/><circle cx="486.6" cy="239.4" r="3.5" fill="#e0af68" stroke="#1a1b26" stroke-width="1.5"/><circle cx="493.7" cy="239.4" r="3.5" fill="#e0af68" stroke="#1a1b26" stroke-width="1.5"/><circle cx="500.9" cy="239.4" r="3.5" fill="#e0af68" stroke="#1a1b26" stroke-width="1.5"/><circle cx="508.0" cy="239.4" r="3.5" fill="#e0af68" stroke="#1a1b26" stroke-width="1.5"/><circle cx="515.2" cy="239.4" r="3.5" fill="#e0af68" stroke="#1a1b26" stroke-width="1.5"/><circle cx="522.4" cy="239.4" r="3.5" fill="#e0af68" stroke="#1a1b26" stroke-width="1.5"/><circle cx="529.5" cy="239.4" r="3.5" fill="#e0af68" stroke="#1a1b26" stroke-width="1.5"/><circle cx="536.7" cy="239.4" r="3.5" fill="#e0af68" stroke="#1a1b26" stroke-width="1.5"/><circle cx="543.8" cy="239.4" r="3.5" fill="#e0af68" stroke="#1a1b26" stroke-width="1.5"/><circle cx="551.0" cy="239.4" r="3.5" fill="#e0af68" stroke="#1a1b26" stroke-width="1.5"/><circle cx="558.1" cy="239.4" r="3.5" fill="#e0af68" stroke="#1a1b26" stroke-width="1.5"/><circle cx="565.3" cy="239.4" r="3.5" fill="#e0af68" stroke="#1a1b26" stroke-width="1.5"/><circle cx="572.5" cy="239.4" r="3.5" fill="#e0af68" stroke="#1a1b26" stroke-width="1.5"/><circle cx="579.6" cy="239.4" r="3.5" fill="#e0af68" stroke="#1a1b26" stroke-width="1.5"/><circle cx="586.8" cy="239.4" r="3.5" fill="#e0af68" stroke="#1a1b26" stroke-width="1.5"/><circle cx="593.9" cy="239.4" r="3.5" fill="#e0af68" stroke="#1a1b26" stroke-width="1.5"/><circle cx="601.1" cy="239.4" r="3.5" fill="#e0af68" stroke="#1a1b26" stroke-width="1.5"/><circle cx="608.2" cy="239.4" r="3.5" fill="#e0af68" stroke="#1a1b26" stroke-width="1.5"/><circle cx="615.4" cy="239.4" r="3.5" fill="#e0af68" stroke="#1a1b26" stroke-width="1.5"/><circle cx="622.5" cy="239.4" r="3.5" fill="#e0af68" stroke="#1a1b26" stroke-width="1.5"/><circle cx="629.7" cy="239.4" r="3.5" fill="#e0af68" stroke="#1a1b26" stroke-width="1.5"/><circle cx="636.9" cy="239.4" r="3.5" fill="#e0af68" stroke="#1a1b26" stroke-width="1.5"/><circle cx="644.0" cy="239.4" r="3.5" fill="#e0af68" stroke="#1a1b26" stroke-width="1.5"/><circle cx="651.2" cy="239.4" r="3.5" fill="#e0af68" stroke="#1a1b26" stroke-width="1.5"/><circle cx="658.3" cy="239.4" r="3.5" fill="#e0af68" stroke="#1a1b26" stroke-width="1.5"/><circle cx="665.5" cy="239.4" r="3.5" fill="#e0af68" stroke="#1a1b26" stroke-width="1.5"/><circle cx="672.6" cy="239.4" r="3.5" fill="#e0af68" stroke="#1a1b26" stroke-width="1.5"/><circle cx="679.8" cy="239.4" r="3.5" fill="#e0af68" stroke="#1a1b26" stroke-width="1.5"/><circle cx="687.0" cy="239.4" r="3.5" fill="#e0af68" stroke="#1a1b26" stroke-width="1.5"/><circle cx="694.1" cy="239.4" r="3.5" fill="#e0af68" stroke="#1a1b26" stroke-width="1.5"/><circle cx="701.3" cy="239.4" r="3.5" fill="#e0af68" stroke="#1a1b26" stroke-width="1.5"/><circle cx="708.4" cy="239.4" r="3.5" fill="#e0af68" stroke="#1a1b26" stroke-width="1.5"/><circle cx="715.6" cy="239.4" r="3.5" fill="#e0af68" stroke="#1a1b26" stroke-width="1.5"/><circle cx="722.7" cy="239.4" r="3.5" fill="#e0af68" stroke="#1a1b26" stroke-width="1.5"/><circle cx="729.9" cy="239.4" r="3.5" fill="#e0af68" stroke="#1a1b26" stroke-width="1.5"/><circle cx="737.1" cy="239.4" r="3.5" fill="#e0af68" stroke="#1a1b26" stroke-width="1.5"/><circle cx="744.2" cy="239.4" r="3.5" fill="#e0af68" stroke="#1a1b26" stroke-width="1.5"/><circle cx="751.4" cy="239.4" r="3.5" fill="#e0af68" stroke="#1a1b26" stroke-width="1.5"/><circle cx="758.5" cy="239.4" r="3.5" fill="#e0af68" stroke="#1a1b26" stroke-width="1.5"/><circle cx="765.7" cy="239.4" r="3.5" fill="#e0af68" stroke="#1a1b26" stroke-width="1.5"/><circle cx="772.8" cy="239.4" r="3.5" fill="#e0af68" stroke="#1a1b26" stroke-width="1.5"/><circle cx="780.0" cy="239.4" r="3.5" fill="#e0af68" stroke="#1a1b26" stroke-width="1.5"/><circle cx="150.2" cy="239.4" r="3.5" fill="#bb9af7" stroke="#1a1b26" stroke-width="1.5"/><circle cx="157.4" cy="239.4" r="3.5" fill="#bb9af7" stroke="#1a1b26" stroke-width="1.5"/><circle cx="164.5" cy="239.4" r="3.5" fill="#bb9af7" stroke="#1a1b26" stroke-width="1.5"/><circle cx="171.7" cy="239.4" r="3.5" fill="#bb9af7" stroke="#1a1b26" stroke-width="1.5"/><circle cx="178.8" cy="239.4" r="3.5" fill="#bb9af7" stroke="#1a1b26" stroke-width="1.5"/><circle cx="186.0" cy="239.4" r="3.5" fill="#bb9af7" stroke="#1a1b26" stroke-width="1.5"/><circle cx="193.1" cy="239.4" r="3.5" fill="#bb9af7" stroke="#1a1b26" stroke-width="1.5"/><circle cx="200.3" cy="239.4" r="3.5" fill="#bb9af7" stroke="#1a1b26" stroke-width="1.5"/><circle cx="207.5" cy="239.4" r="3.5" fill="#bb9af7" stroke="#1a1b26" stroke-width="1.5"/><circle cx="214.6" cy="239.4" r="3.5" fill="#bb9af7" stroke="#1a1b26" stroke-width="1.5"/><circle cx="221.8" cy="237.0" r="3.5" fill="#bb9af7" stroke="#1a1b26" stroke-width="1.5"/><circle cx="228.9" cy="237.0" r="3.5" fill="#bb9af7" stroke="#1a1b26" stroke-width="1.5"/><circle cx="236.1" cy="237.0" r="3.5" fill="#bb9af7" stroke="#1a1b26" stroke-width="1.5"/><circle cx="243.2" cy="237.0" r="3.5" fill="#bb9af7" stroke="#1a1b26" stroke-width="1.5"/><circle cx="250.4" cy="237.0" r="3.5" fill="#bb9af7" stroke="#1a1b26" stroke-width="1.5"/><circle cx="257.5" cy="237.0" r="3.5" fill="#bb9af7" stroke="#1a1b26" stroke-width="1.5"/><circle cx="264.7" cy="237.0" r="3.5" fill="#bb9af7" stroke="#1a1b26" stroke-width="1.5"/><circle cx="271.9" cy="237.0" r="3.5" fill="#bb9af7" stroke="#1a1b26" stroke-width="1.5"/><circle cx="279.0" cy="237.0" r="3.5" fill="#bb9af7" stroke="#1a1b26" stroke-width="1.5"/><circle cx="286.2" cy="237.0" r="3.5" fill="#bb9af7" stroke="#1a1b26" stroke-width="1.5"/><circle cx="293.3" cy="237.0" r="3.5" fill="#bb9af7" stroke="#1a1b26" stroke-width="1.5"/><circle cx="300.5" cy="237.0" r="3.5" fill="#bb9af7" stroke="#1a1b26" stroke-width="1.5"/><circle cx="307.6" cy="237.0" r="3.5" fill="#bb9af7" stroke="#1a1b26" stroke-width="1.5"/><circle cx="314.8" cy="237.0" r="3.5" fill="#bb9af7" stroke="#1a1b26" stroke-width="1.5"/><circle cx="322.0" cy="237.0" r="3.5" fill="#bb9af7" stroke="#1a1b26" stroke-width="1.5"/><circle cx="329.1" cy="237.0" r="3.5" fill="#bb9af7" stroke="#1a1b26" stroke-width="1.5"/><circle cx="336.3" cy="234.6" r="3.5" fill="#bb9af7" stroke="#1a1b26" stroke-width="1.5"/><circle cx="343.4" cy="234.6" r="3.5" fill="#bb9af7" stroke="#1a1b26" stroke-width="1.5"/><circle cx="350.6" cy="234.6" r="3.5" fill="#bb9af7" stroke="#1a1b26" stroke-width="1.5"/><circle cx="357.7" cy="234.6" r="3.5" fill="#bb9af7" stroke="#1a1b26" stroke-width="1.5"/><circle cx="364.9" cy="234.6" r="3.5" fill="#bb9af7" stroke="#1a1b26" stroke-width="1.5"/><circle cx="372.1" cy="232.9" r="3.5" fill="#bb9af7" stroke="#1a1b26" stroke-width="1.5"/><circle cx="379.2" cy="232.9" r="3.5" fill="#bb9af7" stroke="#1a1b26" stroke-width="1.5"/><circle cx="386.4" cy="232.9" r="3.5" fill="#bb9af7" stroke="#1a1b26" stroke-width="1.5"/><circle cx="393.5" cy="232.9" r="3.5" fill="#bb9af7" stroke="#1a1b26" stroke-width="1.5"/><circle cx="400.7" cy="232.9" r="3.5" fill="#bb9af7" stroke="#1a1b26" stroke-width="1.5"/><circle cx="407.8" cy="232.9" r="3.5" fill="#bb9af7" stroke="#1a1b26" stroke-width="1.5"/><circle cx="415.0" cy="232.9" r="3.5" fill="#bb9af7" stroke="#1a1b26" stroke-width="1.5"/><circle cx="422.2" cy="232.9" r="3.5" fill="#bb9af7" stroke="#1a1b26" stroke-width="1.5"/><circle cx="429.3" cy="232.9" r="3.5" fill="#bb9af7" stroke="#1a1b26" stroke-width="1.5"/><circle cx="436.5" cy="232.9" r="3.5" fill="#bb9af7" stroke="#1a1b26" stroke-width="1.5"/><circle cx="443.6" cy="232.9" r="3.5" fill="#bb9af7" stroke="#1a1b26" stroke-width="1.5"/><circle cx="450.8" cy="232.9" r="3.5" fill="#bb9af7" stroke="#1a1b26" stroke-width="1.5"/><circle cx="457.9" cy="232.9" r="3.5" fill="#bb9af7" stroke="#1a1b26" stroke-width="1.5"/><circle cx="465.1" cy="232.9" r="3.5" fill="#bb9af7" stroke="#1a1b26" stroke-width="1.5"/><circle cx="472.3" cy="232.9" r="3.5" fill="#bb9af7" stroke="#1a1b26" stroke-width="1.5"/><circle cx="479.4" cy="232.9" r="3.5" fill="#bb9af7" stroke="#1a1b26" stroke-width="1.5"/><circle cx="486.6" cy="232.9" r="3.5" fill="#bb9af7" stroke="#1a1b26" stroke-width="1.5"/><circle cx="493.7" cy="232.9" r="3.5" fill="#bb9af7" stroke="#1a1b26" stroke-width="1.5"/><circle cx="500.9" cy="232.9" r="3.5" fill="#bb9af7" stroke="#1a1b26" stroke-width="1.5"/><circle cx="508.0" cy="232.9" r="3.5" fill="#bb9af7" stroke="#1a1b26" stroke-width="1.5"/><circle cx="515.2" cy="232.9" r="3.5" fill="#bb9af7" stroke="#1a1b26" stroke-width="1.5"/><circle cx="522.4" cy="232.9" r="3.5" fill="#bb9af7" stroke="#1a1b26" stroke-width="1.5"/><circle cx="529.5" cy="232.9" r="3.5" fill="#bb9af7" stroke="#1a1b26" stroke-width="1.5"/><circle cx="536.7" cy="232.9" r="3.5" fill="#bb9af7" stroke="#1a1b26" stroke-width="1.5"/><circle cx="543.8" cy="232.9" r="3.5" fill="#bb9af7" stroke="#1a1b26" stroke-width="1.5"/><circle cx="551.0" cy="232.9" r="3.5" fill="#bb9af7" stroke="#1a1b26" stroke-width="1.5"/><circle cx="558.1" cy="232.9" r="3.5" fill="#bb9af7" stroke="#1a1b26" stroke-width="1.5"/><circle cx="565.3" cy="232.9" r="3.5" fill="#bb9af7" stroke="#1a1b26" stroke-width="1.5"/><circle cx="572.5" cy="232.9" r="3.5" fill="#bb9af7" stroke="#1a1b26" stroke-width="1.5"/><circle cx="579.6" cy="232.9" r="3.5" fill="#bb9af7" stroke="#1a1b26" stroke-width="1.5"/><circle cx="586.8" cy="232.9" r="3.5" fill="#bb9af7" stroke="#1a1b26" stroke-width="1.5"/><circle cx="593.9" cy="232.9" r="3.5" fill="#bb9af7" stroke="#1a1b26" stroke-width="1.5"/><circle cx="601.1" cy="232.9" r="3.5" fill="#bb9af7" stroke="#1a1b26" stroke-width="1.5"/><circle cx="608.2" cy="232.9" r="3.5" fill="#bb9af7" stroke="#1a1b26" stroke-width="1.5"/><circle cx="615.4" cy="232.9" r="3.5" fill="#bb9af7" stroke="#1a1b26" stroke-width="1.5"/><circle cx="622.5" cy="232.9" r="3.5" fill="#bb9af7" stroke="#1a1b26" stroke-width="1.5"/><circle cx="629.7" cy="232.9" r="3.5" fill="#bb9af7" stroke="#1a1b26" stroke-width="1.5"/><circle cx="636.9" cy="232.9" r="3.5" fill="#bb9af7" stroke="#1a1b26" stroke-width="1.5"/><circle cx="644.0" cy="232.9" r="3.5" fill="#bb9af7" stroke="#1a1b26" stroke-width="1.5"/><circle cx="651.2" cy="232.9" r="3.5" fill="#bb9af7" stroke="#1a1b26" stroke-width="1.5"/><circle cx="658.3" cy="232.9" r="3.5" fill="#bb9af7" stroke="#1a1b26" stroke-width="1.5"/><circle cx="665.5" cy="232.9" r="3.5" fill="#bb9af7" stroke="#1a1b26" stroke-width="1.5"/><circle cx="672.6" cy="232.9" r="3.5" fill="#bb9af7" stroke="#1a1b26" stroke-width="1.5"/><circle cx="679.8" cy="232.9" r="3.5" fill="#bb9af7" stroke="#1a1b26" stroke-width="1.5"/><circle cx="687.0" cy="232.9" r="3.5" fill="#bb9af7" stroke="#1a1b26" stroke-width="1.5"/><circle cx="694.1" cy="232.9" r="3.5" fill="#bb9af7" stroke="#1a1b26" stroke-width="1.5"/><circle cx="701.3" cy="232.9" r="3.5" fill="#bb9af7" stroke="#1a1b26" stroke-width="1.5"/><circle cx="708.4" cy="232.9" r="3.5" fill="#bb9af7" stroke="#1a1b26" stroke-width="1.5"/><circle cx="715.6" cy="232.9" r="3.5" fill="#bb9af7" stroke="#1a1b26" stroke-width="1.5"/><circle cx="722.7" cy="231.3" r="3.5" fill="#bb9af7" stroke="#1a1b26" stroke-width="1.5"/><circle cx="729.9" cy="231.3" r="3.5" fill="#bb9af7" stroke="#1a1b26" stroke-width="1.5"/><circle cx="737.1" cy="228.9" r="3.5" fill="#bb9af7" stroke="#1a1b26" stroke-width="1.5"/><circle cx="744.2" cy="228.9" r="3.5" fill="#bb9af7" stroke="#1a1b26" stroke-width="1.5"/><circle cx="751.4" cy="227.3" r="3.5" fill="#bb9af7" stroke="#1a1b26" stroke-width="1.5"/><circle cx="758.5" cy="227.3" r="3.5" fill="#bb9af7" stroke="#1a1b26" stroke-width="1.5"/><circle cx="765.7" cy="227.3" r="3.5" fill="#bb9af7" stroke="#1a1b26" stroke-width="1.5"/><circle cx="772.8" cy="227.3" r="3.5" fill="#bb9af7" stroke="#1a1b26" stroke-width="1.5"/><circle cx="780.0" cy="227.3" r="3.5" fill="#bb9af7" stroke="#1a1b26" stroke-width="1.5"/><circle cx="150.2" cy="249.2" r="3.5" fill="#7dcfff" stroke="#1a1b26" stroke-width="1.5"/><circle cx="157.4" cy="249.2" r="3.5" fill="#7dcfff" stroke="#1a1b26" stroke-width="1.5"/><circle cx="164.5" cy="249.2" r="3.5" fill="#7dcfff" stroke="#1a1b26" stroke-width="1.5"/><circle cx="171.7" cy="249.2" r="3.5" fill="#7dcfff" stroke="#1a1b26" stroke-width="1.5"/><circle cx="178.8" cy="249.2" r="3.5" fill="#7dcfff" stroke="#1a1b26" stroke-width="1.5"/><circle cx="186.0" cy="249.2" r="3.5" fill="#7dcfff" stroke="#1a1b26" stroke-width="1.5"/><circle cx="193.1" cy="249.2" r="3.5" fill="#7dcfff" stroke="#1a1b26" stroke-width="1.5"/><circle cx="200.3" cy="249.2" r="3.5" fill="#7dcfff" stroke="#1a1b26" stroke-width="1.5"/><circle cx="207.5" cy="249.2" r="3.5" fill="#7dcfff" stroke="#1a1b26" stroke-width="1.5"/><circle cx="214.6" cy="249.2" r="3.5" fill="#7dcfff" stroke="#1a1b26" stroke-width="1.5"/><circle cx="221.8" cy="249.2" r="3.5" fill="#7dcfff" stroke="#1a1b26" stroke-width="1.5"/><circle cx="228.9" cy="249.2" r="3.5" fill="#7dcfff" stroke="#1a1b26" stroke-width="1.5"/><circle cx="236.1" cy="249.2" r="3.5" fill="#7dcfff" stroke="#1a1b26" stroke-width="1.5"/><circle cx="243.2" cy="249.2" r="3.5" fill="#7dcfff" stroke="#1a1b26" stroke-width="1.5"/><circle cx="250.4" cy="249.2" r="3.5" fill="#7dcfff" stroke="#1a1b26" stroke-width="1.5"/><circle cx="257.5" cy="249.2" r="3.5" fill="#7dcfff" stroke="#1a1b26" stroke-width="1.5"/><circle cx="264.7" cy="249.2" r="3.5" fill="#7dcfff" stroke="#1a1b26" stroke-width="1.5"/><circle cx="271.9" cy="249.2" r="3.5" fill="#7dcfff" stroke="#1a1b26" stroke-width="1.5"/><circle cx="279.0" cy="249.2" r="3.5" fill="#7dcfff" stroke="#1a1b26" stroke-width="1.5"/><circle cx="286.2" cy="249.2" r="3.5" fill="#7dcfff" stroke="#1a1b26" stroke-width="1.5"/><circle cx="293.3" cy="249.2" r="3.5" fill="#7dcfff" stroke="#1a1b26" stroke-width="1.5"/><circle cx="300.5" cy="249.2" r="3.5" fill="#7dcfff" stroke="#1a1b26" stroke-width="1.5"/><circle cx="307.6" cy="249.2" r="3.5" fill="#7dcfff" stroke="#1a1b26" stroke-width="1.5"/><circle cx="314.8" cy="249.2" r="3.5" fill="#7dcfff" stroke="#1a1b26" stroke-width="1.5"/><circle cx="322.0" cy="249.2" r="3.5" fill="#7dcfff" stroke="#1a1b26" stroke-width="1.5"/><circle cx="329.1" cy="249.2" r="3.5" fill="#7dcfff" stroke="#1a1b26" stroke-width="1.5"/><circle cx="336.3" cy="249.2" r="3.5" fill="#7dcfff" stroke="#1a1b26" stroke-width="1.5"/><circle cx="343.4" cy="249.2" r="3.5" fill="#7dcfff" stroke="#1a1b26" stroke-width="1.5"/><circle cx="350.6" cy="249.2" r="3.5" fill="#7dcfff" stroke="#1a1b26" stroke-width="1.5"/><circle cx="357.7" cy="249.2" r="3.5" fill="#7dcfff" stroke="#1a1b26" stroke-width="1.5"/><circle cx="364.9" cy="249.2" r="3.5" fill="#7dcfff" stroke="#1a1b26" stroke-width="1.5"/><circle cx="372.1" cy="249.2" r="3.5" fill="#7dcfff" stroke="#1a1b26" stroke-width="1.5"/><circle cx="379.2" cy="249.2" r="3.5" fill="#7dcfff" stroke="#1a1b26" stroke-width="1.5"/><circle cx="386.4" cy="249.2" r="3.5" fill="#7dcfff" stroke="#1a1b26" stroke-width="1.5"/><circle cx="393.5" cy="249.2" r="3.5" fill="#7dcfff" stroke="#1a1b26" stroke-width="1.5"/><circle cx="400.7" cy="249.2" r="3.5" fill="#7dcfff" stroke="#1a1b26" stroke-width="1.5"/><circle cx="407.8" cy="249.2" r="3.5" fill="#7dcfff" stroke="#1a1b26" stroke-width="1.5"/><circle cx="415.0" cy="249.2" r="3.5" fill="#7dcfff" stroke="#1a1b26" stroke-width="1.5"/><circle cx="422.2" cy="249.2" r="3.5" fill="#7dcfff" stroke="#1a1b26" stroke-width="1.5"/><circle cx="429.3" cy="249.2" r="3.5" fill="#7dcfff" stroke="#1a1b26" stroke-width="1.5"/><circle cx="436.5" cy="249.2" r="3.5" fill="#7dcfff" stroke="#1a1b26" stroke-width="1.5"/><circle cx="443.6" cy="249.2" r="3.5" fill="#7dcfff" stroke="#1a1b26" stroke-width="1.5"/><circle cx="450.8" cy="249.2" r="3.5" fill="#7dcfff" stroke="#1a1b26" stroke-width="1.5"/><circle cx="457.9" cy="249.2" r="3.5" fill="#7dcfff" stroke="#1a1b26" stroke-width="1.5"/><circle cx="465.1" cy="249.2" r="3.5" fill="#7dcfff" stroke="#1a1b26" stroke-width="1.5"/><circle cx="472.3" cy="249.2" r="3.5" fill="#7dcfff" stroke="#1a1b26" stroke-width="1.5"/><circle cx="479.4" cy="249.2" r="3.5" fill="#7dcfff" stroke="#1a1b26" stroke-width="1.5"/><circle cx="486.6" cy="249.2" r="3.5" fill="#7dcfff" stroke="#1a1b26" stroke-width="1.5"/><circle cx="493.7" cy="249.2" r="3.5" fill="#7dcfff" stroke="#1a1b26" stroke-width="1.5"/><circle cx="500.9" cy="249.2" r="3.5" fill="#7dcfff" stroke="#1a1b26" stroke-width="1.5"/><circle cx="508.0" cy="249.2" r="3.5" fill="#7dcfff" stroke="#1a1b26" stroke-width="1.5"/><circle cx="515.2" cy="249.2" r="3.5" fill="#7dcfff" stroke="#1a1b26" stroke-width="1.5"/><circle cx="522.4" cy="249.2" r="3.5" fill="#7dcfff" stroke="#1a1b26" stroke-width="1.5"/><circle cx="529.5" cy="249.2" r="3.5" fill="#7dcfff" stroke="#1a1b26" stroke-width="1.5"/><circle cx="536.7" cy="249.2" r="3.5" fill="#7dcfff" stroke="#1a1b26" stroke-width="1.5"/><circle cx="543.8" cy="249.2" r="3.5" fill="#7dcfff" stroke="#1a1b26" stroke-width="1.5"/><circle cx="551.0" cy="249.2" r="3.5" fill="#7dcfff" stroke="#1a1b26" stroke-width="1.5"/><circle cx="558.1" cy="249.2" r="3.5" fill="#7dcfff" stroke="#1a1b26" stroke-width="1.5"/><circle cx="565.3" cy="249.2" r="3.5" fill="#7dcfff" stroke="#1a1b26" stroke-width="1.5"/><circle cx="572.5" cy="249.2" r="3.5" fill="#7dcfff" stroke="#1a1b26" stroke-width="1.5"/><circle cx="579.6" cy="249.2" r="3.5" fill="#7dcfff" stroke="#1a1b26" stroke-width="1.5"/><circle cx="586.8" cy="249.2" r="3.5" fill="#7dcfff" stroke="#1a1b26" stroke-width="1.5"/><circle cx="593.9" cy="249.2" r="3.5" fill="#7dcfff" stroke="#1a1b26" stroke-width="1.5"/><circle cx="601.1" cy="249.2" r="3.5" fill="#7dcfff" stroke="#1a1b26" stroke-width="1.5"/><circle cx="608.2" cy="249.2" r="3.5" fill="#7dcfff" stroke="#1a1b26" stroke-width="1.5"/><circle cx="615.4" cy="249.2" r="3.5" fill="#7dcfff" stroke="#1a1b26" stroke-width="1.5"/><circle cx="622.5" cy="249.2" r="3.5" fill="#7dcfff" stroke="#1a1b26" stroke-width="1.5"/><circle cx="629.7" cy="249.2" r="3.5" fill="#7dcfff" stroke="#1a1b26" stroke-width="1.5"/><circle cx="636.9" cy="249.2" r="3.5" fill="#7dcfff" stroke="#1a1b26" stroke-width="1.5"/><circle cx="644.0" cy="249.2" r="3.5" fill="#7dcfff" stroke="#1a1b26" stroke-width="1.5"/><circle cx="651.2" cy="249.2" r="3.5" fill="#7dcfff" stroke="#1a1b26" stroke-width="1.5"/><circle cx="658.3" cy="249.2" r="3.5" fill="#7dcfff" stroke="#1a1b26" stroke-width="1.5"/><circle cx="665.5" cy="249.2" r="3.5" fill="#7dcfff" stroke="#1a1b26" stroke-width="1.5"/><circle cx="672.6" cy="249.2" r="3.5" fill="#7dcfff" stroke="#1a1b26" stroke-width="1.5"/><circle cx="679.8" cy="249.2" r="3.5" fill="#7dcfff" stroke="#1a1b26" stroke-width="1.5"/><circle cx="687.0" cy="249.2" r="3.5" fill="#7dcfff" stroke="#1a1b26" stroke-width="1.5"/><circle cx="694.1" cy="249.2" r="3.5" fill="#7dcfff" stroke="#1a1b26" stroke-width="1.5"/><circle cx="701.3" cy="249.2" r="3.5" fill="#7dcfff" stroke="#1a1b26" stroke-width="1.5"/><circle cx="708.4" cy="249.2" r="3.5" fill="#7dcfff" stroke="#1a1b26" stroke-width="1.5"/><circle cx="715.6" cy="249.2" r="3.5" fill="#7dcfff" stroke="#1a1b26" stroke-width="1.5"/><circle cx="722.7" cy="249.2" r="3.5" fill="#7dcfff" stroke="#1a1b26" stroke-width="1.5"/><circle cx="729.9" cy="249.2" r="3.5" fill="#7dcfff" stroke="#1a1b26" stroke-width="1.5"/><circle cx="737.1" cy="249.2" r="3.5" fill="#7dcfff" stroke="#1a1b26" stroke-width="1.5"/><circle cx="744.2" cy="249.2" r="3.5" fill="#7dcfff" stroke="#1a1b26" stroke-width="1.5"/><circle cx="751.4" cy="249.2" r="3.5" fill="#7dcfff" stroke="#1a1b26" stroke-width="1.5"/><circle cx="758.5" cy="249.2" r="3.5" fill="#7dcfff" stroke="#1a1b26" stroke-width="1.5"/><circle cx="765.7" cy="249.2" r="3.5" fill="#7dcfff" stroke="#1a1b26" stroke-width="1.5"/><circle cx="772.8" cy="249.2" r="3.5" fill="#7dcfff" stroke="#1a1b26" stroke-width="1.5"/><circle cx="780.0" cy="249.2" r="3.5" fill="#7dcfff" stroke="#1a1b26" stroke-width="1.5"/>
  <rect x="50" y="278" width="10" height="10" rx="2" fill="#7aa2f7"/><text x="64" y="286" fill="#565f89" font-size="11" font-family="monospace">History of God</text><rect x="290" y="278" width="10" height="10" rx="2" fill="#9ece6a"/><text x="304" y="286" fill="#565f89" font-size="11" font-family="monospace">The Prince</text><rect x="530" y="278" width="10" height="10" rx="2" fill="#e0af68"/><text x="544" y="286" fill="#565f89" font-size="11" font-family="monospace">Python for Data Science For …</text><rect x="50" y="278" width="10" height="10" rx="2" fill="#bb9af7"/><text x="64" y="286" fill="#565f89" font-size="11" font-family="monospace">Crucial Conversations: Tools…</text><rect x="290" y="278" width="10" height="10" rx="2" fill="#7dcfff"/><text x="304" y="286" fill="#565f89" font-size="11" font-family="monospace">Eloquent JavaScript</text>
</svg>